<?xml version="1.0" encoding="UTF-8"?><svg id="Layer_1" xmlns="http://www.w3.org/2000/svg" viewBox="0 0 115 115"><defs><style>.cls-1,.cls-2{fill:#fff;}.cls-3{fill:#5277dd;}.cls-4{fill:#d1de6e;}.cls-5,.cls-2{opacity:.5;}.cls-6{fill:#FF564E;}.cls-7{fill:#ffb52f;}.cls-8{fill:#e6e6e6;}.cls-9{fill:#00356b;}</style></defs><ellipse class="cls-8" cx="53.05" cy="102.11" rx="27.2" ry="4.3"/><path class="cls-9" d="m49.41,62.5c0,.09-.02.2-.07.28-.05.08-.12.14-.19.19-.16.09-.37.1-.53,0-.04-.02-.07-.05-.1-.08-.03-.03-.06-.07-.07-.11-.04-.08-.06-.17-.06-.26,0-.09.03-.18.07-.25.02-.04.05-.07.08-.1.03-.03.07-.06.11-.08.01,0,.02,0,.03,0,.01,0,.02-.02.03-.02.11-.05.22-.07.34-.04.03,0,.05.02.07.03.02.01.04.02.06.03.05.03.09.07.13.12.04.05.06.1.08.16.02.05.02.1.03.15Z"/><path class="cls-9" d="m63.65,59.92s0,.03,0,.05c0,.02,0,.04-.01.06-.02.06-.04.09-.08.13,0,0,0,0-.01,0-.02.02-.04.04-.06.05-.09.05-.2.06-.29.03-.08,0-.16-.02-.24-.06-.07-.04-.12-.1-.16-.16-.02-.03-.03-.07-.04-.11,0-.04-.01-.07-.01-.11,0-.08.03-.16.07-.22.04-.06.1-.13.17-.15.01,0,.03-.01.04-.02.03-.03.06-.05.09-.08.12-.08.29-.05.39.05.06.06.09.14.11.22,0,.04.01.08.01.12,0,.01.01.02.02.03.02.06.02.12,0,.18Z"/><path class="cls-9" d="m64.25,67.73c-.13-.63-.27-1.2-.66-1.72-.37-.5-.81-.88-1.44-1-.76-.14-1.52.04-2.27.11-.78.07-1.56.13-2.34.26-1.59.26-3.16.65-4.75.91-.05,0-.1.03-.12.06-.48.25-.72.73-.84,1.24-.15.58-.18,1.15-.14,1.75.05.63.16,1.25.25,1.88.1.66.15,1.34.35,1.98.36,1.16,1.23,1.99,2.34,2.43,1.26.5,2.69.44,4,.25,1.32-.19,2.65-.58,3.84-1.19.5-.26.99-.58,1.35-1.02.41-.48.58-1.04.64-1.66.16-1.42.07-2.88-.21-4.29Zm-.38,4.81c-.14.51-.47.92-.88,1.24-.91.71-2.12,1.09-3.22,1.37-2.08.52-5.23.82-6.61-1.24-.36-.54-.51-1.18-.61-1.82-.1-.66-.19-1.32-.28-1.97-.09-.63-.17-1.29-.06-1.92.09-.53.22-1.15.74-1.42,1.27-.22,2.53-.51,3.8-.74.63-.12,1.26-.23,1.89-.3.62-.07,1.24-.1,1.86-.18.62-.08,1.36-.2,1.95.07.44.2.83.72,1.02,1.15.25.56.33,1.24.42,1.85.1.66.14,1.34.14,2.01,0,.63,0,1.3-.17,1.91Z"/><path class="cls-9" d="m97.15,33.66c0-.47-.04-1.18-.53-1.42-.53-.26-1.25-.13-1.82-.13-1.31-.01-2.48-.46-3.66-1-.56-.26-1.13-.51-1.72-.69-.56-.17-1.13-.28-1.71-.36-1.19-.17-2.4-.2-3.59-.34-.59-.07-1.17-.17-1.75-.34-.58-.17-1.11-.42-1.66-.66-1.01-.45-2.1-.71-3.05,0-1.07.81-1.36,2.24-1.59,3.48-.26,1.41-.37,2.85-.3,4.29-.22.09-.42.23-.59.42-.17.18-.29.38-.35.6,0,.01-.01.02-.02.03-.32.81-.52,1.65-.66,2.51-.13.85-.15,1.67.12,2.5.49,1.53,2.04,2.52,3.48,3.05,1.23.45,2.49.79,3.75,1.12,0,.05-.02.11-.02.16-.04.25-.09.5-.06.75.03.3.16.55.36.75-.38,1.33-.76,2.65-1.15,3.97-.19-.02-.37-.01-.55.01-.82.13-1.43.67-1.76,1.41-.1.21-.2.4-.41.52-.21.12-.46.17-.69.23-.53.13-1.08.22-1.62.27-1.06.1-2.15.16-3.21.1-1.07-.07-2.08-.47-3.04-.94-1.85-.91-3.51-2.15-5.4-2.98-.33-.15-.67-.28-1-.4-.13-.41-.28-.81-.47-1.19-.23-.47-.55-.94-1.02-1.19-.43-.23-1-.28-1.41.02-.25.18-.43.46-.46.76-.02.02-.03.04-.04.06-1.68.14-3.37.28-4.99.73-1.67.46-3.18,1.35-4.85,1.8-.96.26-1.94.41-2.93.45-.06,0-.1.03-.13.06-.48-.77-1.16-1.45-2.14-1.31-.96.14-1.38,1.26-.89,2.03-.02,0-.04,0-.06.02-3.01,1.33-6.07,2.7-8.63,4.81-1.14.94-2.17,2.03-2.97,3.27-.83,1.3-1.49,2.86-1.32,4.43.16,1.52,1.05,2.83,2.06,3.93,1.06,1.16,2.27,2.19,3.55,3.1,1.24.88,2.57,1.69,3.98,2.27-.56,3.63-1.03,7.28-1.25,10.94-.15,2.55-.16,5.11-.06,7.66-.11.11-.12.3.02.39,0,.06,0,.12,0,.18.07,1.53.16,3.06.25,4.58,0,0,0,.01,0,.02-.06.28-.14.54-.28.8-.22.41-.51.79-.7,1.22-.36.79-.19,1.87.62,2.31.32.17.61.23.96.26.58.06,1.16.11,1.75.13,1.17.05,2.34.02,3.5-.08.97-.09,2.04-.16,2.85-.78.81-.61,1.18-1.61,1.6-2.5.92-1.96,1.89-3.88,2.8-5.85.49-1.06.96-2.13,1.39-3.22-.1.62-.2,1.25-.27,1.87-.2,1.63-.33,3.26-.51,4.9-.09.88-.26,1.76-.3,2.64-.02.41,0,.83.18,1.2.14.32.39.54.66.75.67.51,1.43.77,2.24.97.87.2,1.75.28,2.64.26.51-.01,1.01-.05,1.52-.11.49-.05,1.03-.07,1.5-.25.36-.14.66-.4.75-.79.08-.38.04-.78,0-1.17.87-1.34,1.78-2.65,2.61-4.02.94-1.55,1.76-3.18,2.45-4.86.63-1.53,1.21-3.08,1.61-4.69.33-1.31.6-2.62.76-3.97.33-2.83.32-5.71.17-8.55-.17-3.13-.52-6.26-1.13-9.34-.04-.18-.07-.36-.11-.54-.1-.5-.21-1-.33-1.5,0-.01,0-.02,0-.03,1.72.59,3.54.83,5.35.76h0c.09.05.21.04.29-.01.38-.02.76-.06,1.14-.11.01,0,.02,0,.03,0,.06,0,.11,0,.16-.02,0,0,0,0,0,0,.76-.1,1.52-.26,2.27-.47-.5,1.79-.99,3.57-1.45,5.37-.97,3.73-1.89,7.48-2.8,11.22-.92,3.79-1.79,7.6-2.49,11.43-.23,1.27-.44,2.54-.63,3.82-.04.07-.06.15-.03.22h0c-.08.55-.16,1.1-.22,1.65-.12.93-.22,1.87-.3,2.8-.07.72-.18,1.49.03,2.2.15.5.6,1.15,1.21,1.02.46-.1.7-.56.84-.96.21-.59.27-1.23.33-1.85.07-.7.12-1.4.19-2.09.42-3.97,1.02-7.93,1.75-11.85.73-3.94,1.59-7.84,2.55-11.73.96-3.91,2.01-7.8,3.11-11.68.04-.15.08-.29.12-.44.58-.29,1.13-.64,1.64-1.04.84-.67,1.56-1.52,2.06-2.47.49-.93.89-2.1.71-3.16-.16-.91-.91-1.73-1.83-1.9-.02,0-.05,0-.07-.01.25-.83.5-1.66.74-2.49.26-.88.53-1.76.79-2.64.34-.07.6-.28.78-.6.15-.27.29-.55.4-.85.21.04.41.08.62.11.92.13,1.85.28,2.78.31,1.62.06,3.51-.03,4.79-1.16.66-.59.99-1.42,1.32-2.22.19-.46.36-.93.53-1.4.15-.45.33-.9.42-1.36.1-.53,0-1.01-.27-1.38.6-1.02,1.09-2.09,1.46-3.21.19-.58.35-1.17.48-1.78.12-.59.24-1.21.23-1.82Zm-29.11,20.16c.66.38,1.34.73,2.05,1.01,0,0,0,0,.01,0-.57,2.22-1.48,4.3-2.68,6.13-.04-.12-.07-.23-.11-.34-.04-.11-.08-.23-.12-.34-.28-.81-.61-1.61-.98-2.38-.12-.24-.24-.48-.38-.71-.16-.28-.6-.04-.44.25.84,1.48,1.41,3.1,1.87,4.75-.15-.22-.3-.43-.45-.64-.74-1.06-1.47-2.12-2.21-3.18-.03-.05-.08-.08-.12-.09-.01-.1-.03-.2-.04-.3-.33-2.28-.73-4.58-1.33-6.81,1.75.69,3.3,1.74,4.93,2.66Zm-7.42-5.32c.45-.05.85.26,1.1.6.27.38.47.81.63,1.26.07.2.13.39.18.59.07.23.12.47.18.7.5,2.01.88,4.05,1.19,6.1.07.5.14,1.01.21,1.51.06.5.16,1.01.12,1.51-.03.42-.19.84-.59,1.02-.38.16-.67-.05-.82-.4-.18-.41-.25-.89-.35-1.33-.11-.48-.22-.96-.32-1.45-.21-1-.4-2-.59-3-.33-1.72-.68-3.44-1.13-5.13-.05-.18-.1-.36-.15-.54-.05-.18-.11-.37-.16-.55,0-.04,0-.08-.01-.13-.15-.37.13-.75.51-.79Zm-8.92,2.77c.81-.34,1.6-.72,2.44-.98.82-.26,1.67-.44,2.52-.56.55-.08,1.1-.14,1.66-.19,0,.14-.02.29-.04.43h0c-.13.08-.15.28-.05.39-.21,1.3-.73,2.57-1.8,3.38-.67.51-1.52.78-2.34.9-.54.08-1.09.09-1.62.03-.44-.05-.95-.13-1.34-.35-.87-.49-1.58-1.35-2.15-2.18.94-.19,1.85-.48,2.74-.85Zm-3.28.95c.58.88,1.3,1.73,2.17,2.34.84.59,2.02.69,3.01.62,1.8-.12,3.5-.92,4.39-2.54.38-.69.6-1.45.73-2.23.03-.17.05-.34.07-.51.02-.14.03-.28.04-.42h0c.17-.03.35-.04.52-.06,0,.16,0,.32,0,.48,0,.17-.02.34-.04.51-.23,1.85-1.29,3.65-2.89,4.58-.98.57-2.05.8-3.18.82-1.13.02-2.21-.23-3.12-.91-.94-.71-1.68-1.66-2.4-2.59.24-.03.48-.06.72-.1Zm-1.24.15c0,.05.01.11.06.16.73.94,1.47,1.9,2.4,2.65.93.75,2.05,1.12,3.24,1.14,1.2.02,2.37-.16,3.44-.71,1.03-.52,1.84-1.29,2.44-2.27.53-.88.9-1.87,1.03-2.9.03,0,.06,0,.09,0,.49,1.81.86,3.65,1.22,5.5.1.5.19,1.01.29,1.51-.64.39-1.32.72-2.01,1-.7.28-1.41.5-2.14.7-1.54.41-3.15.78-4.75.81-.94.02-1.87-.09-2.77-.36-.02,0-.03,0-.05,0h0s-.02-.06-.03-.08c-.36-1.17-.79-2.31-1.25-3.44-.44-1.1-.87-2.21-1.39-3.28-.06-.13-.13-.26-.2-.39.12,0,.25-.01.37-.02Zm-3.19-.75c.22-.39.7-.45,1.09-.32.92.3,1.38,1.47,1.74,2.28.86,1.95,1.68,3.93,2.32,5.97.32,1.01.58,2.04.76,3.09.06.37.12.8-.01,1.16-.14.39-.53.53-.91.4-.89-.32-1.01-1.59-1.23-2.36-.09-.3-.18-.61-.27-.91-.05-.16-.09-.31-.15-.47-.18-.58-.37-1.16-.57-1.73-.39-1.14-.83-2.27-1.29-3.38-.4-.94-.77-1.87-1.37-2.7,0,0,0,0,0,0,0-.02-.02-.03-.03-.05-.23-.26-.24-.66-.07-.96Zm-1.29,2.09c.36-.16.72-.32,1.07-.48.03-.02.06-.04.08-.06,0,0,0,0,0,0,.5.77.84,1.61,1.19,2.45.49,1.16.93,2.34,1.33,3.53.19.57.38,1.15.55,1.72-.17.33-.39.64-.61.93-.37.49-.77.95-1.19,1.4-.75.82-1.54,1.61-2.35,2.37-.13.12-.25.24-.38.36-.11-.08-.22-.15-.33-.23,0,0,0,0,0,0,.04-.54.1-1.07.18-1.6.01-.03.01-.05.01-.08.12-.91.28-1.8.48-2.69.07-.32-.41-.46-.48-.14-.16.73-.3,1.46-.42,2.19-.85-1.14-1.87-2.14-2.98-3.03-.64-.51-1.31-.99-2.02-1.4-.56-.32-1.16-.66-1.8-.81,2.26-1.92,4.96-3.22,7.65-4.42Zm-9.32,15.55c-.97-1-1.91-2.16-2.21-3.56-.31-1.48.25-2.99,1-4.25.64-1.08,1.47-2.04,2.4-2.89.76.06,1.48.51,2.13.88.68.4,1.34.87,1.95,1.37,1.17.95,2.25,2.04,3.11,3.29-.06.42-.1.84-.14,1.26-.1-.07-.2-.14-.29-.22-.64-.5-1.26-1.03-1.86-1.57-.24-.22-.6.13-.36.35.44.4.9.8,1.37,1.19-1.35.29-2.6,1.01-3.63,1.92-1.03.91-1.7,2.15-2.21,3.41-.43-.38-.85-.77-1.25-1.18Zm1.65,1.53c.49-1.25,1.14-2.5,2.16-3.39,1.07-.94,2.37-1.64,3.79-1.87.15.12.31.24.46.36-1.06.33-2.07.81-2.94,1.51-.86.68-1.56,1.55-2.1,2.5-.26.46-.49.93-.7,1.42-.23-.17-.45-.35-.67-.53Zm1.74,1.32c-.22-.15-.44-.32-.66-.48.5-1.18,1.13-2.32,2.03-3.23,1.05-1.07,2.38-1.74,3.82-2.13.36.26.73.51,1.1.75.35.22.73.39,1.15.41.45,0,.86-.2,1.3-.25.37-.04.75.06.76.5,0,.37-.13.73-.32,1.04-.09-.03-.18-.07-.27-.1-.3-.11-.44.38-.14.49.6.22,1.23.45,1.73.85.56.45.8,1.11.68,1.82-.24,1.38-1.45,2.43-2.74,2.82-1.55.48-3.14.22-4.64-.36-.02-.01-.04-.02-.06-.02-1.35-.53-2.62-1.33-3.74-2.1Zm12.88,26.11c-.42.89-.79,1.81-1.28,2.67-.23.41-.52.8-.92,1.05-.4.25-.86.37-1.32.45-2.12.36-4.32.28-6.45.07-.36-.03-.78-.18-.98-.51-.27-.44-.23-1.01,0-1.46.22-.42.51-.8.71-1.23.2-.43.29-.87.34-1.34.01-.11-.04-.18-.12-.22-.04-.63-.08-1.26-.11-1.89.17.04.35.07.52.1.31.06.61.13.92.2.82.17,1.66.28,2.49.35,1.68.14,3.38.1,5.06-.08.73-.08,1.45-.18,2.17-.31-.35.72-.7,1.44-1.04,2.16Zm1.31-2.72c-1.51.31-3.06.48-4.6.52-1.67.05-3.36-.04-5-.35-.36-.07-.72-.16-1.08-.23-.26-.05-.53-.08-.78-.16-.03-.52-.05-1.04-.08-1.56,3.2.67,6.54.79,9.79.56.83-.06,1.64-.15,2.46-.27-.23.5-.47,1-.71,1.5Zm13.85.22c-.78,1.38-1.67,2.69-2.54,4.01-.23.34-.45.68-.67,1.03-.05.07-.05.14-.03.2,0,0,0,0,0,0,.05.33.09.69.03,1.02-.07.35-.41.48-.72.54-.84.17-1.74.23-2.59.25-.82.02-1.63-.05-2.43-.24-.76-.18-1.46-.4-2.09-.86-.27-.2-.5-.41-.6-.74-.11-.37-.09-.77-.05-1.15.09-.82.2-1.63.29-2.44.04-.42.09-.85.13-1.27,1.4.38,2.87.5,4.32.49,1.65,0,3.31-.17,4.94-.44.68-.11,1.35-.25,2.02-.4,0,0,0,0,0,.01Zm.89-1.69c-.18.36-.36.73-.55,1.09-3.01.75-6.2,1.14-9.3.84-.76-.07-1.52-.21-2.26-.41.05-.47.09-.94.14-1.42,3.19.52,6.5.54,9.71.21.76-.08,1.52-.18,2.27-.32t0,0Zm3.4-20.29c.2,2.89.24,5.8,0,8.69-.24,2.77-.89,5.51-1.9,8.1-.38.99-.79,1.97-1.24,2.93,0,0-.01,0-.02,0-3.19.62-6.54.71-9.78.45-.8-.06-1.6-.16-2.39-.29.03-.26.06-.52.09-.78.22-1.87.55-3.72.99-5.55.15,0,.31,0,.46-.01,1.44-.05,2.9-.32,4.24-.86.66-.27,1.3-.61,1.84-1.08.24-.21-.11-.57-.35-.36-.95.82-2.22,1.24-3.42,1.51-1.3.29-2.66.39-3.98.24-.57-.07-1.16-.19-1.68-.45-.29-.15-.55.29-.26.43.79.41,1.71.55,2.61.58-.64,2.12-1.48,4.17-2.4,6.17-.02,0-.04,0-.06,0-3.29.53-6.72.54-10.03.14-.82-.1-1.63-.23-2.44-.4-.04-.94-.06-1.89-.07-2.83-.02-3.02.16-6.04.48-9.05.23-2.18.53-4.36.86-6.53,1.44.52,3.03.74,4.52.32,1.38-.39,2.63-1.38,3.11-2.76.24-.68.24-1.47-.13-2.11-.34-.59-.94-.97-1.54-1.24-.07-.03-.14-.06-.22-.09.28-.5.48-1.15.26-1.67-.25-.59-.95-.64-1.49-.52-.38.09-.76.25-1.16.18-.37-.07-.69-.29-.99-.5-.07-.05-.13-.1-.2-.14.44-.39.86-.82,1.27-1.24.9-.89,1.78-1.82,2.56-2.82.16-.21.32-.43.47-.65.12.4.23.79.34,1.19.24.9.66,1.95,1.74,2.02.43.03.85-.2,1.06-.58.2-.37.22-.82.18-1.24-.1-.93-.33-1.87-.6-2.77.75.2,1.51.29,2.27.3.83.01,1.66-.07,2.48-.21,1.58-.27,3.18-.65,4.68-1.21.77-.29,1.51-.64,2.22-1.06t0,0c.09.45.18.89.28,1.34.12.56.25,1.12.39,1.67.1.41.22.85.55,1.14.72.61,1.68-.04,1.92-.8.16-.53.09-1.09.02-1.62-.02-.15-.04-.29-.05-.44.59.84,1.17,1.69,1.76,2.53.43.62.86,1.24,1.26,1.88.07.3.14.61.21.91.66,3.01,1.05,6.08,1.27,9.16Zm3.56-10.02c-1.56-.02-3.11-.28-4.58-.81-.04-.01-.08-.02-.12-.01-.11-.43-.22-.85-.35-1.28,1.34-1.96,2.34-4.19,2.96-6.6.01,0,.02,0,.03.01.51.18,1.03.28,1.56.33h0c-.42,2.83.3,5.64,1.07,8.35-.2,0-.39,0-.58,0Zm1.1-.03c-.77-2.68-1.53-5.49-1.09-8.29.23,0,.46.01.7,0-.08,2.79.33,5.58,1.24,8.21-.28.03-.56.06-.84.07Zm1.35-.14c-.91-2.62-1.33-5.38-1.24-8.16.89-.03,1.79-.07,2.67-.22.47-.08.96-.17,1.41-.35.38-.15.62-.41.79-.79.18-.4.4-.72.79-.95.28-.16.62-.26.95-.25.09,0,.19.01.28.03.07.01.14.04.22.07.35.15.71.47.58.85-.13.37-.64.46-.98.51-.01,0-.02,0-.03,0-.04,0-.07.02-.1.04l-.45.15h0c-.4,1.35-.8,2.7-1.19,4.05-.43,1.49-.87,2.97-1.28,4.46-.79.25-1.6.42-2.4.54Zm5.34-8.82s0,0,0,0c0,0,0,0,0,0h0Zm-9.05,45.01c-.05.62-.09,1.25-.22,1.87-.07.35-.17,1.05-.56,1.21-.22.09-.44-.14-.54-.31-.16-.26-.21-.58-.23-.88-.06-.81.09-1.66.17-2.46.11-1.06.24-2.12.39-3.18.02,0,.04.01.06.02.22.06.44.09.66.11.22.02.46.02.66-.06-.15,1.22-.29,2.45-.39,3.68Zm7.73-37.36c-.06.21-.12.43-.18.64-.78,2.77-1.54,5.54-2.26,8.32-.98,3.81-1.89,7.64-2.69,11.49-.79,3.81-1.46,7.64-1.98,11.49-.05.37-.1.73-.15,1.1-.07.01-.13.06-.18.12h0s-.01.02-.02.02c0,0-.03.02-.04.03h0s-.05.02-.06.02c-.02,0-.05,0-.07.01-.01,0-.02,0-.02,0h0s-.02,0-.03,0c-.03,0-.06,0-.1,0-.07,0-.15,0-.22-.01-.15-.02-.3-.04-.45-.07-.07-.02-.14-.04-.21-.06.1-.65.2-1.3.31-1.95.62-3.76,1.43-7.49,2.31-11.2.87-3.68,1.79-7.34,2.71-11.01.67-2.65,1.37-5.29,2.11-7.93.06-.2.11-.4.17-.59.18-.65.37-1.31.56-1.96.33-1.14.66-2.28,1-3.41.05.33.15.64.28.94.06.14.14.29.23.43-.12.39-.23.78-.34,1.17-.23.79-.46,1.59-.68,2.38Zm3.1-7.67c.9.29,1.33,1.2,1.26,2.09-.15,1.88-1.4,3.64-2.9,4.72-.27.19-.55.37-.84.54.26-.92.53-1.84.79-2.76.34.33.78.53,1.27.42.32-.07.19-.56-.13-.49-.4.09-.73-.17-.98-.5-.14-.18-.25-.39-.33-.56,0-.01-.01-.03-.02-.04-.32-.72-.37-1.6-.05-2.32.21-.48.59-.91,1.05-1.09.17-.06.36-.09.55-.08.1,0,.21.02.32.06Zm-.36-1.68c-.18-.27-.45-.45-.76-.56.15-.5.29-.99.44-1.49.22-.76.44-1.51.65-2.27.26.15.56.26.87.31-.4,1.34-.8,2.67-1.2,4.01Zm2.06-4.84c-.11.19-.24.33-.47.36-.21.02-.42-.03-.61-.1-.2-.07-.44-.17-.62-.31-.13-.1-.24-.23-.29-.4-.07-.24,0-.51.03-.75,0-.04.01-.09.02-.13.21.06.43.11.64.17.56.15,1.1.31,1.66.44-.1.25-.22.49-.35.72Zm10.69-5.98c-.13.43-.28.86-.44,1.28-.29.81-.58,1.67-1.05,2.39-.91,1.39-2.66,1.58-4.17,1.62-.85.02-1.68-.08-2.53-.18-.5-.06-1-.13-1.49-.22-.17-.03-.33-.06-.5-.1-.23-.05-.46-.11-.69-.17-.57-.16-1.14-.31-1.71-.46-.16-.04-.32-.09-.49-.13-.81-.22-1.62-.44-2.42-.68-1.47-.46-3.04-1.03-4-2.31-.92-1.24-.6-3.01-.24-4.39.07-.27.16-.54.25-.8.06-.04.11-.1.11-.19,0-.06.01-.11.02-.16,0,0,0-.01,0-.02,0-.01,0-.03,0-.04.19-.66,1.03-.87,1.65-.82.45.03.89.16,1.32.27.44.11.88.23,1.31.34,1.75.46,3.49.95,5.26,1.36,1.77.41,3.55.72,5.35.87.9.08,1.81.13,2.7.32.62.14,1.49.33,1.79.96.19.4.06.87-.07,1.27Zm1.88-7.26c-.11.62-.26,1.23-.45,1.83-.36,1.16-.85,2.27-1.45,3.33-.07-.05-.15-.1-.23-.15-.74-.41-1.65-.54-2.48-.64-.97-.12-1.95-.16-2.92-.28-.98-.12-1.96-.29-2.93-.5-1.93-.4-3.83-.93-5.73-1.44-.94-.25-1.89-.55-2.84-.72-.39-.07-.8-.09-1.18-.03-.04-1.16.02-2.33.2-3.48.09-.58.2-1.15.36-1.72.14-.53.32-1.05.64-1.5.29-.41.71-.74,1.2-.85.55-.12,1.11.06,1.61.27.5.21.99.46,1.5.65.51.18,1.04.3,1.57.39,2.21.37,4.5.2,6.62,1.04,1.08.43,2.1,1.02,3.24,1.28.58.13,1.18.2,1.78.19.3,0,.59-.02.88,0,.29.02.59.02.68.34.17.65.07,1.35-.05,2Z"/><path class="cls-9" d="m51.67,94c-.23.5-.47,1-.71,1.5-1.51.31-3.06.48-4.6.52-1.67.05-3.36-.04-5-.35-.36-.07-.72-.16-1.08-.23-.26-.05-.53-.08-.78-.16-.03-.52-.05-1.04-.08-1.56,3.2.67,6.54.79,9.79.56.83-.06,1.64-.15,2.46-.27Z"/><path class="cls-7" d="m50.69,96.06c-.12.24-.23.48-.35.73-.07.15-.14.29-.21.44-.16.33-.32.66-.48.99-.42.89-.79,1.81-1.28,2.67-.23.41-.52.8-.92,1.05-.4.25-.86.37-1.32.45-2.12.36-4.32.28-6.45.07-.36-.03-.78-.18-.98-.51-.27-.44-.23-1.01,0-1.46.22-.42.51-.8.71-1.23.2-.43.29-.87.34-1.34.01-.11-.04-.18-.12-.22-.02-.23-.03-.47-.04-.7-.01-.14-.02-.28-.02-.43-.02-.25-.03-.51-.04-.76.17.04.35.07.52.1.31.06.61.13.92.2.82.17,1.66.28,2.49.35,1.68.14,3.38.1,5.06-.08.73-.08,1.45-.18,2.17-.31Z"/><path class="cls-9" d="m71.8,96.07c-.15,1.22-.29,2.45-.39,3.68-.05.62-.09,1.25-.22,1.87-.07.35-.17,1.05-.56,1.21-.22.09-.44-.14-.54-.31-.16-.26-.21-.58-.23-.88-.06-.81.09-1.66.17-2.46.11-1.06.24-2.12.39-3.18.02,0,.04.01.06.02.22.06.44.09.66.11.22.02.46.02.66-.06Z"/><path class="cls-7" d="m64.82,95.7s0,0,0,.01c-.17.29-.34.59-.52.88l-.3.49c-.56.89-1.14,1.76-1.72,2.64-.23.34-.45.68-.67,1.03-.05.07-.05.14-.03.2,0,0,0,0,0,0,.05.33.09.69.03,1.02-.07.35-.41.48-.72.54-.84.17-1.74.23-2.59.25-.82.02-1.63-.05-2.43-.24-.76-.18-1.46-.4-2.09-.86-.27-.2-.5-.41-.6-.74-.11-.37-.09-.77-.05-1.15.09-.82.2-1.63.29-2.44,0-.09.02-.19.03-.29.01-.13.03-.27.04-.4.02-.2.04-.39.06-.59,1.4.38,2.87.5,4.32.49,1.65,0,3.31-.17,4.94-.44.68-.11,1.35-.25,2.02-.4Z"/><path class="cls-9" d="m65.71,94.02s0,0,0,0c-.18.36-.36.73-.55,1.09-3.01.75-6.2,1.14-9.3.84-.76-.07-1.52-.21-2.26-.41.05-.47.09-.94.14-1.42,3.19.52,6.5.54,9.71.21.76-.08,1.52-.18,2.27-.32Z"/><path class="cls-3" d="m96.51,34.94c-.11.62-.26,1.23-.45,1.83-.36,1.16-.85,2.27-1.45,3.33-.07-.05-.15-.1-.23-.15-.18-.1-.37-.18-.56-.25-.06-.02-.13-.04-.19-.06-.24-.08-.49-.13-.74-.18-.07-.01-.13-.03-.2-.03-.26-.04-.53-.08-.78-.11-.25-.03-.5-.06-.74-.08-.07,0-.14-.01-.21-.02-.24-.02-.49-.04-.73-.06-.07,0-.14-.01-.21-.02-.29-.03-.59-.05-.88-.09-.05,0-.1-.01-.15-.02-.02,0-.03,0-.05,0-.44-.05-.89-.12-1.33-.2l-.2-.03c-.28-.05-.55-.1-.83-.15-.07-.01-.13-.03-.2-.04-.11-.02-.22-.04-.33-.07-.39-.08-.78-.17-1.17-.26-.07-.01-.13-.03-.2-.04-.42-.1-.84-.2-1.25-.31-.06-.02-.13-.03-.19-.05-.21-.05-.43-.11-.65-.17-.06-.02-.13-.03-.19-.05-.46-.12-.91-.24-1.37-.37-.06-.02-.13-.03-.19-.05-.17-.04-.35-.09-.52-.14-.27-.07-.54-.15-.82-.23-.07-.02-.13-.04-.2-.06-.23-.06-.47-.13-.7-.19-.06-.02-.13-.03-.19-.05-.31-.08-.62-.15-.93-.2-.05,0-.1-.02-.16-.03-.07,0-.13-.02-.2-.02-.28-.03-.56-.02-.83.02-.04-1.16.02-2.33.2-3.48.09-.58.2-1.15.36-1.72.14-.53.32-1.05.64-1.5.29-.41.71-.74,1.2-.85.09-.02.18-.03.27-.03.07,0,.15,0,.22,0,.34.02.68.13,1,.26.04.01.08.03.12.05.02.01.05.02.07.03.22.09.43.19.64.29.06.03.12.05.18.08.2.09.39.17.6.24.29.1.59.19.89.26.06.01.13.03.19.04.16.03.32.06.49.09.33.05.66.1.99.13.07,0,.13.02.2.02.19.02.38.04.58.05.07,0,.14,0,.21.01.49.04.98.08,1.46.13.07,0,.14.01.21.02.57.06,1.13.14,1.69.27.07.01.13.03.2.05h0c.23.06.45.12.67.2h0c.06.02.13.04.19.07.07.03.14.05.22.08.44.18.87.38,1.3.57.06.03.12.06.18.08.24.11.48.21.72.3.06.02.13.05.19.07.24.09.48.16.73.22.04.01.07.02.11.03l.08.02c.46.1.93.16,1.4.17.07,0,.14,0,.21,0,.03,0,.06,0,.09,0,.18,0,.36-.01.54-.01.07,0,.13,0,.2,0,.05,0,.1,0,.15,0,.29.02.59.02.68.34.17.65.07,1.35-.05,2Z"/><path class="cls-6" d="m69.11,73.74c-.21-3.07-.61-6.15-1.27-9.16-.07-.3-.13-.61-.21-.91-.4-.64-.83-1.26-1.26-1.88-.59-.84-1.17-1.69-1.76-2.53.02.15.04.29.05.44.07.54.14,1.1-.02,1.62-.24.76-1.2,1.41-1.92.8-.33-.28-.45-.73-.55-1.14-.14-.55-.27-1.11-.39-1.67-.1-.44-.19-.89-.28-1.34t0,0c-.71.42-1.45.77-2.22,1.06-1.5.56-3.1.95-4.68,1.21-.82.14-1.66.22-2.48.21-.76,0-1.52-.1-2.27-.3.27.91.5,1.84.6,2.77.04.41.03.86-.18,1.24-.21.38-.63.61-1.06.58-1.08-.07-1.5-1.12-1.74-2.02-.11-.4-.22-.8-.34-1.19-.15.23-.31.44-.47.65-.78,1-1.66,1.93-2.56,2.82-.41.41-.83.85-1.27,1.24.07.05.13.1.2.14.3.21.62.43.99.5.4.08.78-.09,1.16-.18.54-.12,1.25-.07,1.49.52.22.52.02,1.18-.26,1.67.07.03.14.06.22.09.6.27,1.2.66,1.54,1.24.37.64.36,1.43.13,2.11-.48,1.38-1.73,2.38-3.11,2.76-1.49.42-3.09.2-4.52-.32-.33,2.17-.63,4.34-.86,6.53-.32,3.01-.5,6.03-.48,9.05,0,.95.03,1.89.07,2.83.81.17,1.62.31,2.44.4,3.31.4,6.73.39,10.03-.14.02,0,.04,0,.06,0,.92-2.01,1.76-4.05,2.4-6.17-.9-.03-1.82-.18-2.61-.58-.29-.15-.03-.58.26-.43.51.26,1.11.39,1.68.45,1.32.15,2.68.05,3.98-.24,1.2-.26,2.47-.69,3.42-1.51.24-.21.6.15.35.36-.55.47-1.18.81-1.84,1.08-1.34.54-2.8.81-4.24.86-.15,0-.3.01-.46.01-.44,1.83-.77,3.68-.99,5.55-.03.26-.06.52-.09.78.79.13,1.59.22,2.39.29,3.24.26,6.58.17,9.78-.45,0,0,.01,0,.02,0,.45-.96.85-1.94,1.24-2.93,1-2.6,1.65-5.33,1.9-8.1.25-2.89.2-5.8,0-8.69Zm-4.64-1.72c-.07.62-.24,1.18-.64,1.66-.36.43-.85.76-1.35,1.02-1.19.61-2.52,1-3.84,1.19-1.31.19-2.74.24-4-.25-1.12-.44-1.98-1.27-2.34-2.43-.2-.64-.25-1.32-.35-1.98-.09-.62-.2-1.25-.25-1.88-.04-.6-.01-1.17.14-1.75.13-.51.37-.99.84-1.24.03-.03.07-.05.12-.06,1.59-.27,3.16-.66,4.75-.91.78-.13,1.55-.19,2.34-.26.76-.07,1.51-.25,2.27-.11.63.12,1.07.49,1.44,1,.39.52.53,1.09.66,1.72.28,1.4.37,2.86.21,4.29Z"/><path class="cls-1" d="m63.87,72.55c-.14.51-.47.92-.88,1.24-.91.71-2.12,1.09-3.22,1.37-2.08.52-5.23.82-6.61-1.24-.36-.54-.51-1.18-.61-1.82-.1-.66-.19-1.32-.28-1.97-.09-.63-.17-1.29-.06-1.92.09-.53.22-1.15.74-1.42,1.27-.22,2.53-.51,3.8-.74.63-.12,1.26-.23,1.89-.3.62-.07,1.24-.1,1.86-.18.62-.08,1.36-.2,1.95.07.44.2.83.72,1.02,1.15.25.56.33,1.24.42,1.85.1.66.14,1.34.14,2.01,0,.63,0,1.3-.17,1.91Z"/><path class="cls-7" d="m47.95,71.76c-.24,1.38-1.45,2.43-2.74,2.82-1.55.48-3.14.22-4.64-.36-.02-.01-.04-.02-.06-.02-1.22-.48-2.38-1.18-3.42-1.88-.11-.07-.21-.15-.32-.22,0,0-.01,0-.02-.01-.22-.15-.43-.31-.64-.47.5-1.18,1.13-2.32,2.03-3.23,1.05-1.07,2.38-1.74,3.82-2.13.18.13.36.25.54.38.14.09.28.19.42.28.05.03.1.07.15.1.35.22.73.39,1.15.41.45,0,.86-.2,1.3-.25.37-.04.75.06.76.5,0,.37-.13.73-.32,1.04-.09-.03-.18-.07-.27-.1-.3-.11-.44.38-.14.49.6.22,1.23.45,1.73.85.56.45.8,1.11.68,1.82Z"/><path class="cls-9" d="m41.45,65.88c-1.06.33-2.07.81-2.94,1.51-.86.68-1.56,1.55-2.1,2.5-.26.46-.49.93-.7,1.42-.23-.17-.45-.35-.67-.53.49-1.25,1.14-2.5,2.16-3.39,1.07-.94,2.37-1.64,3.79-1.87.15.12.31.24.46.36Z"/><path class="cls-1" d="m41.76,64.1c-.06.42-.1.84-.14,1.26-.1-.07-.2-.14-.29-.22-.64-.5-1.26-1.03-1.86-1.57-.24-.22-.6.13-.36.35.44.4.9.8,1.37,1.19-1.35.29-2.6,1.01-3.63,1.92-1.03.91-1.7,2.15-2.21,3.41-.43-.38-.85-.77-1.25-1.18-.97-1-1.91-2.16-2.21-3.56-.31-1.48.25-2.99,1-4.25.64-1.08,1.47-2.04,2.4-2.89.76.06,1.48.51,2.13.88.68.4,1.34.87,1.95,1.37,1.17.95,2.25,2.04,3.11,3.29Z"/><path class="cls-1" d="m46.95,60.88s0,.01-.01.02c-.16.31-.37.6-.58.87,0,.01-.02.02-.02.03-.03.04-.05.07-.08.1-.04.05-.08.11-.12.16-.03.04-.06.07-.08.11-.29.36-.59.7-.9,1.03-.16.17-.32.34-.48.51-.03.03-.06.06-.09.09-.02.02-.03.04-.05.05-.11.11-.21.22-.32.33-.46.47-.93.93-1.41,1.39-.13.12-.25.24-.38.36-.11-.08-.22-.15-.33-.23,0,0,0,0,0,0,.04-.54.1-1.07.18-1.6,0-.02.01-.04.01-.06v-.02c.02-.13.04-.25.06-.38.07-.48.15-.97.25-1.45,0-.04.01-.07.02-.11,0-.04.02-.08.03-.12.02-.09.04-.18.06-.28.02-.12.05-.24.08-.36.07-.32-.41-.46-.48-.14-.03.12-.06.25-.08.37,0,.03-.02.07-.02.1,0,.04-.02.08-.03.12-.02.09-.04.18-.05.28-.09.44-.16.87-.23,1.32-.36-.49-.76-.95-1.18-1.39-.14-.14-.28-.29-.42-.43-.44-.43-.9-.83-1.37-1.22-.61-.49-1.25-.94-1.92-1.34-.03-.02-.07-.04-.1-.06-.56-.32-1.16-.66-1.8-.81.04-.04.08-.07.13-.11.26-.22.52-.42.79-.62.06-.05.12-.09.18-.13.09-.06.18-.13.27-.19h0c.14-.1.27-.19.41-.28.01,0,.02-.02.04-.03.06-.04.12-.08.17-.11.28-.18.56-.36.85-.53.07-.04.15-.08.22-.13.25-.15.5-.29.76-.43.17-.1.35-.19.52-.28h0c.05-.03.11-.06.16-.08.08-.04.16-.08.24-.12h0c.39-.2.79-.39,1.18-.58.09-.04.18-.08.26-.13.32-.15.64-.3.97-.44.02,0,.04-.02.06-.03.11-.05.22-.1.33-.15.03-.02.07-.03.11-.05.05-.02.11-.05.16-.07.3-.14.61-.27.91-.4.03-.02.06-.04.08-.06,0,0,0,0,0,0,.13.2.25.4.36.61.07.14.15.28.21.42.06.12.11.23.16.35.05.11.1.23.15.34.1.24.2.48.31.73.04.1.09.21.13.31.06.14.11.27.17.41.02.04.04.09.05.14h0c.05.12.09.23.14.35.12.29.22.58.33.87.05.13.1.26.14.38,0,0,0,.01,0,.02.04.1.07.2.11.3h0c.09.25.18.5.26.74.05.15.1.31.15.47.05.14.09.27.13.4.05.17.11.34.16.51.03.11.07.23.1.34Z"/><path class="cls-7" d="m49.91,62.63c-.18-1.05-.44-2.08-.76-3.09-.64-2.03-1.46-4.02-2.32-5.97-.36-.81-.81-1.99-1.74-2.28-.4-.13-.88-.06-1.09.32-.17.3-.15.7.07.96.01.01.02.03.03.05,0,0,0,0,0,0,.6.84.97,1.76,1.37,2.7.47,1.11.9,2.24,1.29,3.38.2.58.39,1.15.57,1.73.05.16.1.31.15.47.09.3.18.61.27.91.22.78.35,2.05,1.23,2.36.38.14.77,0,.91-.4.13-.37.08-.79.01-1.16Zm-.58.15c-.05.08-.12.14-.19.19-.16.09-.37.1-.53,0-.04-.02-.07-.05-.1-.08-.03-.03-.06-.07-.07-.11-.04-.08-.06-.17-.06-.26,0-.09.03-.18.07-.25.02-.04.05-.07.08-.1.03-.03.07-.06.11-.08.01,0,.02,0,.03,0,.01,0,.02-.02.03-.02.11-.05.22-.07.34-.04.03,0,.05.02.07.03.02.01.04.02.06.03.05.03.09.07.13.12.04.05.06.1.08.16.02.05.02.1.03.15,0,.09-.02.2-.07.28Z"/><path class="cls-1" d="m58.32,49.53c0,.14-.02.29-.04.43h0c-.13.08-.15.28-.05.39-.21,1.3-.73,2.57-1.8,3.38-.67.51-1.52.78-2.34.9-.54.08-1.09.09-1.62.03-.44-.05-.95-.13-1.34-.35-.87-.49-1.58-1.35-2.15-2.18.94-.19,1.85-.48,2.74-.85.81-.34,1.6-.72,2.44-.98.82-.26,1.67-.44,2.52-.56.55-.08,1.1-.14,1.66-.19Z"/><path class="cls-6" d="m59.35,49.91c0,.17-.02.34-.04.51-.23,1.85-1.29,3.65-2.89,4.58-.98.57-2.05.8-3.18.82-1.13.02-2.21-.23-3.12-.91-.94-.71-1.68-1.66-2.4-2.59.24-.03.48-.06.72-.1.58.88,1.3,1.73,2.17,2.34.84.59,2.02.69,3.01.62,1.8-.12,3.5-.92,4.39-2.54.38-.69.6-1.45.73-2.23.03-.17.05-.34.07-.51.02-.14.03-.28.04-.42h0c.17-.03.35-.04.52-.06,0,.16,0,.32,0,.48Z"/><path class="cls-1" d="m61.41,57.45c-.64.39-1.32.72-2.01,1-.38.15-.76.29-1.15.41-.33.1-.66.2-.99.29-.76.2-1.53.39-2.31.54-.81.15-1.62.25-2.43.27-.28,0-.56,0-.84-.02h0c-.63-.04-1.25-.15-1.86-.33h0s-.04-.01-.06-.02c-.02,0-.03,0-.05,0h0s-.02-.06-.03-.08c-.03-.09-.06-.18-.09-.27-.02-.07-.05-.14-.07-.21-.1-.3-.2-.6-.31-.89,0,0,0-.01,0-.02-.02-.06-.04-.13-.07-.19-.03-.07-.05-.14-.08-.21h0c-.08-.22-.16-.43-.24-.65-.03-.07-.05-.14-.08-.2-.05-.14-.11-.28-.16-.42-.05-.13-.1-.26-.15-.38,0,0,0-.01,0-.02-.03-.08-.06-.16-.1-.24-.03-.07-.06-.14-.08-.21-.16-.4-.32-.79-.48-1.19,0,0,0-.01,0-.02-.03-.06-.05-.12-.08-.19-.03-.08-.06-.15-.1-.23-.1-.24-.2-.47-.31-.7-.03-.07-.06-.14-.09-.2-.04-.09-.09-.19-.13-.28-.06-.13-.13-.26-.2-.39.12,0,.25-.01.37-.02,0,.05.01.11.06.16.14.18.28.36.42.53.05.07.1.13.15.2.2.25.4.49.61.73.07.08.14.15.2.23l.18.19s0,0,0,0c.26.27.54.53.83.76.18.14.37.27.56.39.1.06.21.12.31.17.19.1.39.18.59.26h0c.51.18,1.05.29,1.6.31.01,0,.03,0,.04,0h0s.09,0,.14,0c.28,0,.56,0,.83-.02.41-.03.82-.09,1.21-.18,0,0,0,0,0,0,.35-.08.69-.19,1.03-.34.12-.05.24-.11.36-.17.06-.03.13-.07.19-.1h0s0,0,0,0c.09-.05.17-.1.25-.15.64-.4,1.19-.9,1.64-1.5.07-.09.14-.19.2-.29,0,0,0-.01.01-.02.05-.07.09-.15.14-.22.05-.08.1-.16.14-.24.15-.26.28-.54.4-.82.04-.09.07-.17.1-.26.14-.37.25-.76.33-1.14.01-.08.03-.15.04-.23.01-.07.02-.13.03-.2.03,0,.06,0,.09,0,.01.05.03.1.04.15.02.06.04.13.05.19.08.29.15.58.22.88.02.07.03.13.05.2.07.29.14.58.2.88,0,.04.02.07.02.11.02.06.03.13.04.2,0,.03.01.05.02.08.07.3.13.6.19.9.02.07.03.13.04.2.03.15.06.29.09.44.03.13.05.26.08.4,0,.05.02.09.03.14.01.07.03.14.04.2.03.18.07.36.1.53.01.05.02.11.03.16.01.07.02.13.04.2.01.07.03.13.04.2,0,0,0,0,0,0,.06.32.12.63.18.94Z"/><path class="cls-7" d="m64.12,59.27c-.06-.5-.13-1.01-.21-1.51-.31-2.05-.69-4.09-1.19-6.1-.06-.23-.11-.46-.18-.7-.05-.2-.12-.4-.18-.59-.16-.45-.35-.89-.63-1.26-.25-.34-.65-.66-1.1-.6-.39.05-.66.42-.51.79.02.05.02.09.01.13.06.18.11.37.16.55.05.18.1.36.15.54.45,1.69.8,3.41,1.13,5.13.19,1,.38,2,.59,3,.1.48.21.96.32,1.45.1.44.17.92.35,1.33.15.35.44.56.82.4.41-.18.57-.6.59-1.02.03-.5-.06-1.01-.12-1.51Zm-.47.65s0,.03,0,.05c0,.02,0,.04-.01.06-.02.06-.04.09-.08.13,0,0,0,0-.01,0-.02.02-.04.04-.06.05-.09.05-.2.06-.29.03-.08,0-.16-.02-.24-.06-.07-.04-.12-.1-.16-.16-.02-.03-.03-.07-.04-.11,0-.04-.01-.07-.01-.11,0-.08.03-.16.07-.22.04-.06.1-.13.17-.15.01,0,.03-.01.04-.02.03-.03.06-.05.09-.08.12-.08.29-.05.39.05.06.06.09.14.11.22,0,.04.01.08.01.12,0,.01.01.02.02.03.02.06.02.12,0,.18Z"/><path class="cls-1" d="m70.1,54.84c-.1.4-.22.8-.34,1.19-.05.16-.1.32-.16.48-.22.64-.47,1.26-.75,1.87-.08.18-.16.35-.25.52-.35.72-.75,1.41-1.18,2.06-.04-.12-.07-.23-.11-.34-.04-.11-.08-.23-.12-.34-.07-.21-.15-.41-.22-.61-.02-.06-.05-.13-.07-.19,0,0,0-.02,0-.03-.05-.12-.09-.23-.14-.35-.13-.33-.27-.65-.43-.96-.03-.07-.06-.14-.1-.2,0,0,0-.02-.01-.03-.05-.1-.1-.2-.15-.3-.06-.12-.13-.25-.2-.37,0-.01-.02-.03-.02-.04-.15-.26-.53-.07-.47.18,0,.02.02.05.03.07.06.1.11.2.16.3.11.21.22.42.32.64.03.07.06.14.1.2.1.22.2.44.3.67.05.12.1.25.15.38.04.1.08.2.11.3.03.07.05.14.08.22h0c.21.57.39,1.15.55,1.73.03.11.06.22.09.33-.07-.1-.13-.19-.2-.29-.08-.12-.17-.24-.25-.36-.21-.29-.41-.59-.62-.89-.04-.06-.08-.11-.12-.17-.15-.21-.29-.42-.44-.63-.08-.12-.16-.23-.24-.35-.03-.05-.07-.1-.1-.14-.04-.06-.08-.11-.12-.17-.19-.27-.38-.55-.57-.82-.03-.05-.08-.08-.12-.09-.01-.08-.02-.17-.03-.25,0-.02,0-.03,0-.05,0-.02,0-.05-.01-.07-.01-.08-.02-.16-.04-.24v-.04c-.09-.57-.18-1.13-.27-1.7-.01-.07-.02-.15-.04-.22,0,0,0-.02,0-.02-.02-.13-.05-.25-.07-.38-.06-.33-.12-.65-.18-.98h0s0-.04,0-.05c-.01-.06-.03-.13-.04-.19-.02-.07-.03-.14-.04-.21-.06-.31-.13-.62-.2-.93t0,0c-.02-.1-.05-.2-.07-.3-.02-.09-.04-.18-.06-.27-.03-.13-.06-.26-.1-.39-.07-.26-.14-.53-.21-.79.32.13.64.27.96.42.06.03.12.06.18.09.17.08.34.17.51.26.15.08.3.16.44.24.06.03.12.06.17.1.32.18.63.36.94.54.04.02.09.05.13.08.01,0,.03.02.04.03.13.08.26.15.39.23.17.1.34.2.51.3.06.04.12.07.17.1.15.09.31.18.47.27,0,0,0,0,0,0,.11.06.21.12.32.18.04.02.08.05.13.07.02.01.03.02.05.03.28.15.57.3.86.43.06.03.12.06.18.08.17.08.33.15.51.22,0,0,0,0,.01,0Z"/><path class="cls-1" d="m73.25,63.71c-.2,0-.39,0-.58,0-1.56-.02-3.11-.28-4.58-.81-.04-.01-.08-.02-.12-.01-.11-.43-.22-.85-.35-1.28,1.34-1.96,2.34-4.19,2.96-6.6.01,0,.02,0,.03.01.51.18,1.03.28,1.56.33h0c-.42,2.83.3,5.64,1.07,8.35Z"/><path class="cls-9" d="m74.61,63.62c-.28.03-.56.06-.84.07-.77-2.68-1.53-5.49-1.09-8.29.23,0,.46.01.7,0-.08,2.79.33,5.58,1.24,8.21Z"/><path class="cls-1" d="m80.17,58.82c-.12.39-.23.78-.34,1.17-.23.79-.46,1.59-.68,2.38-.06.21-.12.43-.18.64-.78,2.77-1.54,5.54-2.26,8.32-.98,3.81-1.89,7.64-2.69,11.49-.79,3.81-1.46,7.64-1.98,11.49-.05.37-.1.73-.15,1.1-.07.01-.13.06-.18.12h0s-.01.02-.02.02c0,0-.03.02-.04.03h0s-.05.02-.06.02c-.02,0-.05,0-.07.01-.01,0-.02,0-.02,0h0s-.02,0-.03,0c-.03,0-.06,0-.1,0-.07,0-.15,0-.22-.01-.15-.02-.3-.04-.45-.07-.07-.02-.14-.04-.21-.06.1-.65.2-1.3.31-1.95.62-3.76,1.43-7.49,2.31-11.2.87-3.68,1.79-7.34,2.71-11.01.67-2.65,1.37-5.29,2.11-7.93.06-.2.11-.4.17-.59.18-.65.37-1.31.56-1.96.33-1.14.66-2.28,1-3.41.05.33.15.64.28.94.06.14.14.29.23.43Z"/><path class="cls-7" d="m83.5,56.8c-.15,1.88-1.4,3.64-2.9,4.72-.27.19-.55.37-.84.54.26-.92.53-1.84.79-2.76.34.33.78.53,1.27.42.32-.07.19-.56-.13-.49-.4.09-.73-.17-.98-.5-.14-.18-.25-.39-.33-.56,0-.01-.01-.03-.02-.04-.32-.72-.37-1.6-.05-2.32.21-.48.59-.91,1.05-1.09.17-.06.36-.09.55-.08.1,0,.21.02.32.06.9.29,1.33,1.2,1.26,2.09Z"/><path class="cls-7" d="m81.56,53.8c-.13.37-.64.46-.98.51-.01,0-.02,0-.03,0-.04,0-.07.02-.1.04l-.45.15h0c-.4,1.35-.8,2.7-1.19,4.05-.43,1.49-.87,2.97-1.28,4.46-.43.13-.87.25-1.31.34-.13.03-.27.06-.4.08-.23.04-.46.08-.69.12-.91-2.62-1.33-5.38-1.24-8.16.22,0,.44-.01.66-.03.14,0,.27-.01.4-.02.54-.03,1.07-.08,1.6-.17.47-.08.96-.17,1.41-.35.38-.15.62-.41.79-.79.18-.4.4-.72.79-.95.28-.16.62-.26.95-.25.09,0,.19.01.28.03.07.01.14.04.22.07.35.15.71.47.58.85Z"/><path class="cls-1" d="m83.08,49.02c-.4,1.34-.8,2.67-1.2,4.01-.18-.27-.45-.45-.76-.56.15-.5.29-.99.44-1.49.22-.76.44-1.51.65-2.27.26.15.56.26.87.31Z"/><path class="cls-1" d="m94.7,40.93c-.31-.63-1.17-.82-1.79-.96-.89-.19-1.79-.25-2.7-.32-1.81-.15-3.59-.47-5.35-.87-1.76-.41-3.51-.89-5.26-1.36-.44-.12-.88-.23-1.31-.34-.43-.11-.87-.24-1.32-.27-.58-.04-1.37.14-1.61.72-.01.03-.03.06-.04.1,0,.01,0,.02,0,.04,0,0,0,.01,0,.02-.01.05-.02.1-.02.16,0,.03,0,.06-.02.09-.02.05-.05.08-.09.11-.09.26-.18.53-.25.8-.36,1.38-.68,3.15.24,4.39.95,1.28,2.53,1.86,4,2.31.8.25,1.61.47,2.42.68.16.04.32.09.49.13.57.15,1.14.3,1.71.46.23.07.46.12.69.17.16.04.33.07.5.1.49.09.99.16,1.49.22.85.1,1.67.2,2.53.18,1.51-.04,3.27-.23,4.17-1.62.47-.72.76-1.58,1.05-2.39.15-.42.3-.85.44-1.28.02-.07.04-.14.06-.21.04-.13.07-.27.09-.4.03-.23.02-.45-.08-.66Zm-16.17-.46c-.11.23-.35.39-.6.42-.25.02-.5-.12-.64-.32-.07-.1-.11-.23-.1-.35,0-.15.06-.28.13-.41.06-.12.16-.23.29-.29.11-.05.24-.07.36-.04.19-.03.4.03.52.18.19.23.17.55.05.81Zm13.57,3.08c-.16.17-.41.23-.63.16-.21-.07-.39-.24-.47-.44-.1-.23-.12-.52.03-.73.08-.11.19-.2.32-.23.12-.03.25-.02.36.05.06,0,.12,0,.17.02.14.04.24.12.32.24.07.1.1.23.11.36.02.21-.07.42-.21.58Z"/><path class="cls-9" d="m84.29,47.46c-.1.25-.22.49-.35.72-.11.19-.24.33-.47.36-.21.02-.42-.03-.61-.1-.2-.07-.44-.17-.62-.31-.13-.1-.24-.23-.29-.4-.07-.24,0-.51.03-.75,0-.04.01-.09.02-.13.21.06.43.11.64.17.56.15,1.1.31,1.66.44Z"/><path class="cls-9" d="m78.53,40.48c-.11.23-.35.39-.6.42-.25.02-.5-.12-.64-.32-.07-.1-.11-.23-.1-.35,0-.15.06-.28.13-.41.06-.12.16-.23.29-.29.11-.05.24-.07.36-.04.19-.03.4.03.52.18.19.23.17.55.05.81Z"/><path class="cls-9" d="m92.31,42.98c.02.21-.07.42-.21.58-.16.17-.41.23-.63.16-.21-.07-.39-.24-.47-.44-.1-.23-.12-.52.03-.73.08-.11.19-.2.32-.23.12-.03.25-.02.36.05.06,0,.12,0,.17.02.14.04.24.12.32.24.07.1.1.23.11.36Z"/><g class="cls-5"><path class="cls-1" d="m95.73,32.6c-.01.46-.07.92-.15,1.38-.21,1.12-.59,2.19-.95,3.27-.27.82-.54,1.64-.81,2.45-.06-.02-.13-.04-.19-.06.1-.32.21-.64.32-.97.36-1.09.74-2.17,1.07-3.27.27-.91.49-1.84.52-2.79.07,0,.13,0,.2,0Z"/><path class="cls-1" d="m94.9,32.61c-.09.47-.19.94-.3,1.41-.43,1.85-1.01,3.67-1.72,5.44-.07-.01-.13-.03-.2-.03.08-.19.15-.37.22-.56.78-2.03,1.38-4.12,1.79-6.25.07,0,.14,0,.21,0Z"/><path class="cls-1" d="m93.29,32.44c-.09.29-.18.58-.27.88-.61,1.98-1.23,3.95-1.88,5.92-.07,0-.14-.01-.21-.02.12-.37.24-.73.36-1.1.61-1.9,1.21-3.81,1.79-5.72.04.01.07.02.11.03l.08.02Z"/><path class="cls-1" d="m92.37,32.17l-.4,1.28c-.59,1.9-1.17,3.8-1.76,5.69-.07,0-.14-.01-.21-.02.07-.23.15-.47.22-.7.65-2.11,1.31-4.22,1.96-6.33.06.02.13.05.19.07Z"/><path class="cls-1" d="m91.46,31.79c-.17.47-.33.95-.49,1.42-.65,1.93-1.27,3.87-1.84,5.83-.05,0-.1-.01-.15-.02-.02,0-.03,0-.05,0,.09-.31.18-.62.27-.92.64-2.14,1.34-4.27,2.08-6.38.06.03.12.06.18.08Z"/><path class="cls-1" d="m89.75,31.06c-.13.45-.25.91-.38,1.36-.59,2.13-1.19,4.27-1.78,6.4l-.2-.03c.11-.4.22-.8.33-1.19.61-2.2,1.23-4.4,1.84-6.6h0c.06.02.13.04.19.07Z"/><path class="cls-1" d="m88.89,30.79c-.15.43-.3.86-.45,1.3-.72,2.15-1.35,4.33-1.88,6.54-.07-.01-.13-.03-.2-.04.09-.35.17-.7.27-1.05.59-2.29,1.28-4.56,2.06-6.79.07.01.13.03.2.05Z"/><path class="cls-1" d="m87,30.48c-.13.39-.25.79-.37,1.18-.67,2.18-1.25,4.38-1.75,6.6-.07-.01-.13-.03-.2-.04.08-.36.17-.72.25-1.08.54-2.25,1.16-4.48,1.87-6.68.07,0,.14.01.21.02Z"/><path class="cls-1" d="m85.33,30.33c-.11.44-.22.87-.33,1.31-.53,2.09-1.05,4.19-1.58,6.28-.06-.02-.13-.03-.19-.05.1-.39.2-.79.3-1.18.53-2.12,1.07-4.25,1.6-6.37.07,0,.14,0,.21.01Z"/><path class="cls-1" d="m84.34,30.24c-.64,2.41-1.28,4.83-1.91,7.24-.01.06-.03.11-.04.17.06.02.13.03.19.05.05-.18.1-.37.15-.55.42-1.6.85-3.2,1.27-4.8.18-.69.37-1.39.55-2.08-.07,0-.14-.01-.2-.02Z"/><path class="cls-1" d="m82.86,30.01c-.11.37-.21.74-.31,1.12-.57,2.03-1.08,4.09-1.54,6.15-.06-.02-.13-.03-.19-.05.07-.34.15-.67.23-1,.48-2.1,1.03-4.19,1.62-6.26.06.01.13.03.19.04Z"/><path class="cls-1" d="m81.18,29.47c-.11.37-.22.74-.33,1.11-.31,1.07-.59,2.15-.84,3.23-.13.55-.26,1.1-.37,1.65-.09.46-.17.93-.16,1.39-.07-.02-.13-.04-.2-.06,0-.51.08-1.01.19-1.51.42-1.99.93-3.96,1.52-5.91.06.03.12.05.18.08Z"/><path class="cls-1" d="m80.35,29.1c-.13.42-.25.84-.37,1.26-.58,2.06-1.05,4.15-1.4,6.26-.06-.02-.13-.03-.19-.05.07-.43.15-.86.23-1.3.41-2.11.92-4.2,1.54-6.25.04.01.08.03.12.05.02.01.05.02.07.03Z"/><path class="cls-1" d="m79.16,28.76c-.15.38-.3.77-.43,1.16-.72,2.08-1.2,4.24-1.43,6.43-.07,0-.13-.02-.2-.02.03-.35.08-.7.13-1.05.31-2.23.89-4.42,1.71-6.51.07,0,.15,0,.22,0Z"/></g><path class="cls-6" d="m94.78,41.59c-.02.13-.05.27-.09.4-.9-.5-1.94-.73-2.96-.9-1.34-.21-2.68-.36-4.02-.6-1.45-.25-2.89-.55-4.33-.87-1.44-.32-2.87-.66-4.31-1-1.24-.29-2.53-.69-3.82-.7.01-.03.02-.05.02-.09,0-.06.01-.11.02-.16,0,0,0-.01,0-.02,0-.01,0-.03,0-.04.01-.03.02-.07.04-.1.62.02,1.23.12,1.83.26.83.18,1.66.38,2.48.57,2.93.69,5.86,1.39,8.84,1.87,1.34.22,2.69.34,4.02.6.79.16,1.56.39,2.26.76Z"/><path class="cls-2" d="m42.92,66.91c-2.6.88-4.76,2.89-5.82,5.41-.11-.07-.21-.15-.32-.22,0,0-.01,0-.02-.01,1.09-2.5,3.19-4.5,5.74-5.45.14.09.28.19.42.28Z"/><path class="cls-2" d="m76.21,63.35c-.13.03-.27.06-.4.08-.97-2.57-1.41-5.32-1.27-8.07.14,0,.27-.01.4-.02-.14,2.72.29,5.46,1.27,8Z"/><path class="cls-2" d="m64.3,96.59l-.3.49c-.45.11-.91.19-1.38.25-.8.1-1.6.13-2.4.17-.84.04-1.68.1-2.51.11-.79.02-1.56-.11-2.34-.24-.41-.07-.82-.14-1.23-.21-.23-.04-.46-.07-.69-.13.01-.13.03-.27.04-.4.41.14.89.16,1.3.23.48.08.96.17,1.45.24,1,.15,2.01.08,3.02.03,1-.05,2.01-.06,3.01-.17.69-.07,1.38-.21,2.05-.39Z"/><path class="cls-2" d="m50.34,96.78c-.07.15-.14.29-.21.44-.46.07-.91.12-1.37.18-.82.09-1.65.21-2.48.21-.83,0-1.63-.17-2.46-.13-.83.04-1.62-.03-2.44-.14-.6-.08-1.21-.17-1.79-.35-.01-.14-.02-.28-.02-.43.85.28,1.75.38,2.63.48,1.01.11,2.01-.03,3.02.09,1.03.12,2.02.03,3.05-.09.69-.07,1.38-.16,2.07-.26Z"/><path class="cls-6" d="m66.54,59.92c.03.07.05.14.08.22h0c-.14.18-.28.35-.42.52-.04-.06-.08-.11-.12-.17.16-.19.31-.37.46-.57Z"/><path class="cls-6" d="m69.59,54.61c-.11.34-.23.67-.37,1.01-.58,1.44-1.33,2.8-2.25,4.05-.02-.06-.05-.13-.07-.19,0,0,0-.02,0-.03,1.08-1.5,1.93-3.16,2.52-4.92.06.03.12.06.18.08Z"/><path class="cls-6" d="m65.98,58.57c-.22.27-.45.53-.68.78-.04-.06-.08-.11-.12-.17.15-.16.29-.31.43-.48.09-.11.19-.23.28-.34.03.07.06.14.1.2Z"/><path class="cls-6" d="m68.55,54.1c-.09.23-.18.46-.28.69-.51,1.19-1.17,2.31-1.95,3.35-.03-.07-.06-.14-.1-.2.9-1.2,1.62-2.52,2.14-3.92.04.02.08.05.13.07.02.01.03.02.05.03Z"/><path class="cls-6" d="m67.57,53.55c-.07.14-.14.29-.21.43-.75,1.45-1.75,2.78-2.93,3.92-.01-.08-.02-.16-.04-.24.13-.12.25-.25.37-.38,1.07-1.13,1.96-2.43,2.63-3.83.06.04.12.07.17.1Z"/><path class="cls-6" d="m66.5,52.91s-.05.09-.08.13c-.63,1.06-1.4,2.03-2.29,2.87-.01-.07-.02-.15-.04-.22,0,0,0-.02,0-.02.07-.07.13-.13.2-.2.79-.8,1.47-1.7,2.03-2.67.04.02.09.05.13.08.01,0,.03.02.04.03Z"/><path class="cls-6" d="m65.38,52.27c-.43.74-.95,1.43-1.54,2.05,0-.02,0-.03,0-.05-.01-.06-.03-.13-.04-.19.54-.58,1.01-1.22,1.41-1.9.06.03.12.06.17.1Z"/><path class="cls-6" d="m64.25,51.67c-.25.41-.48.83-.7,1.26-.02-.1-.05-.2-.07-.3.19-.35.38-.7.59-1.04.06.03.12.06.18.09Z"/><path class="cls-6" d="m47.82,53.27c-.19,0-.38,0-.57,0-.03-.07-.06-.14-.09-.2.17,0,.34,0,.51,0,.05.07.1.13.15.2Z"/><path class="cls-6" d="m59.99,50.79c-.08.03-.17.05-.25.08.01-.08.03-.15.04-.23.05-.02.11-.03.16-.05.02.06.04.13.05.19Z"/><path class="cls-6" d="m48.82,54.42c-.36,0-.72,0-1.08-.02,0,0,0-.01,0-.02-.03-.06-.05-.12-.08-.19.32.02.65.03.98.02l.18.19s0,0,0,0Z"/><path class="cls-6" d="m60.26,51.87c-.31.15-.63.28-.95.41.04-.09.07-.17.1-.26.27-.11.54-.22.8-.35.02.07.03.13.05.2Z"/><path class="cls-6" d="m50.51,55.74c-.73.07-1.47.1-2.21.06-.03-.07-.06-.14-.08-.21.66.04,1.32.03,1.98-.02.1.06.21.12.31.17Z"/><path class="cls-6" d="m60.53,53.05c-.61.26-1.23.5-1.85.72-.09.03-.17.06-.26.09.07-.09.14-.19.2-.29.63-.23,1.25-.47,1.86-.72.02.06.03.13.04.2Z"/><path class="cls-6" d="m52.89,56.32c.28,0,.56,0,.83-.02-.19.04-.39.08-.58.13-.99.21-1.98.45-2.98.57-.45.06-.9.09-1.35.07-.03-.07-.05-.14-.08-.2.63.03,1.26-.04,1.88-.14.7-.12,1.4-.26,2.1-.41.01,0,.03,0,.04,0h0s.09,0,.14,0Z"/><path class="cls-6" d="m60.78,54.24c-.6.25-1.21.48-1.83.69-.98.33-1.97.61-2.97.86.12-.05.24-.11.36-.17.06-.03.13-.07.19-.1h0s0,0,0,0c.09-.05.17-.1.25-.15,1.35-.36,2.67-.79,3.96-1.33.02.07.03.13.04.2Z"/><path class="cls-6" d="m61.01,55.41c-.68.32-1.38.6-2.09.84-1.7.59-3.47.98-5.23,1.33-1.47.3-2.98.62-4.49.54,0,0,0-.01,0-.02-.02-.06-.04-.13-.07-.19.73.05,1.46,0,2.19-.11.91-.13,1.82-.32,2.73-.5.87-.18,1.73-.37,2.58-.59,1.49-.38,2.96-.86,4.35-1.51.01.07.03.14.04.2Z"/><path class="cls-6" d="m61.23,56.51c-.56.29-1.14.55-1.73.79-1.75.69-3.58,1.15-5.42,1.52-1.46.29-3.01.63-4.5.42-.02-.07-.05-.14-.07-.21.71.11,1.44.09,2.15,0,.94-.1,1.86-.3,2.78-.49.9-.19,1.8-.4,2.69-.65,1.4-.4,2.77-.9,4.06-1.58.01.07.03.13.04.2,0,0,0,0,0,0Z"/><path class="cls-6" d="m44.76,54.9c-.29-.2-.6-.39-.92-.54-.49-.23-1.02-.38-1.56-.45.11-.05.22-.1.33-.15.43.08.85.21,1.25.39.26.12.51.26.75.41.05.11.1.23.15.34Z"/><path class="cls-6" d="m45.55,56.83c-.07-.06-.15-.11-.23-.17-.83-.59-1.72-1.1-2.65-1.52-.47-.21-.95-.4-1.44-.56-.08-.03-.16-.05-.24-.08.09-.04.18-.08.26-.13.11.04.22.08.34.12,1.36.48,2.65,1.16,3.83,1.99h0c.05.12.09.23.14.35Z"/><path class="cls-6" d="m46.14,58.42c-.08-.06-.16-.11-.23-.17-1.93-1.36-4.13-2.25-6.34-3.04.08-.04.16-.08.24-.12h0c.3.1.59.21.89.33,1.31.49,2.6,1.05,3.82,1.73.52.29,1.02.61,1.51.95,0,0,0,.01,0,.02.04.1.07.2.11.3Z"/><path class="cls-6" d="m46.95,60.88s0,.01-.01.02c-.22-.22-.45-.42-.68-.62-1.22-1.02-2.64-1.78-4.09-2.42-1.4-.62-2.84-1.17-4.27-1.73.07-.04.15-.08.22-.13.71.28,1.41.56,2.12.84,1.56.62,3.13,1.27,4.57,2.15.73.45,1.42.96,2.04,1.54.03.11.07.23.1.34Z"/><path class="cls-6" d="m46.26,61.91c-.04.05-.08.11-.12.16-.29-.18-.57-.36-.86-.54-1.47-.94-2.93-1.91-4.44-2.79-1.28-.74-2.6-1.42-3.99-1.94.01,0,.02-.02.04-.03.06-.04.12-.08.17-.11.62.24,1.22.5,1.81.79,1.58.77,3.07,1.7,4.55,2.65.95.6,1.88,1.22,2.84,1.81Z"/><path class="cls-6" d="m42.2,61.56s-.02.07-.02.1c0,.04-.02.08-.03.12-.18-.17-.37-.34-.55-.51-.62-.57-1.26-1.11-1.93-1.61-1.16-.86-2.39-1.62-3.68-2.26.06-.05.12-.09.18-.13.6.3,1.19.63,1.77.98,1.43.87,2.75,1.9,3.97,3.03.1.09.2.18.29.28Z"/><path class="cls-6" d="m44.67,63.72s-.06.06-.09.09c-.02.02-.03.04-.05.05-.39-.29-.76-.59-1.12-.91-.28-.25-.56-.51-.83-.76,0-.04.01-.07.02-.11,0-.04.02-.08.03-.12.66.62,1.32,1.23,2.04,1.76Z"/><path class="cls-9" d="m47.62,42.53c-.12.05-.29,0-.33-.13-.05-.15-.09-.3-.14-.45-.05-.14-.09-.24-.16-.35-.05-.07-.15-.12-.24-.15,0,0,0,0,0,0h0s-.03,0-.04,0c-.03,0-.06,0-.08-.01,0,0-.01,0-.02,0-.02,0-.04,0-.06,0-.03,0-.05,0-.08.01,0,0-.05.02-.06.02,0,0-.06.03-.06.03-.05.03-.1.07-.12.1-.08.1-.13.18-.19.3-.11.25-.14.52-.1.79.02.13-.08.27-.21.29-.13.02-.26-.08-.28-.21-.05-.33-.02-.67.1-.98.09-.25.25-.51.47-.66.23-.16.52-.23.79-.17.27.06.51.21.66.45.15.24.22.54.3.81.04.13,0,.27-.13.33Z"/><path class="cls-9" d="m63.28,41.57c-.06-.49-.27-1.09-.82-1.17-.23-.03-.42.07-.55.26-.08.1-.13.21-.17.33-.05.12-.1.25-.08.38.06.32-.44.39-.5.07-.04-.21.02-.42.1-.61.06-.17.14-.33.25-.47.23-.31.57-.49.95-.46.37.02.72.24.94.53.23.31.34.69.38,1.06.04.32-.46.4-.5.07Z"/><path class="cls-9" d="m67.55,38.41c-.28-.19-.58-.28-.89-.3.66-.85.96-1.96,1.18-3,.12-.58.25-1.16.27-1.76.02-.63-.05-1.26-.24-1.87-.76-2.48-3.24-3.51-5.58-3.94-1.66-.3-3.38-.42-5.08-.33-1-.59-2.09-.96-3.23-1.14-1.07-.17-2.16-.17-3.25-.14-1.2.03-2.4.1-3.58.31-.63.11-1.25.27-1.85.47-.09-.29-.35-.5-.62-.62-.34-.14-.74-.14-1.09,0-.33.14-.6.41-.74.74-.12.26-.17.61-.01.86-1.48.69-2.9,1.54-4.12,2.61-1.61,1.41-2.76,3.29-3.4,5.33-.38,1.22-.51,2.49-.23,3.74.27,1.19.77,2.33.91,3.55.02.15.14.22.26.2,0,.02.01.05.02.08-.85.25-1.87.85-2,1.8-.12.94.66,1.73,1.54,1.87.51.08,1.04-.03,1.51-.24.71,1.81,1.71,3.48,3.3,4.67,2.69,2.02,6.29,1.88,9.48,1.71,1.8-.1,3.59-.27,5.37-.52,1.43-.2,2.85-.47,4.23-.91,1.33-.42,2.62-1.02,3.73-1.89,1.18-.92,2.1-2.14,2.67-3.53.58-1.41.76-2.91.74-4.43.72-.09,1.42-.45,1.61-1.21.21-.83-.2-1.66-.9-2.12Zm-6.67-10.57c2.2.26,4.92.8,6.12,2.89.34.58.53,1.24.59,1.91.06.64-.03,1.26-.15,1.89-.22,1.13-.47,2.36-1.19,3.29-.06-.18-.12-.37-.19-.55-.09-.26-.21-.5-.33-.75.02-.07.01-.14-.06-.21-.03-.03-.06-.06-.09-.09,0,0,0,0,0,0-.03-.06-.08-.1-.13-.12-.69-.63-1.49-1.1-2.4-1.38-.99-.31-2.02-.42-3.05-.53-2.11-.23-4.24-.24-6.35,0-3.43.38-6.78,1.39-9.86,2.93,1.29-4.37,5.18-7.56,9.48-8.76,2.46-.69,5.07-.81,7.6-.5Zm4.2,10.31c.49,1.36.62,2.88.2,4.27-.36,1.19-1.12,2.25-2.18,2.91-.52.33-1.12.56-1.74.61-.71.06-1.31-.17-1.76-.72-.39-.47-.7-1-1.24-1.33-.56-.34-1.21-.47-1.86-.51-1.44-.07-2.92.16-4.32.47-.63.14-1.26.31-1.83.6-.6.31-1.09.75-1.49,1.29-.39.53-.72,1.12-1.19,1.59-.46.45-1.04.74-1.65.94-.64.21-1.33.31-2,.37-.77.08-1.57.09-2.3-.19-1.32-.5-2.17-1.76-2.74-2.99-.24-.53-.46-1.07-.65-1.61-.07-.18-.12-.36-.18-.54,1.03-.3,1.91-.88,2.59-1.73.76-.94,1.25-2.08,1.7-3.19,1.41-.82,2.89-1.52,4.41-2.09,3.83-1.43,7.98-2.06,12.06-1.73,1.22.1,2.5.2,3.68.53.42,1.24,1.38,2.19,2.48,2.87-.02.05-.02.1,0,.16Zm-1.85-2.83c.71.27,1.37.65,1.94,1.19.21.41.38.83.53,1.26-1.03-.57-1.97-1.38-2.47-2.45Zm-16.9-8.4c1.1-.27,2.23-.39,3.36-.45,2.22-.12,4.54-.13,6.58.81-3.21.33-6.31,1.43-8.82,3.54-1.85,1.55-3.29,3.57-4.05,5.86-.37-1.53-.58-3.09-.45-4.66.13-1.66.74-3.19,1.72-4.53,0-.01.01-.02.02-.04.54-.21,1.08-.39,1.63-.53Zm-2.98.04c.1-.18.27-.33.47-.41.2-.08.44-.08.64,0,.17.06.32.17.37.33-.28.1-.55.21-.83.32-.23.1-.46.19-.69.29-.01-.01-.02-.03-.04-.04,0,0-.01,0-.01-.01,0-.01,0,0,0-.03v-.05s0-.05,0-.08c.01-.11.05-.21.1-.32Zm-7.62,12.87c-.14-.49-.25-.99-.29-1.5-.04-.56.03-1.14.14-1.69.22-1.11.69-2.16,1.22-3.15.46-.86,1.02-1.63,1.71-2.31,1.42-1.39,3.17-2.42,4.97-3.23.12-.06.25-.11.38-.17-.77,1.23-1.27,2.61-1.4,4.07-.17,1.84.12,3.68.6,5.46.01.05.04.09.07.12-.47.25-.94.52-1.4.79-1.93,1.16-3.71,2.56-5.3,4.15-.16-.87-.47-1.7-.71-2.55Zm.09,6.53c-.43-.09-.79-.38-.95-.79-.39-.95.77-1.66,1.55-1.88.21.83.46,1.66.75,2.47-.42.2-.89.29-1.34.2Zm30.18-1.44c-.4,1.43-1.14,2.78-2.22,3.81-.97.93-2.15,1.6-3.4,2.08-1.29.5-2.65.81-4.02,1.04-1.61.27-3.23.44-4.86.57-1.66.13-3.32.23-4.98.16-1.56-.07-3.15-.31-4.56-1.03-2.85-1.45-4.16-4.59-4.95-7.51-.1-.39-.2-.78-.3-1.17,0-.02-.01-.03-.02-.05,1.51-1.52,3.2-2.86,5.02-3.99-.35.83-.74,1.64-1.29,2.35-.67.86-1.56,1.47-2.63,1.72,0,0,0,0-.01,0-.01,0-.03,0-.04.01t0,0c-.1.04-.17.13-.16.26.03.22.14.45.21.66.17.49.35.97.56,1.44.49,1.14,1.13,2.25,2.12,3.03,1.25.99,2.8.97,4.31.74,1.34-.2,2.65-.62,3.54-1.7.44-.54.78-1.16,1.24-1.68.47-.53,1.1-.85,1.77-1.08.72-.24,1.47-.37,2.22-.49.78-.12,1.56-.21,2.35-.23.69-.02,1.42.04,2.04.35.62.31.92.92,1.36,1.41.95,1.08,2.48.93,3.67.33,1.12-.57,2.01-1.54,2.52-2.69.6-1.33.67-2.86.36-4.26-.05-.24-.12-.47-.19-.7.02,0,.03.02.04.02.06.03.12.04.17.02.2.73.33,1.49.4,2.25.13,1.43.1,2.92-.28,4.31Zm1.65-4.01c-.23.19-.53.28-.83.32-.04-.88-.15-1.77-.36-2.63.14,0,.27,0,.41.03.2.05.38.16.54.29.32.25.53.59.58,1,.04.36-.04.75-.34.99Z"/><path class="cls-9" d="m44.82,26.87c-.28.1-.55.21-.83.32-.23.1-.46.19-.69.29-.01-.01-.02-.03-.04-.04,0,0-.01,0-.01-.01,0-.01,0,0,0-.03v-.05s0-.05,0-.08c.01-.11.05-.21.1-.32.1-.18.27-.33.47-.41.2-.08.44-.08.64,0,.17.06.32.17.37.33Z"/><path class="cls-6" d="m67.44,34.52c-.22,1.13-.47,2.36-1.19,3.29-.06-.18-.12-.37-.19-.55-.05-.13-.1-.26-.16-.38-.05-.12-.11-.25-.17-.37.02-.06.02-.12-.03-.18,0-.01-.02-.02-.03-.03-.03-.03-.06-.06-.09-.09,0,0,0,0,0,0-.03-.06-.08-.1-.13-.12-.08-.07-.16-.14-.24-.21-.11-.09-.21-.17-.33-.26-.55-.4-1.16-.71-1.83-.92-.99-.31-2.02-.42-3.05-.53-2.11-.23-4.24-.24-6.35,0-2.12.24-4.21.71-6.22,1.4-.2.07-.4.14-.6.21-.49.18-.97.37-1.45.58-.19.08-.39.17-.58.25-.34.15-.67.31-1.01.48,1.29-4.37,5.18-7.56,9.48-8.76,2.46-.69,5.07-.81,7.6-.5,2.2.26,4.92.8,6.12,2.89.34.58.53,1.24.59,1.91.06.64-.03,1.26-.15,1.89Z"/><path class="cls-7" d="m56.27,27.28c-3.21.33-6.31,1.43-8.82,3.54-1.85,1.55-3.29,3.57-4.05,5.86-.37-1.53-.58-3.09-.45-4.66.13-1.66.74-3.19,1.72-4.53,0-.01.01-.02.02-.04.54-.21,1.08-.39,1.63-.53,1.1-.27,2.23-.39,3.36-.45,2.22-.12,4.54-.13,6.58.81Z"/><path class="cls-6" d="m43.13,37.44c-.47.25-.94.52-1.4.79-1.93,1.16-3.71,2.56-5.3,4.15-.16-.87-.47-1.7-.71-2.55-.14-.49-.25-.99-.29-1.5-.04-.56.03-1.14.14-1.69.22-1.11.69-2.16,1.22-3.15.46-.86,1.02-1.63,1.71-2.31,1.42-1.39,3.17-2.42,4.97-3.23.12-.06.25-.11.38-.17-.77,1.23-1.27,2.61-1.4,4.07-.17,1.84.12,3.68.6,5.46.01.05.04.09.07.12Z"/><path class="cls-1" d="m37.16,46.17c-.42.2-.89.29-1.34.2-.43-.09-.79-.38-.95-.79-.39-.95.77-1.66,1.55-1.88.21.83.46,1.66.75,2.47Z"/><path class="cls-1" d="m67.65,40.91c-.23.19-.53.28-.83.32-.04-.88-.15-1.77-.36-2.63.14,0,.27,0,.41.03.2.05.38.16.54.29.32.25.53.59.58,1,.04.36-.04.75-.34.99Z"/><path class="cls-9" d="m66.28,40.61c-.07-.76-.19-1.51-.4-2.25-.05.02-.11.02-.17-.02-.02,0-.03-.01-.04-.02.07.23.14.46.19.7.31,1.41.24,2.94-.36,4.26-.52,1.14-1.4,2.12-2.52,2.69-1.18.6-2.71.75-3.67-.33-.44-.5-.74-1.1-1.36-1.41-.62-.32-1.35-.37-2.04-.35-.79.02-1.57.11-2.35.23-.75.11-1.5.25-2.22.49-.66.22-1.29.55-1.77,1.08-.47.52-.8,1.14-1.24,1.68-.89,1.08-2.2,1.5-3.54,1.7-1.51.23-3.06.24-4.31-.74-1-.78-1.63-1.89-2.12-3.03-.21-.47-.39-.96-.56-1.44-.07-.21-.18-.44-.21-.66-.02-.13.06-.22.16-.26t0,0s.03,0,.04-.01c0,0,0,0,.01,0,1.07-.25,1.96-.85,2.63-1.72.55-.71.94-1.52,1.29-2.35-1.82,1.13-3.51,2.47-5.02,3.99,0,.01.01.03.02.05.1.39.19.78.3,1.17.79,2.92,2.1,6.06,4.95,7.51,1.41.72,2.99.96,4.56,1.03,1.66.07,3.33-.03,4.98-.16,1.62-.13,3.25-.3,4.86-.57,1.37-.23,2.73-.53,4.02-1.04,1.25-.48,2.43-1.15,3.4-2.08,1.08-1.03,1.82-2.38,2.22-3.81.38-1.39.41-2.88.28-4.31Zm-7.7,7.47c-.53,1.08-1.9,1.61-3.02,1.72-1.16.12-2.53-.11-3.26-1.12-.41-.57-.47-1.27-.28-1.93.17-.61.44-1.2.9-1.63.02-.03.04-.05.08-.07.02-.02.05-.04.08-.05.63-.38,1.28-.55,2.02-.56.78,0,1.63,0,2.36.34.57.27,1.06.74,1.22,1.37.16.59.18,1.36-.09,1.92Z"/><path class="cls-9" d="m65.7,37.77c-1.03-.57-1.97-1.38-2.47-2.45.71.27,1.37.65,1.94,1.19.21.41.38.83.53,1.26Z"/><path class="cls-1" d="m65.08,38.15c-.02-.06-.02-.11,0-.16-1.1-.68-2.06-1.63-2.48-2.87-1.18-.34-2.46-.44-3.68-.53-4.08-.32-8.23.3-12.06,1.73-1.53.57-3,1.27-4.41,2.09-.45,1.12-.94,2.25-1.7,3.19-.68.84-1.56,1.43-2.59,1.73.06.18.12.36.18.54.19.54.41,1.08.65,1.61.57,1.23,1.42,2.49,2.74,2.99.73.28,1.53.27,2.3.19.67-.07,1.36-.17,2-.37.61-.19,1.19-.48,1.65-.94.47-.47.8-1.06,1.19-1.59.4-.54.89-.98,1.49-1.29.57-.29,1.2-.46,1.83-.6,1.4-.31,2.89-.54,4.32-.47.65.03,1.3.16,1.86.51.54.33.85.85,1.24,1.33.45.55,1.05.78,1.76.72.62-.06,1.22-.28,1.74-.61,1.06-.66,1.82-1.72,2.18-2.91.42-1.39.29-2.92-.2-4.27Zm-17.46,4.38c-.12.05-.29,0-.33-.13-.05-.15-.09-.3-.14-.45-.05-.14-.09-.24-.16-.35-.05-.07-.15-.12-.24-.15,0,0,0,0,0,0h0s-.03,0-.04,0c-.03,0-.06,0-.08-.01,0,0-.01,0-.02,0-.02,0-.04,0-.06,0-.03,0-.05,0-.08.01,0,0-.05.02-.06.02,0,0-.06.03-.06.03-.05.03-.1.07-.12.1-.08.1-.13.18-.19.3-.11.25-.14.52-.1.79.02.13-.08.27-.21.29-.13.02-.26-.08-.28-.21-.05-.33-.02-.67.1-.98.09-.25.25-.51.47-.66.23-.16.52-.23.79-.17.27.06.51.21.66.45.15.24.22.54.3.81.04.13,0,.27-.13.33Zm15.66-.96c-.06-.49-.27-1.09-.82-1.17-.23-.03-.42.07-.55.26-.08.1-.13.21-.17.33-.05.12-.1.25-.08.38.06.32-.44.39-.5.07-.04-.21.02-.42.1-.61.06-.17.14-.33.25-.47.23-.31.57-.49.95-.46.37.02.72.24.94.53.23.31.34.69.38,1.06.04.32-.46.4-.5.07Z"/><path class="cls-9" d="m58.67,46.16c-.16-.62-.65-1.1-1.22-1.37-.72-.34-1.57-.34-2.36-.34-.74,0-1.39.18-2.02.56-.03,0-.05.02-.08.05-.03.02-.06.04-.08.07-.46.43-.73,1.03-.9,1.63-.19.66-.13,1.36.28,1.93.73,1.01,2.1,1.24,3.26,1.12,1.12-.12,2.49-.64,3.02-1.72.27-.56.25-1.33.09-1.92Zm-.43,1.34c-.17,1.01-1.39,1.56-2.29,1.74-.95.19-2.07.15-2.86-.46-.52-.4-.75-.98-.64-1.63.06-.32.19-.63.32-.93.13-.31.29-.55.55-.77.49-.31,1.01-.47,1.58-.49.56-.02,1.16-.01,1.71.09.56.11,1.12.37,1.43.87.27.44.3,1.08.21,1.57Z"/><path class="cls-1" d="m58.03,45.93c-.31-.5-.87-.77-1.43-.87-.55-.1-1.16-.12-1.71-.09-.57.02-1.09.19-1.58.49-.25.22-.42.46-.55.77-.12.3-.26.61-.32.93-.11.65.12,1.23.64,1.63.8.61,1.91.65,2.86.46.9-.18,2.12-.73,2.29-1.74.09-.5.06-1.13-.21-1.57Zm-1.52,1.53c-.1.29-.27.56-.56.7-.25.12-.56.12-.81,0-.29-.14-.45-.4-.56-.69-.11-.3-.17-.62-.18-.95,0-.14.07-.26.21-.29.12-.02.28.08.29.21.01.33.07.65.2.95.05.12.11.21.21.28h0s0,0,0,0c.01,0,.05.02.06.03,0,0,.06.02.06.02.03,0,.06,0,.08.01.01,0,.03,0,.04,0,0,0,0,0,.02,0,.03,0,.06,0,.1-.01t0,0s.03-.01.04-.02c0,0,.05-.02.06-.03h0s0,0,0,0c.02-.02.05-.03.07-.05.08-.08.13-.2.18-.33.12-.33.17-.68.2-1.02.01-.14.15-.24.28-.22.14.02.23.15.22.28-.03.38-.1.76-.23,1.13Z"/><path class="cls-9" d="m56.51,47.46c-.1.29-.27.56-.56.7-.25.12-.56.12-.81,0-.29-.14-.45-.4-.56-.69-.11-.3-.17-.62-.18-.95,0-.14.07-.26.21-.29.12-.02.28.08.29.21.01.33.07.65.2.95.05.12.11.21.21.28h0s0,0,0,0c.01,0,.05.02.06.03,0,0,.06.02.06.02.03,0,.06,0,.08.01.01,0,.03,0,.04,0,0,0,0,0,.02,0,.03,0,.06,0,.1-.01t0,0s.03-.01.04-.02c0,0,.05-.02.06-.03h0s0,0,0,0c.02-.02.05-.03.07-.05.08-.08.13-.2.18-.33.12-.33.17-.68.2-1.02.01-.14.15-.24.28-.22.14.02.23.15.22.28-.03.38-.1.76-.23,1.13Z"/><g class="cls-5"><path class="cls-1" d="m66.8,34.27c-.22.9-.52,1.77-.9,2.62-.05-.12-.11-.25-.17-.37.02-.06.02-.12-.03-.18.34-.79.61-1.62.77-2.45.22-1.11.11-2.21-.71-3.05-.74-.75-1.78-1.1-2.77-1.33-1.03-.25-2.08-.41-3.13-.48-2.14-.16-4.29.03-6.37.56-.99.25-1.95.58-2.85,1.07-.8.44-1.53.99-2.19,1.61-1.25,1.17-2.26,2.6-3.07,4.11-.19.08-.39.17-.58.25,0-.02,0-.03.02-.05.99-1.92,2.27-3.73,3.94-5.12.73-.61,1.55-1.13,2.42-1.52,1.01-.45,2.1-.75,3.19-.97,2.21-.45,4.49-.52,6.73-.22,1.11.15,2.25.36,3.29.76.91.35,1.75.93,2.23,1.8.5.91.42,1.99.19,2.96Z"/><path class="cls-1" d="m65.65,34.48c-.1.48-.24.95-.43,1.4-.11-.09-.21-.17-.33-.26.21-.54.36-1.11.44-1.69.12-.89.12-1.89-.72-2.43-.72-.47-1.63-.74-2.46-.93-.87-.2-1.76-.32-2.65-.36-.9-.04-1.8-.02-2.69.04-.89.06-1.78.13-2.66.3-1.56.29-2.95.99-4.16,2.01-1.01.86-1.85,1.9-2.56,3.01-.2.07-.4.14-.6.21.92-1.55,2.09-2.98,3.55-4.05.64-.46,1.33-.85,2.06-1.13.86-.33,1.77-.5,2.69-.61,1.88-.22,3.82-.31,5.7-.07.93.12,1.85.33,2.73.65.77.29,1.67.64,2.02,1.45.32.75.22,1.67.06,2.45Z"/></g><path class="cls-7" d="m61.25,68.79h0c.05.33.08.65.11.98,0,.02,0,.05,0,.07,0,.1.02.2.02.3.03.42.11.89.06,1.31.04.06.07.11.08.18.05.22-.05.36-.25.47-.3.16-.67.23-1,.31-1.44.38-2.93.55-4.42.51-.03,0-.06-.03-.04-.06.02-.04.03-.07.05-.11,0,0-.02-.02-.02-.03-.05-.4-.18-.78-.3-1.17-.03-.08-.05-.17-.08-.25,0-.02-.01-.04-.02-.06-.01-.05-.03-.1-.04-.14-.02-.06-.03-.12-.04-.18-.01-.07-.03-.13-.04-.2,0-.01,0-.02,0-.03-.09-.43-.16-.87-.22-1.31-.02-.01-.03-.05,0-.07,0,0,0,0,0,0,0-.03.03-.04.05-.02.63-.2,1.3-.3,1.95-.43.66-.13,1.32-.24,1.99-.32.33-.04.67-.07,1-.09.28-.01.62-.06.9-.01.23.04.29.18.26.36Z"/><path class="cls-4" d="m55.43,71.09s.03.09.04.14c-.01-.05-.03-.1-.04-.14Z"/><path class="cls-9" d="m60.99,68.43c-.28-.05-.62,0-.9.01-.34.02-.67.05-1,.09-.67.08-1.33.19-1.99.32-.65.12-1.32.22-1.95.43-.01,0-.02,0-.03.01,0,0-.01,0-.02,0-.02.02-.01.06,0,.07,0,0,.02,0,.04,0,0,0,.02,0,.02,0,0,0,0,0,0,0,0,0,0,0,0,0,.54.37,1.1.69,1.67.99.14.07.29.15.44.22.01,0,.03.01.04.02.35.16.71.3,1.09.38.5.1.97,0,1.38-.29.04-.03.07-.06.11-.09.03-.02.06-.05.08-.07.37-.31.72-.73.97-1.12.07-.12.19-.3.25-.48,0,0,0,0,0,0,.02-.05.03-.1.04-.15h0c.03-.17-.03-.31-.26-.36Zm-.23,1.08c-.3.42-.69.85-1.11,1.15-.46.33-1.02.3-1.54.15-.49-.14-.96-.38-1.42-.61-.51-.26-1-.55-1.48-.85.49-.14,1-.23,1.5-.33.56-.11,1.12-.22,1.68-.3.53-.08,1.07-.14,1.6-.17.27-.02.54-.02.81-.02.64,0,.1.79-.04.98Z"/><path class="cls-9" d="m55.15,69.28s0,0,0,.01c0,.02,0,.05.01.07.11.61.2,1.22.36,1.82,0,.02.01.04.02.06.01.05.03.09.04.14.13.41.31.81.36,1.24,0,.03,0,.06,0,.09,0,.04-.05.06-.07.04,0,0-.02-.02-.02-.03-.05-.4-.18-.78-.3-1.17-.03-.08-.05-.17-.08-.25,0-.02-.01-.04-.02-.06-.01-.05-.03-.1-.04-.14-.02-.06-.03-.12-.04-.18-.01-.07-.03-.13-.04-.2,0-.01,0-.02,0-.03-.09-.43-.16-.87-.22-1.31,0-.02,0-.05,0-.07,0,0,0,0,0,0,0-.03.03-.04.05-.02Z"/><path class="cls-9" d="m61.53,71.63c.05.22-.05.36-.25.47-.3.16-.67.23-1,.31-1.44.38-2.93.55-4.42.51-.03,0-.06-.03-.04-.06.02-.04.03-.07.05-.11.02-.04.04-.09.07-.13.36-.72.77-1.46,1.34-2.04,0,0,0,0,0,0,.02-.02.04,0,.03.02,0,0,0,0,0,0-.53.71-.98,1.43-1.38,2.23,1.23.03,2.46-.09,3.66-.36.31-.07.63-.15.94-.24.2-.06,1.04-.21.89-.57-.12-.29-.46-.5-.72-.65-.25-.15-.52-.28-.79-.4,0,0-.01,0-.02,0-.03-.03,0-.1.06-.08,0,0,.02,0,.03,0,.34.12.66.28.95.48.12.08.3.19.43.33.03.03.06.06.08.1.04.06.07.11.08.18Z"/><path class="cls-9" d="m61.23,68.68s.01.07.02.11h0c.05.33.08.65.11.98,0,.02,0,.05,0,.07,0,.1.02.2.02.3.03.42.11.89.06,1.31,0,.02,0,.03,0,.05,0,.03-.05.03-.05,0,0-.05-.02-.1-.02-.15-.06-.43-.03-.89-.06-1.31-.02-.37-.06-.73-.09-1.1,0,0,0,0,0,0,0-.09-.01-.17-.02-.26,0-.03.04-.03.04,0Z"/><path class="cls-9" d="m61.36,69.77s0,.05,0,.07c-.02.01-.05-.02-.03-.04,0-.01.02-.02.02-.03Z"/><path class="cls-9" d="m55.34,70.72s0-.02,0-.03c.01,0,.01.02,0,.03Z"/><path class="cls-9" d="m55.54,71.24s0,0,0,0c.03.04.04.09.04.14,0,.05,0,.11-.03.17-.03-.08-.05-.17-.08-.25,0-.01,0-.02,0-.03-.01-.04.04-.07.07-.03Z"/><path class="cls-9" d="m58.15,70.51c.39.16.86.12,1.22-.1.02-.01,0-.05-.02-.04-.39.19-.77.23-1.19.11-.02,0-.03.03-.01.03h0Z"/><path class="cls-9" d="m59.61,70.25c.08-.08.17-.15.24-.24.02-.02,0-.05-.03-.03-.09.07-.16.16-.24.24-.02.02.01.04.03.03h0Z"/><path class="cls-9" d="m57.43,70.18c.06.03.12.07.18.1.02,0,.03-.02.01-.03-.06-.04-.12-.06-.18-.09-.02,0-.03.02-.01.02h0Z"/><path class="cls-9" d="m57.3,71.11s.08-.04.11-.07c.01-.01,0-.04-.02-.03-.04.02-.07.04-.1.07-.01.01,0,.04.02.03h0Z"/><path class="cls-9" d="m57.1,71.47c.25-.12.52-.24.73-.42.02-.02,0-.06-.03-.04-.24.14-.47.3-.72.42-.02.01-.01.05.01.04h0Z"/><path class="cls-9" d="m57.71,71.32c.05-.04.11-.07.16-.11.02-.01,0-.03-.02-.03-.06.03-.11.07-.16.11-.02.01,0,.04.02.03h0Z"/><path class="cls-9" d="m59.67,71.02c.09-.01.18-.04.25-.1.02-.01,0-.04-.02-.03-.08.04-.15.08-.24.09-.02,0-.02.04,0,.04h0Z"/><path class="cls-9" d="m59.69,71.28c.11-.05.24-.1.34-.17.02-.01,0-.04-.02-.03-.12.04-.23.11-.34.17-.02,0,0,.04.02.03h0Z"/></svg>