<?xml version="1.0" encoding="UTF-8"?><svg id="Layer_1" xmlns="http://www.w3.org/2000/svg" xmlns:xlink="http://www.w3.org/1999/xlink" viewBox="0 0 1031.65 863.45"><defs><style>.cls-1{clip-path:url(#clippath-4);}.cls-1,.cls-2,.cls-3,.cls-4,.cls-5,.cls-6,.cls-7,.cls-8,.cls-9,.cls-10,.cls-11,.cls-12,.cls-13,.cls-14,.cls-15,.cls-16,.cls-17,.cls-18,.cls-19{fill:none;}.cls-2{clip-path:url(#clippath-2);}.cls-20,.cls-21,.cls-22,.cls-23{fill:#fff;}.cls-3{clip-path:url(#clippath-6);}.cls-4{stroke-width:2.1px;}.cls-4,.cls-5,.cls-6,.cls-24,.cls-7,.cls-21,.cls-10,.cls-14,.cls-25,.cls-16,.cls-23,.cls-19{stroke-linecap:round;stroke-linejoin:round;}.cls-4,.cls-24,.cls-7,.cls-21,.cls-10,.cls-14,.cls-25,.cls-16,.cls-23{stroke:#263238;}.cls-26{opacity:.4;}.cls-26,.cls-6,.cls-27,.cls-22{isolation:isolate;}.cls-26,.cls-28,.cls-25{fill:#ff4f5c;}.cls-5{stroke:#ff4f5c;}.cls-5,.cls-6,.cls-24,.cls-7,.cls-21,.cls-25,.cls-19{stroke-width:2.11px;}.cls-6,.cls-27,.cls-22{opacity:.2;}.cls-6,.cls-19{stroke:#fff;}.cls-24,.cls-29{fill:#757575;}.cls-8{clip-path:url(#clippath-7);}.cls-9{clip-path:url(#clippath-5);}.cls-10,.cls-16{stroke-width:4.22px;}.cls-11{clip-path:url(#clippath-3);}.cls-12{opacity:.5;}.cls-14,.cls-23{stroke-width:1.2px;}.cls-30{fill:#999;}.cls-15{clip-path:url(#clippath);}.cls-16{stroke-dasharray:0 0 16.69 10.43;}.cls-17{clip-path:url(#clippath-1);}.cls-18{clip-path:url(#clippath-8);}.cls-31{fill:#263238;}</style><clipPath id="clippath"><path class="cls-13" d="m814.56,790.88c-76.7,5.32-204.13,3.53-204.13,3.53-65.78-4.79-78.16-26.49-67.89-51.18,15.99-38.02,86.22-83.12,99.02-84.18,21.12-1.71,43.34,6.67,43.34,6.67l13.73-2.89c-4.22-11.39,39.18-36.73,59.02-25.79,19.83,10.94,60.83-4.08,73.19,3.63,3.28,2.11,6.1,4.86,8.28,8.09,3.5,5.23,5.96,11.08,7.25,17.24h.17c3.11-.83,6.29-1.33,9.51-1.48,6.8-.36,15.86.68,22.96,6.86,1.81,1.61,3.54,3.32,5.18,5.11,12.8,13.98,29.28,40.41,33.08,55.83,4.44,17.53-26.02,53.21-102.7,58.55Z"/></clipPath><clipPath id="clippath-1"><path class="cls-13" d="m144.96,672.98s-1.2,54.43,88.93,94.57c90.13,40.13,335.08,59.63,379.71-81.77l-138.8-39.86h-186.2l-40.98,18.61-102.66,8.45Z"/></clipPath><clipPath id="clippath-2"><path class="cls-13" d="m497.44,685.31v9.06c0,.49-.06.98-.17,1.46-.7,2.69-3.12,4.57-5.89,4.6h-215.07c-2.82,0-5.28-1.91-5.98-4.65-.11-.48-.17-.97-.17-1.46v-9.06l227.28.04Z"/></clipPath><clipPath id="clippath-3"><path class="cls-13" d="m557.62,817.31c-14.64,15.27-61.53,18.31-81.11,13.86-5.34-1.23-24.8-1.92-39.29-7.12-7.82-2.77-14.19-6.84-16.14-13.01-5.62-17.6,43.89-51.08,43.89-51.08,0,0,31.58,6.08,38.13,7.65,7.63,1.8,15.41,2.87,23.24,3.21,15.02.65,25.18-1.35,36.18,3.38,12.46,5.39,12.63,24.82-4.9,43.11Z"/></clipPath><clipPath id="clippath-4"><path class="cls-13" d="m468.72,751.87c-4.71,31.92-53.93,66.6-53.93,66.6,0,0-13.62-12.78-18.12-12.25s-23.24-.8-23.24-.8c0,0-148.2-55.47-165.98-55.76-11.11-.17-43.13-9.91-58.98-35.17-9.42-15-13.12-35.49-3.38-62.67,16.05-44.84,95.2-11.81,172.81,31.05,25.77,14.26,48.58,25.69,67.11,34.39,30.73,14.47,49.43,21.44,49.43,21.44l10.27-3.68,24.02,16.86Z"/></clipPath><clipPath id="clippath-5"><path class="cls-13" d="m967.2,191.59s-29.57-3.27-47.67-35.74c-18.1-32.47-115.33-21.8-115.33-21.8,0,0,.57,11.36,15.61,14.3l-10.56,5.07s3.08,13.01,30.63,11.85l-7.35,8.15s11.58,9.44,40.6,5.3l-5.47,7.03s13.56,9.44,36.59,2.81l-2.51,6.44s17.45,1.27,27.73-3.23c.04,0,19.94,12.27,37.75-.19Z"/></clipPath><clipPath id="clippath-6"><path class="cls-13" d="m981.98,146.19l-10.22,3.53-4.9-10.24c-.5-1.08-1.74-1.59-2.85-1.18l-34.83,11.89c-1.16.43-1.9,1.57-1.82,2.81l.91,11.6-58.07,20c-2.8,1.02-4.38,4-3.63,6.89l23.45,88.4c.66,2.61,3.31,4.2,5.92,3.55.14-.04.28-.08.42-.12l111.72-38.49c2.8-1.02,4.38-3.99,3.65-6.89l-23.4-88.29c-.66-2.62-3.32-4.22-5.95-3.56-.13.03-.26.07-.39.12Z"/></clipPath><clipPath id="clippath-7"><path class="cls-13" d="m1007.5,245.01l-111.72,38.49c-2.88.9-5.99-.41-7.35-3.11l-.55-1.12-26.3-54.56-13.03-26.95c-1.19-2.28-.31-5.08,1.97-6.27.23-.12.47-.22.71-.3l111.74-38.47c2.88-.93,6,.38,7.35,3.08l39.94,82.65c1.17,2.27.28,5.06-1.99,6.23-.25.13-.51.23-.78.32Z"/></clipPath><clipPath id="clippath-8"><path class="cls-13" d="m927.7,225.42s-28.98,6.34-56.63-18.55c-27.65-24.88-116.18,16.35-116.18,16.35,0,0,4.22,10.56,19.35,8.45l-8.3,8.17s7.08,11.32,32.8,1.39l-4.5,10.03s13.98,5.24,40.13-8.01l-2.94,8.45s15.88,4.58,35.55-9.06l-.23,6.97s16.9-4.41,25.24-11.96c0,.06,22.77,5.28,35.7-12.25Z"/></clipPath></defs><g id="freepik--Bricks--inject-15"><rect class="cls-5" x="620.95" y="568.84" width="52.7" height="21.17"/><rect class="cls-5" x="594.61" y="540.87" width="52.7" height="21.17"/><rect class="cls-5" x="473.68" y="370.01" width="52.7" height="21.17"/><rect class="cls-5" x="502.53" y="343.67" width="52.7" height="21.17"/><rect class="cls-5" x="698.68" y="105.23" width="52.7" height="21.17"/><rect class="cls-5" x="670.82" y="77.03" width="52.7" height="21.17"/><rect class="cls-5" x="47.61" y="553.75" width="52.7" height="21.17"/><rect class="cls-5" x="19.75" y="525.55" width="52.7" height="21.17"/><rect class="cls-5" x="289.51" y="88.44" width="52.7" height="21.17"/><rect class="cls-5" x="261.65" y="60.26" width="52.7" height="21.17"/><rect class="cls-5" x="448.08" y="179.73" width="52.7" height="21.17"/><rect class="cls-5" x="647.3" y="266.28" width="52.7" height="21.17"/><rect class="cls-5" x="791.9" y="493.43" width="52.7" height="21.17"/><rect class="cls-5" x="532.7" y="370.01" width="52.7" height="21.17"/><path class="cls-5" d="m740.97,452.68c-51.22-.57-104.03-.57-153.69,0"/><path class="cls-5" d="m762.07,452.68h-12.86"/><path class="cls-5" d="m147.08,512.25c51.22.57,104.03.57,153.69,0"/><path class="cls-5" d="m126.06,512.25h12.89"/><path class="cls-5" d="m498.39,234.19h7.27"/><path class="cls-5" d="m421.82,234.19h68.33"/><rect class="cls-5" x="120.61" y="370.89" width="52.7" height="21.17"/><path class="cls-5" d="m122.95,337.6h-7.27"/><path class="cls-5" d="m199.55,337.6h-68.33"/><path class="cls-5" d="m37.78,121.56h-7.27"/><path class="cls-5" d="m114.38,121.56H46.04"/></g><g id="freepik--Floor--inject-15"><line class="cls-7" x1="60.03" y1="761.76" x2="969.21" y2="761.76"/></g><g id="freepik--Bag--inject-15"><path class="cls-31" d="m618.71,783.22s-13.6,19.24.49,25.71c14.09,6.46,138.84-8.45,197.23-9s90.28-22.6,89.03-29.28-15.48-19.39-15.48-19.39l-9.93,11.6s10.56,3.17,10.27,8.07c-.3,4.9-38.97,20.85-87.62,14.13-48.65-6.72-152.32,14.11-160.54,13.18-8.22-.93-.36-19.31-.36-19.31l-23.09,4.29Z"/><path class="cls-30" d="m814.56,790.88c-76.7,5.32-204.13,3.53-204.13,3.53-65.78-4.79-78.16-26.49-67.89-51.18,15.99-38.02,86.22-83.12,99.02-84.18,21.12-1.71,43.34,6.67,43.34,6.67l13.73-2.89c-4.22-11.39,39.18-36.73,59.02-25.79,19.83,10.94,60.83-4.08,73.19,3.63,3.28,2.11,6.1,4.86,8.28,8.09,3.5,5.23,5.96,11.08,7.25,17.24h.17c3.11-.83,6.29-1.33,9.51-1.48,6.8-.36,15.86.68,22.96,6.86,1.81,1.61,3.54,3.32,5.18,5.11,12.8,13.98,29.28,40.41,33.08,55.83,4.44,17.53-26.02,53.21-102.7,58.55Z"/><g class="cls-15"><path class="cls-27" d="m748.81,649.02c-3.74-6.57,43.47-3.46,48.48,0,5.01,3.46,5.03,14.32,10.46,11.39,4.33-2.32,20.83-11.26,31.39-11.64,3.5,5.23,5.96,11.08,7.25,17.24,0,0-64.95,18.36-69.14,13.48s11.7-8.94,16.71-19.64c5.01-10.71-15.04-7.77-19.2-7.69s-22.2,3.42-25.94-3.13Z"/><path class="cls-27" d="m814.56,790.88c-76.7,5.32-204.13,3.53-204.13,3.53-65.78-4.79-78.16-26.49-67.89-51.18,2.53,1.99,6.89,2.87,14.03,1.5,23.47-4.52,36.82-5.77,51.88,8.45,15.06,14.22,32.19,22.86,40.13,20.07,0,0,1.1-31.39,31.68-53.93,30.59-22.54,37.79-16.14,43.89-22.12,6.1-5.98,9.72-16.9-7.82-23.07-17.53-6.17-26.07-8.45-26.07-8.45,0,0,19.31-1.5,36.04,6,16.73,7.5,31.33,25.35,24.23,29.38-7.1,4.03,10.43,11.22,22.56,9.29,10.73-1.73,46.34-1.92,53.48-2.22-6.34,1.35-34.68,10.2-34.68,17,0,0,8.74,14.36,8.68,30.61-.06,16.24,19.01,18.31,27.27,12.23,8.26-6.08,9.99-14.43,6.86-30.31-3.13-15.88-11.87-17.07-23.24-14.6,0,0,14.62-8.81,19.22-5.89,4.6,2.91,17.53,1.69,20.05,15.46,2.51,13.77-6.34,25.07-2.11,28.83,4.22,3.76,28.41-.42,32.59-8.45,4.18-8.03,1.42-54.01-2.62-54.92s-24.21,5.22-24.78,5.39c1.95-5.47,6.65-9.49,12.36-10.56,7.44-1.31,16.6-8.62,18.06-16.6,12.8,13.98,29.28,40.41,33.08,55.83,4.37,17.7-26.09,53.38-102.76,58.72Z"/></g><path class="cls-7" d="m814.56,790.88c-76.7,5.32-204.13,3.53-204.13,3.53-65.78-4.79-78.16-26.49-67.89-51.18,15.99-38.02,86.22-83.12,99.02-84.18,21.12-1.71,43.34,6.67,43.34,6.67l13.73-2.89c-4.22-11.39,39.18-36.73,59.02-25.79,19.83,10.94,60.83-4.08,73.19,3.63,3.28,2.11,6.1,4.86,8.28,8.09,3.5,5.23,5.96,11.08,7.25,17.24h.17c3.11-.83,6.29-1.33,9.51-1.48,6.8-.36,15.86.68,22.96,6.86,1.81,1.61,3.54,3.32,5.18,5.11,12.8,13.98,29.28,40.41,33.08,55.83,4.44,17.53-26.02,53.21-102.7,58.55Z"/><path class="cls-7" d="m684.91,665.73s9.61,3.21,33.8,8.98c24.19,5.77,10.86,25.35-6.7,26.4-17.55,1.06-62.61,40.28-63.45,66.92-.84,26.64,35.04,22.75,35.04,22.75"/><path class="cls-7" d="m698.66,662.84s33.46-1.42,56.02,11.87c22.56,13.29,82.74-5.3,82.74-5.3"/><path class="cls-7" d="m793.95,725.19c10.05,13.77,5.83,57.83,5.83,57.83,0,0,66.26-6.04,84.49-20.87,18.23-14.83,2.39-63.07-7.65-64.87-10.03-1.8-46.79,19.16-76.04,23.24"/><path class="cls-7" d="m804.83,725.19s20.89-7.94,25.07,0c4.18,7.94,12.46,34.81,7.52,44.13-4.94,9.32-23.4,7.58-23.4,7.58"/><path class="cls-7" d="m726.27,641.29s26.7,11.26,41.76,11.05c15.06-.21,32.61-1.33,25.92,7.58-2.98,3.82-5.77,7.79-8.34,11.89"/><path class="cls-7" d="m660.37,740.67s30.02,10.56,62.61,5.64c32.59-4.92,37.92.95,37.92.95v22.05s-21.12-3.91-34.58,0c-13.46,3.91-57.67,6.89-77.71-1.29"/><path class="cls-7" d="m651.52,755.8s11.05,3.08,38.72,3.15c27.67.06,53.59-2.28,53.59-2.28"/><path class="cls-25" d="m644.99,691.04l-.87-9.61c-.09-1.1.65-2.11,1.73-2.34l22.43-4.9c1.13-.31,2.29.36,2.59,1.49.04.14.06.29.07.44l.91,9.08c.1,1.09-.61,2.09-1.67,2.37l-22.5,5.43c-1.12.33-2.29-.31-2.62-1.43-.05-.17-.08-.34-.08-.51Z"/><polygon class="cls-31" points="653.14 680.47 665.27 682.57 662.56 684.17 649.59 682.31 653.14 680.47"/><path class="cls-31" d="m678,668.75c4.16-3.53,9.34-5.63,14.79-5.98,8.13,0,14.41,2.51,13.56,3s-13.77,3.02-16.18,5.94l-12.17-2.96Z"/><path class="cls-31" d="m557.48,770.69s-26.32,8.6-12.12,18.63c14.19,10.03,33.44,7.94,49.09-2.11l1.67-9.4c-6.15.95-12.12,2.78-17.74,5.45-8.15,4.22-27.16,0-25.92-2.32,1.08-1.46,2.79-2.32,4.6-2.3l.42-7.94Z"/><path class="cls-31" d="m638.57,793.78c1.94,10.56,75.37-4.65,135-15.17,59.63-10.52,112.37,1.67,116.77-7.69,4.39-9.36,15.12-.27,15.12-.27-5.21,10.41-13.93,18.64-24.63,23.24-17.49,7.16-99.64,5.49-145.75,14.93-46.11,9.44-127.92,23.24-122.03-12.67l25.52-2.37Z"/></g><g id="freepik--Character--inject-15"><path class="cls-28" d="m144.96,672.98s-1.2,54.43,88.93,94.57c90.13,40.13,335.08,59.63,379.71-81.77l-138.8-39.86h-186.2l-40.98,18.61-102.66,8.45Z"/><g class="cls-17"><path class="cls-27" d="m144.96,672.98s-1.2,54.43,88.93,94.57c90.13,40.13,335.08,59.63,379.71-81.77l-138.8-39.86h-186.2l-40.98,18.61-102.66,8.45Z"/></g><path class="cls-7" d="m144.96,672.98s-1.2,54.43,88.93,94.57c90.13,40.13,335.08,59.63,379.71-81.77l-138.8-39.86h-186.2l-40.98,18.61-102.66,8.45Z"/><path class="cls-31" d="m250.77,433.97c-16.35,14.6-73.04,179.55-65.71,197.54,7.33,18,103.5,34.43,103.5,34.43,0,0-9.51-186.24-9.99-189.35s-27.8-42.63-27.8-42.63Z"/><path class="cls-31" d="m505.49,433.97c16.35,14.6,73.04,179.55,65.71,197.54-7.33,18-103.5,34.43-103.5,34.43,0,0,9.51-186.24,9.99-189.35.49-3.11,27.8-42.63,27.8-42.63Z"/><path class="cls-31" d="m250.77,433.97s37.73-42.63,126.95-45.16c71.69-2.11,120.76,33.48,127.77,45.16,7.01,11.68-31.9,167.38-31.9,167.38l21.78,83.82s-116.79,38.91-221.1,0l14-88.51s-36.73-140.89-37.51-162.69Z"/><g class="cls-12"><path class="cls-19" d="m427.48,405.94s-32.32,35.61-65.12,25.69"/><path class="cls-19" d="m400.55,471.67c7.56,1.46,15.2,2.45,22.88,2.96"/><path class="cls-19" d="m307.76,426.85c20.51,18.65,50.7,34.62,82.7,42.61"/><path class="cls-19" d="m485.68,463.86c-6.86,12.73-10.92,26.78-11.91,41.21"/><path class="cls-19" d="m500.61,440.98c-3.45,4.14-6.6,8.51-9.42,13.1"/><path class="cls-19" d="m503.55,485.34c-14.6,6.34-28.03,29.19-28.03,29.19,6.07,11.88,10.77,24.42,14,37.37"/><path class="cls-19" d="m481.35,606.8s13.67-2.22,22.2-11.34c8.53-9.13,33.27-6.67,36.78,0"/><path class="cls-19" d="m512.29,584.53s8.77-13.35,28.03-4.01"/><path class="cls-19" d="m258.35,445.08s19.24,12.82,21.12,47.82"/><path class="cls-19" d="m271.45,528.05c-5.22,14.43-10.88,29.17-13.71,44.36"/><path class="cls-19" d="m262.49,492.9c5.09,1.29,16.64,6.13,17.62,12.08.46,2.77-3.59,9.4-4.54,11.93"/><path class="cls-19" d="m241.5,586.37c4.02-.95,8.25.26,11.15,3.21"/><path class="cls-19" d="m220.37,595.45c3.48-2.31,7.14-4.33,10.96-6.02"/><path class="cls-19" d="m239.64,602.11s1.25-10.41,18.72-6.65c17.47,3.76,58.93,16.6,58.93,16.6"/></g><path class="cls-21" d="m423.58,402.71s-20.07,19.75-44.36,19.75-47.48-22.88-47.48-22.88c0,0,12.53-6.23,15.88-18.72.21-.76.38-1.53.51-2.3.91-5.47-.55-14.79-2.66-23.97-3.32-14.47-8.24-28.96-8.24-28.96h78.47s-3.72,18.1-6.17,34.79c-.44,3.06-.87,6.06-1.18,8.91-.32,2.85-.65,5.91-.8,8.45-.97,17.68,16.03,24.93,16.03,24.93Z"/><path class="cls-29" d="m497.44,685.31v9.06c0,.49-.06.98-.17,1.46-.7,2.69-3.12,4.57-5.89,4.6h-215.07c-2.82,0-5.28-1.91-5.98-4.65-.11-.48-.17-.97-.17-1.46v-9.06l227.28.04Z"/><g class="cls-2"><path class="cls-27" d="m497.44,685.31v9.06c0,.49-.06.98-.17,1.46h-226.95c-.11-.48-.17-.97-.17-1.46v-9.06h227.28Z"/></g><path class="cls-7" d="m497.44,685.31v9.06c0,.49-.06.98-.17,1.46-.7,2.69-3.12,4.57-5.89,4.6h-215.07c-2.82,0-5.28-1.91-5.98-4.65-.11-.48-.17-.97-.17-1.46v-9.06l227.28.04Z"/><path class="cls-24" d="m495.31,691.35h-223.04c-2.15.07-4.05-1.39-4.52-3.49l-19.37-156.31c-.32-2.31,1.3-4.44,3.62-4.76.2-.03.41-.04.61-.04h262.39c2.33-.02,4.24,1.85,4.26,4.19,0,.2-.01.41-.04.61l-19.37,156.31c-.46,2.11-2.38,3.59-4.54,3.49Z"/><path class="cls-22" d="m273.18,688.06l-19.01-149.83c-.18-1.69,1.06-3.21,2.75-3.38.09,0,.18-.01.27-.02h253.2c1.71.03,3.08,1.44,3.06,3.15,0,.08,0,.16-.01.25l-19.01,149.83"/><path class="cls-7" d="m273.18,688.06l-19.01-149.83c-.18-1.69,1.06-3.21,2.75-3.38.09,0,.18-.01.27-.02h253.2c1.71.03,3.08,1.44,3.06,3.15,0,.08,0,.16-.01.25l-19.01,149.83"/><polygon class="cls-25" points="386.34 622.68 363.42 622.68 390.03 594.8 377.68 616.94 386.34 622.68"/><polygon class="cls-25" points="377.36 637.3 405.62 610.03 383.23 610.03 391.26 615.94 377.36 637.3"/><path class="cls-25" d="m569.24,780.3l6.76,7.69s6.34,14.41-11.17,32.04c-17.51,17.64-62.9,21.12-80.56,18.06l-11.13,1.5-37.87-8.2s-19.18-9.38-11.34-25.83c7.84-16.45,145.33-25.26,145.33-25.26Z"/><path class="cls-29" d="m557.62,817.31c-14.64,15.27-61.53,18.31-81.11,13.86-5.34-1.23-24.8-1.92-39.29-7.12-7.82-2.77-14.19-6.84-16.14-13.01-5.62-17.6,43.89-51.08,43.89-51.08,0,0,31.58,6.08,38.13,7.65,7.63,1.8,15.41,2.87,23.24,3.21,15.02.65,25.18-1.35,36.18,3.38,12.46,5.39,12.63,24.82-4.9,43.11Z"/><g class="cls-11"><path class="cls-27" d="m526.26,770.82c-11.28,18.42-39.44,53.78-89.03,53.23-7.82-2.77-14.19-6.84-16.14-13.01-5.62-17.6,43.89-51.08,43.89-51.08,0,0,31.58,6.08,38.13,7.65,7.6,1.79,15.35,2.87,23.15,3.21Z"/></g><path class="cls-7" d="m557.62,817.31c-14.64,15.27-61.53,18.31-81.11,13.86-5.34-1.23-24.8-1.92-39.29-7.12-7.82-2.77-14.19-6.84-16.14-13.01-5.62-17.6,43.89-51.08,43.89-51.08,0,0,31.58,6.08,38.13,7.65,7.63,1.8,15.41,2.87,23.24,3.21,15.02.65,25.18-1.35,36.18,3.38,12.46,5.39,12.63,24.82-4.9,43.11Z"/><path class="cls-7" d="m456,781.44s48.58,14.66,57.71,13.71c9.13-.95,10.24,6.53,10.24,6.53"/><path class="cls-7" d="m463.79,763.8s53.31,11.41,59.76,13.31c3.89,1.12,8.03.93,11.81-.53"/><path class="cls-7" d="m473.68,764.65c-.93,10.55-7.35,19.82-16.9,24.4"/><path class="cls-7" d="m483.65,766.47c-.97,10.17-6.07,19.49-14.11,25.79"/><path class="cls-7" d="m494.28,770.14s2.87,15.59-13.71,27.06"/><path class="cls-7" d="m505.47,771.37s2.51,19.64-13.5,29.72"/><path class="cls-7" d="m517.45,773.08s-.42,20.51-13.92,29.3"/><path class="cls-7" d="m526.85,775.7s3.55,17.43-10.96,28.05"/><path class="cls-28" d="m468.72,751.87c-4.71,31.92-53.93,66.6-53.93,66.6,0,0-13.62-12.78-18.12-12.25s-23.24-.8-23.24-.8c0,0-148.2-55.47-165.98-55.76-11.11-.17-43.13-9.91-58.98-35.17-9.42-15-13.12-35.49-3.38-62.67,16.05-44.84,95.2-11.81,172.81,31.05,25.77,14.26,48.58,25.69,67.11,34.39,30.73,14.47,49.43,21.44,49.43,21.44l10.27-3.68,24.02,16.86Z"/><g class="cls-1"><path class="cls-27" d="m468.72,751.87c-4.71,31.92-53.93,66.6-53.93,66.6,0,0-13.62-12.78-18.12-12.25s-23.24-.8-23.24-.8c0,0-148.2-55.47-165.98-55.76-11.11-.17-43.13-9.91-58.98-35.17,18.61,1.37,50.32,4.48,65.48,10.14,0,0-16.9,4.22-12.25,8.28,4.65,4.06,72.49,12.04,96.36,6.02,21.59-5.43,64.68-20.11,86.98-21.67,30.73,14.47,49.43,21.44,49.43,21.44l10.27-3.68,23.97,16.86Z"/></g><path class="cls-7" d="m468.72,751.87c-4.71,31.92-53.93,66.6-53.93,66.6,0,0-13.62-12.78-18.12-12.25s-23.24-.8-23.24-.8c0,0-148.2-55.47-165.98-55.76-11.11-.17-43.13-9.91-58.98-35.17-9.42-15-13.12-35.49-3.38-62.67,16.05-44.84,95.2-11.81,172.81,31.05,25.77,14.26,48.58,25.69,67.11,34.39,30.73,14.47,49.43,21.44,49.43,21.44l10.27-3.68,24.02,16.86Z"/><path class="cls-7" d="m337.48,721.03c5.26-.91,10.56-1.99,15.65-3.34"/><path class="cls-7" d="m197.14,723.84c42.94,3.44,87.15,4.41,129.93-1.23"/><path class="cls-25" d="m194.03,783.26l-6.82,7.69s-6.34,14.41,11.15,32.04c17.49,17.64,62.9,21.12,80.56,18.06l11.15,1.5,37.85-8.13s19.26-9.36,11.36-25.83c-7.9-16.48-145.26-25.33-145.26-25.33Z"/><path class="cls-24" d="m298.32,762.92s-31.58,6.08-38.15,7.63c-29.34,6.93-43.49-.19-59.31,6.61-12.55,5.39-12.67,24.82,4.79,43.11,14.64,15.27,61.53,18.31,81.11,13.86,8.22-1.86,49.85-2.6,55.45-20.15,5.6-17.55-43.89-51.05-43.89-51.05Z"/><path class="cls-7" d="m307.27,784.4s-48.58,14.66-57.71,13.71c-9.13-.95-10.24,6.53-10.24,6.53"/><path class="cls-7" d="m299.5,766.7s-53.34,11.43-59.78,13.31c-3.89,1.13-8.03.95-11.81-.51"/><path class="cls-7" d="m289.61,767.61c.93,10.55,7.35,19.82,16.9,24.4"/><path class="cls-7" d="m279.62,769.42c.97,10.17,6.08,19.5,14.13,25.79"/><path class="cls-7" d="m269.02,773.08s-2.89,15.59,13.69,27.06"/><path class="cls-7" d="m257.8,774.37s-2.51,19.64,13.5,29.72"/><path class="cls-7" d="m245.85,776.03s.4,20.51,13.92,29.3"/><path class="cls-7" d="m236.45,778.59s-3.55,17.41,10.94,28.05"/><path class="cls-25" d="m615.1,651.51c-16.16-44.82-95.22-11.64-172.72,31.37-68.52,38.02-116.45,56.04-116.45,56.04l-10.27-3.63-24,16.9c4.77,31.9,54.08,66.47,54.08,66.47,0,0,13.58-12.82,18.1-12.29s23.24-.84,23.24-.84c0,0,148.2-55.74,165.88-56.06,17.68-.32,88.4-24.97,62.14-97.95Z"/><path class="cls-7" d="m400.09,766.66c4.22.3,8.58.46,12.86.49"/><path class="cls-7" d="m325.92,738.92c15.48,16.43,40.83,23.57,62.42,26.53"/><path class="cls-7" d="m500.34,709.86c30.31,5.77,64.02,11.05,94.53,3.93"/><path class="cls-7" d="m477.08,704.79c4.22,1.08,8.58,2.11,12.91,2.98"/><path class="cls-31" d="m409.64,360.35c-.44,3.06-.87,6.06-1.18,8.91-7.9,8.09-21.12,19.22-33.8,19.6-9.27.27-19.01-3.7-26.91-8.07.21-.76.38-1.53.51-2.3.91-5.47-.55-14.79-2.66-23.97l64.05,5.83Z"/><path class="cls-21" d="m430.12,309.19s5.77-5.43,8.6-3.63c2.83,1.8,6.19,6.82,4.65,11.43-1.54,4.6-8.24,12.67-8.77,17.32s-3.97,9.97-7.77,6.86c-3.8-3.11,3.3-31.98,3.3-31.98Z"/><path class="cls-21" d="m327.42,309.19s-5.77-5.43-8.6-3.63c-2.83,1.8-6.19,6.82-4.63,11.43,1.56,4.6,8.24,12.67,8.74,17.32.51,4.65,3.99,9.97,7.77,6.86,3.78-3.11-3.3-31.98-3.3-31.98Z"/><path class="cls-21" d="m377.53,235.09c74.99,0,54.71,90.66,40.89,122.72-4.84,11.26-28.75,27.04-40.89,27.04-11.3,0-33.8-14.79-38.44-25.35-13.96-32.32-33.02-124.41,38.44-124.41Z"/><path class="cls-7" d="m390.24,308.56s19.52-6.04,25.56,6.04"/><path class="cls-31" d="m404.78,324.97c0,2.3-1.16,4.22-2.62,4.22s-2.6-1.88-2.6-4.22,1.16-4.22,2.6-4.22,2.62,1.92,2.62,4.22Z"/><path class="cls-7" d="m367.35,308.56s-19.54-6.04-25.58,6.04"/><path class="cls-31" d="m352.88,324.97c0,2.3,1.18,4.22,2.62,4.22s2.62-1.88,2.62-4.22-1.18-4.22-2.62-4.22-2.62,1.92-2.62,4.22Z"/><path class="cls-21" d="m369.99,342.1c-2.83,3.02,6.97,7.98,8.81,7.98s9.29-3.91,9.29-6.21"/><path class="cls-31" d="m408.66,260.63c-18.8,6-39,6-57.79,0,0,0-10.12-.59-14.11,4.5-3.99,5.09,0,20.79,1.06,27.19,1.06,6.4-8.79,10.81-7.46,26.97l-1.33,6.1s-10.9-27.76-8.24-50.13c2.66-22.37,14.64-29.83,14.64-29.83,0,0,6.44-19.31,44.17-19.18,40.66.17,44.76,22.18,44.76,22.18,0,0,25.35,19.01,4.9,79.02l-2.11-8.17c1.05-7.95-.78-16.01-5.15-22.73-3.55-5.18,2.11-20.76.8-28.75-1.31-7.98-14.13-7.18-14.13-7.18Z"/><path class="cls-21" d="m362.53,357.44c5.1,2.37,10.66,3.58,16.29,3.55,5.31.11,10.59-.79,15.57-2.64"/><path class="cls-31" d="m407.02,267.77c1.62,8.21,4.59,16.1,8.79,23.34,6.34,10.12,13.81,11.15,15.95,23.49,0,0,19.45-32.83,3-61.64,0,0-5.18-32.7-55.95-32.7s-74.29,35.38-54.56,89.71c9.73-4.23,16.42-13.36,17.53-23.91,1.03,7.4-.84,14.92-5.22,20.98,0,0,26.15-3.87,32.93-25.66,0,0-2.64,14.49-11.36,20.64,0,0,9.86,12.46,21.12-7.01,11.26-19.48,18.04-31.14,27.78-27.23Z"/><path class="cls-6" d="m366.95,272.02c-3.17,4.54-7.63,11.55-14.07,10.88"/><path class="cls-6" d="m404.78,253.15c-8.55-17.41-27.1,3.93-33.16,12.34"/><path class="cls-6" d="m333.13,257.02c-2.1,1.89-4.59,3.3-7.29,4.12"/><path class="cls-6" d="m394.36,236.91c-17.26-18.06-41.72,2.94-55.38,14.96"/><path class="cls-6" d="m429.22,257.46c2.95,4.65,4.84,9.89,5.53,15.36"/><path class="cls-6" d="m415.8,249.88c2.74-.07,5.44.67,7.77,2.11"/><path class="cls-6" d="m410.56,240.8s3.74-9.91,11.26-2.66"/></g><g id="freepik--Bubble--inject-15"><circle class="cls-4" cx="233.28" cy="222.9" r="59.13" transform="translate(-89.29 230.24) rotate(-45)"/><path class="cls-7" d="m280.62,176.58c-24.32-23.79-62.81-24.99-88.57-2.77"/><path class="cls-7" d="m295.72,247.2c8.86-22.6,4.5-48.25-11.34-66.64"/><path class="cls-7" d="m281.74,284.31l11.91,7.1-10.1-24.42c1.66-1.84,3.21-3.78,4.65-5.81"/><path class="cls-7" d="m192.05,272.82c22.21,19.15,54.44,21.21,78.89,5.03l5.87,3.49"/><path class="cls-7" d="m174.07,199.06c-9.05,22.71-4.7,48.57,11.28,67.07"/><path class="cls-7" d="m180.7,186.6c-1.45,2.11-2.76,4.3-3.93,6.57"/><path class="cls-7" d="m224.15,244.68l-20.51-19.75c-1.91-1.84-1.96-4.87-.13-6.78,1.84-1.91,4.87-1.96,6.78-.13"/><path class="cls-7" d="m258.12,197.85c1.47-2.2,4.45-2.8,6.65-1.33,2.2,1.47,2.8,4.45,1.33,6.65l-30.14,45.06c-.78,1.18-2.05,1.96-3.46,2.11h-.42c-1.27.02-2.5-.47-3.42-1.35"/><polyline class="cls-7" points="214.97 222.55 231.17 238.14 254.17 203.75"/></g><g id="freepik--Folder--inject-15"><path class="cls-20" d="m967.2,191.59s-29.57-3.27-47.67-35.74c-18.1-32.47-115.33-21.8-115.33-21.8,0,0,.57,11.36,15.61,14.3l-10.56,5.07s3.08,13.01,30.63,11.85l-7.35,8.15s11.58,9.44,40.6,5.3l-5.47,7.03s13.56,9.44,36.59,2.81l-2.51,6.44s17.45,1.27,27.73-3.23c.04,0,19.94,12.27,37.75-.19Z"/><g class="cls-9"><path class="cls-26" d="m967.2,191.61c-17.87,12.44-37.77.19-37.77.19-10.29,4.46-27.73,3.23-27.73,3.23l2.45-6.55c-23,6.65-36.56-2.81-36.56-2.81l5.47-7.03c-29.02,4.22-40.6-5.32-40.6-5.32l7.48-8.03c-27.46,1.12-30.61-11.87-30.61-11.87l10.56-5.05c-15.04-2.96-15.61-14.32-15.61-14.32,0,0,5.51,9.82,21.4,9.51,0,0-2.66,6.63,13.6,7.86,0,0,13.75,5.85,23.72,1.48,0,0,3.34,6.8,15.29,5.64l-4.03,5.34s1.25,7.01,16.05,3.53l-2.11,6.89s4.86,5.64,23.91,1.44c0,0-5.96,3.89-3.99,5.87,1.96,1.99,7.96,2.94,13.16,2.43-.08-.04,20.26,16.03,45.92,7.58Z"/></g><path class="cls-14" d="m967.2,191.59s-29.57-3.27-47.67-35.74c-18.1-32.47-115.33-21.8-115.33-21.8,0,0,.57,11.36,15.61,14.3l-10.56,5.07s3.08,13.01,30.63,11.85l-7.35,8.15s11.58,9.44,40.6,5.3l-5.47,7.03s13.56,9.44,36.59,2.81l-2.51,6.44s17.45,1.27,27.73-3.23c.04,0,19.94,12.27,37.75-.19Z"/><path class="cls-23" d="m841.3,140.21c-9.78,2.47-15.69,1.69-22.96,5.39,0,0,6.34,8.66,23.02,7.5"/><path class="cls-14" d="m848.74,156.52c-4.21.9-8.32,2.18-12.29,3.84,0,0,2.41,11.26,28.83,5.87"/><path class="cls-14" d="m875.57,169.91l-7.65,4.99c8.98,3.67,18.88,4.41,28.3,2.11"/><path class="cls-21" d="m903.83,177.2s-7.56,5.32-7.31,6.06,15.15,6.34,28.62-.99"/><path class="cls-23" d="m857.36,143.4c-4.63,2.11-18.33,4.1-19.24,6.1,0,0,4.48,12.55,27.46,5.47"/><path class="cls-23" d="m872.76,158.04c-3.5,1.4-6.77,3.29-9.74,5.62,0,0,8.91,12.38,30.57,1.69"/><path class="cls-23" d="m896.33,165.33c-3.85,1.73-6.83,4.97-8.22,8.96,0,0,10.71,6.93,29.07-.27"/><path class="cls-23" d="m876.37,147.69s-13.05,2.79-13.41,5.2c0,0,10.56,9.02,27.27,4.48"/><path class="cls-23" d="m892.19,156.2c-2.03,1.03-3.79,2.51-5.15,4.33,0,0,5.05,7.48,18.06,3.4"/><path class="cls-28" d="m981.98,146.19l-10.22,3.53-4.9-10.24c-.5-1.08-1.74-1.59-2.85-1.18l-34.83,11.89c-1.16.43-1.9,1.57-1.82,2.81l.91,11.6-58.07,20c-2.8,1.02-4.38,4-3.63,6.89l23.45,88.4c.66,2.61,3.31,4.2,5.92,3.55.14-.04.28-.08.42-.12l111.72-38.49c2.8-1.02,4.38-3.99,3.65-6.89l-23.4-88.29c-.66-2.62-3.32-4.22-5.95-3.56-.13.03-.26.07-.39.12Z"/><g class="cls-3"><path class="cls-27" d="m981.98,146.19l-10.22,3.53-4.9-10.24c-.5-1.08-1.74-1.59-2.85-1.18l-34.83,11.89c-1.16.43-1.9,1.57-1.82,2.81l.91,11.6-58.07,20c-2.8,1.02-4.38,4-3.63,6.89l23.45,88.4c.66,2.61,3.31,4.2,5.92,3.55.14-.04.28-.08.42-.12l111.72-38.49c2.8-1.02,4.38-3.99,3.65-6.89l-23.4-88.29c-.66-2.62-3.32-4.22-5.95-3.56-.13.03-.26.07-.39.12Z"/></g><path class="cls-7" d="m981.98,146.19l-10.22,3.53-4.9-10.24c-.5-1.08-1.74-1.59-2.85-1.18l-34.83,11.89c-1.16.43-1.9,1.57-1.82,2.81l.91,11.6-58.07,20c-2.8,1.02-4.38,4-3.63,6.89l23.45,88.4c.66,2.61,3.31,4.2,5.92,3.55.14-.04.28-.08.42-.12l111.72-38.49c2.8-1.02,4.38-3.99,3.65-6.89l-23.4-88.29c-.66-2.62-3.32-4.22-5.95-3.56-.13.03-.26.07-.39.12Z"/><path class="cls-28" d="m1007.5,245.01l-111.72,38.49c-2.88.9-5.99-.41-7.35-3.11l-.55-1.12-26.3-54.56-13.03-26.95c-1.19-2.28-.31-5.08,1.97-6.27.23-.12.47-.22.71-.3l111.74-38.47c2.88-.93,6,.38,7.35,3.08l39.94,82.65c1.17,2.27.28,5.06-1.99,6.23-.25.13-.51.23-.78.32Z"/><g class="cls-8"><path class="cls-27" d="m927.7,225.45c-1.24,15.06-12.55,27.35-27.46,29.83-2.33,8.79-6.53,16.98-12.31,24l-26.34-54.56c22.24,3.84,47.84,6,66.12.74Z"/></g><path class="cls-7" d="m1007.5,245.01l-111.72,38.49c-2.88.9-5.99-.41-7.35-3.11l-.55-1.12-26.3-54.56-13.03-26.95c-1.19-2.28-.31-5.08,1.97-6.27.23-.12.47-.22.71-.3l111.74-38.47c2.88-.93,6,.38,7.35,3.08l39.94,82.65c1.17,2.27.28,5.06-1.99,6.23-.25.13-.51.23-.78.32Z"/><path class="cls-20" d="m927.7,225.42s-28.98,6.34-56.63-18.55c-27.65-24.88-116.18,16.35-116.18,16.35,0,0,4.22,10.56,19.35,8.45l-8.3,8.17s7.08,11.32,32.8,1.39l-4.5,10.03s13.98,5.24,40.13-8.01l-2.94,8.45s15.88,4.58,35.55-9.06l-.23,6.97s16.9-4.41,25.24-11.96c0,.06,22.77,5.28,35.7-12.25Z"/><g class="cls-18"><path class="cls-26" d="m927.7,225.45c-12.93,17.51-35.7,12.29-35.7,12.29-8.3,7.54-25.24,11.96-25.24,11.96l.23-6.99c-19.67,13.69-35.55,9.08-35.55,9.08l2.94-8.45c-26.15,13.27-40.13,8.01-40.13,8.01l4.5-10.01c-25.73,9.91-32.8-1.42-32.8-1.42l8.32-8.17c-15.21,2.11-19.39-8.45-19.39-8.45,0,0,8.45,7.52,23.24,2.11,0,0-.4,7.14,15.4,3.08,0,0,14.91,1.14,22.94-6.21,0,0,5.37,5.37,16.31.44l-2.11,6.34s3.42,6.23,16.35-1.82l.15,7.22s6.34,3.76,23.13-6.34c0,0-4.39,5.6-1.92,6.84s8.45.21,13.27-1.92c.04,0,24.44,8.66,46.09-7.6Z"/></g><path class="cls-14" d="m927.7,225.42s-28.98,6.34-56.63-18.55c-27.65-24.88-116.18,16.35-116.18,16.35,0,0,4.22,10.56,19.35,8.45l-8.3,8.17s7.08,11.32,32.8,1.39l-4.5,10.03s13.98,5.24,40.13-8.01l-2.94,8.45s15.88,4.58,35.55-9.06l-.23,6.97s16.9-4.41,25.24-11.96c0,.06,22.77,5.28,35.7-12.25Z"/><path class="cls-23" d="m791.88,217.19c-8.45,5.49-14.32,6.61-20,12.46,0,0,8.85,6.15,24.21-.3"/><path class="cls-14" d="m804.17,230.16c-3.69,2.2-7.17,4.74-10.39,7.58,0,0,5.87,9.91,29.17-3.7"/><path class="cls-14" d="m833.91,234.32l-5.72,7.2c9.68.56,19.29-1.95,27.46-7.18"/><path class="cls-23" d="m862.91,232.18s-5.45,7.46-4.96,8.09,16.37,1.14,26.78-10.14"/><path class="cls-23" d="m808.18,215.03c-3.74,3.38-16.05,9.76-16.26,11.96,0,0,8.28,10.46,27.82-3.63"/><path class="cls-23" d="m827.43,223.97c-2.86,2.45-5.35,5.3-7.41,8.45,0,0,12.42,8.87,29.57-8.2"/><path class="cls-23" d="m852.1,223.31c-3.1,2.88-4.87,6.9-4.9,11.13,0,0,12.34,3.13,27.46-9.59"/><path class="cls-23" d="m827.53,213s-11.47,6.84-11.03,9.23c0,0,12.82,5.18,27.25-4.5"/><path class="cls-23" d="m845.25,216c-1.6,1.61-2.79,3.58-3.49,5.75,0,0,7.18,5.47,18.19-2.56"/><path class="cls-10" d="m701.72,526.03c2.51-.84,5.18-1.82,7.94-2.89"/><path class="cls-16" d="m719.28,519.1c47.65-21.33,117.44-72.45,102.43-155.63-12.38-68.44-68.97-62.33-85.99-48.22-28.88,23.95-33.27,80.27,8.45,92.05,69.28,19.41,121.94-67.09,139.16-100"/><path class="cls-10" d="m885.79,302.65c2.39-4.77,3.63-7.63,3.63-7.63"/></g></svg>