<?xml version="1.0" encoding="UTF-8"?><svg id="Layer_1" xmlns="http://www.w3.org/2000/svg" xmlns:xlink="http://www.w3.org/1999/xlink" viewBox="0 0 1031.65 1031.65"><defs><style>.cls-1{fill:url(#linear-gradient-4);}.cls-1,.cls-2,.cls-3,.cls-4,.cls-5,.cls-6,.cls-7,.cls-8,.cls-9,.cls-10,.cls-11,.cls-12,.cls-13,.cls-14,.cls-15,.cls-16{fill-rule:evenodd;}.cls-2{fill:url(#linear-gradient-12);}.cls-3{fill:#fff;}.cls-4{fill:url(#linear-gradient-2);}.cls-5{fill:url(#linear-gradient);}.cls-6{fill:url(#linear-gradient-9);}.cls-7{fill:url(#linear-gradient-6);}.cls-8{fill:url(#linear-gradient-14);}.cls-9{fill:url(#linear-gradient-5);}.cls-10{fill:url(#linear-gradient-10);}.cls-11{fill:url(#linear-gradient-11);}.cls-12{fill:url(#linear-gradient-13);}.cls-13{fill:url(#linear-gradient-7);}.cls-14{fill:url(#linear-gradient-8);}.cls-15{fill:url(#linear-gradient-3);}.cls-16,.cls-17{fill:#263238;}</style><linearGradient id="linear-gradient" x1="171.96" y1="369.17" x2="250.04" y2="369.17" gradientUnits="userSpaceOnUse"><stop offset="0" stop-color="#f41735"/><stop offset="1" stop-color="#fc4648"/></linearGradient><linearGradient id="linear-gradient-2" x1="171.85" y1="399.19" x2="318.94" y2="399.19" xlink:href="#linear-gradient"/><linearGradient id="linear-gradient-3" x1="171.85" y1="429.23" x2="318.94" y2="429.23" xlink:href="#linear-gradient"/><linearGradient id="linear-gradient-4" x1="171.85" y1="459.22" x2="318.94" y2="459.22" xlink:href="#linear-gradient"/><linearGradient id="linear-gradient-5" x1="82.78" y1="294.53" x2="132.87" y2="294.53" xlink:href="#linear-gradient"/><linearGradient id="linear-gradient-6" x1="139.95" y1="279.24" x2="152.59" y2="279.24" xlink:href="#linear-gradient"/><linearGradient id="linear-gradient-7" x1="70.82" y1="332.6" x2="111.47" y2="332.6" xlink:href="#linear-gradient"/><linearGradient id="linear-gradient-8" x1="276.16" y1="858.03" x2="900.13" y2="858.03" xlink:href="#linear-gradient"/><linearGradient id="linear-gradient-9" x1="376.5" y1="829.39" x2="395.8" y2="829.39" xlink:href="#linear-gradient"/><linearGradient id="linear-gradient-10" x1="759.75" y1="470.42" x2="808.25" y2="470.42" xlink:href="#linear-gradient"/><linearGradient id="linear-gradient-11" x1="702.5" y1="317.04" x2="788.41" y2="317.04" xlink:href="#linear-gradient"/><linearGradient id="linear-gradient-12" x1="734.79" y1="308.22" x2="787.17" y2="308.22" xlink:href="#linear-gradient"/><linearGradient id="linear-gradient-13" x1="735.31" y1="346.38" x2="755.72" y2="346.38" xlink:href="#linear-gradient"/><linearGradient id="linear-gradient-14" x1="526.4" y1="566.35" x2="741.47" y2="566.35" xlink:href="#linear-gradient"/></defs><path class="cls-16" d="m383.52,454.03c0-3.8-1.47-7.38-4.14-10.08-2.67-2.66-6.3-4.14-10.07-4.14H121.64c-3.77,0-7.4,1.48-10.07,4.14-2.67,2.69-4.17,6.28-4.17,10.08v156.39c0,3.76,1.5,7.39,4.17,10.04,2.67,2.69,6.3,4.18,10.07,4.18h247.67c3.77,0,7.4-1.48,10.07-4.18,2.67-2.65,4.14-6.28,4.14-10.04v-156.39Z"/><path class="cls-3" d="m351.37,338.51c0-6.52-5.28-11.81-11.82-11.81h-186.99c-6.54,0-11.85,5.29-11.85,11.81v124.78s65.4,49.32,93.15,70.24c7.21,5.45,17.15,5.45,24.36,0,27.74-20.92,93.15-70.24,93.15-70.24v-124.78Z"/><path class="cls-16" d="m353.1,338.51c0-7.48-6.09-13.52-13.55-13.52h-186.99c-7.49,0-13.55,6.05-13.55,13.52v124.78c0,.56.25,1.03.7,1.35,0,0,65.38,49.36,93.12,70.24,7.82,5.93,18.61,5.93,26.43,0,27.74-20.88,93.15-70.24,93.15-70.24.45-.32.7-.79.7-1.35v-124.78Zm-3.44,0v123.94c-6.98,5.25-66.38,50.08-92.45,69.73-6.62,4.97-15.73,4.97-22.35,0l-92.45-69.73v-123.94c0-5.57,4.55-10.14,10.14-10.14h186.99c5.59,0,10.11,4.57,10.11,10.14Z"/><path class="cls-3" d="m111.41,443.36s88.26,66.58,121.32,91.46c7.86,5.94,18.74,5.94,26.6,0,33.02-24.89,121.32-91.46,121.32-91.46.72-.58.88-1.65.32-2.39-.56-.74-1.64-.91-2.39-.33,0,0-88.26,66.58-121.28,91.46-6.66,5.04-15.87,5.04-22.53,0-33.02-24.89-121.28-91.46-121.28-91.46-.76-.58-1.83-.41-2.39.33-.56.74-.44,1.82.32,2.39Z"/><path class="cls-5" d="m173.65,370.87h74.67c.95,0,1.72-.77,1.72-1.72s-.77-1.68-1.72-1.68h-74.67c-.92,0-1.68.77-1.68,1.68s.77,1.72,1.68,1.72Z"/><path class="cls-4" d="m173.54,400.91h143.65c.99,0,1.76-.77,1.76-1.76,0-.92-.77-1.69-1.76-1.69h-143.65c-.92,0-1.69.77-1.69,1.69,0,.99.77,1.76,1.69,1.76Z"/><path class="cls-15" d="m173.54,430.95h143.65c.99,0,1.76-.77,1.76-1.76,0-.92-.77-1.69-1.76-1.69h-143.65c-.92,0-1.69.77-1.69,1.69,0,.99.77,1.76,1.69,1.76Z"/><path class="cls-1" d="m173.54,460.95h143.65c.99,0,1.76-.77,1.76-1.76,0-.92-.77-1.69-1.76-1.69h-143.65c-.92,0-1.69.77-1.69,1.69,0,.99.77,1.76,1.69,1.76Z"/><path class="cls-16" d="m361.16,554.61l7.48,13.46c.46.84,1.5,1.13,2.32.68s1.13-1.51.67-2.31l-7.48-13.5c-.46-.81-1.5-1.13-2.32-.68-.82.49-1.13,1.51-.67,2.35Z"/><path class="cls-9" d="m132.37,316.67l-46.68-46.68c-.67-.67-1.75-.67-2.41,0s-.67,1.75,0,2.41l46.68,46.68c.67.67,1.75.67,2.41,0s.67-1.75,0-2.41Z"/><path class="cls-7" d="m152.53,296.03l-9.23-34.46c-.24-.91-1.18-1.45-2.09-1.2-.91.24-1.45,1.18-1.21,2.09l9.23,34.46c.24.91,1.18,1.45,2.09,1.2.91-.24,1.45-1.18,1.21-2.09Z"/><path class="cls-13" d="m110.2,335.94l-37.24-9.98c-.91-.24-1.84.3-2.09,1.21-.24.91.3,1.84,1.2,2.09l37.24,9.98c.91.24,1.85-.3,2.09-1.21s-.3-1.85-1.21-2.09Z"/><path class="cls-16" d="m623.26,410.95c3.44.44,6.88.73,10.29.92.95.07,1.75-.66,1.8-1.61.03-.95-.66-1.72-1.61-1.79-3.34-.15-6.66-.48-10.07-.88-.91-.15-1.8.51-1.9,1.47-.11.92.55,1.79,1.5,1.9Zm30.98.44c3.48-.37,6.93-.84,10.25-1.47.96-.18,1.58-1.06,1.39-1.98-.18-.92-1.06-1.54-1.98-1.39-3.29.62-6.63,1.1-10,1.43-.95.07-1.61.92-1.54,1.87.12.92.96,1.61,1.87,1.54Zm-61.16-7.62c3.29,1.17,6.6,2.2,9.89,3.11.88.22,1.83-.29,2.08-1.21.26-.91-.29-1.83-1.21-2.09-3.18-.88-6.41-1.9-9.63-3.04-.88-.29-1.87.18-2.16,1.06-.33.88.14,1.87,1.02,2.16Zm91.45.88c3.29-1.14,6.51-2.42,9.67-3.77.84-.4,1.24-1.39.88-2.27-.4-.84-1.39-1.25-2.27-.88-3.04,1.35-6.19,2.6-9.38,3.7-.91.33-1.35,1.28-1.05,2.2.33.88,1.28,1.36,2.16,1.03Zm-119.57-13.81c3.04,1.76,6.08,3.37,9.12,4.87.84.44,1.84.11,2.27-.73.4-.84.07-1.87-.77-2.31-2.97-1.47-5.94-3.08-8.94-4.76-.81-.48-1.87-.18-2.31.62-.47.81-.18,1.87.63,2.31Zm147.47.22c2.93-1.9,5.75-3.92,8.47-6.01.72-.55.87-1.61.32-2.38-.58-.73-1.65-.88-2.41-.29-2.64,2.01-5.39,3.96-8.24,5.79-.77.51-1.03,1.57-.52,2.38.51.77,1.57,1.03,2.38.51Zm-173.11-17.25c2.38,1.57,4.76,3.26,7.14,5.02.4.26.77.55,1.18.81.77.55,1.83.4,2.38-.37.54-.77.36-1.83-.4-2.38-.37-.29-.73-.55-1.1-.84-2.45-1.79-4.9-3.48-7.32-5.05-.81-.55-1.87-.33-2.38.48-.51.77-.3,1.83.51,2.34Zm196.88-2.71c2.38-2.56,4.62-5.2,6.74-7.91.55-.73.4-1.83-.32-2.38-.73-.59-1.84-.44-2.39.29-2.05,2.64-4.21,5.2-6.51,7.69-.63.7-.58,1.76.11,2.42.66.62,1.76.59,2.38-.11Zm-340-1.36s3.08-2.12,8.68-4.98c.81-.4,1.17-1.43.73-2.27-.44-.84-1.46-1.17-2.31-.77-5.82,3-9.05,5.24-9.05,5.24-.77.51-.99,1.57-.44,2.34.55.81,1.61.99,2.38.44Zm116.28-10.03c3.07,1.21,6.15,2.6,9.27,4.1.84.4,1.86.04,2.26-.81.4-.84.07-1.87-.77-2.27-3.19-1.54-6.37-2.93-9.49-4.17-.87-.37-1.86.07-2.2.95-.36.84.07,1.87.92,2.2Zm-88.96-2.64c3.04-.99,6.26-1.94,9.7-2.78.92-.22,1.46-1.17,1.25-2.09-.22-.92-1.17-1.46-2.05-1.24-3.55.88-6.85,1.87-9.96,2.86-.92.29-1.39,1.28-1.1,2.16.29.92,1.25,1.39,2.16,1.1Zm59.8-5.31c3.26.48,6.55,1.1,9.92,1.9.91.22,1.84-.37,2.05-1.28.18-.91-.36-1.83-1.28-2.05-3.44-.81-6.85-1.43-10.18-1.94-.95-.15-1.79.51-1.94,1.43-.15.95.51,1.8,1.43,1.94Zm-30.21-.84c3.26-.29,6.63-.48,10.11-.51.92-.04,1.68-.81,1.68-1.72-.04-.95-.81-1.72-1.72-1.68-3.55.04-7.03.22-10.36.51-.95.07-1.65.91-1.54,1.87.07.92.91,1.61,1.83,1.54Z"/><path class="cls-14" d="m409.05,902.38c3.33.19,6.77.3,10.29.33.95,0,1.72-.73,1.72-1.68s-.77-1.72-1.68-1.72c-3.48-.04-6.85-.15-10.14-.33-.95-.04-1.76.69-1.8,1.61-.07.96.66,1.76,1.61,1.8Zm30.87-.36c3.37-.26,6.78-.58,10.25-.99.95-.12,1.61-.96,1.5-1.9-.11-.92-.95-1.61-1.9-1.51-3.41.4-6.78.73-10.11.99-.95.07-1.65.88-1.57,1.84.07.91.91,1.65,1.83,1.57Zm-61.56-3.59c3.3.69,6.7,1.32,10.18,1.87.92.15,1.79-.51,1.94-1.43.15-.95-.51-1.8-1.43-1.94-3.44-.55-6.74-1.14-10-1.84-.92-.18-1.83.4-2.01,1.32-.18.96.4,1.84,1.32,2.02Zm92.18-.48c3.3-.62,6.67-1.32,10.07-2.08.92-.19,1.5-1.1,1.28-2.02-.18-.91-1.1-1.5-2.01-1.32-3.37.77-6.7,1.42-10,2.05-.92.18-1.54,1.06-1.35,1.98.18.96,1.06,1.54,2.01,1.39Zm-121.84-8.35c3.15,1.25,6.37,2.42,9.74,3.52.88.3,1.83-.18,2.12-1.1.29-.88-.18-1.83-1.06-2.12-3.3-1.1-6.48-2.23-9.52-3.48-.88-.34-1.87.11-2.23.99-.33.87.07,1.86.95,2.19Zm151.83,1.36c3.26-.88,6.56-1.76,9.89-2.68.91-.26,1.46-1.17,1.2-2.08-.26-.91-1.2-1.47-2.08-1.21-3.34.91-6.63,1.8-9.89,2.64-.91.26-1.47,1.21-1.21,2.09.26.91,1.18,1.47,2.09,1.24Zm29.62-8.2c3.23-.91,6.52-1.87,9.82-2.82.91-.29,1.43-1.2,1.18-2.12-.26-.92-1.21-1.43-2.12-1.18-3.3.96-6.56,1.9-9.82,2.86-.91.26-1.43,1.17-1.17,2.08.26.92,1.2,1.43,2.12,1.18Zm-209.07-7.11c2.82,1.8,5.79,3.52,8.9,5.24.84.44,1.87.11,2.31-.69.48-.85.15-1.87-.66-2.31-3.08-1.68-5.97-3.37-8.75-5.12-.81-.48-1.87-.26-2.34.55-.51.8-.26,1.86.55,2.34Zm238.55-1.5c3.22-.96,6.52-1.94,9.78-2.93.92-.26,1.43-1.21,1.18-2.12-.3-.88-1.24-1.39-2.12-1.14-3.29.99-6.56,1.94-9.82,2.93-.91.26-1.42,1.21-1.14,2.08.26.92,1.21,1.43,2.12,1.18Zm29.41-8.75c3.26-.99,6.52-1.94,9.82-2.93.87-.26,1.39-1.21,1.14-2.12-.26-.87-1.21-1.39-2.12-1.14-3.26,1-6.56,1.94-9.82,2.93-.88.26-1.39,1.21-1.14,2.09.26.91,1.21,1.42,2.12,1.17Zm-292.54-8.64c2.38,2.23,4.94,4.54,7.76,6.84.73.58,1.83.48,2.42-.26.59-.73.48-1.8-.22-2.38-2.78-2.27-5.31-4.5-7.62-6.66-.7-.66-1.76-.63-2.42.07-.66.66-.62,1.75.07,2.38Zm321.98-.04c3.26-.95,6.52-1.9,9.82-2.86.88-.26,1.42-1.2,1.17-2.08-.26-.91-1.21-1.43-2.12-1.18-3.29.96-6.56,1.87-9.81,2.82-.92.3-1.43,1.24-1.18,2.12.26.91,1.21,1.42,2.12,1.17Zm29.48-8.42c3.29-.91,6.56-1.8,9.85-2.71.91-.26,1.47-1.17,1.21-2.08-.26-.91-1.21-1.43-2.09-1.21-3.29.91-6.59,1.83-9.88,2.75-.92.21-1.43,1.17-1.18,2.08.26.91,1.18,1.43,2.09,1.17Zm-371.57-15.24s1.94,3.34,6.04,8.54c.59.73,1.68.84,2.42.26.73-.58.84-1.65.26-2.38-3.92-4.98-5.78-8.14-5.78-8.14-.48-.8-1.5-1.1-2.31-.62-.84.48-1.1,1.54-.62,2.34Zm401.19,7.29c3.3-.84,6.6-1.68,9.89-2.52.91-.22,1.47-1.14,1.24-2.05-.22-.92-1.17-1.47-2.08-1.25-3.29.81-6.6,1.65-9.92,2.53-.92.22-1.47,1.18-1.21,2.09.21.87,1.17,1.42,2.08,1.2Zm29.74-7.29c3.34-.77,6.66-1.53,9.97-2.26.95-.18,1.5-1.1,1.32-2.02-.22-.91-1.1-1.5-2.05-1.32-3.29.73-6.63,1.5-10,2.27-.91.21-1.47,1.14-1.24,2.05.18.91,1.1,1.47,2.01,1.28Zm180.98-7.58c3.23,1.06,6.37,2.27,9.45,3.55.87.37,1.86-.03,2.23-.87.36-.88-.04-1.87-.91-2.24-3.11-1.35-6.37-2.56-9.67-3.66-.92-.33-1.87.18-2.17,1.06-.29.87.19,1.86,1.06,2.16Zm-151.02,1.17c3.37-.66,6.7-1.28,10.03-1.87.96-.18,1.54-1.05,1.39-1.98-.18-.95-1.06-1.53-1.98-1.39-3.37.63-6.7,1.25-10.07,1.91-.96.18-1.54,1.06-1.36,1.98.19.91,1.07,1.53,1.98,1.35Zm30.18-5.16c3.4-.51,6.78-.95,10.11-1.39.96-.11,1.61-.99,1.47-1.9-.11-.96-.96-1.61-1.9-1.47-3.37.4-6.74.88-10.15,1.39-.96.12-1.57.99-1.47,1.9.15.96,1.03,1.61,1.94,1.47Zm91.26-2.71c3.41.48,6.74,1.03,10.04,1.65.91.19,1.8-.44,1.98-1.35.18-.91-.44-1.84-1.36-2.02-3.33-.62-6.74-1.17-10.18-1.65-.91-.15-1.8.51-1.9,1.47-.15.91.51,1.8,1.42,1.9Zm-60.86-.81c3.4-.29,6.81-.51,10.14-.69.96-.07,1.69-.88,1.61-1.8-.03-.96-.84-1.68-1.8-1.61-3.37.19-6.81.4-10.25.7-.96.07-1.65.91-1.57,1.83.11.96.91,1.65,1.87,1.57Zm30.5-1.2c3.4,0,6.81.11,10.15.26.95.03,1.75-.7,1.79-1.65.04-.91-.69-1.72-1.65-1.76-3.37-.15-6.81-.26-10.29-.26-.91-.03-1.69.73-1.69,1.69-.03.91.73,1.68,1.69,1.72Z"/><path class="cls-6" d="m386.13,819.74c-5.31,0-9.63,4.32-9.63,9.64s4.32,9.66,9.63,9.66,9.67-4.32,9.67-9.66-4.32-9.64-9.67-9.64Zm0,3.41c3.48,0,6.26,2.78,6.26,6.23s-2.78,6.26-6.26,6.26-6.23-2.78-6.23-6.26,2.78-6.23,6.23-6.23Z"/><path class="cls-16" d="m815.92,556.67c-4.18,0-7.51,3.38-7.51,7.51s3.34,7.51,7.51,7.51,7.5-3.38,7.5-7.51-3.38-7.51-7.5-7.51Zm0,3.42c2.25,0,4.08,1.83,4.08,4.09s-1.84,4.09-4.08,4.09-4.13-1.84-4.13-4.09,1.84-4.09,4.13-4.09Z"/><path class="cls-10" d="m762.15,482.41l45.12-20.87c.84-.4,1.2-1.43.84-2.27-.4-.88-1.43-1.25-2.27-.84l-45.11,20.91c-.85.4-1.21,1.39-.81,2.27.36.84,1.39,1.21,2.23.81Z"/><path class="cls-16" d="m220.13,733.81c-.57-.32-1.3-.29-1.85.12-.54.41-.76,1.11-.6,1.75l21.7,90.1c.13.51.51.96.99,1.14.51.22,1.08.19,1.53-.09l38.72-22.33,37.38-13.93c.6-.22,1.05-.8,1.08-1.47.06-.67-.29-1.3-.86-1.62l-98.08-53.66Zm1.75,4.83s74.73,40.91,91.4,50.04l-34.01,12.66c-.1.03-.16.07-.25.13l-36.84,21.28-20.3-84.11Z"/><path class="cls-11" d="m788.36,279.56c.16-.67-.08-1.34-.62-1.77-.54-.4-1.25-.46-1.84-.13l-82.51,45.15c-.56.32-.91.96-.88,1.63.06.64.49,1.23,1.13,1.47l31.42,11.69,32.54,18.79c.46.27,1.02.32,1.53.11.48-.21.86-.64.96-1.18l18.27-75.77Zm-4.2,2.94l-16.86,69.8-30.67-17.72c-.08-.05-.16-.11-.27-.13l-28.05-10.44,75.85-41.51Z"/><path class="cls-16" d="m280.29,801.6l-58.22-65.75c-.6-.7-1.69-.8-2.39-.16-.7.64-.79,1.72-.16,2.42l58.22,65.75c.6.7,1.69.77,2.39.13.73-.6.79-1.69.16-2.39Z"/><path class="cls-2" d="m737.78,336.99l48.95-55.32c.64-.7.56-1.77-.13-2.41-.7-.62-1.8-.54-2.41.16l-48.98,55.32c-.61.7-.56,1.79.16,2.41.69.62,1.76.56,2.4-.16Z"/><path class="cls-16" d="m276.86,803.1l-9.96,20.36-7.38-8.94c-.6-.73-1.69-.83-2.42-.26-.73.6-.83,1.68-.22,2.41l9.07,10.98c.38.44.95.67,1.53.6.57-.06,1.08-.41,1.34-.92l11.1-22.75c.41-.82.06-1.84-.76-2.26-.86-.41-1.88-.07-2.29.77Z"/><path class="cls-12" d="m735.48,337.58l9.36,19.11c.27.51.78.88,1.34.94.58.08,1.15-.16,1.52-.62l7.63-9.23c.59-.72.49-1.79-.24-2.38-.72-.62-1.8-.51-2.38.21l-5.97,7.2-8.19-16.73c-.43-.86-1.45-1.2-2.28-.8-.86.43-1.2,1.44-.8,2.3Z"/><path class="cls-16" d="m903.38,630.92c-1.43-5.34-6.91-8.5-12.26-7.07-20.05,5.37-65.94,17.67-86,23.04-5.34,1.43-8.51,6.91-7.07,12.25,3.61,13.47,10.11,37.72,13.71,51.18,1.42,5.33,6.92,8.5,12.25,7.07,20.06-5.38,65.96-17.67,86-23.05,5.35-1.43,8.51-6.92,7.08-12.25-3.61-13.47-10.11-37.72-13.71-51.19Z"/><path class="cls-3" d="m797.86,652.26s37.29,15.09,53.22,21.52c4.88,1.98,10.5.48,13.74-3.68,10.54-13.49,35.17-45.03,35.17-45.03.58-.73.44-1.8-.3-2.38-.74-.58-1.82-.44-2.4.29l-35.14,45.02c-2.31,2.96-6.31,4.04-9.78,2.62l-53.22-21.51c-.86-.35-1.86.07-2.22.94-.35.87.07,1.88.94,2.22Z"/><path class="cls-3" d="m496.1,438s4.5,25.89,9.59,37.39c0,0-8.31,25.45,9.22,20.18,0,0,14.24,40.58,52.21,21.57l6.72,20.07,72.35-12.93-16.17-39.66-36.57-64.42-97.36,17.8Z"/><path class="cls-16" d="m495.77,436.31c-.91.18-1.52,1.06-1.36,1.98,0,0,4.46,25.31,9.48,37.21-.53,1.79-1.93,7.1-1.85,11.98.07,4.1,1.33,7.8,4.38,9.52,1.75.95,4.16,1.35,7.49.62,2.04,4.8,9.64,20.14,24.71,24.87,7.33,2.31,16.44,2.16,27.51-2.97l6.12,18.24c.26.81,1.1,1.28,1.93,1.13l72.35-12.96c.53-.07.95-.4,1.21-.84.22-.44.26-.99.07-1.47l-16.17-39.66s-.07-.11-.11-.18l-36.57-64.42c-.34-.62-1.06-.95-1.78-.84l-97.39,17.8Zm2.31,3.04l94.52-17.25s34.34,60.54,35.9,63.25l15.33,37.61-68.83,12.3-6.23-18.68c-.15-.48-.53-.84-.98-1.03-.46-.18-.99-.18-1.4.04-10.88,5.46-19.72,5.86-26.75,3.63-16.47-5.16-23.08-24.21-23.08-24.21-.3-.88-1.24-1.35-2.12-1.06-2.91.84-4.95.84-6.35.04-2.08-1.14-2.57-3.81-2.64-6.56-.07-5.46,1.89-11.54,1.89-11.54.15-.37.11-.81-.04-1.21-4.31-9.63-8.12-29.48-9.22-35.34Z"/><path class="cls-16" d="m590.49,441.42s-8.93,4.66-17.2,14.9c-.58.73-.49,1.8.24,2.39.76.6,1.83.48,2.4-.25,7.75-9.61,16.16-14.01,16.16-14.01.82-.44,1.17-1.47.72-2.3s-1.46-1.16-2.32-.72Z"/><path class="cls-16" d="m590.3,454.46s-5.47-3.37-9.56-4.69c-.92-.29-1.88.2-2.16,1.1-.29.9.23,1.86,1.11,2.15,3.79,1.21,8.8,4.34,8.8,4.34.82.5,1.86.25,2.37-.55.47-.81.25-1.85-.57-2.35Z"/><path class="cls-16" d="m566.26,442.17s1.57,7.18,1.24,19.59c0,.29-.22.59-.51.73-.3.15-.63.07-.88-.15-2.42-2.31-7.87-8.06-13.29-17.83,0,0-36.77,5.27-56.26-4.69l1.25,6.15s-15.86-8.31-12.2-27.39l-7.36,7.76s5.86-71.34,74.56-85.18c55.22-11.1,78.11,22.89,78.11,22.89,0,0,43.24,20.84,29.73,64.64-11.57,37.54-17.02,43.25-26.58,64.71l-9.16,1.76-30.32-30.51s12.56-9.85,3.25-24.83c-5.09-8.17-20.47-11.46-31.6,2.34Z"/><path class="cls-16" d="m511.69,453.13s3.09-3.77,9.73-5.95c.87-.29,1.37-1.26,1.07-2.16-.3-.87-1.24-1.39-2.16-1.06-7.72,2.55-11.27,7.03-11.27,7.03-.59.75-.47,1.81.26,2.41.72.6,1.78.45,2.37-.27Z"/><path class="cls-16" d="m547.65,485.84s-1.42,12.77-15.33,13.51c-.91.09-1.63.91-1.6,1.79.04.95.86,1.7,1.82,1.6,16.87-.92,18.51-16.53,18.51-16.53.07-.97-.59-1.81-1.53-1.91-.93-.1-1.8.62-1.87,1.52Z"/><path class="cls-17" d="m520.95,467.58c2.64-.36,4.5-2.79,4.14-5.43-.36-2.64-2.79-4.5-5.44-4.14-2.64.36-4.5,2.79-4.14,5.43.36,2.64,2.79,4.5,5.44,4.14Z"/><path class="cls-3" d="m547.55,933.36l-18.06-233.5v-108.4l120.31-16.11,76.47,32.34c13.81,1.39,58.56,174.94,74.27,325.68h-252.98Z"/><path class="cls-16" d="m545.83,933.48c.07.87.84,1.57,1.72,1.57h252.98c.48,0,.96-.18,1.28-.55.33-.36.48-.84.44-1.32-12.59-120.77-43.84-256.13-62.88-306.16-3.44-9.01-6.51-15.28-9.01-18.35-1.28-1.61-2.56-2.41-3.62-2.64-4.18-1.76-76.29-32.27-76.29-32.27-.26-.11-.58-.15-.87-.11l-120.3,16.11c-.84.11-1.51.84-1.51,1.68v108.4s0,.07.04.11l18.02,233.5Zm3.29-1.84c-1.57-20.18-17.62-227.64-17.91-231.85v-106.83c13.23-1.79,110.83-14.87,118.37-15.85,6.11,2.6,75.99,32.12,75.99,32.12.18.07.33.11.51.14.26.04.51.26.81.55.58.51,1.17,1.28,1.83,2.23,2.16,3.26,4.65,8.72,7.47,16.08,18.9,49.62,49.77,183.47,62.47,303.41h-249.54Z"/><path class="cls-8" d="m537.99,564.1s-1.28-17.73,13.89-28.05c15.19-10.29,108.84-36.77,151.17-20.8,15.85,5.97,19.44,21.31,25.38,43.62,3.11,11.76,1.1,15.45,10.25,32.19,9.12,16.74-5.42,31.46-24.47,31.39-19.04-.12-68-2.89-116.46-21.13-48.45-18.27-58.81-9.34-69.62-3.77,0,0-7.87-23.29,9.85-33.44Z"/><path class="cls-16" d="m545.31,564.78s13.91-3.11,24.8-.61c.9.21,1.8-.37,2.01-1.27.24-.94-.33-1.84-1.28-2.05-11.5-2.66-26.27.57-26.27.57-.9.21-1.47,1.15-1.27,2.05.21.94,1.1,1.51,2.01,1.31Z"/><path class="cls-16" d="m725.66,576.32s-18.04,9.78-61.22-.12c-.9-.25-1.84.33-2.04,1.27-.21.9.36,1.84,1.27,2.05,44.89,10.27,63.64-.2,63.64-.2.82-.45,1.1-1.47.65-2.29-.44-.82-1.47-1.15-2.29-.7Z"/><path class="cls-16" d="m58.55,935.04h889.22c.94,0,1.7-.77,1.7-1.68s-.77-1.72-1.7-1.72H58.55c-.94,0-1.71.77-1.71,1.72s.77,1.68,1.71,1.68Z"/><path class="cls-3" d="m390.39,597.18s-6.4-13.8-7.75-22.09c-1.34-8.32-6.52-17.41-10.35-21.25-3.68-3.68-9.82,0-9.82,0,0,0-18.68-25.31-26.5-35.93-1.88-2.53-5.48-3.07-8.01-1.23-2.61,1.92-3.3,5.52-1.65,8.28,6.17,10.32,20.06,33.36,20.06,33.36,0,0-8.21,2.88-10.66,9.85,0,0-8.32,4.37-8.74,12.2,0,0-5.52,5.41-3.6,13.76,1.92,8.36,12.35,15.53,18.22,19.02,5.87,3.52,11.39,10.39,11.39,10.39l17.91-5.37,19.52-21.02Z"/><path class="cls-16" d="m391.62,598.34c.5-.5.61-1.27.31-1.88,0,0-6.29-13.5-7.59-21.63-1.38-8.67-6.83-18.18-10.85-22.2-1.88-1.88-4.26-2.3-6.4-2.07-1.61.15-3.07.69-4.07,1.11l-25.69-34.74c-2.42-3.3-7.06-4.03-10.35-1.57-3.34,2.42-4.22,6.98-2.11,10.51l19.06,31.71c-2.68,1.34-7.52,4.37-9.59,9.43-1.96,1.23-8.28,5.64-9.05,12.65-1.38,1.61-5.33,7.09-3.57,14.88.84,3.64,3.11,7.06,5.98,10.08,4.07,4.34,9.39,7.86,13,10.05,5.68,3.38,10.97,9.97,10.97,9.97.42.54,1.15.77,1.8.58l17.91-5.37c.27-.07.54-.27.77-.46l19.48-21.05Zm-3.26-1.5l-18.41,19.86-16.37,4.91c-1.76-1.99-6.33-7.02-11.12-9.89-3.41-2.03-8.44-5.37-12.31-9.44-2.42-2.57-4.41-5.44-5.1-8.51-1.69-7.37,3.11-12.2,3.11-12.2.31-.31.46-.69.5-1.11.38-6.94,7.86-10.78,7.86-10.78.38-.19.69-.54.8-.96,2.22-6.25,9.59-8.78,9.59-8.78.5-.19.88-.57,1.04-1.04.19-.5.15-1.04-.12-1.46l-20.06-33.36c-1.23-1.99-.69-4.6,1.19-6.02,1.8-1.3,4.33-.92,5.64.84l26.5,35.93c.54.73,1.5.92,2.26.46,0,0,1.88-1.15,4.06-1.38,1.23-.12,2.57.04,3.64,1.11,3.68,3.68,8.63,12.39,9.89,20.32,1.15,7.06,5.87,18.06,7.4,21.47Z"/><path class="cls-3" d="m409.56,611.86c5.09.11,8.39,1.65,12.16,5.24,10.51,10.07,31.61,32.59,65.85,78.85,0,0,23.22-79.07,40.1-97.64,16.88-18.53,83.17,8.24,66.69,80.54-16.45,72.32-43.55,139.02-89.07,140.08-45.56,1.06-77.46-41.34-110.75-88.26-33.33-46.91-38.6-74.89-35.27-84.52,0,0,.11-.4.44-1.1-.91-1.87-4.07-6.88-6.67-11.79-2.38-4.55-1.57-10.11,1.98-13.81,6.08-6.26,17.29-16,33.58-22.85,3.44-1.42,7.43-.47,9.85,2.38,4.47,5.16,11.1,12.9,11.1,12.9Z"/><path class="cls-16" d="m410.36,610.17c-1.61-1.87-6.85-8.02-10.62-12.34-2.89-3.37-7.65-4.5-11.79-2.82-16.55,6.96-27.98,16.88-34.17,23.26-4.07,4.21-4.98,10.55-2.23,15.75,2.31,4.43,5.09,8.9,6.3,11.09-.11.3-.18.44-.18.48-1.39,4.07-1.43,11.18,1.35,21.43,4.03,14.76,13.99,36.25,34.13,64.63,16.7,23.59,33.11,46,51.01,62.41,18.16,16.62,37.94,27.09,61.16,26.58,18.72-.44,34.47-11.57,47.61-29.66,19.34-26.51,33.18-68.12,43.1-111.73,11.79-51.89-18.16-80.82-42.99-87.02-11.1-2.78-21.25-.99-26.67,4.95-5.12,5.63-10.91,16.84-16.41,29.73-10.43,24.54-20.07,55.34-23.07,65.3-33.14-44.53-53.65-66.43-64.01-76.32-3.92-3.74-7.4-5.46-12.53-5.72Zm-2.09,2.78c.33.37.77.58,1.25.58,4.61.12,7.58,1.54,11.02,4.8,10.47,10.03,31.49,32.52,65.63,78.62.4.51,1.03.77,1.68.66.62-.11,1.13-.58,1.32-1.21,0,0,11.36-38.63,23.96-68.15,5.3-12.49,10.8-23.33,15.78-28.78,4.73-5.2,13.62-6.37,23.29-3.95,23.66,5.89,51.75,33.58,40.51,82.95-9.82,43.14-23.41,84.27-42.52,110.52-12.45,17.11-27.25,27.8-44.97,28.23-22.3.52-41.27-9.7-58.74-25.7-17.76-16.27-33.98-38.49-50.54-61.86-19.81-27.9-29.66-49.03-33.62-63.57-2.56-9.27-2.71-15.75-1.43-19.41,0,0,.11-.37.4-.99.18-.44.15-.96-.04-1.39-.92-1.91-4.07-6.93-6.7-11.87-2.01-3.88-1.35-8.65,1.68-11.79,5.97-6.19,17.03-15.75,33.03-22.48,2.78-1.14,5.93-.37,7.91,1.9,4.47,5.16,11.1,12.89,11.1,12.89Z"/><path class="cls-16" d="m486.09,696.8s13.18,22.38,18.54,49.07c.16.9,1.06,1.52,2.01,1.35.9-.21,1.51-1.1,1.31-2.01-5.44-27.29-18.91-50.13-18.91-50.13-.49-.82-1.52-1.1-2.33-.61-.82.49-1.11,1.51-.61,2.33Z"/><path class="cls-16" d="m368.07,642.41s20.79-20.01,34.58-24.23c.9-.29,1.43-1.23,1.15-2.12-.29-.91-1.23-1.39-2.13-1.14-14.32,4.37-35.97,25.04-35.97,25.04-.65.65-.7,1.75-.04,2.41.66.69,1.72.69,2.41.04Z"/></svg>