<?xml version="1.0" encoding="utf-8"?>
<!-- Generator: Adobe Illustrator 27.7.0, SVG Export Plug-In . SVG Version: 6.00 Build 0)  -->
<svg version="1.1" id="Layer_1" xmlns="http://www.w3.org/2000/svg" xmlns:xlink="http://www.w3.org/1999/xlink" x="0px" y="0px"
	 viewBox="0 0 500 500" style="enable-background:new 0 0 500 500;" xml:space="preserve">
<style type="text/css">
	.st0{fill:#FDFDFF;stroke:#009AEF;stroke-miterlimit:10;}
	.st1{fill:#FC6A70;}
	.st2{fill:#F5858C;}
	.st3{fill:#787779;}
	.st4{fill:#E6E6E6;}
	.st5{fill:#414042;}
	.st6{fill:url(#SVGID_1_);}
	.st7{fill:#09C269;}
	.st8{fill:#292C31;}
	.st9{fill:#2A2D32;}
	.st10{fill:#0AC269;}
	.st11{fill:#214FFA;}
	.st12{fill:#204FFB;}
	.st13{fill:#2044FF;}
	.st14{fill:#1D40FF;}
	.st15{fill:#1F44FF;}
	.st16{fill:#1F3AFF;}
	.st17{fill:#213BFF;}
	.st18{fill:#213EFF;}
	.st19{fill:#2048FF;}
	.st20{fill:#325AF2;}
	.st21{fill:#486AF0;}
	.st22{fill:#1C44DC;}
	.st23{fill:#1637BA;}
	.st24{fill:#183BC4;}
	.st25{fill:#1A3DCB;}
	.st26{fill:#1633AF;}
	.st27{fill:#132FA3;}
	.st28{fill:#1E47E3;}
	.st29{fill:#204BFD;}
	.st30{fill:#2041FF;}
	.st31{fill:#1F4AEB;}
	.st32{fill:#5875E6;}
	.st33{fill:#1B40D2;}
	.st34{fill:#4F5F9D;}
	.st35{fill:#FCB834;}
	.st36{fill:#7855FF;}
	.st37{fill:#A591F9;}
	.st38{fill:#E8DBFA;}
	.st39{fill:#678EEB;}
	.st40{fill:#356AE5;}
	.st41{fill:#1856ED;}
	.st42{fill:#FF9E1A;}
	.st43{fill:#0A2565;}
	.st44{fill:#103BA3;}
	.st45{fill:#061438;}
	.st46{fill:#0B286E;}
	.st47{fill:#FE9E1A;}
	.st48{fill:#BC9519;}
	.st49{fill:#FFFFFF;}
	.st50{fill:#CEEBFC;}
	.st51{fill:#06AEEF;}
	.st52{fill:#57BFF2;}
	.st53{fill:#0191FF;}
	.st54{fill:#54AADC;}
	.st55{fill:#76BF45;}
	.st56{fill:#A9D282;}
	.st57{fill:none;}
	.st58{fill:#106094;}
	.st59{fill:#684D46;}
	.st60{fill:#F4DCB9;}
	.st61{fill:#132130;}
	.st62{fill:#E9BE8D;}
	.st63{fill:#46B7E2;}
	.st64{fill:#0888BE;}
	.st65{fill:#FEFEFD;}
	.st66{fill:#F4DBB9;}
	.st67{fill:#997156;}
	.st68{fill:#E8BD8D;}
	.st69{fill:#F8F8F9;}
	.st70{fill:#FBCE4F;}
	.st71{fill:#EAC091;}
	.st72{fill:#FBFAFA;}
	.st73{fill:#EBEAE9;}
	.st74{fill:#694E46;}
	.st75{fill:#9E7558;}
	.st76{fill:#9E7659;}
	.st77{fill:#152433;}
	.st78{fill:#FF3C78;}
	.st79{fill:#777BB4;}
</style>
<g>
	<path class="st0" d="M424.5,474.6c-116.4,0-232.9,0-349.3,0c-0.1-0.1-0.3-0.3-0.4-0.3c-5.1-0.5-10-1.8-14.7-3.9
		c-18.1-8.1-29.3-21.7-33.6-41.1c-0.4-1.8-0.7-3.5-1.1-5.3c0-0.6,0-1.2,0-1.9c0.1-0.8,0.4-1.7,0.4-2.5c0-34,0-68.1,0-102.1
		c0-79,0-158,0-237c0-0.9-0.2-1.8-0.4-2.7c0-0.6,0-1.2,0-1.9c0.1-0.3,0.4-0.5,0.4-0.8c0.4-5.6,2-11,4.4-16.1
		C37.7,42.7,50.1,32,67.5,27.3c2.7-0.7,5.4-1.2,8.1-1.8c116.3,0,232.6,0,348.9,0c0.9,0.2,1.7,0.6,2.6,0.7
		c9.3,1.4,17.8,4.9,25.2,10.7c15,11.7,22.1,27.3,22.2,46.2c0.1,100.1,0,200.2,0,300.3c0,12.3-0.1,24.7-0.2,37
		c0,6.7-1.5,13.2-4.1,19.4c-7.3,17.1-20,28.1-37.8,33C429.8,473.5,427.1,474,424.5,474.6z M187.9,378.6c0.8-0.6,1.4-0.9,1.8-1.2
		c51-36.5,101.9-73,152.9-109.4c5.9-4.2,10.4-9,11-16.7c0.3-4.3,0.1-8.4-2-12.2c-1.8-3.3-4.7-5.6-7.7-7.7
		c-49.9-34.9-99.8-69.7-149.7-104.6c-2.2-1.5-4.4-3-6.9-4.8c0,1,0,1.6,0,2.2c0,7.9,0,15.8,0,23.8c0,3.6,1.2,6.6,3.7,9
		c2,2,4.3,3.8,6.6,5.4c37.2,26,74.4,51.9,111.6,77.8c4.2,2.9,8.4,5.9,12.8,8.9c-0.7,0.5-1.3,0.9-1.8,1.3
		c-41.4,28.6-82.8,57.3-124.2,85.8c-5.5,3.8-8.5,8.5-8.2,15.5C188.2,360.6,187.9,369.4,187.9,378.6z M278.1,248.1
		c-0.7-0.5-1.2-0.9-1.7-1.2c-14.9-10.3-29.8-20.7-44.7-31c-10.2-7.1-20.5-14.1-30.8-21.1c-2.6-1.8-5.5-2.6-8.6-1.8
		c-3.6,1-5.6,4-5.6,8.1c-0.1,5,0,10,0,15c0,1.1,0.4,1.8,1.3,2.4c12.7,8.7,25.3,17.5,37.9,26.3c6,4.2,12.1,8.3,18.2,12.4
		c5.9,4,12.1,4.7,18.3,1.2C267.7,255.3,272.8,251.6,278.1,248.1z"/>
	<path class="st39" d="M25.5,77.8c0.1,0.9,0.4,1.8,0.4,2.7c0,79,0,158,0,237c0,34,0,68.1,0,102.1c0,0.8-0.2,1.7-0.4,2.5
		C25.5,307.4,25.5,192.6,25.5,77.8z"/>
	<path class="st40" d="M187.9,378.6c0-9.2,0.3-18-0.1-26.8c-0.3-7,2.7-11.7,8.2-15.5c41.4-28.6,82.8-57.2,124.2-85.8
		c0.6-0.4,1.1-0.8,1.8-1.3c-4.3-3-8.6-6-12.8-8.9c-37.2-25.9-74.4-51.9-111.6-77.8c-2.3-1.6-4.6-3.4-6.6-5.4c-2.5-2.4-3.7-5.5-3.7-9
		c0.1-7.9,0-15.8,0-23.8c0-0.6,0-1.2,0-2.2c2.5,1.7,4.7,3.2,6.9,4.8c49.9,34.9,99.8,69.7,149.7,104.6c3,2.1,5.9,4.4,7.7,7.7
		c2.1,3.8,2.3,7.9,2,12.2c-0.6,7.7-5.1,12.5-11,16.7c-51,36.4-101.9,73-152.9,109.4C189.2,377.7,188.7,378,187.9,378.6z"/>
	<path class="st40" d="M278.1,248.1c-5.3,3.5-10.3,7.2-15.7,10.3c-6.2,3.5-12.4,2.8-18.3-1.2c-6.1-4.1-12.2-8.3-18.2-12.4
		c-12.7-8.8-25.3-17.5-37.9-26.3c-0.9-0.6-1.3-1.3-1.3-2.4c0.1-5,0-10,0-15c0-4.1,2.1-7.1,5.6-8.1c3.1-0.8,6,0,8.6,1.8
		c10.3,7,20.6,14.1,30.8,21.1c14.9,10.3,29.8,20.6,44.7,31C276.9,247.2,277.4,247.6,278.1,248.1z"/>
</g>
</svg>
