<?xml version="1.0" encoding="utf-8"?>
<!-- Generator: Adobe Illustrator 27.7.0, SVG Export Plug-In . SVG Version: 6.00 Build 0)  -->
<svg version="1.1" id="Layer_1" xmlns="http://www.w3.org/2000/svg" xmlns:xlink="http://www.w3.org/1999/xlink" x="0px" y="0px"
	 viewBox="0 0 500 500" style="enable-background:new 0 0 500 500;" xml:space="preserve">
<style type="text/css">
	.st0{fill:#FDFDFF;stroke:#009AEF;stroke-miterlimit:10;}
	.st1{fill:#FC6A70;}
	.st2{fill:#F5858C;}
	.st3{fill:#787779;}
	.st4{fill:#E6E6E6;}
	.st5{fill:#414042;}
	.st6{fill:url(#SVGID_1_);}
	.st7{fill:#09C269;}
	.st8{fill:#292C31;}
	.st9{fill:#2A2D32;}
	.st10{fill:#0AC269;}
	.st11{fill:#214FFA;}
	.st12{fill:#204FFB;}
	.st13{fill:#2044FF;}
	.st14{fill:#1D40FF;}
	.st15{fill:#1F44FF;}
	.st16{fill:#1F3AFF;}
	.st17{fill:#213BFF;}
	.st18{fill:#213EFF;}
	.st19{fill:#2048FF;}
	.st20{fill:#325AF2;}
	.st21{fill:#486AF0;}
	.st22{fill:#1C44DC;}
	.st23{fill:#1637BA;}
	.st24{fill:#183BC4;}
	.st25{fill:#1A3DCB;}
	.st26{fill:#1633AF;}
	.st27{fill:#132FA3;}
	.st28{fill:#1E47E3;}
	.st29{fill:#204BFD;}
	.st30{fill:#2041FF;}
	.st31{fill:#1F4AEB;}
	.st32{fill:#5875E6;}
	.st33{fill:#1B40D2;}
	.st34{fill:#4F5F9D;}
	.st35{fill:#FCB834;}
	.st36{fill:#7855FF;}
	.st37{fill:#A591F9;}
	.st38{fill:#E8DBFA;}
	.st39{fill:#678EEB;}
	.st40{fill:#356AE5;}
	.st41{fill:#1856ED;}
	.st42{fill:#FF9E1A;}
	.st43{fill:#0A2565;}
	.st44{fill:#103BA3;}
	.st45{fill:#061438;}
	.st46{fill:#0B286E;}
	.st47{fill:#FE9E1A;}
	.st48{fill:#BC9519;}
	.st49{fill:#FFFFFF;}
	.st50{fill:#CEEBFC;}
	.st51{fill:#06AEEF;}
	.st52{fill:#57BFF2;}
	.st53{fill:#0191FF;}
	.st54{fill:#54AADC;}
	.st55{fill:#76BF45;}
	.st56{fill:#A9D282;}
	.st57{fill:none;}
	.st58{fill:#106094;}
	.st59{fill:#684D46;}
	.st60{fill:#F4DCB9;}
	.st61{fill:#132130;}
	.st62{fill:#E9BE8D;}
	.st63{fill:#46B7E2;}
	.st64{fill:#0888BE;}
	.st65{fill:#FEFEFD;}
	.st66{fill:#F4DBB9;}
	.st67{fill:#997156;}
	.st68{fill:#E8BD8D;}
	.st69{fill:#F8F8F9;}
	.st70{fill:#FBCE4F;}
	.st71{fill:#EAC091;}
	.st72{fill:#FBFAFA;}
	.st73{fill:#EBEAE9;}
	.st74{fill:#694E46;}
	.st75{fill:#9E7558;}
	.st76{fill:#9E7659;}
	.st77{fill:#152433;}
	.st78{fill:#FF3C78;}
	.st79{fill:#777BB4;}
</style>
<path class="st0" d="M474.5,83.1c0-18.9-7.1-34.5-22.2-46.2c-7.4-5.8-15.9-9.3-25.2-10.7c-0.9-0.1-1.7-0.5-2.6-0.7
	c-116.3,0-232.6,0-348.9,0c-2.7,0.6-5.5,1.1-8.1,1.8C50.1,32,37.7,42.7,30.3,59.1c-2.3,5.1-3.9,10.5-4.4,16.1c0,0.3-0.2,0.5-0.4,0.8
	c0,0.6,0,1.2,0,1.9c0,114.8,0,229.6,0,344.3c0,0.6,0,1.2,0,1.9c0.4,1.8,0.7,3.5,1.1,5.3c4.3,19.4,15.5,33,33.6,41.1
	c4.7,2.1,9.6,3.3,14.7,3.9c0.1,0,0.3,0.2,0.4,0.3c116.4,0,232.9,0,349.3,0c2.6-0.6,5.2-1,7.8-1.8c17.9-4.9,30.6-15.9,37.8-33
	c2.6-6.1,4.1-12.6,4.1-19.4c0.1-12.3,0.2-24.7,0.2-37C474.5,283.3,474.5,183.2,474.5,83.1z"/>
<g>
	<path class="st36" d="M82.6,371.8c-2.8-0.4-5.3-1.5-7.4-3.3c-0.8-0.6-1.4-1.4-2.1-2.1c-0.4-0.5-0.4-0.9,0.2-1.3
		c7.1-4.9,14.1-9.9,21.2-14.8c5.1-3.5,10.1-7.1,15.2-10.6c3.8-2.7,7.6-5.3,11.4-8c6.5-4.6,13-9.2,19.5-13.8c7.7-5.4,15.3-10.7,23-16
		c6.8-4.7,13.5-9.5,20.2-14.2c7.5-5.2,15-10.4,22.5-15.6c7-4.9,14-9.8,20.9-14.7c5-3.5,10-7.1,15.1-10.6c5.7-4,11.3-7.9,17-11.9
		c5.7-4,11.4-8,17.1-12c5.8-4,11.5-8.1,17.3-12.1c5.6-3.9,11.1-7.8,16.7-11.7c5.9-4.2,11.9-8.3,17.8-12.4
		c6.9-4.8,13.7-9.5,20.6-14.2c5.3-3.7,10.6-7.4,15.9-11.1c6.1-4.3,12.2-8.5,18.3-12.8c5.3-3.7,10.6-7.4,15.9-11.1
		c3.3-2.3,6.5-4.5,9.8-6.8c2.6-1.8,5.4-2.4,8.5-2.2c6.4,0.5,11.3,4.7,12.5,11.1c0.4,2,0.4,4.1,0.4,6.1c0,27,0,54.1,0,81.1
		c0,42.2,0,84.4,0,126.5c0,3,0.1,6-0.8,8.9c-1.5,4.8-5.3,8.6-10.3,9.3c-2.3,0.3-4.7,0.4-7,0.4c-109.1,0-218.2,0-327.3,0
		c-0.6,0-1.1,0-1.7-0.1C82.9,371.7,82.7,371.7,82.6,371.8z"/>
	<path class="st36" d="M69.9,357.1c0-2.7,0-5.5,0-8.2c0-66.1,0-132.2,0-198.3c0-2.7,0-5.5,0-8.2c0.2-6.7,4.1-12.1,10.6-13.6
		c3.9-0.9,7.7-0.3,11,2c5.2,3.6,10.5,7.2,15.7,10.9c5.9,4.1,11.8,8.2,17.7,12.4c6.2,4.3,12.5,8.7,18.7,13c4.8,3.4,9.6,6.8,14.5,10.2
		c6.5,4.6,13.1,9.1,19.6,13.7c10.3,7.2,20.6,14.5,30.9,21.7c6.8,4.7,13.6,9.4,20.3,14.1c1.1,0.8,1.2,1,0.1,1.9
		c-3.5,2.9-7.1,5.8-10.6,8.7c-7.1,5.8-14.1,11.6-21.2,17.3c-5.8,4.7-11.6,9.5-17.4,14.2c-8.5,7-17,13.9-25.5,20.9
		c-8.8,7.2-17.6,14.3-26.3,21.5c-8.5,7-17,14-25.5,21c-7.2,5.9-14.4,11.8-21.6,17.7c-3.3,2.7-6.6,5.4-9.9,8.1
		c-0.3,0.2-0.8,0.2-1.1,0.4c0-0.1,0-0.1,0-0.2c0-0.2,0-0.4,0-0.6C69.9,357.2,69.9,357.1,69.9,357.1z"/>
	<path class="st37" d="M82.6,371.8c0.2,0,0.3,0,0.5-0.1C82.9,371.7,82.7,371.7,82.6,371.8z"/>
	<path class="st38" d="M69.9,357.1c0,0.1,0,0.1,0,0.2C69.9,357.2,69.9,357.2,69.9,357.1C69.8,357.1,69.9,357.1,69.9,357.1z"/>
	<path class="st38" d="M69.9,357.9c0,0.1,0,0.1,0,0.2C69.9,358.1,69.9,358,69.9,357.9C69.8,358,69.9,358,69.9,357.9z"/>
</g>
</svg>
