<?xml version="1.0" encoding="utf-8"?>
<!-- Generator: Adobe Illustrator 27.7.0, SVG Export Plug-In . SVG Version: 6.00 Build 0)  -->
<svg version="1.1" id="Layer_1" xmlns="http://www.w3.org/2000/svg" xmlns:xlink="http://www.w3.org/1999/xlink" x="0px" y="0px"
	 viewBox="0 0 500 500" style="enable-background:new 0 0 500 500;" xml:space="preserve">
<style type="text/css">
	.st0{fill:#FDFDFF;stroke:#009AEF;stroke-miterlimit:10;}
	.st1{fill:#FC6A70;}
	.st2{fill:#F5858C;}
	.st3{fill:#787779;}
	.st4{fill:#E6E6E6;}
	.st5{fill:#414042;}
	.st6{fill:url(#SVGID_1_);}
	.st7{fill:#09C269;}
	.st8{fill:#292C31;}
	.st9{fill:#2A2D32;}
	.st10{fill:#0AC269;}
	.st11{fill:#214FFA;}
	.st12{fill:#204FFB;}
	.st13{fill:#2044FF;}
	.st14{fill:#1D40FF;}
	.st15{fill:#1F44FF;}
	.st16{fill:#1F3AFF;}
	.st17{fill:#213BFF;}
	.st18{fill:#213EFF;}
	.st19{fill:#2048FF;}
	.st20{fill:#325AF2;}
	.st21{fill:#486AF0;}
	.st22{fill:#1C44DC;}
	.st23{fill:#1637BA;}
	.st24{fill:#183BC4;}
	.st25{fill:#1A3DCB;}
	.st26{fill:#1633AF;}
	.st27{fill:#132FA3;}
	.st28{fill:#1E47E3;}
	.st29{fill:#204BFD;}
	.st30{fill:#2041FF;}
	.st31{fill:#1F4AEB;}
	.st32{fill:#5875E6;}
	.st33{fill:#1B40D2;}
	.st34{fill:#4F5F9D;}
	.st35{fill:#FCB834;}
	.st36{fill:#7855FF;}
	.st37{fill:#A591F9;}
	.st38{fill:#E8DBFA;}
	.st39{fill:#678EEB;}
	.st40{fill:#356AE5;}
	.st41{fill:#1856ED;}
	.st42{fill:#FF9E1A;}
	.st43{fill:#0A2565;}
	.st44{fill:#103BA3;}
	.st45{fill:#061438;}
	.st46{fill:#0B286E;}
	.st47{fill:#FE9E1A;}
	.st48{fill:#BC9519;}
	.st49{fill:#FFFFFF;}
	.st50{fill:#CEEBFC;}
	.st51{fill:#06AEEF;}
	.st52{fill:#57BFF2;}
	.st53{fill:#0191FF;}
	.st54{fill:#54AADC;}
	.st55{fill:#76BF45;}
	.st56{fill:#A9D282;}
	.st57{fill:none;}
	.st58{fill:#106094;}
	.st59{fill:#684D46;}
	.st60{fill:#F4DCB9;}
	.st61{fill:#132130;}
	.st62{fill:#E9BE8D;}
	.st63{fill:#46B7E2;}
	.st64{fill:#0888BE;}
	.st65{fill:#FEFEFD;}
	.st66{fill:#F4DBB9;}
	.st67{fill:#997156;}
	.st68{fill:#E8BD8D;}
	.st69{fill:#F8F8F9;}
	.st70{fill:#FBCE4F;}
	.st71{fill:#EAC091;}
	.st72{fill:#FBFAFA;}
	.st73{fill:#EBEAE9;}
	.st74{fill:#694E46;}
	.st75{fill:#9E7558;}
	.st76{fill:#9E7659;}
	.st77{fill:#152433;}
	.st78{fill:#FF3C78;}
	.st79{fill:#777BB4;}
</style>
<path class="st0" d="M474.5,83.1c0-18.9-7.1-34.5-22.2-46.2c-7.4-5.8-15.9-9.3-25.2-10.7c-0.9-0.1-1.7-0.5-2.6-0.7
	c-116.3,0-232.6,0-348.9,0c-2.7,0.6-5.5,1.1-8.1,1.8C50.1,32,37.7,42.7,30.3,59.1c-2.3,5.1-3.9,10.5-4.4,16.1c0,0.3-0.2,0.5-0.4,0.8
	c0,0.6,0,1.2,0,1.9c0,114.8,0,229.6,0,344.3c0,0.6,0,1.2,0,1.9c0.4,1.8,0.7,3.5,1.1,5.3c4.3,19.4,15.5,33,33.6,41.1
	c4.7,2.1,9.6,3.3,14.7,3.9c0.1,0,0.3,0.2,0.4,0.3c116.4,0,232.9,0,349.3,0c2.6-0.6,5.2-1,7.8-1.8c17.9-4.9,30.6-15.9,37.8-33
	c2.6-6.1,4.1-12.6,4.1-19.4c0.1-12.3,0.2-24.7,0.2-37C474.5,283.3,474.5,183.2,474.5,83.1z"/>
<g>
	<path class="st41" d="M62,255.7c0.1,0.1,0.2,0.1,0.3,0.2c0.1-0.3,0.1-0.5,0.2-0.8c0.5-4.5,0.8-8.9,1.4-13.4
		c1.3-9.8,3.5-19.3,6.6-28.6c8.4-25.6,21.9-48,40.7-67.3c22.8-23.4,50.1-39.3,81.8-47.5c6.6-1.7,13.2-3,19.9-3.9
		c7.5-1,14.9-1.6,22.5-1.5c11.9,0.2,21.6,8.4,23.6,20.1c2.5,14.6-6.9,26.3-19.3,28.9c-2.4,0.5-4.9,0.5-7.3,0.6
		c-29.9,0.7-56.3,10.8-78.8,30.4c-19.6,17-32.6,38.3-38.9,63.6c-0.8,3-1.3,6-1.9,9.1c-0.4,2-0.6,3.9-0.9,5.9
		c-0.9,7.5-1.1,15.1-0.6,22.7c0.1,1.7,0.1,3.4,0.3,5.2c0.3,2.7,0.8,5.5,1.2,8.2c2,11.1,5.4,21.7,10.3,31.9
		c15.2,31.8,44.2,56.1,78.2,65.6c6.2,1.7,12.5,3,18.8,3.8c7.4,0.9,14.9,1.1,22.4,0.6c2.3-0.2,4.6-0.3,6.8-0.6
		c2.5-0.3,4.9-0.7,7.3-1.2c5.6-1.1,11.2-2.5,16.6-4.3c38.7-12.9,69-44.9,79.9-84.2c2.2-7.9,3.6-15.9,4.1-24c0.2-3.1,0.3-6.2,0.4-9.2
		c0.2-12,8.8-22.3,20.6-24.1c9.7-1.5,17.5,1.9,23.4,9.6c3.7,4.8,5.5,10.3,5.4,16.3c-0.1,7.3-0.6,14.6-1.6,21.8
		c-2.5,18-7.7,35.3-15.7,51.6c-8.5,17.6-19.7,33.3-33.6,47c-22.6,22.4-49.4,37.6-80.3,45.4c-5.4,1.4-10.9,2.4-16.5,3.2
		c-5.2,0.7-10.3,1.3-15.5,1.5c-0.2,0-0.4,0-0.6,0.1c0,0,0,0.2,0,0.3c-0.2,0-0.5,0-0.7,0c0-0.1-0.1-0.3-0.1-0.3
		c-0.2,0-0.6-0.2-0.6,0.3c-4.9,0-9.8,0-14.7,0c0-0.5-0.4-0.3-0.6-0.3c0,0-0.1,0.2-0.1,0.3c-0.2,0-0.5,0-0.7,0c0-0.4-0.1-0.5-0.4-0.4
		c-0.2,0-0.6,0-0.3,0.4c-0.2,0-0.3,0-0.5,0c0-0.1,0.1-0.2,0.1-0.3c-0.4,0-0.7-0.1-1.1-0.1c-4.8-0.5-9.5-0.9-14.3-1.5
		c-3.2-0.4-6.4-1-9.6-1.7c-15.1-3.1-29.6-8.2-43.3-15.3c-16.4-8.4-31-19.1-44-32.1c-13.4-13.5-24.3-28.8-32.7-45.9
		C73.5,328.9,69,315.7,66,302c-1.8-8.2-2.9-16.5-3.5-24.8c0-0.3,0-0.7-0.1-0.9c-0.1-0.2-0.3-0.1-0.4,0.1c0-0.6,0-1.3,0-1.9
		c0.1,0,0.2,0,0.3,0.1c0.2-1,0.4-2-0.3-3c0-3.4,0-6.7,0-10.1c0.6-0.8,0.6-1.3,0-1.9c0-0.6,0-1.1,0-1.7c0.5,0.1,0.4-0.3,0.4-0.5
		c0-0.2-0.2-0.4-0.3-0.6c0,0.1-0.1,0.1-0.1,0.2C62,256.5,62,256.1,62,255.7z"/>
	<path class="st42" d="M438,212.1c-0.1,0-0.2-0.1-0.2-0.1c-0.1,0.3-0.2,0.5-0.3,0.8c-2.7,10-9,16.2-19.3,18.4
		c-1.7,0.4-3.4,0.7-5.2,0.7c-10.6-0.2-21.2-7.8-23.4-20c-3.5-19.1-10.5-36.7-21.9-52.5c-11.1-15.4-25.3-27.4-42.2-36.1
		c-12.2-6.3-25-10.4-38.4-13.1c-9.7-2-16.4-7.7-19.3-17.3c-4-13.4,4.2-27.9,18.5-30.9c0.4-0.1,0.9-0.1,1.3-0.1
		c0.1,0,0.6-0.1,0.2-0.4c2.2,0,4.3,0,6.5,0c-0.3,0.2,0,0.4,0.1,0.4c0.3,0.1,0.7,0,1.1,0.1c2.7,0.6,5.4,1.1,8.1,1.7
		c15.6,3.6,30.6,9,44.8,16.4c21.8,11.3,40.4,26.5,55.5,46c16.5,21.3,27.1,45.2,32.7,71.5c0.4,1.6,0.7,3.3,1,4.9
		c0.1,0.3,0.1,0.3,0.5,0.5C438,206,438,209.1,438,212.1z"/>
	<path class="st43" d="M62,271.5c0.6,0.9,0.5,1.9,0.3,3c-0.1,0-0.2,0-0.3-0.1C62,273.5,62,272.5,62,271.5z"/>
	<path class="st44" d="M62,259.5c0.6,0.6,0.6,1.2,0,1.9C62,260.8,62,260.1,62,259.5z"/>
	<path class="st45" d="M62,256.9c0-0.1,0.1-0.1,0.1-0.2c0.1,0.2,0.3,0.4,0.3,0.6c0,0.2,0.1,0.7-0.4,0.5C62,257.5,62,257.2,62,256.9z
		"/>
	<path class="st46" d="M226.5,438.4c0-0.1,0.1-0.3,0.1-0.3c0.2,0,0.6-0.2,0.6,0.3C227,438.4,226.8,438.4,226.5,438.4z"/>
	<path class="st46" d="M241.9,438.4c0-0.5,0.4-0.3,0.6-0.3c0,0,0.1,0.2,0.1,0.3C242.4,438.4,242.2,438.4,241.9,438.4z"/>
	<path class="st46" d="M225.1,438.4c-0.3-0.4,0.1-0.4,0.3-0.4c0.4,0,0.4,0,0.4,0.4C225.6,438.4,225.3,438.4,225.1,438.4z"/>
	<path class="st46" d="M243.4,438.4c0-0.1,0-0.3,0-0.3c0.2,0,0.4-0.1,0.6-0.1c0,0.1,0,0.3-0.1,0.4
		C243.7,438.4,243.5,438.4,243.4,438.4z"/>
	<path class="st41" d="M145,266.2c0.1-5.8,0.4-10,0.9-14.1c4.9-35.7,31.3-65.8,67.4-74.6c2.3-0.6,4.7-1.2,7-1.5
		c5.2-0.7,10.4-1.3,15.6-1c11,0.5,20.4,8,22.8,19.2c1.7,8,0,15.3-5.3,21.6c-5,5.8-11.4,8.6-19.1,8.7c-18.7,0.1-34.6,13-39.2,30.7
		c-4.4,16.7,2.6,34.6,17.3,44.1c7.7,5,16.2,7.3,25.4,6.5c14.2-1.3,24.7-8.4,31.7-20.8c3.6-6.3,5.1-13.2,5.2-20.4
		c0-6.1,1.8-11.5,5.7-16.2c3.6-4.3,8.1-7,13.6-8.1c7.7-1.6,14.8-0.1,21,4.9c5.9,4.8,9,11,9.1,18.6c0.2,13.6-2.7,26.5-8.4,38.8
		C303.9,327.7,281.1,346,254,352c-3,0.7-6.1,1.1-9.2,1.5c-5.7,0.7-11.4,0.7-17.1,0.3c-2-0.2-4.1-0.2-6.1-0.6
		c-4.3-0.7-8.6-1.6-12.8-2.9c-29.8-9.1-52.6-32.7-60.7-62.8c-1-3.8-1.8-7.6-2.2-11.5C145.4,272.2,145.2,268.4,145,266.2z"/>
	<path class="st47" d="M294.6,147.2c2.3,0,4.5,0.6,6.6,1.5c19.3,8.4,34.6,21.2,44.4,40.1c1.8,3.4,3.3,6.9,4.6,10.4
		c1.2,3.2,1.7,6.4,1.4,9.8c-0.9,10.2-6.2,17.3-15.5,21.3c-1.6,0.7-3.5,1-5.2,1.3c-10.3,1.7-22.1-4-26.1-15.6
		c-2.3-6.6-6.5-11.8-12.1-15.9c-3.3-2.4-6.9-4.2-10.5-6c-8.7-4.1-13.5-11.1-14.7-20.5c-1.6-13.2,7.3-22,16.4-25.2
		c1.7-0.6,3.5-0.8,5.2-1.2C290.9,147.2,292.8,147.2,294.6,147.2z"/>
	<path class="st48" d="M294.6,147.2c-1.9,0-3.7,0-5.6,0c1.7-0.4,3.5-0.3,5.3-0.2C294.4,147,294.5,147.1,294.6,147.2z"/>
</g>
</svg>
