<?xml version="1.0" encoding="utf-8"?>
<!-- Generator: Adobe Illustrator 27.7.0, SVG Export Plug-In . SVG Version: 6.00 Build 0)  -->
<svg version="1.1" id="Layer_1" xmlns="http://www.w3.org/2000/svg" xmlns:xlink="http://www.w3.org/1999/xlink" x="0px" y="0px"
	 viewBox="0 0 500 500" style="enable-background:new 0 0 500 500;" xml:space="preserve">
<style type="text/css">
	.st0{fill:#FDFDFF;stroke:#009AEF;stroke-miterlimit:10;}
	.st1{fill:#FC6A70;}
	.st2{fill:#F5858C;}
	.st3{fill:#787779;}
	.st4{fill:#E6E6E6;}
	.st5{fill:#414042;}
	.st6{fill:url(#SVGID_1_);}
	.st7{fill:#09C269;}
	.st8{fill:#292C31;}
	.st9{fill:#2A2D32;}
	.st10{fill:#0AC269;}
	.st11{fill:#214FFA;}
	.st12{fill:#204FFB;}
	.st13{fill:#2044FF;}
	.st14{fill:#1D40FF;}
	.st15{fill:#1F44FF;}
	.st16{fill:#1F3AFF;}
	.st17{fill:#213BFF;}
	.st18{fill:#213EFF;}
	.st19{fill:#2048FF;}
	.st20{fill:#325AF2;}
	.st21{fill:#486AF0;}
	.st22{fill:#1C44DC;}
	.st23{fill:#1637BA;}
	.st24{fill:#183BC4;}
	.st25{fill:#1A3DCB;}
	.st26{fill:#1633AF;}
	.st27{fill:#132FA3;}
	.st28{fill:#1E47E3;}
	.st29{fill:#204BFD;}
	.st30{fill:#2041FF;}
	.st31{fill:#1F4AEB;}
	.st32{fill:#5875E6;}
	.st33{fill:#1B40D2;}
	.st34{fill:#4F5F9D;}
	.st35{fill:#FCB834;}
	.st36{fill:#7855FF;}
	.st37{fill:#A591F9;}
	.st38{fill:#E8DBFA;}
	.st39{fill:#678EEB;}
	.st40{fill:#356AE5;}
	.st41{fill:#1856ED;}
	.st42{fill:#FF9E1A;}
	.st43{fill:#0A2565;}
	.st44{fill:#103BA3;}
	.st45{fill:#061438;}
	.st46{fill:#0B286E;}
	.st47{fill:#FE9E1A;}
	.st48{fill:#BC9519;}
	.st49{fill:#FFFFFF;}
	.st50{fill:#CEEBFC;}
	.st51{fill:#06AEEF;}
	.st52{fill:#57BFF2;}
	.st53{fill:#0191FF;}
	.st54{fill:#54AADC;}
	.st55{fill:#76BF45;}
	.st56{fill:#A9D282;}
	.st57{fill:none;}
	.st58{fill:#106094;}
	.st59{fill:#684D46;}
	.st60{fill:#F4DCB9;}
	.st61{fill:#132130;}
	.st62{fill:#E9BE8D;}
	.st63{fill:#46B7E2;}
	.st64{fill:#0888BE;}
	.st65{fill:#FEFEFD;}
	.st66{fill:#F4DBB9;}
	.st67{fill:#997156;}
	.st68{fill:#E8BD8D;}
	.st69{fill:#F8F8F9;}
	.st70{fill:#FBCE4F;}
	.st71{fill:#EAC091;}
	.st72{fill:#FBFAFA;}
	.st73{fill:#EBEAE9;}
	.st74{fill:#694E46;}
	.st75{fill:#9E7558;}
	.st76{fill:#9E7659;}
	.st77{fill:#152433;}
	.st78{fill:#FF3C78;}
	.st79{fill:#777BB4;}
</style>
<path class="st0" d="M474.5,83.1c0-18.9-7.1-34.5-22.2-46.2c-7.4-5.8-15.9-9.3-25.2-10.7c-0.9-0.1-1.7-0.5-2.6-0.7
	c-116.3,0-232.6,0-348.9,0c-2.7,0.6-5.5,1.1-8.1,1.8C50.1,32,37.7,42.7,30.3,59.1c-2.3,5.1-3.9,10.5-4.4,16.1c0,0.3-0.2,0.5-0.4,0.8
	c0,0.6,0,1.2,0,1.9c0,114.8,0,229.6,0,344.3c0,0.6,0,1.2,0,1.9c0.4,1.8,0.7,3.5,1.1,5.3c4.3,19.4,15.5,33,33.6,41.1
	c4.7,2.1,9.6,3.3,14.7,3.9c0.1,0,0.3,0.2,0.4,0.3c116.4,0,232.9,0,349.3,0c2.6-0.6,5.2-1,7.8-1.8c17.9-4.9,30.6-15.9,37.8-33
	c2.6-6.1,4.1-12.6,4.1-19.4c0.1-12.3,0.2-24.7,0.2-37C474.5,283.3,474.5,183.2,474.5,83.1z"/>
<g>
	<path class="st1" d="M235.2,422.2c-10.1,0.2-20.1-0.8-30-3.1c-9.3-2.2-18.8-4-27.8-7.1c-39.9-13.9-73.3-37-98.8-71
		c-8.7-11.6-15.7-24.2-21-37.7c-0.5-1.2-0.4-2.8,0.1-4c2.9-6.8,3.6-13.8,2.3-21.1c-0.7-4.1,2.5-9.5,6.6-11.8
		c1.4-0.8,2.9-1.4,4.4-2.1c4.5-2.1,7.3-5.5,8.4-10.4c1.3-5.6,4.2-10.4,9.9-11.8c3.8-0.9,8.1-0.8,11.9,0c8.9,2,14.9,7.7,18.1,16.4
		c6.7,18.3,14.3,36,26.4,51.5c10.3,13.2,23,23.4,38.4,30c9.9,4.3,20.2,7.3,30.8,8.5c9.6,1,19.3,1.9,28.9,1.1
		c43.2-3.5,76.6-22.9,97.2-61.9c4.9-9.3,7.8-19.5,9.5-30c1.4-8.9,1.6-17.8,0.8-26.6c-1.6-19.1-8.9-36.2-21.3-50.9
		c-6-7.1-12.9-13.2-20.7-18.2c-11.7-7.5-24.2-11.9-38.5-11.5c-22.2,0.5-40.9,8.4-56.6,23.8c-8.1,8-13.8,17.5-18.1,28.1
		c-3.3,8.2-4.7,16.8-6.1,25.4c-1.1,6.7-7.7,12.8-14.7,12.9c-15.6,0.1-31.2,0.1-46.8-0.1c-8.3-0.1-12.2-5.3-11-14.3
		c0.8-6.5,1.6-13.1,2.8-19.6c1.2-6.5,2.4-13,4.2-19.2c4.6-15.7,11.3-30.5,20.5-44.1c19.9-29.6,47.1-49.2,81.4-59.2
		c9.8-2.9,19.7-4.8,29.9-5.4c5.6-0.3,11.3-1.2,16.9-1c9.8,0.2,19.5,1,29.1,3.2c50.2,11.4,85.8,41.3,109.9,86
		c7.7,14.3,12.5,29.8,15.5,45.8c1.2,6.7,1.6,13.6,1.9,20.5c0.3,6.8,0.4,13.6,0,20.3c-0.3,6.2-1.1,12.3-2.3,18.4
		c-1.3,6.9-2.8,13.8-4.9,20.5c-2.3,7.4-5.1,14.6-8.2,21.7c-5.2,11.8-11.8,22.7-19.6,32.9C375,373.2,350,392.6,320,405.7
		c-12.6,5.5-25.6,9.7-39,12.4c-8.8,1.8-17.8,2.6-26.8,3.6c-3.8,0.4-7.7,0.4-11.6,0.5C240.2,422.2,237.7,422.2,235.2,422.2z"/>
	<path class="st2" d="M235.2,422.2c2.5,0,4.9,0,7.4,0C240.2,422.2,237.7,422.2,235.2,422.2z"/>
</g>
</svg>
