<?xml version="1.0" encoding="utf-8"?>
<!-- Generator: Adobe Illustrator 27.7.0, SVG Export Plug-In . SVG Version: 6.00 Build 0)  -->
<svg version="1.1" id="Layer_1" xmlns="http://www.w3.org/2000/svg" xmlns:xlink="http://www.w3.org/1999/xlink" x="0px" y="0px"
	 viewBox="0 0 500 500" style="enable-background:new 0 0 500 500;" xml:space="preserve">
<style type="text/css">
	.st0{fill:#FDFDFF;stroke:#009AEF;stroke-miterlimit:10;}
	.st1{fill:#FC6A70;}
	.st2{fill:#F5858C;}
	.st3{fill:#787779;}
	.st4{fill:#E6E6E6;}
	.st5{fill:#414042;}
	.st6{fill:url(#SVGID_1_);}
	.st7{fill:#09C269;}
	.st8{fill:#292C31;}
	.st9{fill:#2A2D32;}
	.st10{fill:#0AC269;}
	.st11{fill:#214FFA;}
	.st12{fill:#204FFB;}
	.st13{fill:#2044FF;}
	.st14{fill:#1D40FF;}
	.st15{fill:#1F44FF;}
	.st16{fill:#1F3AFF;}
	.st17{fill:#213BFF;}
	.st18{fill:#213EFF;}
	.st19{fill:#2048FF;}
	.st20{fill:#325AF2;}
	.st21{fill:#486AF0;}
	.st22{fill:#1C44DC;}
	.st23{fill:#1637BA;}
	.st24{fill:#183BC4;}
	.st25{fill:#1A3DCB;}
	.st26{fill:#1633AF;}
	.st27{fill:#132FA3;}
	.st28{fill:#1E47E3;}
	.st29{fill:#204BFD;}
	.st30{fill:#2041FF;}
	.st31{fill:#1F4AEB;}
	.st32{fill:#5875E6;}
	.st33{fill:#1B40D2;}
	.st34{fill:#4F5F9D;}
	.st35{fill:#FCB834;}
	.st36{fill:#7855FF;}
	.st37{fill:#A591F9;}
	.st38{fill:#E8DBFA;}
	.st39{fill:#678EEB;}
	.st40{fill:#356AE5;}
	.st41{fill:#1856ED;}
	.st42{fill:#FF9E1A;}
	.st43{fill:#0A2565;}
	.st44{fill:#103BA3;}
	.st45{fill:#061438;}
	.st46{fill:#0B286E;}
	.st47{fill:#FE9E1A;}
	.st48{fill:#BC9519;}
	.st49{fill:#FFFFFF;}
	.st50{fill:#CEEBFC;}
	.st51{fill:#06AEEF;}
	.st52{fill:#57BFF2;}
	.st53{fill:#0191FF;}
	.st54{fill:#54AADC;}
	.st55{fill:#76BF45;}
	.st56{fill:#A9D282;}
	.st57{fill:none;}
	.st58{fill:#106094;}
	.st59{fill:#684D46;}
	.st60{fill:#F4DCB9;}
	.st61{fill:#132130;}
	.st62{fill:#E9BE8D;}
	.st63{fill:#46B7E2;}
	.st64{fill:#0888BE;}
	.st65{fill:#FEFEFD;}
	.st66{fill:#F4DBB9;}
	.st67{fill:#997156;}
	.st68{fill:#E8BD8D;}
	.st69{fill:#F8F8F9;}
	.st70{fill:#FBCE4F;}
	.st71{fill:#EAC091;}
	.st72{fill:#FBFAFA;}
	.st73{fill:#EBEAE9;}
	.st74{fill:#694E46;}
	.st75{fill:#9E7558;}
	.st76{fill:#9E7659;}
	.st77{fill:#152433;}
	.st78{fill:#FF3C78;}
	.st79{fill:#777BB4;}
</style>
<path class="st0" d="M474.5,83.1c0-18.9-7.1-34.5-22.2-46.2c-7.4-5.8-15.9-9.3-25.2-10.7c-0.9-0.1-1.7-0.5-2.6-0.7
	c-116.3,0-232.6,0-348.9,0c-2.7,0.6-5.5,1.1-8.1,1.8C50.1,32,37.7,42.7,30.3,59.1c-2.3,5.1-3.9,10.5-4.4,16.1c0,0.3-0.2,0.5-0.4,0.8
	c0,0.6,0,1.2,0,1.9c0,114.8,0,229.6,0,344.3c0,0.6,0,1.2,0,1.9c0.4,1.8,0.7,3.5,1.1,5.3c4.3,19.4,15.5,33,33.6,41.1
	c4.7,2.1,9.6,3.3,14.7,3.9c0.1,0,0.3,0.2,0.4,0.3c116.4,0,232.9,0,349.3,0c2.6-0.6,5.2-1,7.8-1.8c17.9-4.9,30.6-15.9,37.8-33
	c2.6-6.1,4.1-12.6,4.1-19.4c0.1-12.3,0.2-24.7,0.2-37C474.5,283.3,474.5,183.2,474.5,83.1z"/>
<g>
	<path class="st3" d="M52.6,184.3c0-0.1,0.1-0.1,0.1,0c0,0.2,0,0.4,0,0.7c0,41.5,0,83,0,124.5c0,0,0,0.1,0,0.1c-0.1,0-0.1,0-0.2,0
		C52.6,267.7,52.6,226,52.6,184.3z"/>
	<path class="st4" d="M52.6,309.4c0.1,0,0.1,0,0.2,0c-0.1,0-0.1,0.1-0.2,0.1C52.6,309.6,52.6,309.5,52.6,309.4z"/>
	<path class="st5" d="M52.8,309.4c0-41.5,0-83,0-124.5c0-0.2,0-0.4,0-0.7c0.7,0,1.4-0.1,2-0.1c18.1,0,36.1,0,54.2,0
		c2.7,0,5.5,0.2,8.2,0.4c10.2,1,19.8,3.7,28.7,8.9c12.4,7.4,20.5,18.2,24.7,31.9c1.2,4,2,8,2.4,12.1c0.2,2.1,0.3,4.2,0.4,6.3
		c0.1,1.5,0.2,3.1,0.1,4.6c-0.2,4.5-0.5,9-1.4,13.4c-1.6,8.3-4.6,15.9-9.5,22.8c-6.5,9.2-15.2,15.6-25.7,19.7
		c-4.1,1.6-8.3,2.8-12.7,3.6c-2.6,0.5-5.2,0.8-7.8,1c-2.6,0.2-5.1,0.3-7.7,0.3c-18.5,0-37,0-55.4,0C53.2,309.5,53,309.4,52.8,309.4z
		 M83.7,282.6c0.6,0,1.2,0,1.7,0c7,0,13.9,0,20.9,0c3.9,0,7.7-0.3,11.5-1.2c8-2,14.3-6.4,18.7-13.5c3.5-5.7,4.8-11.9,5.1-18.5
		c0.1-2.7-0.1-5.4-0.3-8.2c-0.3-2.5-0.7-5-1.3-7.4c-2-7.3-6-13.3-12.5-17.4c-5.6-3.7-11.9-5.2-18.5-5.3c-8.2-0.1-16.4,0-24.7,0
		c-0.2,0-0.4,0-0.6,0.1C83.7,235,83.7,258.7,83.7,282.6z"/>
	<path class="st5" d="M375.5,301.6c0,14.2,0,28.3,0,42.5c-10.3,0-20.6,0-31,0c0-0.3,0-0.7,0-1c0-32,0-64.1,0-96.1
		c0-1.9-0.2-3.8-0.5-5.6c-0.4-2-1.7-3.5-3.9-3.7c-1.2-0.1-2.5-0.2-3.6,0c-2,0.4-3.9,1-5.8,1.5c-0.5,0.1-0.9,0.4-1.5,0.7
		c-0.1-0.8-0.1-1.6-0.2-2.5c-0.1-2.1-0.1-4.3-0.2-6.4c-0.1-2.8-0.2-5.5-0.3-8.3c-0.1-2.2-0.2-4.4-0.3-6.6c0-0.3,0-0.5,0-0.8
		c3.7-1.5,7.5-2.4,11.4-3c2.7-0.4,5.5-0.6,8.3-0.9c1.6-0.1,3.2-0.2,4.7-0.2c2.9,0.1,5.8,0.5,8.7,1.4c5.5,1.8,9.4,5.4,11.6,10.8
		c0.1,0.2,0.2,0.5,0.3,0.8c0.6-0.7,1.2-1.3,1.7-1.9c4.9-5.3,11-8.5,18.1-9.9c3.4-0.7,6.9-1.1,10.5-0.9c2.8,0.1,5.5,0.4,8.3,0.9
		c15.7,3.1,25.8,12.7,31.7,27.1c1.4,3.4,2.4,6.9,2.9,10.6c0.3,2.1,0.6,4.3,0.7,6.5c0.2,2.8,0.3,5.7,0.1,8.5
		c-0.2,2.9-0.7,5.8-1.1,8.6c-0.8,5.1-2.5,10-5,14.5c-6.3,11.7-15.8,19.3-28.9,22.1c-2.4,0.5-4.8,0.7-7.2,0.9c-1,0.1-2,0.2-3,0.2
		c-9.7-0.4-18.6-3-26.1-9.6c-0.1-0.1-0.2-0.2-0.3-0.3C375.7,301.6,375.7,301.6,375.5,301.6z M375.4,261.5c0,5.2,0,10.3,0,15.5
		c0,0.4,0.2,0.9,0.5,1.1c4.7,3.8,10.1,5.8,16.1,6.4c2.6,0.2,5.2,0,7.7-0.6c4.5-1.1,8.3-3.2,11.3-6.9c3.1-3.9,4.5-8.5,4.8-13.4
		c0.1-2.8,0.1-5.6-0.5-8.4c-2.1-9.4-8.4-15.5-18.2-16.6c-3.3-0.4-6.6-0.1-9.9,0.7c-4.1,1-7.9,2.8-11.2,5.6c-0.4,0.4-0.6,0.7-0.6,1.3
		C375.5,251.2,375.4,256.4,375.4,261.5z"/>
	<path class="st5" d="M182.4,239.7c0-0.7,0-1.3,0-1.9c-0.1-2.4-0.2-4.8-0.3-7.3c-0.1-1.5-0.1-2.9-0.2-4.4c-0.1-2.4-0.1-4.7-0.2-7.1
		c0-1.2-0.1-2.4-0.2-3.6c2.2-1.1,4.5-1.7,6.9-2.2c2.4-0.5,4.8-0.9,7.2-1.3c1.5-0.2,3-0.3,4.5-0.4c1.7-0.1,3.5-0.2,5.2-0.2
		c4.1,0.1,8.1,0.6,11.9,2.5c4.6,2.3,7.6,6,9.4,10.7c0.1,0.3,0.2,0.5,0.3,0.9c0.6-0.9,1.1-1.8,1.6-2.6c3.8-6.1,9.2-9.9,16.3-11.1
		c2.3-0.4,4.7-0.4,7-0.3c4.2,0.1,8.2,0.9,12.1,2.5c1,0.4,1.9,0.9,2.8,1.5c0.5,0.3,0.7,0.7,0.6,1.3c-0.4,2.2-0.7,4.4-1,6.5
		c-0.2,1.8-0.4,3.5-0.7,5.3c-0.3,2.2-0.7,4.4-1,6.7c-0.2,1.8-0.4,3.6-0.7,5.3c-0.2,1.2-0.3,2.3-0.5,3.5c-4.1-2.2-8.5-3.2-13-3.6
		c-2-0.2-3.9-0.3-5.9-0.3c-5.7,0-9.9,2.5-12.7,7.4c-1.3,2.3-2.1,4.9-2.6,7.5c-0.4,2.1-0.6,4.2-0.6,6.3c0,15.7,0,31.4,0,47.1
		c0,0.3,0,0.6,0,1c-10.3,0-20.6,0-31,0c0-0.3,0-0.6,0-1c0-20.8,0-41.6,0-62.4c0-1.7-0.3-3.5-0.7-5.2c-0.6-2.2-2.3-3.2-4.4-3.3
		c-3.5-0.2-6.8,0.8-9.9,2.1C182.8,239.7,182.7,239.7,182.4,239.7z"/>
	<path class="st5" d="M277.2,213.2c10.4,0,20.6,0,31,0c0,0.3,0,0.7,0,1c0,20.6,0,41.3,0,61.9c0,1.7,0.1,3.4,0.5,5.1
		c0.8,2.9,3.2,4.5,6.5,4.1c2.8-0.4,5.4-1.1,7.9-2.4c0,0.1,0.1,0.2,0.1,0.2c0.1,1.8,0.1,3.5,0.2,5.3c0.1,2.5,0.3,4.9,0.5,7.4
		c0.1,1.7,0.1,3.3,0.2,5c0.1,1.9,0.2,3.9,0.4,5.8c0.1,0.6-0.2,0.9-0.7,1.1c-3,0.8-6,1.7-9,2.4c-2.1,0.5-4.2,0.8-6.3,1
		c-3.8,0.3-7.6,0.5-11.4,0.1c-3.3-0.4-6.4-1.2-9.3-2.9c-4.7-2.7-7.4-6.9-8.9-12c-0.7-2.4-1.2-4.8-1.3-7.2c-0.1-1.9-0.2-3.7-0.2-5.6
		c0-23.1,0-46.3,0-69.4C277.2,213.9,277.2,213.6,277.2,213.2z"/>
	<linearGradient id="SVGID_1_" gradientUnits="userSpaceOnUse" x1="292.7567" y1="155.6859" x2="292.7567" y2="198.9764">
		<stop  offset="0" style="stop-color:#58A4F5"/>
		<stop  offset="1" style="stop-color:#2E65F2"/>
	</linearGradient>
	<path class="st6" d="M309.2,182.6c0-0.1,0-0.2,0-0.3c0-0.2-0.1-0.4-0.1-0.7c0-0.1,0-0.2,0-0.3c0-0.1-0.1-0.2-0.1-0.3
		c0-0.1,0-0.2,0-0.3c0-0.1-0.1-0.2-0.1-0.4c-0.6-1.4-1.1-2.8-1.7-4.2c-0.9-2.4-2.3-4.3-4-6.2c-0.1-0.2-0.2-0.4-0.3-0.6
		c-1.2-1.4-2.4-2.8-3.6-4.2c-2.5-2.9-4.6-6.1-6.3-9.5c-0.1,0-0.1,0-0.2,0c0,0.1,0,0.3-0.1,0.4c-1.4,2.2-2.7,4.6-4.3,6.7
		c-1.7,2.3-3.7,4.5-5.5,6.7c-1.2,1.8-2.4,3.5-3.6,5.3c-0.8,1.9-1.6,3.7-2.4,5.6c-0.7,2-0.9,4-0.7,6.1c0,0,0,0,0,0
		c0.3,1.4,0.5,2.7,0.8,4.1c1,3.3,3.2,5.4,6.3,6.7c2.4,1.1,4.9,1.5,7.5,1.6c3.5,0.2,7.1,0,10.4-1.1c3.7-1.2,6.4-3.6,7.6-7.4
		c0.2-1.2,0.4-2.3,0.6-3.5c0-0.1,0-0.2,0-0.3c0-0.4,0.1-0.9,0.1-1.3C309.4,184.4,309.3,183.5,309.2,182.6z"/>
</g>
</svg>
