<?xml version="1.0" encoding="utf-8"?>
<!-- Generator: Adobe Illustrator 27.7.0, SVG Export Plug-In . SVG Version: 6.00 Build 0)  -->
<svg version="1.1" id="Layer_1" xmlns="http://www.w3.org/2000/svg" xmlns:xlink="http://www.w3.org/1999/xlink" x="0px" y="0px"
	 viewBox="0 0 500 500" style="enable-background:new 0 0 500 500;" xml:space="preserve">
<style type="text/css">
	.st0{fill:#FDFDFF;stroke:#009AEF;stroke-miterlimit:10;}
	.st1{fill:#FC6A70;}
	.st2{fill:#F5858C;}
	.st3{fill:#787779;}
	.st4{fill:#E6E6E6;}
	.st5{fill:#414042;}
	.st6{fill:url(#SVGID_1_);}
	.st7{fill:#09C269;}
	.st8{fill:#292C31;}
	.st9{fill:#2A2D32;}
	.st10{fill:#0AC269;}
	.st11{fill:#214FFA;}
	.st12{fill:#204FFB;}
	.st13{fill:#2044FF;}
	.st14{fill:#1D40FF;}
	.st15{fill:#1F44FF;}
	.st16{fill:#1F3AFF;}
	.st17{fill:#213BFF;}
	.st18{fill:#213EFF;}
	.st19{fill:#2048FF;}
	.st20{fill:#325AF2;}
	.st21{fill:#486AF0;}
	.st22{fill:#1C44DC;}
	.st23{fill:#1637BA;}
	.st24{fill:#183BC4;}
	.st25{fill:#1A3DCB;}
	.st26{fill:#1633AF;}
	.st27{fill:#132FA3;}
	.st28{fill:#1E47E3;}
	.st29{fill:#204BFD;}
	.st30{fill:#2041FF;}
	.st31{fill:#1F4AEB;}
	.st32{fill:#5875E6;}
	.st33{fill:#1B40D2;}
	.st34{fill:#4F5F9D;}
	.st35{fill:#FCB834;}
	.st36{fill:#7855FF;}
	.st37{fill:#A591F9;}
	.st38{fill:#E8DBFA;}
	.st39{fill:#678EEB;}
	.st40{fill:#356AE5;}
	.st41{fill:#1856ED;}
	.st42{fill:#FF9E1A;}
	.st43{fill:#0A2565;}
	.st44{fill:#103BA3;}
	.st45{fill:#061438;}
	.st46{fill:#0B286E;}
	.st47{fill:#FE9E1A;}
	.st48{fill:#BC9519;}
	.st49{fill:#FFFFFF;}
	.st50{fill:#CEEBFC;}
	.st51{fill:#06AEEF;}
	.st52{fill:#57BFF2;}
	.st53{fill:#0191FF;}
	.st54{fill:#54AADC;}
	.st55{fill:#76BF45;}
	.st56{fill:#A9D282;}
	.st57{fill:none;}
	.st58{fill:#106094;}
	.st59{fill:#684D46;}
	.st60{fill:#F4DCB9;}
	.st61{fill:#132130;}
	.st62{fill:#E9BE8D;}
	.st63{fill:#46B7E2;}
	.st64{fill:#0888BE;}
	.st65{fill:#FEFEFD;}
	.st66{fill:#F4DBB9;}
	.st67{fill:#997156;}
	.st68{fill:#E8BD8D;}
	.st69{fill:#F8F8F9;}
	.st70{fill:#FBCE4F;}
	.st71{fill:#EAC091;}
	.st72{fill:#FBFAFA;}
	.st73{fill:#EBEAE9;}
	.st74{fill:#694E46;}
	.st75{fill:#9E7558;}
	.st76{fill:#9E7659;}
	.st77{fill:#152433;}
	.st78{fill:#FF3C78;}
	.st79{fill:#777BB4;}
</style>
<path class="st0" d="M474.5,83.1c0-18.9-7.1-34.5-22.2-46.2c-7.4-5.8-15.9-9.3-25.2-10.7c-0.9-0.1-1.7-0.5-2.6-0.7
	c-116.3,0-232.6,0-348.9,0c-2.7,0.6-5.5,1.1-8.1,1.8C50.1,32,37.7,42.7,30.3,59.1c-2.3,5.1-3.9,10.5-4.4,16.1c0,0.3-0.2,0.5-0.4,0.8
	c0,0.6,0,1.2,0,1.9c0,114.8,0,229.6,0,344.3c0,0.6,0,1.2,0,1.9c0.4,1.8,0.7,3.5,1.1,5.3c4.3,19.4,15.5,33,33.6,41.1
	c4.7,2.1,9.6,3.3,14.7,3.9c0.1,0,0.3,0.2,0.4,0.3c116.4,0,232.9,0,349.3,0c2.6-0.6,5.2-1,7.8-1.8c17.9-4.9,30.6-15.9,37.8-33
	c2.6-6.1,4.1-12.6,4.1-19.4c0.1-12.3,0.2-24.7,0.2-37C474.5,283.3,474.5,183.2,474.5,83.1z"/>
<g>
	<path class="st49" d="M418.1,132.6c5.5,0,10.9,0,16.4,0c0,78.2,0,156.4,0,234.7c-123,0-245.9,0-369,0c0-78.2,0-156.5,0-234.7
		c5.2,0,10.5,0,15.7,0c0,0.1,0,0.3,0,0.4c-0.8,0.2-1.6,0.5-2.5,0.6c-6.2,0.9-10.9,5.2-12.1,11.3c-0.2,0.9-0.6,1.7-0.7,2.6
		c0,16.5-0.1,33-0.1,49.5c0,51.7,0,103.5,0.1,155.2c0,0.8,0.3,1.6,0.5,2.4c0.3,4.1,3,6.7,5.9,9.1c3.2,2.7,7,2.6,10.9,2.6
		c110.9,0,221.7,0,332.6,0c1,0,1.9,0,2.9,0c5.4-0.1,9.2-3,12.2-7.3c2.3-3.4,2-7.1,2-10.9c0-56.2,0-112.3,0-168.5
		c0-0.3,0.1-0.5,0.1-0.8c-0.2,0.3-0.5,0.5-0.7,0.8c-8.4,13-16.4,26.3-25.2,39c-6.8,9.7-14.4,18.9-22.1,28
		c-5.5,6.4-11.5,12.5-17.8,18.2c-7.8,7.1-15.9,13.8-24.3,20.2c-10.6,8-22.1,14.6-34.4,19.6c-6.8,2.8-13.9,5.3-21,7.3
		c-9.4,2.7-19,4.2-28.8,5c-9.4,0.8-18.7,0.2-27.9-0.9c-7.1-0.8-14.1-2.9-21.1-4.6c-12.7-3.2-24.4-8.7-35.7-15.2
		c-8.6-5-16.8-10.7-24-17.6c-5.1-4.9-10.4-9.7-14.9-15.1c-5.1-6.2-9.8-12.9-13.9-19.8c-8.3-13.8-14.4-28.7-17.7-44.5
		c-1.3-6.3-3.7-12.6-2.2-19.3c1.3-5.6,4.3-10.1,9.8-11.7c4.5-1.3,9.4-1.2,14.1-1.7c3.4,15,8.7,28.5,16.6,40.9
		c6.8,10.6,14.9,20.1,24.4,28.5c8.2,7.2,17.2,13.2,26.9,18c12.7,6.3,26.2,10.3,40.4,11.7c8.3,0.9,16.6,2.2,24.9,1
		c7.5-1,15-1.6,22.3-3.3c11.1-2.5,21.9-6.4,32-11.7c9.6-5.1,18.8-10.8,27.9-16.8c11.9-7.8,22.5-17.1,32.8-26.9
		c4.6-4.4,9-9.1,13.3-13.8c5.6-6.1,11.2-12.2,16.5-18.6c5.2-6.4,10.1-13,15-19.7c4-5.4,7.7-11,11.8-17c-2.8-1.7-5.1-3.2-7.6-4.5
		c-1.3-0.7-3-0.8-4.5-1.2C418.1,132.9,418.1,132.8,418.1,132.6z"/>
	<path class="st50" d="M81.2,133.1c0-0.1,0-0.3,0-0.4c112.3,0,224.6,0,336.9,0c0,0.2,0,0.3,0,0.5c-0.8,0-1.6,0.1-2.4,0.1
		c-110.6,0-221.3,0-331.9,0C83,133.2,82.1,133.1,81.2,133.1z"/>
	<path class="st51" d="M81.2,133.1c0.9,0,1.8,0.1,2.6,0.1c110.6,0,221.3,0,331.9,0c9.8,0,13.4,2,14.4,5.6c-4.2,6-7.9,11.6-11.8,17
		c-4.9,6.6-9.7,13.3-15,19.7c-5.3,6.4-10.9,12.5-16.5,18.6c-4.3,4.7-8.7,9.4-13.3,13.8c-10.3,9.7-20.9,19.1-32.8,26.9
		c-9.1,5.9-18.3,11.7-27.9,16.8c-10.1,5.3-20.9,9.2-32,11.7c-7.3,1.7-14.9,2.3-22.3,3.3c-8.4,1.2-16.6-0.2-24.9-1
		c-14.2-1.5-27.7-5.5-40.4-11.7c-9.7-4.8-18.7-10.8-26.9-18c-9.5-8.4-17.6-17.9-24.4-28.5c-7.9-12.4-13.2-25.9-16.6-40.9
		c-4.7,0.5-9.6,0.4-14.1,1.7c-5.5,1.6-8.5,6.1-9.8,11.7c-1.5,6.7,0.9,13,2.2,19.3c3.2,15.9,9.4,30.7,17.7,44.5
		c4.1,6.9,8.8,13.6,13.9,19.8c4.5,5.4,9.8,10.2,14.9,15.1c7.2,6.9,15.4,12.6,24,17.6c11.3,6.5,23,12,35.7,15.2
		c7,1.8,14,3.8,21.1,4.6c9.2,1.1,18.5,1.7,27.9,0.9c9.8-0.8,19.4-2.3,28.8-5c7.1-2.1,14.1-4.5,21-7.3c12.3-5,23.8-11.6,34.4-19.6
		c8.4-6.3,16.5-13.1,24.3-20.2c6.3-5.7,12.3-11.8,17.8-18.2c7.7-9,15.3-18.3,22.1-28c8.9-12.7,16.9-26,25.2-39c0.2,0,0.4,0,0.6,0
		c0,56.2,0,112.3,0,168.5c0,3.8,0.3,7.6-2,10.9c-2.9,4.3-6.7,7.2-12.2,7.3c-1,0-1.9,0-2.9,0c-110.9,0-221.7,0-332.6,0
		c-3.9,0-7.7,0.1-10.9-2.6c-2.9-2.4-5.6-5-5.9-9.1c0.2-0.9,0.4-1.8,0.4-2.8c0-67.9,0-135.9,0-203.8c0-1-0.2-2.1-0.3-3.1
		c1.2-6.1,5.9-10.4,12.1-11.3C79.6,133.6,80.4,133.3,81.2,133.1z"/>
	<path class="st52" d="M66.7,145c0.1,1,0.3,2.1,0.3,3.1c0,67.9,0,135.9,0,203.8c0,0.9-0.3,1.8-0.4,2.8c-0.2-0.8-0.5-1.6-0.5-2.4
		c0-51.7-0.1-103.5-0.1-155.2c0-16.5,0-33,0.1-49.5C66,146.8,66.4,145.9,66.7,145z"/>
	<path class="st50" d="M433,179.6c-0.2,0-0.4,0-0.6,0c0.2-0.3,0.5-0.5,0.7-0.8C433,179,433,179.3,433,179.6z"/>
</g>
</svg>
