<?xml version="1.0" encoding="utf-8"?>
<!-- Generator: Adobe Illustrator 27.7.0, SVG Export Plug-In . SVG Version: 6.00 Build 0)  -->
<svg version="1.1" id="Layer_1" xmlns="http://www.w3.org/2000/svg" xmlns:xlink="http://www.w3.org/1999/xlink" x="0px" y="0px"
	 viewBox="0 0 500 500" style="enable-background:new 0 0 500 500;" xml:space="preserve">
<style type="text/css">
	.st0{fill:#FDFDFF;stroke:#009AEF;stroke-miterlimit:10;}
	.st1{fill:#FC6A70;}
	.st2{fill:#F5858C;}
	.st3{fill:#787779;}
	.st4{fill:#E6E6E6;}
	.st5{fill:#414042;}
	.st6{fill:url(#SVGID_1_);}
	.st7{fill:#09C269;}
	.st8{fill:#292C31;}
	.st9{fill:#2A2D32;}
	.st10{fill:#0AC269;}
	.st11{fill:#214FFA;}
	.st12{fill:#204FFB;}
	.st13{fill:#2044FF;}
	.st14{fill:#1D40FF;}
	.st15{fill:#1F44FF;}
	.st16{fill:#1F3AFF;}
	.st17{fill:#213BFF;}
	.st18{fill:#213EFF;}
	.st19{fill:#2048FF;}
	.st20{fill:#325AF2;}
	.st21{fill:#486AF0;}
	.st22{fill:#1C44DC;}
	.st23{fill:#1637BA;}
	.st24{fill:#183BC4;}
	.st25{fill:#1A3DCB;}
	.st26{fill:#1633AF;}
	.st27{fill:#132FA3;}
	.st28{fill:#1E47E3;}
	.st29{fill:#204BFD;}
	.st30{fill:#2041FF;}
	.st31{fill:#1F4AEB;}
	.st32{fill:#5875E6;}
	.st33{fill:#1B40D2;}
	.st34{fill:#4F5F9D;}
	.st35{fill:#FCB834;}
	.st36{fill:#7855FF;}
	.st37{fill:#A591F9;}
	.st38{fill:#E8DBFA;}
	.st39{fill:#678EEB;}
	.st40{fill:#356AE5;}
	.st41{fill:#1856ED;}
	.st42{fill:#FF9E1A;}
	.st43{fill:#0A2565;}
	.st44{fill:#103BA3;}
	.st45{fill:#061438;}
	.st46{fill:#0B286E;}
	.st47{fill:#FE9E1A;}
	.st48{fill:#BC9519;}
	.st49{fill:#FFFFFF;}
	.st50{fill:#CEEBFC;}
	.st51{fill:#06AEEF;}
	.st52{fill:#57BFF2;}
	.st53{fill:#0191FF;}
	.st54{fill:#54AADC;}
	.st55{fill:#76BF45;}
	.st56{fill:#A9D282;}
	.st57{fill:none;}
	.st58{fill:#106094;}
	.st59{fill:#684D46;}
	.st60{fill:#F4DCB9;}
	.st61{fill:#132130;}
	.st62{fill:#E9BE8D;}
	.st63{fill:#46B7E2;}
	.st64{fill:#0888BE;}
	.st65{fill:#FEFEFD;}
	.st66{fill:#F4DBB9;}
	.st67{fill:#997156;}
	.st68{fill:#E8BD8D;}
	.st69{fill:#F8F8F9;}
	.st70{fill:#FBCE4F;}
	.st71{fill:#EAC091;}
	.st72{fill:#FBFAFA;}
	.st73{fill:#EBEAE9;}
	.st74{fill:#694E46;}
	.st75{fill:#9E7558;}
	.st76{fill:#9E7659;}
	.st77{fill:#152433;}
	.st78{fill:#FF3C78;}
	.st79{fill:#777BB4;}
</style>
<path class="st0" d="M474.5,83.1c0-18.9-7.1-34.5-22.2-46.2c-7.4-5.8-15.9-9.3-25.2-10.7c-0.9-0.1-1.7-0.5-2.6-0.7
	c-116.3,0-232.6,0-348.9,0c-2.7,0.6-5.5,1.1-8.1,1.8C50.1,32,37.7,42.7,30.3,59.1c-2.3,5.1-3.9,10.5-4.4,16.1c0,0.3-0.2,0.5-0.4,0.8
	c0,0.6,0,1.2,0,1.9c0,114.8,0,229.6,0,344.3c0,0.6,0,1.2,0,1.9c0.4,1.8,0.7,3.5,1.1,5.3c4.3,19.4,15.5,33,33.6,41.1
	c4.7,2.1,9.6,3.3,14.7,3.9c0.1,0,0.3,0.2,0.4,0.3c116.4,0,232.9,0,349.3,0c2.6-0.6,5.2-1,7.8-1.8c17.9-4.9,30.6-15.9,37.8-33
	c2.6-6.1,4.1-12.6,4.1-19.4c0.1-12.3,0.2-24.7,0.2-37C474.5,283.3,474.5,183.2,474.5,83.1z"/>
<g>
	<path class="st54" d="M89.5,238.7c2,0.2,3.4,0.3,4.7,0.5c1.1,0.1,1.5,0.8,1.3,1.8c-0.6,3.9-1.3,7.7-1.8,11.6
		c-0.5,3.3-0.7,6.6-1.1,9.8c-0.6,4.5-1.3,8.9-1.9,13.4c-0.5,3.9-1,7.7-1.4,11.6c-0.1,1.1-0.7,1.7-1.7,1.9c-3.3,0.7-6.5,1.6-9.9,0.9
		c-2.3-0.5-2.3-0.8-2.1-3c0.4-4.1,1-8.3,1.6-12.4c0.4-2.5,0.8-5,1.2-7.5c0.4-3,0.7-5.9,1-8.9c0.3-2.8,0.8-5.6,1.1-8.4
		c0.3-2.5,0.7-5,1-7.5c0.2-1.8,0.6-2.4,2.4-2.8C86,239.3,88,239,89.5,238.7z"/>
	<path class="st55" d="M51.6,228.4c0.4-7,2.2-13.9,6.7-19.9c3.5-4.6,7.5-8.6,12.4-11.6c1.4-0.8,2.7-1.3,4.4-0.7
		c1.4,0.5,2.1,1.6,2.2,3c0.1,1.1,0,2.4-1.2,3.3c-2.3,1.7-4.8,3.2-7,5.1c-4.4,3.9-7.5,8.7-9.2,14.4c-1.9,6.6-0.9,12.7,2.3,18.6
		c0.7,1.2,1.4,2.5,0.9,4c-0.5,1.3-1.3,2.4-2.7,2.6c-1.6,0.3-3.1,0-3.9-1.5c-1-1.6-1.9-3.3-2.6-5.1C52.5,236.7,51.7,232.7,51.6,228.4
		z"/>
	<path class="st56" d="M66.5,229.6c0.3-8.9,3.9-15.5,11.1-20.1c0.8-0.5,2.1-0.8,3.1-0.6c0.7,0.1,1.6,0.9,1.9,1.6
		c0.4,1,0.2,2-0.8,2.8c-1.6,1.2-3.2,2.3-4.6,3.6c-2.6,2.3-3.9,5.4-4.9,8.7c-1.2,4.1-0.1,7.8,1.7,11.4c0.6,1.2,1.2,2.3,0.3,3.6
		c-1.1,1.5-3.1,1.7-4.2,0.2c-1.9-2.5-2.7-5.4-3.3-8.4C66.6,231.3,66.5,230.2,66.5,229.6z"/>
	<path class="st54" d="M82.6,230.7c0.4-1.6,0.7-3.3,1.4-4.9c1.4-3.3,4.4-3.8,7.5-4c1.5-0.1,3,0,4.5,0.3c1.5,0.2,3.2,1.4,2.9,3.6
		c-0.2,1.7-0.2,3.5-0.6,5.2c-0.5,2.1-1.9,3.7-4.1,4.2c-2,0.4-4,0.7-6.1,0.8C84.3,235.9,82.9,234.5,82.6,230.7z"/>
	<g>
		<path class="st57" d="M181.2,278.6c0.2,0.1,0.4,0.1,0.6,0.2c0.1,0.7,0.3,1.2,0.7,1.7c-0.4-0.5-0.6-1-0.7-1.7
			C181.5,278.7,181.4,278.7,181.2,278.6z"/>
		<path class="st57" d="M351.1,262.7c-4.3-0.1-8.4-0.1-12.6,1c-4,1-7.5,2.7-9.9,6.2c-1.5,2.8-1.4,5.7-0.8,8.6c1.1,2.2,2.6,4,4.9,5.1
			c6.7,2.5,11.7-0.4,16.2-5c0,1.3-0.7,2.2-1.5,2.9c0.8-0.7,1.5-1.6,1.5-2.9C352,273.6,350.9,268.1,351.1,262.7z"/>
		<path class="st57" d="M210.9,260.1c0.2-2.6-0.8-4.9-1.6-7.3l0,0c-0.9-2.4-2.2-4.6-4-6.5v0c-2.2-2.2-4.9-3.5-7.9-4.3
			c-1.9,0-3.8-0.1-5.6,0c-2.4,0.2-4.5,1.3-6.4,2.5c-2.1,1.6-3.8,3.6-5.1,5.9c-1.4,2.7-2.1,5.6-2.8,8.5c-0.1,0.5-0.1,1-0.1,1.5
			c-0.1,1-0.2,2-0.2,3.1c0,1.2,0.2,2.3,0.3,3.5c0.1,0.6,0.3,1.2,0.4,1.8c0.6,3.6,2.3,6.6,4.3,9.6c2.5,2.9,5.7,4.7,9.3,5.7
			c0.6,0.2,1.3,0.1,1.9,0.2c0.6,0,1.1,0,1.7,0c0.1,0,0.2,0,0.2,0c0.2,0,0.4,0,0.6,0c2.7-0.5,5.3-1.5,7.5-3.1c1.1-0.8,2-1.7,3-2.5
			c0,0,0,0,0,0l0-0.1l0,0c0.2-0.3,0.5-0.6,0.7-0.9c1-2.2,2-4.4,3-6.6c0.3-1.7,0.6-3.4,0.9-5.1c0.1-1.7,0.2-3.5,0.3-5.2
			C211.1,260.5,210.9,260.3,210.9,260.1z"/>
		<path class="st57" d="M180.4,278c0.2,0.3,0.4,0.5,0.7,0.6C180.9,278.5,180.6,278.3,180.4,278z"/>
		<path class="st57" d="M205.3,245.8c0,0.1,0,0.2,0,0.3C205.4,246,205.4,245.9,205.3,245.8z"/>
		<path class="st57" d="M330,283.1c0.7,0.6,1.5,1,2.5,1.1c0.1,0.1,0.2,0.3,0.3,0.5c-0.1-0.1-0.2-0.3-0.3-0.5
			C331.4,284.1,330.6,283.7,330,283.1z"/>
		<path class="st58" d="M161.4,217.7c0-0.5-0.7-1.2-1.2-1.4c-1.6-0.5-3.2-0.8-4.9-1.1c-1-0.2-2-0.3-3-0.6c-0.3-0.1-0.5-0.7-0.8-1
			c-1.8-0.2-3.7-0.4-5.5-0.5c0.1,0.3,0.1,0.5,0.2,0.8c0,0,0,0.1-0.2,0.3c-1.2,0-2.5-0.1-3.8,0c-1.4,0.2-2.7,0.5-4.1,0.8
			c-0.2,0-0.3,0.2-0.5,0.2c-2.5-0.3-4.8,0.9-7.1,1.4c-2.2,0.5-4.2,1.4-6.2,2.4c-2.7,1.4-5.1,3-7.4,5c-0.6,0.5-1.1,1.4-2.1,1.1
			c-1.4,1.8-2.8,3.6-4.2,5.4c0,0.6,0.3,1.4,0.1,1.9c-0.8,1.7-1.7,3.4-2.6,5.1c-0.2,0.4-0.4,0.9-0.5,1.4c-0.2,0.9-0.6,1.5-1.6,1.5
			c-0.6,3.1-1.5,6.1-1.6,9.2c-0.2,3.9,0.1,7.8,0.5,11.6c0.2,2.1,1,4.2,1.6,6.2c1.3,0.4,1.8,1.3,2.2,2.6c0.5,1.6,1.3,3.2,2.2,4.6
			c0.7,1.1,1.3,2.1,1.1,3.5c0.2,0.3,0.3,0.6,0.5,0.8c3.1,4,7.1,6.9,11.6,9.1c0.6-1.1,1.5-0.7,2.3-0.3c2,0.9,4,1.9,6.3,2
			c0.6,0,1.2,1,1.8,1.6c1.7,0.2,3.3,0.6,5,0.7c4.4,0.2,8.8,0.2,13.1-0.8c0.1-1.4,1.3-1.3,2.2-1.6c1.8-0.5,3.7-0.9,5.5-1.4
			c0.7-0.2,1.3-0.7,1.1-1.6c-0.1-0.8-0.2-1.6-0.4-2.4c-0.6-1.8-0.8-1.7-2.7-1.3c-3,0.7-5.9,1.8-9.1,1.8c-1.3,0-2.6,0.5-3.9,0.5
			c-2-0.1-4-0.3-6-0.7c-1.9-0.4-4-0.1-5.7-1.3c-1.1-0.7-2.5-1-3.7-1.4c-1-0.6-1.9-1.2-2.9-1.9c-0.3-0.2-0.6-0.6-1-0.7
			c-2.8-1.1-4.3-3.5-6.1-5.7c-0.5-0.6-0.3-1.6-0.5-2.4c-0.2-0.4-0.4-0.7-0.6-1.1c-0.2-0.3-0.3-0.6-0.5-0.9c0-0.1,0-0.2-0.1-0.2
			c-1.2,0.1-1.6-0.9-1.9-1.7c-0.3-0.7-0.7-1.3-0.8-2c-0.3-2.2-1.8-4.3-1.3-6.6c0.1-0.3,0.5-0.6,0.7-0.8c-0.1-1.9-0.2-3.8-0.2-5.7
			c0-1.1,0.1-2.2,0.2-3.3c-0.3-0.4-0.8-0.7-0.7-1.1c0.2-2.6,0.5-5.3,1.9-7.6c0.2-0.3,0.6-0.4,0.9-0.6c0.2-0.4,0.4-0.8,0.6-1.2
			c2.4-5.8,6.4-10,11.9-13c3.4-1.9,7.1-2.9,11-3.3c4-0.4,7.9-0.3,11.8,0.3c2.1,0.3,4.1,0.9,6.1,1.4c0,0,0.1,0.1,0.1,0.1
			c0.2,0.1,0.4,0.2,0.6,0.2c0.5-1.1,1.1-2.1,1.6-3.2C161.1,219.5,161.4,218.6,161.4,217.7z"/>
		<path class="st58" d="M220.5,254.5c-0.6-0.8-1.6-1.5-1.9-2.4c-0.8-3.3-2.6-6.1-4.9-8.4c-0.9-0.9-1.9-1.6-2.6-2.5
			c-1.4-1.7-3.4-2.3-5.4-3.1c-0.5-0.2-0.9-0.7-1.4-1c-1.2,0.1-2.3,0-3.2-0.8c-0.3-0.2-0.9-0.3-1.3-0.3c-2.7,0-5.3-0.2-7.9,0.1
			c-2.5,0.3-4.9,1.1-7.3,1.8c-0.7,0.2-1.5,0.4-2.2,0.6c-1.5,0.5-3,1.1-4.5,1.6c-0.1,0-0.1,0-0.1,0.1c-0.7,1.2-1.3,2.5-2.3,3.5
			c-2.5,2.6-4.1,5.7-5.2,9c-0.3,0.8-1.2,1.5-1.9,2.2c-0.4,1.7-0.9,3.4-1,5.1c-0.2,2.5-0.2,5,0,7.4c0.3,3.8,1.4,7.4,3.2,10.7
			c0.8,0.7,1.7,1.4,2.4,2.2c0.8,1,1.4,2.3,2.3,3.1c1.2,1.1,2.8,1.9,4.2,2.9c0.6,0.4,1.2,0.8,1.8,1.1c1.2,0.6,2.3,1.3,3.6,1.8
			c0.4,0.2,0.9,0.2,1.3,0.3c1.1,0.2,1.9,0.6,2,1.9c0.5,0.1,0.9,0.3,1.4,0.3c2.7,0,5.5,0,8.2,0c-0.1-1,0.3-1.5,1.4-1.6
			c1.1-0.1,2.2-0.2,3.2-0.5c1.1-0.3,2.1-0.8,3.1-1.3c1.2-0.6,2.3-1.3,3.6-1.9c0.4-0.2,1.4-1,1.4,0.4c2.6-1.4,4.6-3.5,6.1-6
			c-0.3-0.2-0.8-0.5-0.8-0.6c0.9-1.7,1.9-3.3,2.9-5c0.2-0.3,0.7-0.3,1-0.5c0.2-0.8,0.5-1.6,0.7-2.4c1.3-4.1,1.5-8.3,1.2-12.5
			C221.4,258,220.8,256.2,220.5,254.5z M211.8,267.5c-0.4,1.2-0.8,2.3-1.2,3.5c0,0.1-0.4,0-0.6,0c-1,2.2-2,4.4-3,6.6
			c0.1,0.2,0.3,0.3,0.4,0.5c-0.4,0.1-0.7,0.3-1.1,0.4v0l0,0l0,0.1c0,0,0,0,0,0c0,0,0,0,0,0c0.2,1.2-0.5,1.9-1.2,2.6
			c-0.1,0.1-0.2,0.2-0.3,0.3c-0.6,0.6-1.3,0.9-1.9,1.4c-1.7,1.5-3.7,2.2-6,2.1c-0.4,0-0.7-0.5-1.1-0.7c-0.2,0-0.4,0-0.6,0l0,0
			c-0.1,0-0.2,0-0.2,0c-0.6,0-1.1,0-1.7,0c-0.3,1.3-1.5,1-2.2,0.9c-2.4-0.4-4.5-1.4-6.5-2.9c-0.8-0.6-1.6-1.2-2.2-1.9
			c-0.4-0.5-0.6-1-0.7-1.7c-0.2,0-0.4-0.1-0.6-0.2c-0.3-0.1-0.6-0.4-0.7-0.6c-0.5-0.7-0.6-1.6-1.1-2.2c-1.4-1.6-1.5-3.7-2.3-5.6
			c-0.4-0.9,0.2-2.1,0.3-3.2c-0.1-1.2-0.2-2.3-0.3-3.5c0-1,0.1-2,0.2-3.1c-0.2-0.3-0.5-0.6-0.5-0.9c-0.4-3.3,0.6-6.2,2.2-9
			c0.3-0.6,0.7-0.6,1.1,0c1.3-2.3,3-4.3,5.1-5.9c-0.6-1,0.1-1.6,0.8-1.9c1.6-0.7,3.4-1.3,5-1.9c0.7-0.2,1.4-0.5,2.2-0.6
			c1-0.1,2.1-0.2,2.9,0.8c0.1,0.1,0.3,0.2,0.5,0.2c0.2,0,0.5,0,0.6,0.1c0.6,0,1.2,0,1.8,0c2,0,5.5,2.6,6.2,4.5c0,0.1,0,0.2,0,0.3
			c0,0.1,0,0.2,0,0.3c1.8,1.9,3,4.1,4,6.5l0,0l0,0c0.2,0,0.4,0,0.5,0.1c1.5,1,2.8,5.9,1.9,7.5c-0.1,0.2-0.4,0.2-0.5,0.4
			c-0.1,1.7-0.2,3.5-0.3,5.2C211.8,266.1,212.1,266.7,211.8,267.5z"/>
		<path class="st58" d="M273.5,249.2c-0.6-2.7-2.1-4.8-3.9-6.7c-0.6-0.7-1.3-1.2-2-1.9c-1.3-1.4-3-2.1-4.8-2.6
			c-0.8-0.2-1.5-0.7-2.3-1c-3.9,0-7.9-0.3-11.7,1.1c-2.4,0.8-4.5,2-6.4,3.5c-0.5,0.4-1.1,0.5-1.7,0.7c0,0-0.1,0.1-0.1,0.1
			c-0.2,0.2-0.4,0.5-0.6,0.7c-0.7,0.9-1.4,1.7-2.2,2.6c-0.2-0.1-0.4-0.2-0.6-0.2c0-2.4,0-4.8,0-7.3c0-0.4-0.2-0.7-0.3-1.1
			c-0.2,0-0.4,0.1-0.6,0.1c0.1,0.9-0.4,1.1-1.2,1.1c-1.8,0-3.6,0-5,0c-0.7,0.9-1.2,1.5-1.7,2.2c0.1,5.3,0.2,10.5,0.2,15.8
			c0,11.3,0,22.6,0,34c0,0.5,0,1,0,1.6c2.9,0,5.7,0,8.5,0c0.1-0.3,0.1-0.7,0.3-0.9c0.7-0.6,0.5-1.1,0.1-1.8
			c-0.2-0.4-0.4-0.9-0.4-1.4c0-8.8,0-17.6,0-26.4c0-1,0.3-1.9,1.4-2.2c0.1-0.8,0.2-1.5,0.3-2.3c0.9-5.7,4-9.7,9.3-11.9
			c0.5-0.2,0.9-0.4,1.4-0.6c0.1-1.2,1-1.5,1.9-1.6c0.9-0.1,1.8,0,2.7,0c1.2-0.1,1.8,0.4,1.7,1.6c3.6,0.9,6.4,2.7,8,6.2
			c1.1,2.4,1.9,4.9,1.9,7.6c0,10.8,0,21.5,0,32.3c0,0.5,0,1,0,1.5c3.4,0,6.8,0,10.1,0c0-0.7,0-1.3,0-1.8c-0.4-0.8-1.3-1.5-1.3-2.3
			c-0.1-9.8,0-19.6-0.1-29.5c0-1,0.6-1.3,1.4-1.6c-0.2-1.6-0.4-3.3-0.6-4.9C273.9,251.4,273.7,250.1,273.5,249.2z"/>
		<path class="st58" d="M358.8,289.6c1,0,1.5-0.7,1.4-1.7c-0.1-0.5-0.1-1,0-1.5c0.1-0.4,0.5-0.7,0.7-1.1c0-1-0.1-2.1-0.1-3.1
			c0-7.9,0-15.7-0.1-23.6c0-1.5-0.3-3-0.4-4.4c-1,0-1.3-0.4-1.3-1.4c0-1.6-0.1-3.2-0.3-4.7c-0.1-1.1-0.5-2.1-0.8-3.2
			c-0.2-0.1-0.4-0.1-0.5-0.2c-1.2-2.5-3.2-4.4-5.3-6.1c-1-0.8-2.4-1.1-3.7-1.6c-0.8-0.3-1.6-0.5-2.4-0.7c-0.5-0.1-0.9-0.3-1.4-0.3
			c-3.2,0-6.5-0.3-9.7,0.1c-2.6,0.3-5.1,1.1-7.6,1.8c-1.5,0.4-2.8,1.1-4.5,1.7c0,0.5,0.1,1.2,0.1,1.8c0,0.6-0.1,1.3-0.1,1.9
			c0.6,2.6,0.9,2.7,3.2,1.4c0.1,0,0.1-0.1,0.2-0.2c-0.2-0.8,0.1-1.4,1-1.7c1.6-0.5,3.3-1,4.9-1.4c0.7-0.2,1.4-0.4,2.1-0.5
			c1.6-0.2,3.1-0.5,4.7-0.5c0.8,0,1.7,0.3,1.3,1.5c0.5,0.1,1.1,0.2,1.6,0.3c0.6-0.9,2.1-1.1,3-0.4c1.3,1,2.7,1.9,3.9,3
			c0.6,0.6,1.4,1.5,0.7,2.7c1,2.6,1.4,5.3,1.4,8.4c-1.7,0-3.3,0-4.9,0c-0.8,0-1.7,0.2-2.5,0.3c-1.1,0.5-2.1,1.5-3.2,1.5
			c-3,0.1-5.8,1.1-8.6,2.1c-1.9,0.7-4,1.4-5.7,2.4c-1.5,0.9-3.2,1.8-4,3.7c-0.7,1.5-1.6,3-2.5,4.4c-0.2,0.4-0.9,0.4-1.4,0.6
			c-0.2,1.8-0.6,3.6-0.6,5.3c0.1,5.5,2.2,9.9,7,12.8c1.6,1,3.5,1.7,5.3,2.3c2.9,0.9,5.8,1,8.7,0.1c-0.2-1.5,1.2-1.5,2-1.8
			c1.4-0.6,2.9-1,4.4-1.6c0.6-0.2,1-0.5,1,0.5c2-1.5,3.9-3,5.9-4.5c0.2,0.9,0.3,1.7,0.4,2.6c0.6,0.9,1.2,1.7,2,3
			C355.4,289.5,357.1,289.6,358.8,289.6z M348.9,278.5c0,1.3-0.7,2.2-1.5,2.9c-0.5,0.4-1.1,0.8-1.6,1.2c-0.7,0.6-1.5,1-2.2,1.5
			c-3.4,2-6.9,1.7-10.5,0.8c-0.1,0-0.2-0.2-0.3-0.3c-0.1-0.1-0.2-0.3-0.3-0.5c-1-0.1-1.8-0.5-2.5-1.1c-0.7-0.6-1.2-1.3-1.7-2.1
			c-0.4-0.6-0.7-1.2-1-1.7c-0.4-0.5-1-0.9-1-1.4c-0.3-2.7,0-5.3,1.1-7.8c0.2-0.6,0.7-1,1.4-0.3c2.4-3.5,5.9-5.1,9.9-6.2
			c4.1-1.1,8.2-1,12.6-1C350.9,268.1,352,273.6,348.9,278.5z"/>
		<path class="st58" d="M311.9,238.3c0-1-0.2-1.4-1.4-1.4c-3.4,0.1-6.7,0-10.1,0c-0.5,0-1,0-1.6,0c0-0.5-0.1-1-0.1-1.4
			c0-2.8,0-5.6-0.1-8.5c-0.3-0.6-0.5-1.3-0.8-1.8c-0.2-0.3-0.7-0.8-1-0.8c-1.2,0.1-2.4,0.5-3.5,0.7c-0.4,0.1-0.9,0.2-1.2,0.4
			c-0.9,0.7-1.3,0.4-1.4-0.6c-2.2,0.4-2.2,0.4-2.2,2.5c0,2.8,0,5.5,0,8.3c0.7,1,0.1,1.1-0.7,1.1c-2.6,0-5.1,0-7.7,0
			c0,2.2,0,4.3,0,6.6c2.4,0,4.8,0.2,7-0.1c1.2-0.1,1.4,0.3,1.7,1.1c0,0.1-0.1,0.2-0.1,0.4c0,0.3-0.1,0.7-0.1,1c0,0.1,0,0.2,0,0.4
			c0,0,0,0,0,0s0,0,0,0c0,8.1,0,16.2,0,24.3c0,1.4-0.2,2.8-0.1,4.2c0.2,1.9,0.4,3.7,0.8,5.6c1,4.6,3.2,8.3,7.9,10.2
			c5.1,2.1,10.1,1.3,15.3-0.3c-0.2-1.8-0.3-3.5-0.5-5.3c-1.1-0.3-2.1-0.5-3.4-0.1c-2.2,0.6-4.5,0.2-6.4-1.1
			c-0.3-0.2-0.2-0.9-0.3-1.3c-2.5-1.9-3.3-4.7-3.3-7.6c-0.1-10.1,0-20.2,0-30.3c0-0.4,0-0.9,0.1-1.4c4.5,0,8.8,0,13.1,0
			C311.9,241.6,311.8,240,311.9,238.3z"/>
		<path class="st58" d="M446.9,238.7c0-1.7,0-1.7-1.8-1.7c-3.4,0-6.8,0-10.3,0c-0.4,0-0.7-0.2-1.1-0.4c0.3-0.3,0.5-0.6,0.8-0.9
			c-0.2-0.4-0.5-0.9-0.5-1.3c-0.1-3,0-6.1-0.1-9.1c-1.3-0.6-2.7-0.4-4.1-0.2c-0.5,0-1,0.3-1.5,0.5c-0.2,0.1-0.5,0.5-0.6,0.5
			c-1.9-0.3-2.5,1.2-3.2,2.4c-0.1,0.2-0.4,0.3-0.7,0.4c0,2.4,0,4.7-0.1,7.1c0.1,0.9-0.3,1.2-1.1,1.1c-2.5,0-5.1,0-7.6,0
			c0,2.2,0,4.3,0,6.6c3,0,5.8,0,8.8,0c0,3,0,5.8,0,8.7c0.4,0.5,1,1,1,1.5c0.1,5.3,0,10.6,0.1,15.9c0,0.7-0.2,1.3-1.1,1.2
			c0.2,2.6,0.4,5.1,0.6,7.7c1.2,0.3,1.6,1.1,1.6,2.3c0,2.5,1,4.5,2.8,6.2c1.2,1,2.5,1.9,3.7,2.9c0.3,0.2,0.4,0.7,0.5,1.1
			c2.2,0.9,4.5,1.3,6.9,1c2.6-0.4,5.1-0.7,7.8-1.1c-0.2-2.5-0.3-4.7-0.5-6.9c-0.1-0.2-0.1-0.3-0.2-0.5c-0.4-0.1-0.7-0.2-1.1-0.2
			c0.2,0.1,0.4,0.2,0.6,0.4c-3.3,2.5-8.3,1.7-10.3-0.8c-0.2-0.3-0.1-0.8-0.2-1.3c-1.3-1.7-2.2-3.6-2.2-5.8c0-10.7,0-21.5,0-32.3
			c4.5,0,9.2,0,14.2,0c0-1,0-2.1,0-3.1C447.2,240.3,446.9,239.7,446.9,238.7z"/>
		<path class="st58" d="M385.5,245.3c-0.2-1,0.2-1.4,1.3-1.9c4.6-2.3,9.5-2,14.4-2c0.8,0,1.6,0.5,2.5,0.7c1.1,0.2,2.1,0.5,3.2,0.6
			c0.9,0.1,2.3-1.9,2.1-2.9c-0.1-0.6-0.3-1.1-0.4-1.7l0,0c-0.2-0.2-0.4-0.4-0.6-0.5c-2.1-0.4-4.2-1.1-6.4-1.3
			c-3.4-0.2-6.8-0.4-10.2,0c-2.9,0.3-5.8,1.4-8.6,2.2c-0.7,0.2-1.4,0.6-2.1,0.8c-0.3,0.1-0.6-0.2-1-0.4c-2,1.7-4,3.3-6,5v0v0
			c0,0.1,0,0.1,0,0.2c0.1,0.2,0.1,0.5,0,0.6c-1.1,1.9-2.2,3.8-3.3,5.7c-0.6,1.1-1.2,2.2-1.4,3.3c-0.2,1.3-0.9,2-2,2.5
			c-0.1,0.2-0.3,0.5-0.3,0.7c-0.7,3.9-0.7,7.8-0.3,11.7c0.1,1.1,0.6,2.2,0.9,3.4c0.9,0.2,1.4,0.7,1.7,1.7c0.5,1.5,1.3,2.9,1.9,4.3
			c0.5,1,1,2,1.4,3.1c0,0.1-0.3,0.3-0.4,0.5c1.3,2.2,3,3.9,5.2,5.2c0.3,0.2,0.6,0.4,0.8,0.6l0,0c0.1,0.1,0.2,0.2,0.3,0.2
			c0.2,0.1,0.4,0.2,0.5,0.3c0.3-0.1,0.6-0.4,0.7-0.3c1.6,0.6,3.2,1.2,4.7,1.7c0.5,0.2,1.1,0.2,1.6,0.2c1.2-0.1,1.8,0.4,1.7,1.7
			c1.5,0.3,3,0.7,4.5,0.7c2.8,0,5.6-0.3,8.4-0.5c0.6-1.3,1.7-1.7,3.1-1.9c1.4-0.2,2.9-0.6,4.2-1.2c1-0.6,0.8-1.8,0.4-2.8
			c-0.2-2.3-1.2-2.8-3.2-1.7c-0.8,0.5-1.8,0.7-2.8,0.8c-1.9,0.3-3.9,0.4-5.8,0.6c-1,0.1-2.1,0.1-3.2,0c-0.6,0-1.2-0.3-1.8-0.5
			c-0.6-0.2-1.2-0.4-1.8-0.6c-1.1-0.4-2.3-0.7-3.2-1.3c-1.8-1.3-3.5-2.8-5.2-4.2c-0.2-0.1,0-0.7,0-1c-1-1.6-1.9-3.3-2.9-4.9
			c-0.7,0.5-1.7-0.3-1.8-1.5c-0.2-1.2-0.2-2.5-0.6-3.6c-0.8-2.2-0.4-4.5-0.5-6.8c0-0.5,0.3-1,0.5-1.6c0.1,0,0.3,0.1,0.4,0.1
			c0.1,0.2,0.1,0.5,0.2,0.7c0.2-0.6,0.3-1.2,0.5-1.8C378.6,253,380.6,248.3,385.5,245.3z"/>
		<path class="st58" d="M133.6,282.9c1.8,1.2,3.8,0.9,5.7,1.3c2,0.4,4,0.6,6,0.7c1.3,0.1,2.6-0.5,3.9-0.5c3.2,0,6.1-1.1,9.1-1.8
			c1.8-0.4,2-0.5,2.7,1.3c0.3,0.8,0.3,1.6,0.4,2.4c0.2,0.9-0.4,1.4-1.1,1.6c-1.8,0.5-3.7,0.9-5.5,1.4c-0.9,0.3-2.1,0.2-2.2,1.6
			c3.1-0.8,6.3-1.6,9.4-2.5c0.8-0.2,0.9-0.9,0.7-1.5c-0.6-2.1-1.2-4.3-1.8-6.5c-0.5,0.1-1,0.1-1.5,0.3c-2.2,0.6-4.3,1.4-6.5,1.9
			c-4.1,1-8.3,1.1-12.5,0.5c-3.6-0.5-7.1-1.9-10.7-2.8c0,0.3,0,0.7,0,1C131.1,282,132.5,282.2,133.6,282.9z"/>
		<path class="st58" d="M322.9,239.5c1.7-0.6,3.1-1.3,4.5-1.7c2.5-0.7,5-1.6,7.6-1.8c3.2-0.3,6.5-0.1,9.7-0.1c0.5,0,0.9,0.2,1.4,0.3
			c0.8,0.2,1.6,0.4,2.4,0.7c1.2,0.5,2.7,0.8,3.7,1.6c2.1,1.7,4.1,3.6,5.3,6.1c0.1,0.1,0.3,0.2,0.5,0.2c0.1-0.1,0.2-0.2,0.3-0.3
			c-0.1-0.3-0.2-0.6-0.3-0.9c-3.2-6.2-8.8-8.6-15.3-9.2c-6.1-0.6-12.1,0.4-17.8,2.9c-4.6,2-3.9,1-2.4,5.5c0,0.1,0.1,0.2,0.2,0.3
			c0.1-0.6,0.1-1.3,0.1-1.9C323,240.6,322.9,240,322.9,239.5z"/>
		<path class="st58" d="M274.5,257.9c0,9.8,0,19.6,0.1,29.5c0,0.8,0.8,1.5,1.3,2.3c0-11.1,0-22.2,0-33.3
			C275.1,256.6,274.5,257,274.5,257.9z"/>
		<path class="st58" d="M237.2,261.1c0,8.8,0,17.6,0,26.4c0,0.5,0.2,1,0.4,1.4c0.4,0.7,0.5,1.2-0.1,1.8c-0.2,0.2-0.2,0.6-0.3,0.9
			c0.4,0,0.9,0,1.4,0c0-2.4,0-4.8,0-7.1c0-8.5,0-16.9,0.1-25.4c0-0.1,0-0.2,0-0.3c0,0-0.1,0-0.1,0
			C237.5,259.2,237.2,260,237.2,261.1z"/>
		<path class="st58" d="M381.3,278.4c1.7,1.5,3.4,2.9,5.2,4.2c0.9,0.6,2.1,0.9,3.2,1.3c0.6,0.2,1.2,0.4,1.8,0.6
			c0.6,0.2,1.2,0.5,1.8,0.5c1,0.1,2.1,0.1,3.2,0c1.9-0.1,3.9-0.3,5.8-0.6c1-0.1,2-0.4,2.8-0.8c1.9-1.1,3-0.6,3.2,1.7
			c0.4,0,0.7,0,1.1,0c-0.3-1.4-0.6-2.7-0.9-4.2c-9.8,3.6-19,4.4-27-3.8C381.3,277.7,381.1,278.3,381.3,278.4z"/>
		<path class="st58" d="M117,223.9c2.3-1.9,4.7-3.6,7.4-5c2-1,4-2,6.2-2.4c2.4-0.5,4.6-1.8,7.1-1.4c0.2,0,0.3-0.1,0.5-0.2
			c1.4-0.3,2.7-0.7,4.1-0.8c1.3-0.1,2.6,0,3.8,0c0.1-0.2,0.2-0.2,0.2-0.3c0-0.3-0.1-0.5-0.2-0.8c-1.2,0.1-2.3,0.2-3.5,0.2
			c-4.4,0-8.7,0.8-12.8,2.2c-5.7,2-10.9,4.9-14.9,9.6C115.9,225.2,116.4,224.4,117,223.9z"/>
		<path class="st58" d="M408.9,239.8c0.2,1-1.2,3-2.1,2.9c-1.1-0.1-2.1-0.4-3.2-0.6c-0.8-0.2-1.6-0.7-2.5-0.7
			c-4.9-0.1-9.8-0.4-14.4,2c-1,0.5-1.4,0.9-1.3,1.9c4.3-2.3,8.8-3.1,13.6-2.7c2.6,0.2,5,0.9,7.4,1.8c1.4,0.6,1.6,0.6,2.1-1
			c0.5-1.8,1-3.6,1.5-5.5c-0.5,0-1,0-1.6,0C408.6,238.6,408.8,239.2,408.9,239.8z"/>
		<path class="st58" d="M382.8,238.4c2.9-0.8,5.7-1.8,8.6-2.2c3.4-0.4,6.8-0.2,10.2,0c2.1,0.1,4.2,0.8,6.4,1.3
			c0.2,0.2,0.4,0.4,0.6,0.5l0,0c0.5,0,1,0,1.6,0c0.1-1.4-1.2-1.3-1.9-1.5c-4.1-1.2-8.2-1.9-12.5-1.8c-5.7,0.2-11,1.4-16,4.1
			c0.3,0.1,0.7,0.4,1,0.4C381.4,239,382,238.6,382.8,238.4z"/>
		<path class="st58" d="M407.9,237.5c0.2,0.2,0.4,0.4,0.6,0.5l0,0l0,0C408.3,237.9,408.1,237.7,407.9,237.5z"/>
		<path class="st58" d="M321.9,265.9c0.8-1.9,2.5-2.8,4-3.7c1.8-1,3.8-1.7,5.7-2.4c2.8-1,5.5-2,8.6-2.1c1.1-0.1,2.2-1,3.2-1.5
			c-5.3,0-10.4,1.3-15.2,3.6c-3.4,1.6-6.5,3.7-8.4,7.1c-0.7,1.3-1.3,2.7-1.9,4c0.5-0.2,1.2-0.2,1.4-0.6
			C320.3,268.8,321.2,267.4,321.9,265.9z"/>
		<path class="st58" d="M184.5,237.7c2.4-0.6,4.8-1.5,7.3-1.8c2.6-0.3,5.3-0.1,7.9-0.1c0.4,0,1,0,1.3,0.3c1,0.8,2.1,0.9,3.2,0.8
			c0-0.4,0-0.7,0-1.1c-2.1-0.5-4.1-1.2-6.3-1.4c-5.7-0.5-11.1,0.6-16.3,2.9c0.2,0.3,0.4,0.6,0.6,0.9
			C183,238.1,183.8,237.9,184.5,237.7z"/>
		<path class="st58" d="M205.7,238c2,0.7,3.9,1.3,5.4,3.1c0.8,0.9,1.8,1.7,2.6,2.5c2.4,2.4,4.1,5.1,4.9,8.4c0.2,0.9,1.2,1.6,1.9,2.4
			c-0.5-1.5-0.8-3-1.4-4.4c-2.7-7-7.8-11.6-14.8-14.1c0,0.4,0,0.7,0,1.1C204.7,237.3,205.2,237.8,205.7,238z"/>
		<path class="st58" d="M313.1,240.7c0-0.3,0-0.7,0-1c0-0.4,0-0.8,0-1.2c0-0.1,0-0.3,0-0.4c0-0.1,0-0.3,0-0.4c0-0.2,0-0.5,0-0.7
			c0-0.2,0-0.4,0-0.7c-0.1-0.2-0.1-0.3-0.2-0.5c-0.1,0-0.1-0.1-0.2-0.1c-0.5,0-0.9-0.1-1.4-0.1c-0.1,0-0.2,0-0.3,0
			c-3.8,0-7.7,0-11.5,0c-0.1,0-0.2,0-0.3,0c-0.2,0-0.4-0.1-0.5-0.1c0,0.4,0.1,0.9,0.1,1.4c0.6,0,1.1,0,1.6,0c3.4,0,6.7,0,10.1,0
			c1.1,0,1.4,0.4,1.4,1.4c-0.1,1.6,0,3.3,0,4.9l0,0.1c0.2,0,0.4,0,0.6,0c0.2,0,0.3-0.1,0.5-0.1c0.1-0.2,0.1-0.4,0.2-0.6
			c0-0.4,0-0.8-0.1-1.3C313.1,241.2,313.1,241,313.1,240.7z"/>
		<path class="st58" d="M262.8,238c1.8,0.5,3.5,1.2,4.8,2.6c0.6,0.6,1.4,1.2,2,1.9c1.8,1.9,3.3,4,3.9,6.7c0.2,0.9,0.3,2.2,1.8,2.2
			c-0.2-0.6-0.3-1.2-0.5-1.8c-1.6-6-5.1-10.4-11-12.7c-0.1,0.1-0.3,0.3-0.4,0.4c-0.1-0.2-0.3-0.5-0.4-0.7c-0.7-0.2-1.5-0.4-2.2-0.5
			c-0.1,0.3-0.2,0.6-0.3,0.8C261.3,237.3,262,237.8,262.8,238z"/>
		<path class="st58" d="M186.1,289.4c-0.4-0.1-0.9-0.1-1.3-0.3c-1.2-0.6-2.4-1.2-3.6-1.8c-0.6-0.3-1.2-0.7-1.8-1.1
			c-1.4-0.9-2.9-1.8-4.2-2.9c-0.9-0.8-1.5-2.2-2.3-3.1c-0.7-0.8-1.6-1.5-2.4-2.2c0.2,0.5,0.5,1,0.7,1.4c3.8,6.6,9.6,10.2,16.8,11.9
			C188,290.1,187.1,289.6,186.1,289.4z"/>
		<path class="st58" d="M248.8,238c3.8-1.3,7.8-1,11.7-1.1c0.1-0.3,0.2-0.6,0.3-0.8c-2.8-0.9-5.7-0.8-8.5-0.2
			c-4.5,1-8.6,2.6-11.7,6.3c0.6-0.2,1.2-0.3,1.7-0.7C244.3,240,246.4,238.8,248.8,238z"/>
		<path class="st58" d="M448.4,236.4c0-0.1-0.1-0.2-0.1-0.3c-0.2-0.2-0.3-0.3-0.5-0.5c-4.4,0-8.8,0-13.2,0c-0.3,0.3-0.5,0.6-0.8,0.9
			c0.4,0.1,0.7,0.4,1.1,0.4c3.4,0,6.8,0,10.3,0c1.8,0,1.8,0,1.8,1.7c0,1,0.3,1.6,1.4,1.5c0-1,0.1-2,0.1-3
			C448.4,237,448.4,236.7,448.4,236.4z"/>
		<path class="st58" d="M162.6,216c-3.6-1.3-7.2-2.3-11.1-2.5c0.3,0.3,0.5,0.9,0.8,1c1,0.3,2,0.4,3,0.6c1.6,0.3,3.3,0.6,4.9,1.1
			c0.5,0.2,1.1,0.9,1.2,1.4c0,0.9-0.2,1.9-0.6,2.7c-0.4,1.1-1,2.1-1.6,3.2c0.6,0.2,1.4,1.2,1.8-0.1c0.7-2.1,1.4-4.3,1.9-6.4
			C163.1,216.8,162.9,216.1,162.6,216z"/>
		<path class="st58" d="M425,269.6c0-5.3,0-10.6-0.1-15.9c0-0.5-0.7-1-1-1.5c0,6.2,0,12.4,0,18.6C424.8,270.9,425,270.4,425,269.6z"
			/>
		<path class="st58" d="M338.9,240.3c-1.6,0-3.1,0.3-4.7,0.5c-0.7,0.1-1.4,0.3-2.1,0.5c-1.7,0.5-3.3,0.9-4.9,1.4
			c-0.8,0.2-1.1,0.8-1,1.7c2.9-1.3,5.8-2.4,8.9-2.5c1.7-0.1,3.4-0.1,5-0.1C340.6,240.6,339.7,240.3,338.9,240.3z"/>
		<path class="st58" d="M170.1,252.5c1.2-3.4,2.8-6.4,5.2-9c0.9-1,1.5-2.3,2.3-3.5c-0.6,0.5-1.3,0.9-1.8,1.4
			c-3.7,3.7-6.3,8.2-7.6,13.3C168.9,254,169.8,253.4,170.1,252.5z"/>
		<path class="st58" d="M424.6,228.4c0.7-1.3,1.3-2.7,3.2-2.4c0.2,0,0.4-0.3,0.6-0.5c0.5-0.2,1-0.5,1.5-0.5c1.4-0.1,2.8-0.4,4.1,0.2
			c0-0.8,0-1.6,0-2.5c-0.6,0.1-1,0.2-1.5,0.3c-1.9,0.6-3.8,1.2-5.8,1.8c-3,0.9-3,0.9-2.8,4C424.1,228.6,424.5,228.6,424.6,228.4z"/>
		<path class="st58" d="M208.9,286.2c-1.2,0.5-2.4,1.3-3.6,1.9c-1,0.5-2,1-3.1,1.3c-1,0.3-2.1,0.4-3.2,0.5c-1,0.1-1.4,0.6-1.4,1.6
			c0.8-0.2,1.6-0.3,2.5-0.5c3.7-0.8,7.2-2.1,10.2-4.4C210.2,285.2,209.3,286.1,208.9,286.2z"/>
		<path class="st58" d="M360.2,286.4c-0.1,0.5-0.1,1,0,1.5c0.2,1.1-0.4,1.7-1.4,1.7c-1.7,0-3.4-0.1-4.6-0.2c-0.8-1.2-1.4-2.1-2-3
			c0.1,1.4,0.1,2.7,0.2,4c3.2,0,6.1,0,9.2,0c-0.2-1.8-0.5-3.4-0.7-5.1C360.7,285.7,360.3,286,360.2,286.4z"/>
		<path class="st58" d="M428.9,287c-1.8-1.6-2.8-3.7-2.8-6.2c0-1.2-0.4-2-1.6-2.3c0.1,4.9,3.2,10.9,8.7,12.4
			c-0.2-0.4-0.3-0.9-0.5-1.1C431.4,288.9,430.1,288,428.9,287z"/>
		<path class="st58" d="M369.1,253.6c0.2-1.2,0.8-2.3,1.4-3.3c1-1.9,2.2-3.8,3.3-5.7c0.1-0.1,0-0.4,0-0.6c0-0.1,0-0.1,0-0.2
			c-3.3,3.5-5.3,7.7-6.5,12.3C368.2,255.6,368.9,254.9,369.1,253.6z"/>
		<path class="st58" d="M373.6,243.8L373.6,243.8c0,0.1,0,0.1,0,0.2C373.7,243.9,373.6,243.9,373.6,243.8z"/>
		<path class="st58" d="M126,278.9c0.4,0.1,0.6,0.5,1,0.7c1,0.6,1.9,1.2,2.9,1.9c0-0.3,0-0.7,0-1c-1.5-1-3.2-2-4.6-3.1
			c-2.4-1.8-4.2-4.1-5.8-6.5c0.2,0.8,0,1.9,0.5,2.4C121.7,275.5,123.2,277.9,126,278.9z"/>
		<path class="st58" d="M407.8,288.1c-1.3,0.7-2.8,1-4.2,1.2c-1.4,0.2-2.4,0.6-3.1,1.9c2.3-0.6,4.7-1.1,7-1.8c2.7-0.8,2.7-0.9,2-3.5
			c-0.1-0.2-0.2-0.4-0.3-0.6c-0.4,0-0.7,0-1.1,0C408.6,286.4,408.9,287.6,407.8,288.1z"/>
		<path class="st58" d="M376.1,259.1c-0.2,0.5-0.6,1-0.5,1.6c0.1,2.3-0.4,4.6,0.5,6.8c0.4,1.1,0.4,2.4,0.6,3.6
			c0.2,1.1,1.2,1.9,1.8,1.5c-0.9-2.3-1.9-4.7-1.8-7.3c0-1.8,0-3.5,0-5.3c-0.1-0.2-0.1-0.5-0.2-0.7
			C376.4,259.2,376.3,259.1,376.1,259.1z"/>
		<path class="st58" d="M308.7,284.9c1.3-0.4,2.3-0.1,3.4,0.1c0.1-1.9,0.1-1.9-1.7-1.6c-2.9,0.4-5.7,0.7-8.4-0.9
			c0.1,0.5,0,1.2,0.3,1.3C304.3,285.2,306.6,285.5,308.7,284.9z"/>
		<path class="st58" d="M446.7,283.6c-0.2-0.1-0.4-0.3-0.6-0.4c-0.6,0.1-1.1,0.1-1.7,0.2c-3,0.6-5.9,0.5-8.2-1.9
			c0.1,0.4,0,1,0.2,1.3C438.4,285.3,443.4,286.1,446.7,283.6z"/>
		<path class="st58" d="M111,274.5c-0.9-1.4-1.7-3-2.2-4.6c-0.4-1.3-1-2.2-2.2-2.6c1.1,3.9,3.1,7.4,5.5,10.7
			C112.3,276.6,111.7,275.6,111,274.5z"/>
		<path class="st58" d="M292.1,225.6c0.3-0.2,0.8-0.3,1.2-0.4c1.2-0.3,2.3-0.6,3.5-0.7c0.3,0,0.7,0.5,1,0.8c0.3,0.6,0.5,1.2,0.8,1.8
			c0-1.4,0-2.9,0-4.7c-2.7,0.9-5.3,1.7-7.9,2.5C290.8,226,291.2,226.3,292.1,225.6z"/>
		<path class="st58" d="M235.2,238.1c0.8,0,1.3-0.2,1.2-1.1c0-0.1,0-0.1,0-0.2c-0.3,0-0.5,0-0.8,0c-0.2,0-0.4,0-0.6,0
			c-0.2,0-0.3,0-0.5,0c-0.2,0-0.4,0-0.6,0c-1.8,0-3.6,0-5.4,0c0,1.4,0,2.4,0,3.5c0.5-0.6,1-1.3,1.7-2.2
			C231.6,238.1,233.4,238,235.2,238.1z"/>
		<path class="st58" d="M114.3,258.3c-0.4,2.4,1,4.4,1.3,6.6c0.1,0.7,0.5,1.3,0.8,2c0.4,0.9,0.7,1.8,1.9,1.7
			c-0.9-2.7-1.9-5.4-2.7-8.1c-0.3-1-0.4-2.1-0.5-3.1C114.8,257.7,114.3,258,114.3,258.3z"/>
		<path class="st58" d="M132.7,289.5c-2.3-0.1-4.2-1.1-6.3-2c-0.8-0.3-1.7-0.7-2.3,0.3c3.4,1.4,6.8,2.8,10.4,3.3
			C133.9,290.6,133.3,289.5,132.7,289.5z"/>
		<path class="st58" d="M288.5,235.8c-2.8,0-5.6,0-8.4,0c0,0.3,0,0.7,0,1.1c2.6,0,5.1,0,7.7,0C288.6,237,289.2,236.8,288.5,235.8z"
			/>
		<path class="st58" d="M107.7,238.8c0.1-0.5,0.3-0.9,0.5-1.4c0.9-1.7,1.8-3.4,2.6-5.1c0.2-0.5-0.1-1.2-0.1-1.9
			c-2,3-3.4,6.4-4.6,9.8C107,240.2,107.5,239.7,107.7,238.8z"/>
		<path class="st58" d="M348.7,244.7c-1.1-1.2-2.5-2.1-3.9-3c-0.9-0.7-2.5-0.4-3,0.4c3.3,0.6,5.9,2.4,7.6,5.3
			C350.1,246.2,349.3,245.3,348.7,244.7z"/>
		<path class="st58" d="M372.4,281c-0.4-1-0.9-2-1.4-3.1c-0.7-1.4-1.4-2.8-1.9-4.3c-0.3-1-0.8-1.5-1.7-1.7c0.9,3.5,2.3,6.7,4.6,9.6
			C372.1,281.3,372.4,281.1,372.4,281z"/>
		<path class="st58" d="M385.9,289.4c-0.5,0-1.1,0-1.6-0.2c-1.6-0.5-3.2-1.2-4.7-1.7c-0.2-0.1-0.5,0.2-0.7,0.3
			c2.7,1.6,5.6,3,8.8,3.3C387.7,289.9,387.2,289.4,385.9,289.4z"/>
		<path class="st58" d="M358.8,248.1c0.2,1.6,0.3,3.1,0.3,4.7c0,1,0.4,1.4,1.3,1.4c0.3-3.4-0.7-6.5-2.1-9.6
			c-0.1,0.1-0.2,0.2-0.3,0.3C358.3,245.9,358.6,247,358.8,248.1z"/>
		<path class="st58" d="M422.7,237c0.9,0,1.3-0.2,1.1-1.1c-0.4,0-0.7,0-1.1,0c-0.1,0-0.2,0-0.3,0c-1.8,0-3.6-0.1-5.4-0.1
			c-0.1,0-0.2,0-0.4,0c-0.2,0-0.3,0-0.5,0c-0.2,0-0.4,0.1-0.6,0.1c-0.2,0.4-0.3,0.7-0.5,1.1C417.7,237,420.2,236.9,422.7,237z"/>
		<path class="st58" d="M344.9,287.9c-1.4,0.6-3,1-4.4,1.6c-0.8,0.4-2.2,0.3-2,1.8c2.7-0.4,5.2-1.4,7.4-2.9
			C346,287.4,345.5,287.6,344.9,287.9z"/>
		<path class="st58" d="M116.2,239.8c-1.4,2.3-1.7,5-1.9,7.6c0,0.3,0.5,0.7,0.7,1.1c0.1-0.5,0.2-1,0.4-1.5c0.6-2.6,1.2-5.1,1.7-7.7
			C116.8,239.4,116.4,239.5,116.2,239.8z"/>
		<path class="st58" d="M254.2,242.4c-0.9,0.1-1.8-0.1-2.7,0c-1,0.1-1.9,0.4-1.9,1.6c0.1,0,0.2,0,0.3,0c0.1,0,0.2,0,0.3,0
			c0.8-0.1,1.5-0.2,2.3-0.2c1.2,0,2.3,0.1,3.5,0.2C256,242.8,255.4,242.3,254.2,242.4z"/>
		<path class="st58" d="M215.6,280.1c0,0,0.5,0.4,0.8,0.6c1.1-2,2.1-4,3.2-6c-0.4,0.2-0.9,0.2-1,0.5
			C217.5,276.8,216.6,278.4,215.6,280.1z"/>
		<path class="st58" d="M181.7,237.5c-1.3,0.8-2.6,1.6-4,2.5c1.5-0.5,3-1.1,4.5-1.6C182.1,238,181.9,237.8,181.7,237.5z"/>
		<path class="st58" d="M263.8,237c-0.3-0.1-0.5-0.2-0.8-0.3c0.1,0.2,0.3,0.5,0.4,0.7C263.6,237.3,263.7,237.1,263.8,237z"/>
		<path class="st58" d="M237,236.9c-0.2,0-0.4-0.1-0.6-0.1c0,0.1,0,0.1,0,0.2C236.6,237,236.8,236.9,237,236.9z"/>
		<polygon class="st58" points="237,236.9 237,236.9 237,236.9 		"/>
		<path class="st58" d="M237,236.9C237,236.9,237,236.9,237,236.9C237,236.9,237,236.9,237,236.9c-0.2,0-0.4,0.1-0.6,0.1
			C236.6,237,236.8,236.9,237,236.9z"/>
		<path class="st58" d="M288.6,246c0,0.1,0,0.2,0.1,0.2c0-0.1,0-0.2,0-0.4C288.6,246,288.6,246,288.6,246z"/>
		<path class="st58" d="M288.6,245.9c0,0.1,0,0.2,0,0.4c0,0,0,0,0,0C288.6,246.2,288.6,246,288.6,245.9z"/>
		<path class="st58" d="M158.5,223.4C158.5,223.4,158.6,223.4,158.5,223.4C158.6,223.4,158.5,223.3,158.5,223.4L158.5,223.4z"/>
		<path class="st58" d="M238.8,259c0-0.1-0.1-0.1-0.1-0.2C238.7,258.9,238.7,259,238.8,259C238.7,259.1,238.8,259,238.8,259z"/>
		<path class="st58" d="M238.7,258.8C238.7,258.8,238.7,258.8,238.7,258.8L238.7,258.8c0,0.1,0,0.2,0,0.3
			C238.7,259,238.7,258.9,238.7,258.8z"/>
		<path class="st58" d="M197.4,242.1c0-0.3,0-0.5,0-0.8l0,0c-0.2,0-0.4,0-0.6-0.1c-0.2,0-0.4-0.1-0.5-0.2c-0.8-1-1.8-0.9-2.9-0.8
			c-0.7,0.1-1.5,0.3-2.2,0.6c-1.7,0.6-3.4,1.2-5,1.9c-0.7,0.3-1.5,0.9-0.8,1.9c2-1.2,4.1-2.3,6.4-2.5
			C193.7,242,195.5,242.1,197.4,242.1z"/>
		<path class="st58" d="M197.4,241.3L197.4,241.3c-0.2,0-0.4,0-0.6-0.1C197,241.3,197.2,241.3,197.4,241.3L197.4,241.3z"/>
		<path class="st58" d="M182.1,278.4c-0.1,0.1-0.2,0.3-0.3,0.4c0.1,0.7,0.3,1.2,0.7,1.7c0.6,0.8,1.4,1.3,2.2,1.9
			c1.9,1.5,4.1,2.5,6.5,2.9c0.7,0.1,1.9,0.4,2.2-0.9c-0.6-0.1-1.3,0-1.9-0.2C187.8,283.1,184.6,281.3,182.1,278.4z"/>
		<path class="st58" d="M195.8,284.3c0.4,0.3,0.7,0.7,1.1,0.7c2.3,0.1,4.3-0.6,6-2.1c0.6-0.5,1.4-0.9,1.9-1.4
			c0.1-0.1,0.2-0.2,0.3-0.3c0.7-0.7,1.4-1.4,1.2-2.6c-1,0.8-2,1.8-3,2.5C201,282.8,198.5,283.7,195.8,284.3z"/>
		<path class="st58" d="M205,281.2c0.7-0.7,1.4-1.4,1.2-2.6c0,0,0,0,0,0C206.5,279.8,205.7,280.5,205,281.2z"/>
		<path class="st58" d="M182.1,278.4c-1.9-3-3.6-6.1-4.3-9.6c-0.1-0.6-0.3-1.2-0.4-1.8c-0.1,1.1-0.7,2.3-0.3,3.2
			c0.8,1.8,0.9,4,2.3,5.6c0.5,0.6,0.7,1.5,1.1,2.2c0.2,0.3,0.4,0.5,0.7,0.6c0.2,0.1,0.4,0.1,0.6,0.2
			C181.9,278.6,182,278.5,182.1,278.4z"/>
		<path class="st58" d="M180.2,250.5c-0.4-0.6-0.8-0.5-1.1,0c-1.7,2.8-2.7,5.7-2.2,9c0,0.3,0.3,0.6,0.5,0.9c0-0.5,0-1,0.1-1.5
			C178.1,256.1,178.8,253.2,180.2,250.5z"/>
		<path class="st58" d="M197.4,242.1c3,0.7,5.7,2.1,7.9,4.3v0l0,0c0-0.1,0-0.2,0-0.3c0-0.1,0-0.2,0-0.3c-0.6-1.9-4.1-4.5-6.2-4.5
			c-0.6,0-1.2,0-1.8,0C197.4,241.6,197.4,241.9,197.4,242.1z"/>
		<path class="st58" d="M199.2,241.3c-0.6,0-1.2,0-1.8,0l0,0C198,241.3,198.6,241.3,199.2,241.3z"/>
		<path class="st58" d="M205.3,246.4c0-0.1,0-0.2,0-0.3C205.4,246.2,205.3,246.3,205.3,246.4L205.3,246.4z"/>
		<path class="st58" d="M210.9,260.1c0,0.2,0.2,0.4,0.3,0.6c0.2-0.1,0.4-0.2,0.5-0.4c0.9-1.6-0.3-6.5-1.9-7.5
			c-0.1-0.1-0.4,0-0.5-0.1C210.1,255.2,211.1,257.5,210.9,260.1z"/>
		<path class="st58" d="M209.3,252.8L209.3,252.8c0.2,0,0.4,0,0.5,0.1C209.7,252.8,209.5,252.8,209.3,252.8z"/>
		<path class="st58" d="M210.6,271c0.4-1.2,0.8-2.3,1.2-3.5c0.3-0.9,0-1.4-0.9-1.6c-0.3,1.7-0.6,3.4-0.9,5.1
			C210.2,271.1,210.6,271.1,210.6,271z"/>
		<path class="st58" d="M207.4,278.2c-0.1-0.2-0.3-0.3-0.4-0.5c-0.2,0.3-0.4,0.6-0.7,0.9C206.7,278.4,207.1,278.3,207.4,278.2z"/>
		<path class="st58" d="M206.3,278.6c0.4-0.1,0.7-0.3,1.1-0.4C207.1,278.3,206.7,278.4,206.3,278.6L206.3,278.6z"/>
		<path class="st58" d="M195,284.3c0.1,0,0.2,0,0.2,0h0C195.1,284.3,195,284.3,195,284.3z"/>
		<path class="st58" d="M195,284.3c0.1,0,0.2,0,0.2,0l0,0h0C195.1,284.3,195,284.3,195,284.3z"/>
		<path class="st58" d="M348.9,278.5c-4.5,4.6-9.5,7.5-16.2,5c-0.1,0.2-0.2,0.5-0.3,0.7c0.1,0.1,0.2,0.3,0.3,0.5
			c0.1,0.1,0.2,0.3,0.3,0.3c3.6,0.9,7.2,1.2,10.5-0.8c0.8-0.5,1.5-0.9,2.2-1.5c0.5-0.4,1.1-0.8,1.6-1.2
			C348.3,280.7,348.9,279.9,348.9,278.5z"/>
		<path class="st58" d="M328.7,269.8c-0.6-0.7-1.1-0.3-1.4,0.3c-1.1,2.5-1.4,5.1-1.1,7.8c0.1,0.5,0.7,0.9,1,1.4
			c0.2-0.3,0.4-0.6,0.6-0.8C327.3,275.5,327.2,272.6,328.7,269.8z"/>
		<path class="st58" d="M332.7,283.5c-2.3-1-3.8-2.9-4.9-5.1c-0.2,0.3-0.4,0.6-0.6,0.8c0.3,0.6,0.7,1.2,1,1.7c0.5,0.8,1,1.5,1.7,2.1
			c0.7,0.6,1.5,1,2.5,1.1C332.5,284,332.6,283.8,332.7,283.5z"/>
	</g>
</g>
</svg>
