<?xml version="1.0" encoding="utf-8"?>
<!-- Generator: Adobe Illustrator 27.7.0, SVG Export Plug-In . SVG Version: 6.00 Build 0)  -->
<svg version="1.1" id="Layer_1" xmlns="http://www.w3.org/2000/svg" xmlns:xlink="http://www.w3.org/1999/xlink" x="0px" y="0px"
	 viewBox="0 0 500 500" style="enable-background:new 0 0 500 500;" xml:space="preserve">
<style type="text/css">
	.st0{fill:#FDFDFF;stroke:#009AEF;stroke-miterlimit:10;}
	.st1{fill:#FC6A70;}
	.st2{fill:#F5858C;}
	.st3{fill:#787779;}
	.st4{fill:#E6E6E6;}
	.st5{fill:#414042;}
	.st6{fill:url(#SVGID_1_);}
	.st7{fill:#09C269;}
	.st8{fill:#292C31;}
	.st9{fill:#2A2D32;}
	.st10{fill:#0AC269;}
	.st11{fill:#214FFA;}
	.st12{fill:#204FFB;}
	.st13{fill:#2044FF;}
	.st14{fill:#1D40FF;}
	.st15{fill:#1F44FF;}
	.st16{fill:#1F3AFF;}
	.st17{fill:#213BFF;}
	.st18{fill:#213EFF;}
	.st19{fill:#2048FF;}
	.st20{fill:#325AF2;}
	.st21{fill:#486AF0;}
	.st22{fill:#1C44DC;}
	.st23{fill:#1637BA;}
	.st24{fill:#183BC4;}
	.st25{fill:#1A3DCB;}
	.st26{fill:#1633AF;}
	.st27{fill:#132FA3;}
	.st28{fill:#1E47E3;}
	.st29{fill:#204BFD;}
	.st30{fill:#2041FF;}
	.st31{fill:#1F4AEB;}
	.st32{fill:#5875E6;}
	.st33{fill:#1B40D2;}
	.st34{fill:#4F5F9D;}
	.st35{fill:#FCB834;}
	.st36{fill:#7855FF;}
	.st37{fill:#A591F9;}
	.st38{fill:#E8DBFA;}
	.st39{fill:#678EEB;}
	.st40{fill:#356AE5;}
	.st41{fill:#1856ED;}
	.st42{fill:#FF9E1A;}
	.st43{fill:#0A2565;}
	.st44{fill:#103BA3;}
	.st45{fill:#061438;}
	.st46{fill:#0B286E;}
	.st47{fill:#FE9E1A;}
	.st48{fill:#BC9519;}
	.st49{fill:#FFFFFF;}
	.st50{fill:#CEEBFC;}
	.st51{fill:#06AEEF;}
	.st52{fill:#57BFF2;}
	.st53{fill:#0191FF;}
	.st54{fill:#54AADC;}
	.st55{fill:#76BF45;}
	.st56{fill:#A9D282;}
	.st57{fill:none;}
	.st58{fill:#106094;}
	.st59{fill:#684D46;}
	.st60{fill:#F4DCB9;}
	.st61{fill:#132130;}
	.st62{fill:#E9BE8D;}
	.st63{fill:#46B7E2;}
	.st64{fill:#0888BE;}
	.st65{fill:#FEFEFD;}
	.st66{fill:#F4DBB9;}
	.st67{fill:#997156;}
	.st68{fill:#E8BD8D;}
	.st69{fill:#F8F8F9;}
	.st70{fill:#FBCE4F;}
	.st71{fill:#EAC091;}
	.st72{fill:#FBFAFA;}
	.st73{fill:#EBEAE9;}
	.st74{fill:#694E46;}
	.st75{fill:#9E7558;}
	.st76{fill:#9E7659;}
	.st77{fill:#152433;}
	.st78{fill:#FF3C78;}
	.st79{fill:#777BB4;}
</style>
<path class="st0" d="M474.5,83.1c0-18.9-7.1-34.5-22.2-46.2c-7.4-5.8-15.9-9.3-25.2-10.7c-0.9-0.1-1.7-0.5-2.6-0.7
	c-116.3,0-232.6,0-348.9,0c-2.7,0.6-5.5,1.1-8.1,1.8C50.1,32,37.7,42.7,30.3,59.1c-2.3,5.1-3.9,10.5-4.4,16.1c0,0.3-0.2,0.5-0.4,0.8
	c0,0.6,0,1.2,0,1.9c0,114.8,0,229.6,0,344.3c0,0.6,0,1.2,0,1.9c0.4,1.8,0.7,3.5,1.1,5.3c4.3,19.4,15.5,33,33.6,41.1
	c4.7,2.1,9.6,3.3,14.7,3.9c0.1,0,0.3,0.2,0.4,0.3c116.4,0,232.9,0,349.3,0c2.6-0.6,5.2-1,7.8-1.8c17.9-4.9,30.6-15.9,37.8-33
	c2.6-6.1,4.1-12.6,4.1-19.4c0.1-12.3,0.2-24.7,0.2-37C474.5,283.3,474.5,183.2,474.5,83.1z"/>
<g>
	<g>
		<path class="st59" d="M326.2,73.5c3,0.8,5.9,1.6,8.9,2.3c2.8,1.7,5.7,3.5,8.5,5.2c0.2,0.2,0.4,0.3,0.6,0.5
			c2.1,2.9,4.3,5.9,6.4,8.8c0.6,1.8,1.2,3.5,1.8,5.3c0.3,1.2,0.6,2.4,0.9,3.5c0,3,0.1,5.9,0.1,8.9c-0.2,2.9-0.4,5.9-0.6,8.8
			c-1.7,5.9-3.4,11.8-5.2,17.8c-1.7,3.5-3.3,7-5,10.6c-0.1,0.2-0.2,0.3-0.3,0.5c0,0.1-0.1,0.3-0.1,0.4c-0.2,0.3-0.3,0.6-0.5,0.9
			c-0.6,1-1.2,2.1-1.8,3.1c-0.1,0.1-0.2,0.3-0.4,0.4c-0.2,0.3-0.3,0.6-0.5,0.9c-0.6,1-1.1,2-1.7,2.9c-2.8,4-2.8,4,0.8,7.3
			c1.8,2.7,3.5,5.3,5.3,8c0.2,0.3,0.3,0.6,0.5,0.9c1,1.5,1.9,3.1,3.1,4.4c2.4,2.8,5.3,5.1,6.6,8.8c0.5,1.4,1.2,2.8,1.8,4.1
			c0.2,0.6,0.4,1.1,0.5,1.7c0.7,2.4,1.3,4.8,1.9,7.2c0.4,2.9,0.8,5.9,1.2,8.8c0.3,3,0.6,5.9,0.9,8.9c0.4,4.7,0.8,9.4,1.3,14.1
			c0.1,0.5,0.4,1.3,0.8,1.5c1.9,0.9,3.8,1.7,5.7,2.6c0.7,0.3,1.4,0.6,2.1,0.9c3,1.6,6,3.2,8.9,4.9c1.4,0.9,2.7,1.7,4.1,2.6
			c1.6,1.2,3.2,2.4,4.7,3.6c2.5,3.6,6.7,4.6,10.3,6.5c5.2,2.7,9.8,11.1,8.1,17.4c0,0.7-0.1,1.5-0.1,2.2c-0.1,0.1-0.1,0.3-0.2,0.4
			c-0.1,0.3-0.2,0.6-0.2,0.9c-0.9,1.5-1.7,3-2.6,4.4c-0.9,1-1.9,2-2.8,2.9c1,2.1,2,4.1,2.9,6c0.1,0.4,0.1,0.9,0.2,1.3
			c0.9,2.3,1.8,4.7,2.6,7c0.8,0.2,1.6,0.5,2.3,0.7c2.2,1.5,4.4,3,6.5,4.5c1.1,1.4,2.1,2.7,3.2,4.1c0.4,3,0.9,5.9,1.3,8.9
			c-0.8,2.8-1.5,5.6-2.3,8.4c-2.5,6.1-4.9,12.1-7.4,18.2c-1.1,2.8-2.2,5.6-3.3,8.4c-0.1,0.3-0.3,0.6-0.4,0.9
			c-1.4,2.6-2.7,5.2-4.1,7.9c-3.8,6.1-7.7,12.2-11.5,18.3c-0.6,0.7-1.2,1.5-1.7,2.2c-0.1,0.1-0.3,0.3-0.4,0.4
			c-0.1,0.1-0.1,0.2-0.1,0.3c-1.6,2-3.2,3.9-4.8,5.9c-1.3,1.5-2.7,3-4,4.5c-1.4,1.4-2.8,2.9-4.2,4.3c-1.6,1.5-3.1,3-4.7,4.5
			c-1.8,1.5-3.6,3-5.4,4.5c-1.2,0.9-2.3,1.8-3.5,2.7c-3.1,2.1-6.2,4.1-9.3,6.2c-2.8,1.6-5.6,3.2-8.4,4.8c-2.7,1.2-5.3,2.4-8,3.6
			c-0.3,0.1-0.6,0.3-0.9,0.4c-2.9,1.1-5.9,2.2-8.8,3.3c-3,0.8-5.9,1.5-8.9,2.3c-2.9,0.6-5.9,1.1-8.8,1.7c-2.7,0.4-5.3,0.8-8,1.2
			c-0.3,0-0.6,0.1-0.9,0.1c-3,0.2-5.9,0.3-8.9,0.5c-2.9,0-5.9,0-8.8,0c-3-0.2-5.9-0.3-8.9-0.5c-1.3-0.1-2.6-0.1-4-0.2
			c-1.6-0.3-3.3-0.5-4.9-0.8c-3-0.5-5.9-0.9-8.9-1.4c-3-0.9-5.9-1.7-8.9-2.6c-2.6-0.8-5.3-1.6-7.9-2.4c-6.2-2.7-12.4-5.3-18.7-8
			c-1.8-0.9-3.5-1.8-5.3-2.6c-1.2-0.8-2.3-1.5-3.5-2.3c-2.8-1.8-5.5-3.6-8.3-5.4c-0.6-0.4-1.3-0.9-1.9-1.3c-2.3-1.8-4.7-3.5-7-5.3
			c-1.5-1.2-3-2.3-4.5-3.5c-1.4-1.3-2.7-2.6-4.1-3.9c-1.7-1.6-3.5-3.3-5.2-4.9c-1.3-1.4-2.6-2.7-3.9-4.1c-1.5-1.6-3-3.3-4.5-4.9
			c-1.6-1.9-3.3-3.8-4.9-5.7c-0.6-0.9-1.3-1.7-1.9-2.6c-2.6-3.8-5.6-7.4-7.8-11.5c-1.6-2.8-3.5-3.6-6.5-3.2c-0.5,0.1-1,0-1.5-0.1
			c-3-0.6-5.9-1.1-8.9-1.7c-1.9-0.6-3.8-1.2-5.8-1.8c-1-0.6-2.1-1.1-3.1-1.7c-2.6-1.7-5.3-3.3-7.9-5c-0.9-0.8-1.8-1.5-2.7-2.3
			c-2.2-2.4-4.4-4.7-6.6-7.1c-0.4-0.6-0.9-1.3-1.3-1.9c-1.5-2.7-3.1-5.5-4.6-8.2c-2.6-5.6-3.6-11.7-4.5-17.7
			c0.1-2.9,0.3-5.9,0.4-8.8c0.7-3.2,1.1-6.4,2-9.5c0.5-1.7,0-2.5-1.4-3c-0.7-0.6-1.4-1.1-2.2-1.7c-0.2-0.1-0.4-0.2-0.5-0.3
			c-1.8-1.2-3.5-2.5-5.3-3.7c-0.9-0.8-1.8-1.7-2.6-2.5c-2.4-2.3-5-4.4-7-7c-1.8-2.3-3-5.1-4.5-7.7c-0.6-2.9-1.2-5.9-1.9-8.8
			c0-3,0-5.9,0-8.9c0.3-2.9,0.7-5.9,1-8.8c0.7-2.8,1.4-5.6,2.2-8.4c1-3.1,2.1-6.2,3.1-9.3c0.1-0.6,0.3-1.2,0.4-1.8
			c1-2.4,2.1-4.7,3.1-7.1c1.3-3,2.6-5.9,3.9-8.9c0.6-1,1.2-2.1,1.8-3.1c1-1.9,2-3.9,3.1-5.8c0.4-0.6,0.8-1.2,1.1-1.8
			c1.3-2.3,2.5-4.7,3.8-7.1c0.3-0.3,0.5-0.6,0.8-0.9c1.7-2.6,3.3-5.3,5-7.9c1.2-1.7,2.3-3.4,3.5-5.2c0.9-1.2,1.7-2.5,2.6-3.7
			c1.9-2.8,3.9-5.6,5.8-8.3c0.5-0.5,1-0.9,1.4-1.4c2.1-2.7,4.3-5.4,6.4-8.1c0.6-0.9,1.3-1.7,1.9-2.6c1.6-1.9,3.2-3.8,4.8-5.7
			c1.2-1.2,2.3-2.4,3.5-3.6c1.8-1.9,3.5-3.9,5.3-5.8c1.2-1.2,2.4-2.4,3.5-3.6c1.8-1.8,3.5-3.5,5.3-5.3c1.4-1.3,2.8-2.6,4.2-3.9
			c1.6-1.5,3.2-2.9,4.8-4.4c1.2-1.1,2.4-2.2,3.6-3.3c2.3-1.9,4.7-3.7,7-5.6c0.8-0.6,1.5-1.2,2.3-1.8c1.2-0.9,2.3-1.7,3.5-2.6
			c0.5-0.3,0.9-0.7,1.4-1c1.7-1.2,3.3-2.5,5-3.6c2.4-1.6,4.9-3,7.3-4.5c2.7-1.4,5.3-2.8,8-4.3c0.3-0.1,0.6-0.3,0.9-0.4
			c3-1.2,5.9-2.5,8.9-3.7c3-0.9,5.9-1.7,8.9-2.6c3-0.3,5.9-0.6,8.9-1c3,0.2,5.9,0.5,8.9,0.7c2.9,1.2,5.9,2.3,8.8,3.5
			c1.4,1,2.7,2,4.1,2.9c1.6,1.3,3.2,2.7,4.8,4c1.7,1.4,3.4,2.8,5,4.3c1.5,1.3,2.9,1.7,4.4,0.1c3-1.6,6-3.2,9-4.8
			c2.5-1.2,5-2.4,7.5-3.6c0.4-0.2,0.8-0.3,1.2-0.5c2.8-1.1,5.6-2.1,8.4-3.2c3.1-1,6.2-2,9.4-3c3.1-0.5,6.1-1,9.2-1.4
			c5.3-0.8,10.5-1.6,15.8,0C325.5,73.6,325.9,73.5,326.2,73.5z M262.9,101.1c-0.9-0.8-1.7-1.5-2.6-2.3c-5.2-4.4-10.4-8.8-15.6-13.1
			c-0.5-0.4-1.4-0.6-2-0.4c-2.2,0.7-4.3,1.7-6.4,2.6c-4.5,0.1-9.1-0.4-13.5,0.3c-8.5,1.5-16.1,5.5-23.5,9.9
			c-14.2,8.4-27.1,18.6-38.7,30.3c-7.1,7-14,14.3-20.4,21.9c-5.9,6.9-11.1,14.5-16.5,21.8c-1.8,2.4-3.2,5-4.7,7.6
			c-6.8,10.2-12.4,21.1-17.3,32.4c-2.2,5-3.6,10.4-5.4,15.5c-2.4,6.8-3.3,13.8-2.9,20.9c0.2,4.3,1,8.8,4,11.9
			c4.4,4.5,9.5,8.4,14,12.2c4.1-4.1,7.7-7.8,11.5-11.4c1.8-1.7,4-3,6-4.5c0.8-0.2,1.6-0.4,2.3-0.8c5.6-2.5,11.4-3.9,17.5-4.1
			c6.9-0.3,13.5,0.8,19.9,3.6c0.3-0.5,0.6-0.8,0.8-1.2c1.8-4.3,3.7-8.5,5.5-12.8c5.9-13.9,14.1-26.4,22.7-38.8
			c0.3-0.3,0.6-0.6,0.9-0.9l0,0c1.4-1.3,2.9-2.4,4-3.9c6.1-7.9,13.8-14.2,21.6-20.4c10.3-8.1,21.4-15.1,33.5-20.3
			c6.4-2.8,13-5.2,19.6-7.2c7.2-2.2,14.6-4,22.3-4c5.2,0,10.5-0.2,15.6,0.6c3.9,0.6,7.6,2.5,11.4,3.8c0.4-0.3,1-0.6,1.3-1.1
			c1.8-3,3.7-6,5.3-9.2c6.1-12.4,11.3-25,9.1-39.3c-0.7-4.7-2.9-8.5-6.3-11.5c-3.4-3-7.4-4.4-12-5.1c-7.2-1-14.3-1.4-21.2,1.5
			c-0.4,0.2-0.9,0-1.3,0c-1.9,0.3-3.9,0.4-5.8,1c-8.4,2.6-16.4,6.1-24.1,10.4C268.4,98.4,265.6,99.7,262.9,101.1z M285.5,329.3
			c0.1,2.2-0.7,4.5,1,6.4c0.9,3.4,3,6,5.9,7.7c4.7,2.7,10,4,15.4,4.1c4.5,0.1,9,0.1,13.4-0.5c6.2-0.8,12.5-1.9,18.5-3.6
			c6.1-1.7,12.1-3.9,17.9-6.4c9.2-4,17.9-9,26.1-14.8c3.9-2.8,7.5-5.9,11.2-8.8c1-0.7,1.9-1.4,2.9-2.1c0.1,0.1,0.2,0.3,0.3,0.4
			c-0.9,1.5-1.5,3.2-2.6,4.5c-7.9,9.8-18.1,16.9-28.9,22.9c-9.7,5.4-19.9,9.6-30.6,12.1c-5.1,1.2-10.2,2.3-15.4,2.8
			c-5.3,0.5-10.6,0.3-15.9,0c-5.4-0.3-10.6-1.6-15.3-4.5c-8.9-5.4-12.7-15.1-10.1-25.1c1.2-2,2.2-4.2,3.6-6c2.1-2.8,5-4.7,8.5-5
			c5.1-0.5,10.3-0.4,15.4-1c7.1-0.8,14.2-1.8,21.3-3.3c11.7-2.4,22.6-6.8,33-12.6c12.4-7,23.2-15.9,32.3-26.9c0.7-0.8,1.1-1.9,1.2-3
			c0.3-3.8-2.4-6.6-6.5-6.9c-0.8-0.1-1.6-0.3-2.3-0.4c-5.2-5.8-11.5-10-18.4-13.5c-4.4-2.2-8.9-4.4-13.4-6.5c-1.2-2-3.1-3.8-3.5-5.9
			c-1.2-7.2-2.1-14.5-2.7-21.7c-0.5-6.6-0.8-13.2-3.3-19.3c-1.1-2.8-3.1-5.2-4.7-7.8c-2.1-1.3-4.1-3.4-6.4-3.9
			c-4.8-0.9-9.7-0.3-13.7,3.2c-2.5,2.1-4.8,4.3-7.4,6.3c-6.8,5.3-14.6,7.6-23.2,7.5c-6.9-0.1-13.8-0.4-20.7-0.2
			c-3.3,0.1-6.7,0.8-9.8,1.9c-13.4,4.7-23.4,18.8-22.5,34.8c0.2,4.8,0.3,9.7,0.5,14.8c-1.9-1.5-3.7-2.8-5.8-4.5
			c2.6,11.2,8.8,19.5,17.4,26.7c-1.8,0.3-3.3,0.6-4.8,0.9c4.8,3.6,9.6,6.7,15.2,8.7c-1.8,1.9-3.7,3.8-5.5,5.8
			c-5.9,7-10.5,14.8-12.7,23.8c-0.7,3-0.8,6.2-1.3,9.3c-0.6,3.8-0.5,7.6,0.3,11.9c1.3-1.5,2.2-2.7,3.5-4.2c-1,8.9,0.7,21.9,3.2,24.9
			c1.5-3,3-6,4.5-9c1,8.7,2.4,17.1,7,24.8c0.4-2.9,0.8-5.4,1.3-8.4c0.6,0.7,0.8,0.9,0.9,1.1c2.1,3.9,3.9,7.9,6.3,11.6
			c4.7,7.4,11.4,12.3,19.6,15.2c7.2,2.6,14.7,3.7,22.3,3.9c4.6,0.1,9.2,0.2,13.7-0.4c5.5-0.7,11-1.8,16.2-3.5c6-1.9,11.6-4.7,17.4-7
			c1.2-0.5,2.5-1,3.6-1.6c12.5-7.1,23.1-16.5,31.5-28.2c6-8.3,11-17.2,13.1-27.4c0.4-0.8,0.8-1.6,1.2-2.4c1-2,2.5-3.9,3-6
			c1.1-5.1,0.1-9-6.1-9.2c-2.1-0.1-4.3,0-6.4,0c-0.7-7.3-1.6-14.5-5.7-21.1c-8,8.5-17.5,14.4-27.4,19.6c-12,6.3-24.8,10.8-38.2,13.1
			c-6.7,1.2-13.6,1.8-20.4,2.5c-3,0.3-6,0.2-9,0.5c-1.5,0.2-3.2,0.5-4.5,1.3C286.9,323.1,285.9,326.1,285.5,329.3z M182.9,301.1
			c-0.2-0.1-0.5-0.2-0.7-0.3c0.3-7.5-1.1-14.8-3.5-22.5c-1.1,3.4-1.9,6.1-2.9,9.3c-1.4-4.8-2.4-9.1-3.9-13.2c-1.2-3.3-3-6.5-6.3-7.9
			c-2.6-1.2-5.5-1.9-8.3-2.4c-5.8-0.9-11.6-1.1-17.2,1c-17.9,6.6-27.6,24.8-24.2,42.9c2.4,12.8,9.7,22.5,21.9,28
			c9.2,4.2,18.4,3.8,27.5-0.3c11.2-5,18-13.9,20.8-25.8c1.1-4.7,1.8-9.6,0.4-14.7C185.1,297.3,184,299.2,182.9,301.1z"/>
		<path class="st60" d="M355.1,380.2c-5.8,2.4-11.5,5.1-17.4,7c-5.3,1.7-10.8,2.8-16.2,3.5c-4.5,0.6-9.1,0.5-13.7,0.4
			c-7.6-0.2-15.1-1.3-22.3-3.9c-8.2-2.9-14.9-7.8-19.6-15.2c-2.3-3.7-4.2-7.7-6.3-11.6c-0.1-0.2-0.3-0.4-0.9-1.1
			c-0.5,3-0.8,5.5-1.3,8.4c-4.6-7.8-6-16.1-7-24.8c-1.5,3-3,5.9-4.5,9c-2.5-2.9-4.1-16-3.2-24.9c-1.3,1.5-2.2,2.7-3.5,4.2
			c-0.8-4.3-0.9-8.1-0.3-11.9c0.5-3.1,0.5-6.3,1.3-9.3c2.2-9,6.8-16.8,12.7-23.8c1.7-2,3.6-3.9,5.5-5.8c0.6-0.3,1.2-0.6,1.7-1
			c5.7-4.8,12.4-7.8,19.6-9.7c3.2-0.8,6.7-0.8,9.6-2.2c5.7-2.7,11.1-6.1,16.5-9.2c0.4-0.2,0.9-0.9,0.8-1.3c-0.6-4,0.4-7.6,2.2-11
			c4.3-7.9,11.1-12.3,20-13.6c3.8,0.5,7.8,0.1,11.2,2.3c2.2,1.7,4.4,3.5,6.6,5.2c0.7,0.5,1.6,1.1,2.3,0.9c1.7-0.3,3.3-1.1,4.9-1.7
			c4.5,2.2,9,4.3,13.4,6.5c6.9,3.5,13.2,7.7,18.4,13.5c-0.4,0.9-0.8,1.7-1.1,2.6c-1.7,4.9-4.6,9-8,12.8
			c-7.2,8.2-16.7,13.1-26.4,17.6c-6.2,2.9-12.7,5.4-19.2,7.7c-4.5,1.6-9.1,2.9-13.8,3.9c-8.9,1.8-17.9,3.2-26.8,5
			c-3.9,0.7-7.3,2.6-9.5,5.9c-1.9,2.8-3.8,5.9-1.7,9.6c-2.6,10.1,1.2,19.7,10.1,25.1c4.7,2.9,9.9,4.2,15.3,4.5
			c5.3,0.3,10.6,0.5,15.9,0c5.2-0.5,10.3-1.6,15.4-2.8c10.8-2.6,21-6.7,30.6-12.1c10.9-6.1,21-13.1,28.9-22.9c1.1-1.3,1.8-3,2.6-4.5
			c0.2-0.1,0.3-0.3,0.5-0.4c0.1-0.2,0.2-0.5,0.2-0.7c-0.2,0.1-0.4,0.2-0.6,0.4c-0.1,0.1-0.3,0.2-0.4,0.4c-1,0.7-1.9,1.4-2.9,2.1
			c0-2.6,0-5.3,0-7.9c2.1,0,4.3-0.1,6.4,0c6.2,0.2,7.2,4.2,6.1,9.2c-0.5,2.1-2,4-3,6c-0.4,0.8-0.8,1.6-1.2,2.4
			c-2.1,2-4.1,4.1-6.2,6.1c-4.6,4.4-8.9,9-13.9,12.9c-5.7,4.5-11.8,8.5-18.1,12.1c-5.7,3.3-11.9,5.7-18,8.3
			c-3.1,1.4-6.4,2.3-9.8,3.5c3.3,4.5,7.6,7.5,12,10.4C351.2,377.8,353.1,379,355.1,380.2z M338.7,243.6c-0.1-0.2-0.2-0.4-0.3-0.5
			c-5.8-3.7-15.5,0.4-16.5,6.6c-3.6,0.8-5.2,2.9-3.7,5.2c1,1.5,2.6,2.9,4.2,3.6c3.7,1.6,6,0.1,6.4-4c2.6-0.9,5.2-1.8,7.7-2.8
			c0.8,0.6,1.8,1.9,2.3,1.7c1.4-0.4,3.1-1.2,3.9-2.3c1.3-2,1.2-4.4-0.2-6.4C341.6,243.2,340.2,243.1,338.7,243.6z"/>
		<path class="st61" d="M197.2,202.5c-8.6,12.3-16.8,24.9-22.7,38.8c-1.8,4.3-3.6,8.5-5.5,12.8c-0.2,0.4-0.5,0.7-0.8,1.2
			c-6.4-2.8-13-3.8-19.9-3.6c-6.1,0.2-11.9,1.6-17.5,4.1c-0.7,0.3-1.5,0.5-2.3,0.8c1.3-3.9,2.3-8,4-11.8c3.3-7.8,6.7-15.7,10.5-23.2
			c3.4-6.7,7.3-13.3,11.5-19.6c5.6-8.2,11.3-16.4,17.6-24.1c6.9-8.4,14.2-16.4,21.9-24.1c8.4-8.5,17.7-16,27.6-22.8
			c1.4-0.9,2.8-1.8,4.3-2.7c-1.1,1.2-2.2,2.5-3.4,3.7c-7.5,8.1-15.1,16.1-22.4,24.3c-4.7,5.2-9.2,10.6-13.4,16.2
			c-5.1,6.7-9.8,13.7-14.6,20.7c-1.7,2.4-2.9,5.2-4.4,7.8c0.2,0.1,0.4,0.3,0.6,0.4c0.9-0.9,1.9-1.8,2.8-2.8
			c5.3-6.3,10.5-12.6,15.8-18.8c4.8-5.7,9.8-11.3,14.6-16.9c4.9-5.6,9.6-11.4,14.8-16.9c7.3-7.8,15.2-15.1,23.7-21.6
			c9.2-7,18.2-14,27.5-20.8c9.7-7.1,20.3-12.9,31.7-16.9c0.6-0.2,1.1-0.8,1.6-1.3c0.5,0,1,0.1,1.3,0c6.9-2.9,14-2.5,21.2-1.5
			c4.5,0.6,8.6,2,12,5.1c3.4,3.1,5.6,6.8,6.3,11.5c2.1,14.3-3,27-9.1,39.3c-1.6,3.2-3.5,6.2-5.3,9.2c-0.3,0.4-0.8,0.7-1.3,1.1
			c-3.7-7.2-9.7-11.5-17.8-14c1,1.4,1.7,2.4,2.4,3.4c-5.9-2.6-11.5-5.7-17.8-6.6c1.3,1.7,2.6,3.4,3.9,5c-0.2,0.1-0.3,0.3-0.5,0.4
			c-7.2-3-14.7-3.3-22.6-2.7c2.8,1.5,5.2,2.7,7.6,4c-0.1,0.2-0.2,0.4-0.2,0.7c-10.9-1.1-21.7-0.7-31.8,4.5c3.5,0.5,7,1,10.6,1.5
			c0,0.2,0,0.4,0,0.6c-8.4,2-16.8,4.4-23.9,10c2.5,0,5.1,0,7.6,0c-0.4,0.7-0.8,1-1.2,1.2c-16.2,9.7-29.7,22.5-40.9,37.6
			c-1.3,1.8-2.3,3.9-3.4,5.8c0,0,0,0,0,0C197.8,201.9,197.5,202.2,197.2,202.5z"/>
		<path class="st62" d="M328.7,232.5c-8.9,1.3-15.7,5.7-20,13.6c-1.8,3.4-2.8,7.1-2.2,11c0.1,0.4-0.4,1.1-0.8,1.3
			c-5.5,3.2-10.8,6.5-16.5,9.2c-2.9,1.4-6.4,1.4-9.6,2.2c-7.2,1.9-13.8,4.9-19.6,9.7c-0.5,0.4-1.1,0.7-1.7,1
			c-5.5-2-10.4-5.1-15.2-8.7c1.6-0.3,3-0.5,4.8-0.9c-8.5-7.2-14.7-15.5-17.4-26.7c2.1,1.6,3.9,3,5.8,4.5c-0.2-5.2-0.3-10-0.5-14.8
			c0.3-0.3,0.7-0.6,0.7-0.9c1.6-8,5.7-14.2,12.5-18.9c7.3-5.1,15.6-5.3,23.9-4.8c4.7,0.3,9.4,1.2,14,1.1c6.4-0.2,12.7-1.1,18.8-3.3
			c9.1-3.3,16.6-8.6,22.2-16.6c2.7-3.8,6-7.3,11.6-6.1c1.6,2.6,3.6,5,4.7,7.8c2.4,6.2,2.7,12.8,3.3,19.3c0.6,7.3,1.5,14.6,2.7,21.7
			c0.4,2.1,2.3,4,3.5,5.9c-1.6,0.6-3.2,1.3-4.9,1.7c-0.7,0.1-1.7-0.4-2.3-0.9c-2.3-1.7-4.4-3.4-6.6-5.2c0.5-4.2-0.8-8.2-2.4-11.9
			c-1-2.2-2.4-4.4-4-6.2c-2.1-2.3-4.5-1.6-5.6,1.4c-0.4,1.3-0.9,2.7-0.7,4.1C327.5,225.6,328.1,229.1,328.7,232.5z M295.8,248.8
			c0.1-0.2,0.3-0.4,0.4-0.6c-0.3-0.8-0.4-1.7-0.9-2.3c-1.3-1.4-2.8-2.9-4.4-4c-5-3.8-10.9-4-16.7-3.3c-5.7,0.6-10.5,3.3-14.1,7.8
			c-0.5,0.6-0.6,1.5-0.9,2.3c0.8,0,1.7,0.3,2.5,0c2.3-0.7,4.6-1.5,6.9-2.4c7.6-2.8,15-2,22.3,1C292.5,247.9,294.2,248.3,295.8,248.8
			z M294.7,256.4c-0.9-2.9-5.5-4.7-10.7-4.2c-5.1,0.5-10.4,4.1-10.8,7.7c3.5-1,6.9-2.2,10.4-2.7
			C287.2,256.6,290.9,256.6,294.7,256.4z"/>
		<path class="st63" d="M118.8,179.5c1.6-2.5,3-5.2,4.7-7.6c5.4-7.3,10.6-14.9,16.5-21.8c6.4-7.6,13.4-14.8,20.4-21.9
			c11.7-11.7,24.5-21.9,38.7-30.3c7.4-4.3,15-8.4,23.5-9.9c4.4-0.8,9-0.3,13.5-0.3c0,0.2,0,0.5,0.1,0.7c-1.9,3.7-2.7,7.5-0.9,11.5
			c-3.8-1.2-7.6-2.4-11.3-3.8c-3.2-1.2-6.2-1.9-9.2,0.5c-0.7,0.6-1.8,0.7-2.6,1.2c-0.5,0.3-0.8,0.8-1.2,1.3c0.2,2.1,0.3,4.2,0.7,6.3
			c0.2,1.2,0.7,2.3,1.1,3.4c0,1.1,0,2.2,0.1,3.3c0.7,4.6,1.4,9.1,2.1,13.7c0.2,1.3-0.2,2.2-1.4,3.2c-7.5,6-15.2,11.8-22.4,18.3
			c-6.3,5.6-12,11.9-17.8,18.1c-8.2,8.8-15.5,18.2-22.3,28.2c-1.6,2.4-3.2,4.7-4.9,7.3C137,193.7,127.9,186.6,118.8,179.5z"/>
		<path class="st64" d="M118.8,179.5c9.1,7.1,18.2,14.2,27.5,21.4c1.7-2.5,3.3-4.9,4.9-7.3c6.7-10,14-19.4,22.3-28.2
			c5.8-6.2,11.5-12.4,17.8-18.1c7.1-6.4,14.8-12.3,22.4-18.3c1.2-0.9,1.6-1.8,1.4-3.2c-0.7-4.6-1.4-9.1-2.1-13.7
			c-0.2-1.1-0.1-2.2-0.1-3.3c0.5,0.4,1.1,0.7,1.6,1.1c5.5,4.9,11,9.7,16.5,14.6c-1.6,1.3-3.3,2.6-4.9,3.8c-1.4,0.9-2.9,1.7-4.3,2.7
			c-9.9,6.7-19.2,14.3-27.6,22.8c-7.6,7.7-15,15.7-21.9,24.1c-6.3,7.7-12.1,15.8-17.6,24.1c-4.2,6.3-8.1,12.8-11.5,19.6
			c-3.9,7.6-7.2,15.4-10.5,23.2c-1.6,3.8-2.7,7.9-4,11.8c-2,1.5-4.2,2.8-6,4.5c-3.8,3.5-7.4,7.3-11.5,11.4c-4.4-3.8-9.5-7.7-14-12.2
			c-3-3.1-3.8-7.6-4-11.9c-0.3-7.1,0.5-14.2,2.9-20.9c1.8-5.2,3.3-10.5,5.4-15.5C106.4,200.6,112,189.7,118.8,179.5z"/>
		<path class="st65" d="M394.9,305.4c0,2.6,0,5.3,0,7.9c-3.7,3-7.3,6.1-11.2,8.8c-8.2,5.9-16.9,10.9-26.1,14.8
			c-5.8,2.5-11.8,4.7-17.9,6.4c-6.1,1.7-12.3,2.7-18.5,3.6c-4.4,0.6-8.9,0.6-13.4,0.5c-5.4-0.2-10.7-1.4-15.4-4.1
			c-2.9-1.6-5-4.3-5.9-7.7c0.5-0.1,1-0.3,1.4-0.3c2.2,0.3,4.3,0.9,6.5,1c8.2,0.2,16.3,0,24.4-1.3c11.8-1.9,23.1-5.2,33.8-10.5
			c2.1-1,3.9-2.4,5.9-3.6c-0.1-0.2-0.2-0.4-0.3-0.5c-0.4,0.1-0.8,0.1-1.2,0.3c-5.4,1.7-10.8,3.4-16.3,5c-10.4,3-21.1,5-31.9,5.7
			c-7.9,0.5-15.8,0.3-23.4-2.1c0.4-3.2,1.4-6.2,4.2-7.9c1.3-0.8,3-1.1,4.5-1.3c3-0.3,6-0.2,9-0.5c6.8-0.7,13.6-1.3,20.4-2.5
			c13.4-2.3,26.2-6.8,38.2-13.1c9.9-5.2,19.4-11.2,27.4-19.6C393.3,290.9,394.2,298.1,394.9,305.4z"/>
		<path class="st66" d="M182.9,301.1c1.1-1.9,2.2-3.7,3.5-5.8c1.4,5.1,0.8,10-0.4,14.7c-2.8,11.8-9.6,20.7-20.8,25.8
			c-9,4.1-18.2,4.5-27.5,0.3c-12.2-5.5-19.5-15.2-21.9-28c-3.4-18.1,6.2-36.3,24.2-42.9c5.5-2,11.4-1.9,17.2-1
			c2.8,0.5,5.7,1.2,8.3,2.4c3.4,1.5,5.1,4.7,6.3,7.9c1.5,4.1,2.5,8.3,3.9,13.2c1-3.1,1.9-5.9,2.9-9.3c2.4,7.7,3.8,14.9,3.5,22.5
			C182.4,300.9,182.6,301,182.9,301.1z M163.6,317.4c-3,3.8-7.5,2.8-11.7,3.2c2.5,3.5,7.4,4.7,11.7,2.9c5-2.1,7.7-5.9,8.4-11.3
			c0.7-5.9-1.6-10.2-6.8-12.9c-1.4-0.7-2.9-1.5-4.2-2.4c-2.4-1.5-2.4-3.8-0.3-5.6c0.5-0.4,0.7-1,1.1-1.5c1.2,0.5,2.3,0.9,3.5,1.4
			c0.6,0.7,1.2,1.4,1.7,2.2c0.5-0.5,1.3-1,1.4-1.6c0.4-3,0.1-5.9-1.8-8.6c-4.5-6.1-13.5-9-21.7-6.7c-10.9,3-17.9,13-16.6,24.4
			c0.4,4,1.7,7.9,4.8,10.9c0.7,0.7,1.9,0.7,2.9,1.1c0-0.9,0.2-1.9-0.1-2.7c-2.8-7.9-2-15.3,3.4-21.9c-0.1,1.2-0.3,2.4-0.4,3.7
			c-0.3,4.4,0.5,8.6,2.9,12.4c4.7,7.4,11,12.3,20.1,12.8C162.4,316.9,163,317.2,163.6,317.4z"/>
		<path class="st66" d="M339.7,184.4c-5.5-1.2-8.8,2.3-11.6,6.1c-5.7,7.9-13.1,13.2-22.2,16.6c-6.1,2.2-12.4,3.1-18.8,3.3
			c-4.7,0.1-9.3-0.8-14-1.1c-8.4-0.5-16.6-0.3-23.9,4.8c-6.7,4.7-10.9,10.9-12.5,18.9c-0.1,0.3-0.5,0.6-0.7,0.9
			c-0.9-16,9.1-30.1,22.5-34.8c3.1-1.1,6.5-1.8,9.8-1.9c6.9-0.2,13.8,0.2,20.7,0.2c8.6,0.1,16.4-2.2,23.2-7.5c2.6-2,4.9-4.2,7.4-6.3
			c4-3.5,8.9-4,13.7-3.2C335.5,181,337.5,183.1,339.7,184.4z"/>
		<path class="st67" d="M198.1,201.6c1.1-1.9,2.1-4,3.4-5.8c11.2-15.1,24.7-27.9,40.9-37.6c0.4-0.3,0.8-0.5,1.2-1.2
			c-2.5,0-5.1,0-7.6,0c7.1-5.6,15.4-8,23.9-10c0-0.2,0-0.4,0-0.6c-3.5-0.5-7-1-10.6-1.5c10.2-5.2,20.9-5.5,31.8-4.5
			c0.1-0.2,0.2-0.4,0.2-0.7c-2.4-1.3-4.8-2.5-7.6-4c8-0.6,15.4-0.4,22.6,2.7c0.2-0.1,0.3-0.3,0.5-0.4c-1.3-1.7-2.6-3.3-3.9-5
			c6.3,0.9,11.8,4,17.8,6.6c-0.7-1-1.4-2-2.4-3.4c8.1,2.5,14.1,6.8,17.8,14c-3.8-1.3-7.5-3.3-11.4-3.8c-5.1-0.8-10.4-0.6-15.6-0.6
			c-7.6,0-15,1.8-22.3,4c-6.7,2.1-13.2,4.5-19.6,7.2c-12.1,5.2-23.2,12.1-33.5,20.3c-7.8,6.2-15.5,12.4-21.6,20.4
			C201,199.2,199.5,200.3,198.1,201.6z"/>
		<path class="st68" d="M279.2,324.4c-2.1-3.7-0.2-6.8,1.7-9.6c2.2-3.3,5.6-5.2,9.5-5.9c8.9-1.7,17.9-3.1,26.8-5
			c4.7-1,9.3-2.3,13.8-3.9c6.5-2.3,13-4.7,19.2-7.7c9.6-4.5,19.2-9.5,26.4-17.6c3.4-3.8,6.3-8,8-12.8c0.3-0.9,0.7-1.7,1.1-2.6
			c0.8,0.1,1.6,0.4,2.3,0.4c4,0.4,6.7,3.2,6.5,6.9c-0.1,1-0.5,2.2-1.2,3c-9.1,11-19.9,19.9-32.3,26.9c-10.4,5.8-21.4,10.2-33,12.6
			c-7,1.5-14.1,2.4-21.3,3.3c-5.1,0.6-10.3,0.5-15.4,1c-3.5,0.3-6.4,2.2-8.5,5C281.4,320.3,280.3,322.4,279.2,324.4z"/>
		<path class="st62" d="M355.1,380.2c-1.9-1.2-3.8-2.5-5.8-3.7c-4.4-2.9-8.7-5.9-12-10.4c3.4-1.2,6.7-2.2,9.8-3.5
			c6.1-2.6,12.3-5.1,18-8.3c6.3-3.6,12.4-7.7,18.1-12.1c5-3.9,9.3-8.6,13.9-12.9c2.1-2,4.1-4.1,6.2-6.1
			c-2.2,10.2-7.1,19.1-13.1,27.4c-8.4,11.7-19,21.1-31.5,28.2C357.5,379.3,356.3,379.7,355.1,380.2z"/>
		<path class="st69" d="M226,128.4c1.6-1.3,3.3-2.6,4.9-3.8c1.9-1.6,3.8-3.3,5.7-4.9c2.1-1.8,4.2-3.5,6.3-5.3
			c1.6-1.2,3.3-2.4,4.9-3.6c1.3-0.9,2.5-1.7,3.8-2.6c1.7-1.1,3.3-2.1,5-3.2c2.1-1.3,4.2-2.7,6.2-4c2.8-1.4,5.6-2.7,8.3-4.2
			c7.7-4.3,15.7-7.7,24.1-10.4c1.8-0.6,3.8-0.7,5.8-1c-0.5,0.4-1,1-1.6,1.3c-11.4,4-22,9.8-31.7,16.9c-9.3,6.8-18.4,13.8-27.5,20.8
			c-8.5,6.5-16.4,13.8-23.7,21.6c-5.1,5.4-9.9,11.2-14.8,16.9c-4.9,5.6-9.8,11.2-14.6,16.9c-5.3,6.2-10.5,12.6-15.8,18.8
			c-0.8,1-1.8,1.9-2.8,2.8c-0.2-0.1-0.4-0.3-0.6-0.4c1.5-2.6,2.7-5.3,4.4-7.8c4.8-7,9.5-13.9,14.6-20.7c4.2-5.6,8.7-11,13.4-16.2
			c7.4-8.2,14.9-16.2,22.4-24.3C223.8,130.9,224.9,129.7,226,128.4z"/>
		<path class="st70" d="M243,114.5c-2.1,1.8-4.2,3.5-6.3,5.3c-5.6-4.6-11.3-9.2-16.9-13.7c-2.9-2.3-5.8-4.5-8.7-6.8
			c0.4-0.4,0.7-1,1.2-1.3c0.8-0.5,1.9-0.6,2.6-1.2c3-2.4,6-1.7,9.2-0.5c3.7,1.4,7.5,2.5,11.3,3.8c1.4,0.5,2.8,1,5,1.7
			c-1.5-4.8-2.8-9-4.1-13.3c0-0.2,0-0.5-0.1-0.7c2.1-0.9,4.2-1.8,6.4-2.6c0.6-0.2,1.5,0,2,0.4c5.2,4.3,10.4,8.7,15.6,13.1
			c0.9,0.7,1.8,1.5,2.6,2.3c-2.1,1.3-4.2,2.7-6.2,4c-2.3-1.9-4.6-3.9-6.9-5.8c-0.2,0.1-0.3,0.2-0.5,0.3c0.8,2.9,1.6,5.8,2.4,8.7
			c-1.3,0.9-2.5,1.7-3.8,2.6c-4.5-1.4-9-2.9-13.5-4.3c-0.1,0.2-0.2,0.5-0.3,0.7C237,109.6,240,112,243,114.5z"/>
		<path class="st71" d="M285.5,329.3c7.6,2.5,15.5,2.7,23.4,2.1c10.8-0.7,21.4-2.7,31.9-5.7c5.4-1.6,10.8-3.3,16.3-5
			c0.4-0.1,0.8-0.2,1.2-0.3c0.1,0.2,0.2,0.4,0.3,0.5c-2,1.2-3.8,2.6-5.9,3.6c-10.7,5.2-22,8.6-33.8,10.5c-8.1,1.3-16.3,1.4-24.4,1.3
			c-2.2,0-4.3-0.7-6.5-1c-0.5-0.1-0.9,0.2-1.4,0.3C284.8,333.7,285.6,331.4,285.5,329.3z"/>
		<path class="st67" d="M197.2,202.5c0.3-0.3,0.6-0.6,0.9-0.9C197.8,201.9,197.5,202.2,197.2,202.5z"/>
		<path class="st72" d="M342.2,146.2c-0.2,0.3-0.3,0.6-0.5,0.9C341.9,146.8,342,146.5,342.2,146.2z"/>
		<path class="st72" d="M342.6,145.3c-0.1,0.2-0.2,0.3-0.3,0.5C342.4,145.6,342.5,145.5,342.6,145.3z"/>
		<path class="st72" d="M340,150.2c-0.1,0.1-0.2,0.3-0.4,0.4C339.7,150.5,339.9,150.4,340,150.2z"/>
		<path class="st73" d="M388.7,376.3c-0.1,0.1-0.3,0.3-0.4,0.4C388.5,376.6,388.6,376.4,388.7,376.3z"/>
		<path class="st73" d="M406,270.8c-0.1,0.1-0.1,0.3-0.2,0.4C405.9,271.1,406,270.9,406,270.8z"/>
		<path class="st74" d="M328.7,232.5c-0.5-3.5-1.2-6.9-1.5-10.4c-0.1-1.3,0.3-2.8,0.7-4.1c1-3,3.5-3.7,5.6-1.4c1.7,1.8,3.1,4,4,6.2
			c1.6,3.8,2.9,7.7,2.4,11.9C336.5,232.6,332.5,233,328.7,232.5z"/>
		<path class="st68" d="M321.8,249.6c1-6.2,10.7-10.3,16.5-6.6c0.2,0.1,0.2,0.4,0.3,0.5c-2.6,2.2-3.2,4.9-2.1,8.1
			c-2.6,0.9-5.2,1.8-7.7,2.8C327.4,251.4,324.9,250,321.8,249.6z"/>
		<path class="st75" d="M321.8,249.6c3.1,0.4,5.6,1.8,7,4.8c-0.5,4.1-2.7,5.6-6.4,4c-1.6-0.7-3.2-2.1-4.2-3.6
			C316.6,252.5,318.2,250.4,321.8,249.6z"/>
		<path class="st76" d="M336.5,251.6c-1.1-3.2-0.5-5.9,2.1-8.1c1.5-0.4,3-0.4,3.9,1.1c1.4,2.1,1.5,4.5,0.2,6.4
			c-0.8,1.2-2.5,1.9-3.9,2.3C338.3,253.5,337.3,252.3,336.5,251.6z"/>
		<path class="st59" d="M398.2,310.9c0.2-0.1,0.4-0.2,0.6-0.4c-0.1,0.2-0.2,0.5-0.2,0.7C398.5,311.1,398.3,311,398.2,310.9z"/>
		<path class="st59" d="M397.8,311.2c0.1-0.1,0.3-0.2,0.4-0.4c0.1,0.1,0.2,0.2,0.3,0.3c-0.2,0.1-0.3,0.3-0.5,0.4
			C398,311.5,397.9,311.4,397.8,311.2z"/>
		<path class="st75" d="M295.8,248.8c-1.6-0.5-3.3-0.9-4.9-1.5c-7.3-2.9-14.8-3.8-22.3-1c-2.3,0.8-4.6,1.7-6.9,2.4
			c-0.8,0.2-1.6,0-2.5,0c0.3-0.8,0.4-1.7,0.9-2.3c3.7-4.5,8.5-7.2,14.1-7.8c5.8-0.7,11.7-0.4,16.7,3.3c1.6,1.2,3,2.6,4.4,4
			c0.5,0.6,0.6,1.5,0.9,2.3C296.1,248.4,295.9,248.6,295.8,248.8z"/>
		<path class="st76" d="M294.7,256.4c-3.8,0.2-7.5,0.2-11.1,0.7c-3.5,0.6-6.8,1.8-10.4,2.7c0.3-3.6,5.7-7.2,10.8-7.7
			C289.2,251.7,293.8,253.5,294.7,256.4z"/>
		<path class="st77" d="M211,99.2c2.9,2.2,5.8,4.5,8.7,6.8c5.7,4.6,11.3,9.2,16.9,13.7c-1.9,1.6-3.8,3.3-5.7,4.9
			c-5.5-4.9-11-9.7-16.5-14.6c-0.5-0.4-1.1-0.7-1.6-1.1c-0.4-1.1-0.9-2.3-1.1-3.4C211.4,103.4,211.3,101.3,211,99.2z"/>
		<path class="st77" d="M236.3,88.5c1.3,4.2,2.6,8.5,4.1,13.3c-2.2-0.8-3.6-1.3-5-1.7C233.6,96.1,234.3,92.2,236.3,88.5z"/>
		<path class="st62" d="M165.2,291.2c-1.2-0.5-2.3-0.9-3.5-1.4c-2.5-0.7-4.6,0-5.7,1.9c-1.4,2.5-1.2,6,0.9,8
			c1.8,1.7,3.8,3.2,5.9,4.6c4.4,3.1,4.8,9.3,0.9,13.1c-0.6-0.2-1.2-0.4-1.8-0.5c-9.1-0.4-15.4-5.4-20.1-12.8
			c-2.4-3.8-3.3-8-2.9-12.4c0.1-1.2,0.3-2.4,0.4-3.7c4.6-5.1,13.3-6.8,19.5-3.8C161.7,285.7,164.3,287.7,165.2,291.2z"/>
		<path class="st75" d="M165.2,291.2c-0.9-3.5-3.4-5.5-6.5-7c-6.2-3-14.9-1.3-19.5,3.8c-5.4,6.6-6.2,14-3.4,21.9
			c0.3,0.8,0.1,1.8,0.1,2.7c-1-0.3-2.2-0.4-2.9-1.1c-3.1-2.9-4.4-6.8-4.8-10.9c-1.2-11.4,5.7-21.4,16.6-24.4
			c8.3-2.3,17.2,0.6,21.7,6.7c2,2.7,2.2,5.6,1.8,8.6c-0.1,0.6-0.9,1.1-1.4,1.6C166.3,292.7,165.8,291.9,165.2,291.2z"/>
		<path class="st76" d="M163.6,317.4c4-3.8,3.5-10-0.9-13.1c-2-1.4-4.1-2.9-5.9-4.6c-2.1-2-2.3-5.5-0.9-8c1.1-1.9,3.3-2.6,5.7-1.9
			c-0.4,0.5-0.6,1.1-1.1,1.5c-2.2,1.8-2.1,4.1,0.3,5.6c1.4,0.9,2.8,1.6,4.2,2.4c5.3,2.7,7.5,7,6.8,12.9c-0.6,5.3-3.4,9.2-8.4,11.3
			c-4.3,1.8-9.2,0.6-11.7-2.9C156.1,320.2,160.6,321.2,163.6,317.4z"/>
		<path class="st77" d="M243,114.5c-3-2.4-5.9-4.8-8.9-7.2c0.1-0.2,0.2-0.5,0.3-0.7c4.5,1.4,9,2.9,13.5,4.3
			C246.2,112,244.6,113.2,243,114.5z"/>
		<path class="st77" d="M251.6,108.3c-0.8-2.9-1.6-5.8-2.4-8.7c0.2-0.1,0.3-0.2,0.5-0.3c2.3,1.9,4.6,3.9,6.9,5.8
			C255,106.1,253.3,107.2,251.6,108.3z"/>
	</g>
</g>
</svg>
