<?xml version="1.0" encoding="UTF-8"?><svg id="Layer_1" xmlns="http://www.w3.org/2000/svg" xmlns:xlink="http://www.w3.org/1999/xlink" viewBox="0 0 500 500"><defs><style>.cls-1{fill:#2250fc;fill-rule:evenodd;}.cls-2{fill:url(#linear-gradient);}.cls-3{fill:#fdfdff;stroke:#009aef;stroke-miterlimit:10;}</style><linearGradient id="linear-gradient" x1="270.73" y1="267.39" x2="160.07" y2="399.27" gradientUnits="userSpaceOnUse"><stop offset="0" stop-color="#122d9c"/><stop offset="1" stop-color="#214df4"/></linearGradient></defs><path class="cls-3" d="m474.45,83.05c0-18.87-7.12-34.5-22.16-46.2-7.43-5.78-15.87-9.28-25.18-10.7-.87-.13-1.71-.48-2.56-.73H75.63c-2.71.6-5.46,1.1-8.14,1.83-17.39,4.76-29.76,15.46-37.24,31.83-2.33,5.11-3.93,10.47-4.37,16.12-.02.26-.24.5-.37.76v348.09c.36,1.76.7,3.52,1.08,5.27,4.25,19.38,15.53,33.01,33.6,41.06,4.68,2.09,9.57,3.34,14.66,3.87.14.01.26.21.39.33h349.29c2.6-.58,5.23-1.04,7.8-1.75,17.88-4.95,30.57-15.94,37.84-33.02,2.61-6.14,4.05-12.64,4.1-19.37.08-12.34.18-24.69.19-37.04.01-100.11.03-200.23-.02-300.34Z"/><path class="cls-1" d="m409.05,158.72l-159.06,91.27-159.06-91.27v182.53l159.06,91.27,159.06-91.27v-182.53Z"/><path class="cls-1" d="m90.94,158.74l159.05-91.26,159.07,91.26H90.94Z"/><polygon class="cls-2" points="249.99 432.52 90.94 341.26 249.99 249.99 249.99 432.52"/></svg>