<?xml version="1.0" encoding="utf-8"?>
<!-- Generator: Adobe Illustrator 27.7.0, SVG Export Plug-In . SVG Version: 6.00 Build 0)  -->
<svg version="1.1" id="Layer_1" xmlns="http://www.w3.org/2000/svg" xmlns:xlink="http://www.w3.org/1999/xlink" x="0px" y="0px"
	 viewBox="0 0 500 500" style="enable-background:new 0 0 500 500;" xml:space="preserve">
<style type="text/css">
	.st0{fill:#FDFDFF;stroke:#009AEF;stroke-miterlimit:10;}
	.st1{fill:#FC6A70;}
	.st2{fill:#F5858C;}
	.st3{fill:#787779;}
	.st4{fill:#E6E6E6;}
	.st5{fill:#414042;}
	.st6{fill:url(#SVGID_1_);}
	.st7{fill:#09C269;}
	.st8{fill:#292C31;}
	.st9{fill:#2A2D32;}
	.st10{fill:#0AC269;}
	.st11{fill:#214FFA;}
	.st12{fill:#204FFB;}
	.st13{fill:#2044FF;}
	.st14{fill:#1D40FF;}
	.st15{fill:#1F44FF;}
	.st16{fill:#1F3AFF;}
	.st17{fill:#213BFF;}
	.st18{fill:#213EFF;}
	.st19{fill:#2048FF;}
	.st20{fill:#325AF2;}
	.st21{fill:#486AF0;}
	.st22{fill:#1C44DC;}
	.st23{fill:#1637BA;}
	.st24{fill:#183BC4;}
	.st25{fill:#1A3DCB;}
	.st26{fill:#1633AF;}
	.st27{fill:#132FA3;}
	.st28{fill:#1E47E3;}
	.st29{fill:#204BFD;}
	.st30{fill:#2041FF;}
	.st31{fill:#1F4AEB;}
	.st32{fill:#5875E6;}
	.st33{fill:#1B40D2;}
	.st34{fill:#4F5F9D;}
	.st35{fill:#FCB834;}
	.st36{fill:#7855FF;}
	.st37{fill:#A591F9;}
	.st38{fill:#E8DBFA;}
	.st39{fill:#678EEB;}
	.st40{fill:#356AE5;}
	.st41{fill:#1856ED;}
	.st42{fill:#FF9E1A;}
	.st43{fill:#0A2565;}
	.st44{fill:#103BA3;}
	.st45{fill:#061438;}
	.st46{fill:#0B286E;}
	.st47{fill:#FE9E1A;}
	.st48{fill:#BC9519;}
	.st49{fill:#FFFFFF;}
	.st50{fill:#CEEBFC;}
	.st51{fill:#06AEEF;}
	.st52{fill:#57BFF2;}
	.st53{fill:#0191FF;}
	.st54{fill:#54AADC;}
	.st55{fill:#76BF45;}
	.st56{fill:#A9D282;}
	.st57{fill:none;}
	.st58{fill:#106094;}
	.st59{fill:#684D46;}
	.st60{fill:#F4DCB9;}
	.st61{fill:#132130;}
	.st62{fill:#E9BE8D;}
	.st63{fill:#46B7E2;}
	.st64{fill:#0888BE;}
	.st65{fill:#FEFEFD;}
	.st66{fill:#F4DBB9;}
	.st67{fill:#997156;}
	.st68{fill:#E8BD8D;}
	.st69{fill:#F8F8F9;}
	.st70{fill:#FBCE4F;}
	.st71{fill:#EAC091;}
	.st72{fill:#FBFAFA;}
	.st73{fill:#EBEAE9;}
	.st74{fill:#694E46;}
	.st75{fill:#9E7558;}
	.st76{fill:#9E7659;}
	.st77{fill:#152433;}
	.st78{fill:#FF3C78;}
	.st79{fill:#777BB4;}
</style>
<path class="st0" d="M474.5,83.1c0-18.9-7.1-34.5-22.2-46.2c-7.4-5.8-15.9-9.3-25.2-10.7c-0.9-0.1-1.7-0.5-2.6-0.7
	c-116.3,0-232.6,0-348.9,0c-2.7,0.6-5.5,1.1-8.1,1.8C50.1,32,37.7,42.7,30.3,59.1c-2.3,5.1-3.9,10.5-4.4,16.1c0,0.3-0.2,0.5-0.4,0.8
	c0,0.6,0,1.2,0,1.9c0,114.8,0,229.6,0,344.3c0,0.6,0,1.2,0,1.9c0.4,1.8,0.7,3.5,1.1,5.3c4.3,19.4,15.5,33,33.6,41.1
	c4.7,2.1,9.6,3.3,14.7,3.9c0.1,0,0.3,0.2,0.4,0.3c116.4,0,232.9,0,349.3,0c2.6-0.6,5.2-1,7.8-1.8c17.9-4.9,30.6-15.9,37.8-33
	c2.6-6.1,4.1-12.6,4.1-19.4c0.1-12.3,0.2-24.7,0.2-37C474.5,283.3,474.5,183.2,474.5,83.1z"/>
<g>
	<path class="st7" d="M323,296.5c0-0.5,0-0.8,0-1.1c0-28,0-56,0-84.1c0-4.9,2.3-8.7,6.4-11.5c2.7-1.8,5.7-2.1,8.9-2.1
		c8.4,0,16.8,0,25.2,0c8.7,0,17.3,0,26,0c9.3,0,18.6,0,27.9,0c5.1,0,10.1,0,15.2,0c4.1,0,7.6,1.4,10.3,4.4c2.3,2.5,3.6,5.4,3.6,8.7
		c0,18,0,36,0,54.1c0,2.9-1,5.5-2.7,7.8c-2,2.7-4.7,4.4-8,5.1c-0.7,0.2-1.5,0.3-2.3,0.3c-30.3,0-60.6,0-90.9,0c-0.6,0-1,0.2-1.5,0.6
		c-4,4-8,8-12.1,11.9c-1.9,1.8-3.7,3.6-5.6,5.5C323.4,296.2,323.2,296.3,323,296.5z M407.6,248.1c0.4,0,0.6,0,0.9,0
		c6,0,12.1,0,18.1,0c2.1,0,3.7-1.8,3.5-3.5c-0.2-1.4-0.2-2.9-0.5-4.3c-1.1-4.5-3.5-8-7.8-10c-3.5-1.6-7.2-1.8-10.9-0.9
		c-4.5,1.1-7.8,3.9-9.5,8.2c-1.7,4.2-1.9,8.6-0.8,12.9c1.1,4.4,3.6,7.7,7.7,9.6c3.4,1.6,7,1.8,10.7,1.5c2.9-0.2,5.7-1.1,8.2-2.6
		c1.2-0.7,2.1-1.8,2-3.2c-0.2-2.3-2.6-3.6-4.7-2.6c-3.2,1.6-6.7,2.1-10.2,1.4C410.6,254.2,408.2,251.7,407.6,248.1z M386.9,229.5
		c0-1.2,0-2.3,0-3.4c0-1-0.3-1.8-1.2-2.2c-1-0.5-1.8-0.1-2.5,0.6c-2.7,2.6-5.5,5.3-8.2,8c-0.7,0.7-0.9,1.5-0.5,2.4
		c0.4,0.8,1.1,1.1,2,1.1c1,0,2,0,3,0c0,0.3,0,0.6,0,0.9c0,5.2,0,10.4,0,15.7c0,1.1,0.1,2.1,0.3,3.2c0.5,2.6,2,4.5,4.6,5.4
		c1.9,0.7,3.8,0.9,5.8,0.7c1.7-0.2,3.2-0.5,4.7-1.3c1.3-0.7,1.9-2.4,1.3-3.6c-0.6-1.4-2.1-2.2-3.6-1.9c-1.3,0.3-2.6,0.5-4,0.4
		c-0.9-0.1-1.6-0.7-1.7-1.6c-0.1-0.4-0.1-0.9-0.1-1.3c0-5.3,0-10.6,0-15.9c0-0.5,0.2-0.6,0.6-0.6c1.7,0,3.3,0,5,0
		c2.1,0,3.4-1.6,3.4-3.2c0-1.7-1.2-3.2-3.4-3.2C390.7,229.5,388.9,229.5,386.9,229.5z M344.8,238.8c0,6.4,0,12.8,0,19.2
		c0,1.2,0.5,2.2,1.5,2.9c1.2,0.8,2.5,0.8,3.7,0.2c1.2-0.6,1.9-1.7,1.9-3.1c0-4.3,0-8.5,0-12.8c0-8.4,0-16.8,0-25.3
		c0-2-1.7-3.5-3.6-3.5c-2,0-3.5,1.7-3.5,3.5C344.8,226.1,344.8,232.5,344.8,238.8z M361.6,245.4c0,4.2,0,8.3,0,12.5
		c0,2.5,2.5,4.2,4.8,3.4c1.6-0.6,2.4-1.9,2.4-3.7c0-8,0-15.9,0-23.9c0-0.6-0.1-1.1-0.2-1.7c-0.4-1.9-2.6-3.1-4.2-2.7
		c-1.8,0.4-2.9,2-2.9,3.7C361.6,237.1,361.6,241.2,361.6,245.4z M365,225.2c2.3,0.1,4.2-1.5,4.2-4c0-2.4-1.7-4-4.1-4
		c-2.9,0-4.1,1.9-4.1,4C361,223.6,362.8,225.2,365,225.2z"/>
	<path class="st8" d="M62.7,256.5c2.9-3.1,6.2-5.2,10.3-5.8c3.4-0.4,6.8-0.3,10,1.3c2.6,1.4,4.5,3.4,6.1,5.9c0.4-0.5,0.7-1,1.1-1.4
		c3-3.3,6.6-5.4,11.1-5.9c2.4-0.3,4.7-0.4,7.1,0.2c3.4,0.9,6.2,2.8,8,5.8c1.4,2.3,2.4,4.7,2.6,7.4c0.1,2,0.3,3.9,0.3,5.9
		c0,7,0,14,0,21c0,3.1-2.4,5.1-5.3,4.8c-2.2-0.2-4-2.1-4-4.4c0-7.3,0.1-14.6,0-22c0-2,0-4.1-0.7-6.1c-0.9-2.4-2.6-3.7-5.1-4
		c-2.4-0.3-4.8-0.1-7,1c-2.6,1.4-4.5,3.5-5.9,6c-0.1,0.2-0.1,0.6-0.1,0.9c0,8,0,15.9,0,23.9c0,2.5-2.1,4.7-4.8,4.7
		c-2.5,0-4.6-2-4.6-4.7c0-7.4,0-14.7,0-22.1c0-1.9-0.1-3.8-0.7-5.6c-1-2.8-2.6-3.8-5.3-4.1c-1.7-0.2-3.4-0.2-5.1,0.4
		c-2.4,0.8-4.2,2.3-5.8,4.1c-0.2,0.2-0.4,0.5-0.6,0.7c-1,1.2-1.4,2.4-1.4,4c0.1,7.4,0,14.8,0.1,22.3c0,2.9-2.2,5.1-5.1,5
		c-2.2-0.1-4.2-1.9-4.3-4.3c0-12.1,0-24.2,0-36.3c0-1.9,1.9-4.4,4.3-4.3c2.5,0.1,4.2,1.1,4.8,3.3C62.8,254.9,62.7,255.6,62.7,256.5z
		"/>
	<path class="st9" d="M235.6,276.9c0.6,3.5,2.1,6.4,5.1,8.3c1.7,1.1,3.7,1.8,5.7,1.9c1.8,0.2,3.5,0,5.3,0c2.4,0,4.6-0.6,6.8-1.5
		c0.7-0.3,1.4-0.7,2.1-1c2.5-0.9,5.9,0.8,5.7,4c-0.1,1.9-1.3,3-2.7,3.8c-2.4,1.4-4.9,2.5-7.7,3c-1.5,0.3-3,0.4-4.6,0.5
		c-1.2,0.1-2.5,0.2-3.7,0.1c-4.8-0.2-9.3-1.3-13.3-4.2c-3.4-2.5-5.6-5.8-6.9-9.8c-0.8-2.4-1.3-4.9-1.3-7.5c0-1.4-0.1-2.7,0-4.1
		c0.3-2.9,0.9-5.7,2.1-8.3c1-2.3,2.4-4.5,4.2-6.3c2.2-2.2,4.8-3.7,7.7-4.7c2.9-1,5.9-1.1,8.9-0.9c4.3,0.3,8.2,1.8,11.5,4.5
		c3.5,2.9,5.7,6.7,6.7,11.2c0.5,2.2,0.6,4.5,0.5,6.8c-0.1,1.6-1.7,3.3-3.5,3.7c-0.5,0.1-1.1,0.1-1.7,0.1c-8.6,0-17.3,0-25.9,0
		C236.2,276.9,236,276.9,235.6,276.9z M258.4,268.9c-0.3-5.2-4.4-11-12.9-10.2c-5.6,0.5-9.5,5.1-9.8,10.2
		C243.3,268.9,250.8,268.9,258.4,268.9z"/>
	<path class="st9" d="M158.5,268.7c-0.2-2.6-0.4-5-2.3-6.9c-1.2-1.2-2.8-1.7-4.4-2c-1.1-0.2-2.2-0.3-3.3-0.3c-3.4,0-6.7,0.5-9.9,1.5
		c-1.2,0.4-2.4,0.8-3.7,0.4c-1.6-0.5-2.6-1.6-2.9-3.2c-0.3-1.4,0.1-2.7,1.2-3.7c1.3-1.2,2.9-1.6,4.5-2.1c2.5-0.9,5-1.5,7.7-1.7
		c2.1-0.1,4.2-0.2,6.3-0.1c2.4,0.1,4.7,0.6,6.9,1.7c2.1,1,4,2.4,5.5,4.3c2,2.4,3.2,5.2,3.7,8.3c0.1,0.9,0.2,1.9,0.2,2.8
		c0,7.8,0,15.5,0,23.3c0,3.1-1.8,4.8-4.7,5.1c-1.6,0.1-3.8-1.3-4.3-2.8c-0.2-0.6-0.3-1.2-0.4-1.7c-0.9,0.6-1.8,1.3-2.8,1.9
		c-2.4,1.4-5,2.4-7.8,2.8c-1.6,0.2-3.3,0.3-4.9,0.3c-4.2-0.1-7.9-1.6-10.8-4.8c-1.8-2-2.7-4.5-3-7.2c-0.3-2.6,0.2-5,1.3-7.2
		c1.1-2.4,3-4.1,5.2-5.4c2.6-1.5,5.5-2.3,8.5-2.7c4.4-0.6,8.9-0.2,13.4-0.3C157.8,268.6,158.1,268.7,158.5,268.7z M158.3,276.3
		c-0.2,0-0.3,0-0.5,0c-3.3,0.1-6.7,0.1-10,0.1c-2.1,0-4.1,0.3-6.1,1.1c-1.3,0.5-2.3,1.2-3,2.4c-1.3,2.5,0,5.9,2.7,7
		c2.5,1,5.1,1.1,7.8,0.5c3.4-0.7,6.2-2.5,8.7-4.8c0.2-0.2,0.4-0.6,0.4-0.9C158.4,280,158.3,278.2,158.3,276.3z"/>
	<path class="st8" d="M205.2,264.1c0-9.1,0-18.1,0-27.2c0-1.8,1.2-3.7,3-4.2c3.3-1,6.3,1,6.3,4.5c0,10.7,0,21.3,0,32
		c0,7.2,0,14.4,0,21.6c0,2-0.9,3.5-2.7,4.4c-3,1.4-6.6-0.6-6.6-4.1C205.2,282.2,205.2,273.1,205.2,264.1z"/>
	<path class="st8" d="M287.8,256.5c0.9-0.8,1.8-1.7,2.8-2.5c2.1-1.8,4.6-3.1,7.3-3.4c1.8-0.2,3.8-0.5,5.5,0.8
		c2.3,1.7,2.1,5.8-0.4,7.3c-1,0.5-2,0.8-3.1,0.8c-5.2,0-9,2.4-11.9,6.4c-0.2,0.2-0.2,0.6-0.2,0.9c0,8.1,0,16.2,0,24.3
		c0,2.1-1,3.7-3,4.4c-1.8,0.7-3.6,0.4-5-1c-0.9-0.8-1.4-1.9-1.4-3.2c0-12,0-23.9,0-35.9c0-2.5,2.3-5,5.5-4.4c1.8,0.3,3,1.6,3.6,3.2
		c0.2,0.7,0,1.6,0,2.3C287.6,256.5,287.7,256.5,287.8,256.5z"/>
	<path class="st8" d="M181.4,273.3c0-6,0-11.9,0-17.9c0-2.2,1.5-4,3.6-4.5c2.3-0.5,4.5,0.7,5.3,2.8c0.2,0.6,0.4,1.4,0.4,2.1
		c0,11.7,0,23.4,0,35.1c0,1.9-0.7,3.5-2.5,4.4c-1.8,0.9-3.6,0.7-5.2-0.5c-1.1-0.8-1.6-2-1.6-3.4
		C181.4,285.3,181.4,279.3,181.4,273.3z"/>
	<path class="st9" d="M186,244.4c-3.2,0.1-5.5-2.3-5.5-5.3c0-3.1,2.4-5.2,5.1-5.3c3.9-0.1,6,2.6,5.9,5.5
		C191.3,241.9,189,244.7,186,244.4z"/>
	<path class="st10" d="M407.6,242.1c0.7-4.7,4.3-7,8.3-6.7c3.5,0.2,6.5,2.7,7.1,6.7C417.8,242.1,412.7,242.1,407.6,242.1z"/>
</g>
</svg>
