<?xml version="1.0" encoding="utf-8"?>
<!-- Generator: Adobe Illustrator 27.7.0, SVG Export Plug-In . SVG Version: 6.00 Build 0)  -->
<svg version="1.1" id="Layer_1" xmlns="http://www.w3.org/2000/svg" xmlns:xlink="http://www.w3.org/1999/xlink" x="0px" y="0px"
	 viewBox="0 0 500 500" style="enable-background:new 0 0 500 500;" xml:space="preserve">
<style type="text/css">
	.st0{fill:#FDFDFF;stroke:#009AEF;stroke-miterlimit:10;}
	.st1{fill:#FC6A70;}
	.st2{fill:#F5858C;}
	.st3{fill:#787779;}
	.st4{fill:#E6E6E6;}
	.st5{fill:#414042;}
	.st6{fill:url(#SVGID_1_);}
	.st7{fill:#09C269;}
	.st8{fill:#292C31;}
	.st9{fill:#2A2D32;}
	.st10{fill:#0AC269;}
	.st11{fill:#214FFA;}
	.st12{fill:#204FFB;}
	.st13{fill:#2044FF;}
	.st14{fill:#1D40FF;}
	.st15{fill:#1F44FF;}
	.st16{fill:#1F3AFF;}
	.st17{fill:#213BFF;}
	.st18{fill:#213EFF;}
	.st19{fill:#2048FF;}
	.st20{fill:#325AF2;}
	.st21{fill:#486AF0;}
	.st22{fill:#1C44DC;}
	.st23{fill:#1637BA;}
	.st24{fill:#183BC4;}
	.st25{fill:#1A3DCB;}
	.st26{fill:#1633AF;}
	.st27{fill:#132FA3;}
	.st28{fill:#1E47E3;}
	.st29{fill:#204BFD;}
	.st30{fill:#2041FF;}
	.st31{fill:#1F4AEB;}
	.st32{fill:#5875E6;}
	.st33{fill:#1B40D2;}
	.st34{fill:#4F5F9D;}
	.st35{fill:#FCB834;}
	.st36{fill:#7855FF;}
	.st37{fill:#A591F9;}
	.st38{fill:#E8DBFA;}
	.st39{fill:#678EEB;}
	.st40{fill:#356AE5;}
	.st41{fill:#1856ED;}
	.st42{fill:#FF9E1A;}
	.st43{fill:#0A2565;}
	.st44{fill:#103BA3;}
	.st45{fill:#061438;}
	.st46{fill:#0B286E;}
	.st47{fill:#FE9E1A;}
	.st48{fill:#BC9519;}
	.st49{fill:#FFFFFF;}
	.st50{fill:#CEEBFC;}
	.st51{fill:#06AEEF;}
	.st52{fill:#57BFF2;}
	.st53{fill:#0191FF;}
	.st54{fill:#54AADC;}
	.st55{fill:#76BF45;}
	.st56{fill:#A9D282;}
	.st57{fill:none;}
	.st58{fill:#106094;}
	.st59{fill:#684D46;}
	.st60{fill:#F4DCB9;}
	.st61{fill:#132130;}
	.st62{fill:#E9BE8D;}
	.st63{fill:#46B7E2;}
	.st64{fill:#0888BE;}
	.st65{fill:#FEFEFD;}
	.st66{fill:#F4DBB9;}
	.st67{fill:#997156;}
	.st68{fill:#E8BD8D;}
	.st69{fill:#F8F8F9;}
	.st70{fill:#FBCE4F;}
	.st71{fill:#EAC091;}
	.st72{fill:#FBFAFA;}
	.st73{fill:#EBEAE9;}
	.st74{fill:#694E46;}
	.st75{fill:#9E7558;}
	.st76{fill:#9E7659;}
	.st77{fill:#152433;}
	.st78{fill:#FF3C78;}
	.st79{fill:#777BB4;}
</style>
<path class="st0" d="M474.5,83.1c0-18.9-7.1-34.5-22.2-46.2c-7.4-5.8-15.9-9.3-25.2-10.7c-0.9-0.1-1.7-0.5-2.6-0.7
	c-116.3,0-232.6,0-348.9,0c-2.7,0.6-5.5,1.1-8.1,1.8C50.1,32,37.7,42.7,30.3,59.1c-2.3,5.1-3.9,10.5-4.4,16.1c0,0.3-0.2,0.5-0.4,0.8
	c0,0.6,0,1.2,0,1.9c0,114.8,0,229.6,0,344.3c0,0.6,0,1.2,0,1.9c0.4,1.8,0.7,3.5,1.1,5.3c4.3,19.4,15.5,33,33.6,41.1
	c4.7,2.1,9.6,3.3,14.7,3.9c0.1,0,0.3,0.2,0.4,0.3c116.4,0,232.9,0,349.3,0c2.6-0.6,5.2-1,7.8-1.8c17.9-4.9,30.6-15.9,37.8-33
	c2.6-6.1,4.1-12.6,4.1-19.4c0.1-12.3,0.2-24.7,0.2-37C474.5,283.3,474.5,183.2,474.5,83.1z"/>
<g>
	<path class="st34" d="M264.4,77.3c3.5,0.7,7.1,1.6,10.6,2c11.7,1.4,22.9,4.5,33.9,8.4c2.5,0.9,5,1.8,7.5,2.7
		c5.3,1.9,9.3,8.4,6.7,15.4c-2.1,5.7-8.7,8.6-14.9,6.8c-9.8-3-19.6-6.2-29.6-8.7c-12.8-3.2-26-3.3-39.1-2.6
		c-13.3,0.7-26.2,3.5-38.8,7.8c-15.9,5.4-30.3,13.6-43.5,23.9c-13.5,10.6-24.9,23.2-34,37.8c-10.5,16.9-17.8,35-21.2,54.8
		c-2.1,12.2-2.5,24.3-1.8,36.5c1,16.4,5.1,32.2,11.7,47.4c9,21.1,22.3,39.1,39.3,54.2c11.7,10.3,24.6,18.9,39.1,24.7
		c8.5,3.4,17.2,6.5,26.1,8.8c10.8,2.8,22,3.7,33.3,3.8c25,0.1,48.5-6,70.5-17.6c13.9-7.3,26.2-16.9,37.2-28.1
		c17.2-17.5,29.3-37.9,36-61.4c2.7-9.4,4.2-19.3,5.4-29c0.9-7.4,1.2-14.9,0.7-22.3c-0.7-12.1-2.5-24-6.3-35.6
		c-0.8-2.4-1.7-4.7-2.6-7.1c-2.8-7.8,2.3-14.2,6.8-15.4c5.8-1.5,12.7-0.7,15.6,7.6c4.3,12,7.2,24.2,8.8,36.7
		c1.1,8.3,1.6,16.7,1.4,25c-0.6,23.1-5.1,45.5-14.5,66.7c-7.4,16.7-17.2,31.9-29.4,45.6c-12.1,13.7-26.1,25-41.8,34.4
		c-15.9,9.5-32.9,16.3-51,19.9c-8.2,1.7-16.6,2.6-25,3.5c-5.1,0.6-10.2,0.8-15.3,0.7c-15-0.4-29.8-2.6-44.2-6.8
		c-18.4-5.3-35.5-13.5-51.2-24.5c-21.6-15.1-38.8-34-51.9-56.8c-9-15.6-15.3-32.3-19.2-49.8c-1.6-7.4-2.2-15-2.9-22.6
		c-0.5-5.4-0.9-10.9-0.7-16.3c0.6-21.7,4.7-42.7,13.2-62.8c6.7-16,15.4-31,26.4-44.3c13.7-16.5,29.9-30.1,48.6-40.8
		c15.3-8.8,31.7-14.7,48.8-18.7c5.6-1.3,11.4-1.6,17.1-2.4c1.7-0.3,3.4-0.9,5.1-1.4C245.2,77.3,254.8,77.3,264.4,77.3z"/>
	<path class="st35" d="M324.9,158.8c-3.4-2.8-6.5-5.4-10.3-8.7c18.1-3.6,35-7,52.2-10.4c-3.1,17.6-6.1,34.9-9.3,52.7
		c-3-3.4-5.7-6.5-8.7-10c-33.3,36.3-66,71.8-98.8,107.6c-15.2-16.6-30.2-33-45.9-50.2c-6.8,28.2-13.4,55.8-20.1,83.6
		c-11,0-22,0-33.9,0c12.1-50.3,24.2-100.3,36.4-151c21.5,22.2,42.4,43.7,63.5,65.5C274.8,211.8,299.4,185.8,324.9,158.8z"/>
	<path class="st35" d="M347.8,323.7c-11.5,0-22.6,0-34,0c-3.8-16-7.6-32-11.4-47.9c-1-4.4-2.2-8.7-3.1-13.1c-0.2-0.7,0-1.8,0.4-2.3
		c8.3-8.7,16.7-17.3,25-26c0.3-0.3,0.7-0.6,1.3-1.1C333.3,263.5,340.5,293.4,347.8,323.7z"/>
</g>
</svg>
