<?xml version="1.0" encoding="utf-8"?>
<!-- Generator: Adobe Illustrator 27.7.0, SVG Export Plug-In . SVG Version: 6.00 Build 0)  -->
<svg version="1.1" id="Layer_1" xmlns="http://www.w3.org/2000/svg" xmlns:xlink="http://www.w3.org/1999/xlink" x="0px" y="0px"
	 viewBox="0 0 500 500" style="enable-background:new 0 0 500 500;" xml:space="preserve">
<style type="text/css">
	.st0{fill:#FDFDFF;stroke:#009AEF;stroke-miterlimit:10;}
	.st1{fill:#FC6A70;}
	.st2{fill:#F5858C;}
	.st3{fill:#787779;}
	.st4{fill:#E6E6E6;}
	.st5{fill:#414042;}
	.st6{fill:url(#SVGID_1_);}
	.st7{fill:#09C269;}
	.st8{fill:#292C31;}
	.st9{fill:#2A2D32;}
	.st10{fill:#0AC269;}
	.st11{fill:#214FFA;}
	.st12{fill:#204FFB;}
	.st13{fill:#2044FF;}
	.st14{fill:#1D40FF;}
	.st15{fill:#1F44FF;}
	.st16{fill:#1F3AFF;}
	.st17{fill:#213BFF;}
	.st18{fill:#213EFF;}
	.st19{fill:#2048FF;}
	.st20{fill:#325AF2;}
	.st21{fill:#486AF0;}
	.st22{fill:#1C44DC;}
	.st23{fill:#1637BA;}
	.st24{fill:#183BC4;}
	.st25{fill:#1A3DCB;}
	.st26{fill:#1633AF;}
	.st27{fill:#132FA3;}
	.st28{fill:#1E47E3;}
	.st29{fill:#204BFD;}
	.st30{fill:#2041FF;}
	.st31{fill:#1F4AEB;}
	.st32{fill:#5875E6;}
	.st33{fill:#1B40D2;}
	.st34{fill:#4F5F9D;}
	.st35{fill:#FCB834;}
	.st36{fill:#7855FF;}
	.st37{fill:#A591F9;}
	.st38{fill:#E8DBFA;}
	.st39{fill:#678EEB;}
	.st40{fill:#356AE5;}
	.st41{fill:#1856ED;}
	.st42{fill:#FF9E1A;}
	.st43{fill:#0A2565;}
	.st44{fill:#103BA3;}
	.st45{fill:#061438;}
	.st46{fill:#0B286E;}
	.st47{fill:#FE9E1A;}
	.st48{fill:#BC9519;}
	.st49{fill:#FFFFFF;}
	.st50{fill:#CEEBFC;}
	.st51{fill:#06AEEF;}
	.st52{fill:#57BFF2;}
	.st53{fill:#0191FF;}
	.st54{fill:#54AADC;}
	.st55{fill:#76BF45;}
	.st56{fill:#A9D282;}
	.st57{fill:none;}
	.st58{fill:#106094;}
	.st59{fill:#684D46;}
	.st60{fill:#F4DCB9;}
	.st61{fill:#132130;}
	.st62{fill:#E9BE8D;}
	.st63{fill:#46B7E2;}
	.st64{fill:#0888BE;}
	.st65{fill:#FEFEFD;}
	.st66{fill:#F4DBB9;}
	.st67{fill:#997156;}
	.st68{fill:#E8BD8D;}
	.st69{fill:#F8F8F9;}
	.st70{fill:#FBCE4F;}
	.st71{fill:#EAC091;}
	.st72{fill:#FBFAFA;}
	.st73{fill:#EBEAE9;}
	.st74{fill:#694E46;}
	.st75{fill:#9E7558;}
	.st76{fill:#9E7659;}
	.st77{fill:#152433;}
	.st78{fill:#FF3C78;}
	.st79{fill:#777BB4;}
</style>
<path class="st0" d="M474.5,83.1c0-18.9-7.1-34.5-22.2-46.2c-7.4-5.8-15.9-9.3-25.2-10.7c-0.9-0.1-1.7-0.5-2.6-0.7
	c-116.3,0-232.6,0-348.9,0c-2.7,0.6-5.5,1.1-8.1,1.8C50.1,32,37.7,42.7,30.3,59.1c-2.3,5.1-3.9,10.5-4.4,16.1c0,0.3-0.2,0.5-0.4,0.8
	c0,0.6,0,1.2,0,1.9c0,114.8,0,229.6,0,344.3c0,0.6,0,1.2,0,1.9c0.4,1.8,0.7,3.5,1.1,5.3c4.3,19.4,15.5,33,33.6,41.1
	c4.7,2.1,9.6,3.3,14.7,3.9c0.1,0,0.3,0.2,0.4,0.3c116.4,0,232.9,0,349.3,0c2.6-0.6,5.2-1,7.8-1.8c17.9-4.9,30.6-15.9,37.8-33
	c2.6-6.1,4.1-12.6,4.1-19.4c0.1-12.3,0.2-24.7,0.2-37C474.5,283.3,474.5,183.2,474.5,83.1z"/>
<g>
	<path class="st78" d="M77.9,343.2c0-61.5,0-122.9,0-184.4c0.3-0.3,0.8-0.5,0.9-0.8c3.9-14.8,12.8-24.1,28.2-26.8
		c0.2,0,0.4-0.5,0.6-0.8c94.9,0,189.7,0,284.6,0c0.2,0.3,0.4,0.7,0.6,0.8c0.9,0.2,1.9,0.3,2.9,0.5c8.3,1.9,14.9,6.3,19.9,13.2
		c3,4.1,4.8,8.7,5.9,13.6c0.1,0.3,0.5,0.5,0.8,0.7c0,61.2,0,122.4,0,183.5c-0.3,0.2-0.7,0.3-0.8,0.5c-0.3,1.1-0.4,2.2-0.7,3.3
		c-4,12.9-12.8,20.8-25.8,24.2c-0.4,0.1-0.7,0.5-1,0.8c-96,0-192,0-288,0c0.1-0.1,0.2-0.2,0.3-0.3c-0.4-0.2-0.8-0.5-1.3-0.6
		c-5.6-1.3-10.6-3.8-14.8-7.6c-5.8-5.1-9.7-11.4-11.3-19.1C78.6,343.7,78.1,343.5,77.9,343.2z M98.8,252.3c0,28,0,56,0,84
		c0,1.4-0.1,2.9,0.3,4.2c2,6.5,7,10.2,13.5,10.2c45.6,0,91.3,0,136.9,0c1.2,0,2.6,0,2.7-1.4c0-0.7-1.2-1.8-2-2.2
		c-4.5-2.1-9.2-3.8-13.7-5.9c-11.7-5.5-22.8-11.9-33.5-19.3c-9.2-6.3-17.8-13.2-25.9-20.9c-5.9-5.5-11.4-11.4-16.7-17.5
		c-5.3-6.1-10.3-12.6-15-19.2c-8.5-11.9-15.6-24.6-21.7-37.9c-0.9-2-0.5-3.4,0.7-4.7c1.1-1.1,3.6-0.8,5.1,0.5
		c7.1,5.9,14.9,10.9,23.1,15.2c10.1,5.4,20.7,9.8,31.7,12.9c8.8,2.4,17.8,4.4,26.8,6c7.7,1.4,15.5,2.5,23.3,3c8.3,0.5,16.7,0.3,25,0
		c7.1-0.2,14.1-0.8,21.1-1.7c8.2-1.1,16.4-2.5,24.5-4.4c15-3.6,29.5-8.9,43.2-16.2c9.2-4.9,17.9-10.5,25.6-17.5
		c7.4-6.7,14-14,18.9-22.8c5.3-9.6,8.5-19.8,8.5-30.8c0-0.9-0.8-1.7-1.2-2.6c-0.7,0.7-1.7,1.2-2.1,2c-1.3,2.5-2.3,5.2-3.7,7.6
		c-6.5,11.3-15.7,20.2-26.4,27.6c-9.6,6.7-19.8,12.2-30.7,16.2c-9.4,3.4-18.9,6.8-28.7,9.1c-9.7,2.3-19.6,3.5-29.5,4.9
		c-6.1,0.9-12.2,1.6-18.4,1.6c-10.3,0.1-20.7-0.3-31-0.8c-5.3-0.2-10.7-0.9-15.9-1.7c-8.1-1.3-16.2-2.6-24.2-4.5
		c-14.7-3.6-28.9-8.7-42.4-15.9c-9-4.8-17.4-10.3-24.9-17c-8.3-7.4-15.2-16-19.4-26.5c-0.3-0.7-0.6-1.4-1.1-2
		c-0.3-0.3-1.1-0.6-1.5-0.4c-0.5,0.2-0.9,0.8-1.1,1.3c-0.2,0.7-0.1,1.4-0.1,2.1C98.8,195.3,98.8,223.8,98.8,252.3z"/>
</g>
</svg>
