<?xml version="1.0" encoding="utf-8"?>
<!-- Generator: Adobe Illustrator 27.7.0, SVG Export Plug-In . SVG Version: 6.00 Build 0)  -->
<svg version="1.1" id="Layer_1" xmlns="http://www.w3.org/2000/svg" xmlns:xlink="http://www.w3.org/1999/xlink" x="0px" y="0px"
	 viewBox="0 0 500 500" style="enable-background:new 0 0 500 500;" xml:space="preserve">
<style type="text/css">
	.st0{fill:#FDFDFF;stroke:#009AEF;stroke-miterlimit:10;}
	.st1{fill:#FC6A70;}
	.st2{fill:#F5858C;}
	.st3{fill:#787779;}
	.st4{fill:#E6E6E6;}
	.st5{fill:#414042;}
	.st6{fill:url(#SVGID_1_);}
	.st7{fill:#09C269;}
	.st8{fill:#292C31;}
	.st9{fill:#2A2D32;}
	.st10{fill:#0AC269;}
	.st11{fill:#214FFA;}
	.st12{fill:#204FFB;}
	.st13{fill:#2044FF;}
	.st14{fill:#1D40FF;}
	.st15{fill:#1F44FF;}
	.st16{fill:#1F3AFF;}
	.st17{fill:#213BFF;}
	.st18{fill:#213EFF;}
	.st19{fill:#2048FF;}
	.st20{fill:#325AF2;}
	.st21{fill:#486AF0;}
	.st22{fill:#1C44DC;}
	.st23{fill:#1637BA;}
	.st24{fill:#183BC4;}
	.st25{fill:#1A3DCB;}
	.st26{fill:#1633AF;}
	.st27{fill:#132FA3;}
	.st28{fill:#1E47E3;}
	.st29{fill:#204BFD;}
	.st30{fill:#2041FF;}
	.st31{fill:#1F4AEB;}
	.st32{fill:#5875E6;}
	.st33{fill:#1B40D2;}
	.st34{fill:#4F5F9D;}
	.st35{fill:#FCB834;}
	.st36{fill:#7855FF;}
	.st37{fill:#A591F9;}
	.st38{fill:#E8DBFA;}
	.st39{fill:#678EEB;}
	.st40{fill:#356AE5;}
	.st41{fill:#1856ED;}
	.st42{fill:#FF9E1A;}
	.st43{fill:#0A2565;}
	.st44{fill:#103BA3;}
	.st45{fill:#061438;}
	.st46{fill:#0B286E;}
	.st47{fill:#FE9E1A;}
	.st48{fill:#BC9519;}
	.st49{fill:#FFFFFF;}
	.st50{fill:#CEEBFC;}
	.st51{fill:#06AEEF;}
	.st52{fill:#57BFF2;}
	.st53{fill:#0191FF;}
	.st54{fill:#54AADC;}
	.st55{fill:#76BF45;}
	.st56{fill:#A9D282;}
	.st57{fill:none;}
	.st58{fill:#106094;}
	.st59{fill:#684D46;}
	.st60{fill:#F4DCB9;}
	.st61{fill:#132130;}
	.st62{fill:#E9BE8D;}
	.st63{fill:#46B7E2;}
	.st64{fill:#0888BE;}
	.st65{fill:#FEFEFD;}
	.st66{fill:#F4DBB9;}
	.st67{fill:#997156;}
	.st68{fill:#E8BD8D;}
	.st69{fill:#F8F8F9;}
	.st70{fill:#FBCE4F;}
	.st71{fill:#EAC091;}
	.st72{fill:#FBFAFA;}
	.st73{fill:#EBEAE9;}
	.st74{fill:#694E46;}
	.st75{fill:#9E7558;}
	.st76{fill:#9E7659;}
	.st77{fill:#152433;}
	.st78{fill:#FF3C78;}
	.st79{fill:#777BB4;}
</style>
<path class="st0" d="M474.5,83.1c0-18.9-7.1-34.5-22.2-46.2c-7.4-5.8-15.9-9.3-25.2-10.7c-0.9-0.1-1.7-0.5-2.6-0.7
	c-116.3,0-232.6,0-348.9,0c-2.7,0.6-5.5,1.1-8.1,1.8C50.1,32,37.7,42.7,30.3,59.1c-2.3,5.1-3.9,10.5-4.4,16.1c0,0.3-0.2,0.5-0.4,0.8
	c0,0.6,0,1.2,0,1.9c0,114.8,0,229.6,0,344.3c0,0.6,0,1.2,0,1.9c0.4,1.8,0.7,3.5,1.1,5.3c4.3,19.4,15.5,33,33.6,41.1
	c4.7,2.1,9.6,3.3,14.7,3.9c0.1,0,0.3,0.2,0.4,0.3c116.4,0,232.9,0,349.3,0c2.6-0.6,5.2-1,7.8-1.8c17.9-4.9,30.6-15.9,37.8-33
	c2.6-6.1,4.1-12.6,4.1-19.4c0.1-12.3,0.2-24.7,0.2-37C474.5,283.3,474.5,183.2,474.5,83.1z"/>
<path class="st53" d="M265.7,434.1c-5,0.3-9.9,0.5-14.9,0.8c-5.2-0.3-10.4-0.6-15.6-0.9c-3.1-0.7-6.3-1.3-9.4-2
	c-1.9-0.4-3.7-1-5.6-1.5c-9-2.9-17.5-6.8-25.2-12.3c-6-4.3-12.1-8.5-16.9-14.1c-3-3.6-5.9-7.3-8.8-10.9c-0.9-0.4-1.7-1.1-2.6-1.2
	c-2.8-0.5-5.7-0.8-8.6-1.2c-2.3-0.6-4.7-1.2-7-1.8c-1.9-0.5-3.9-1-5.8-1.6c-1.2-0.4-2.4-0.8-3.5-1.3c-4.6-2.2-9.2-4.4-13.8-6.6
	c-8.2-5-16-10.6-22.6-17.7c-3.2-3.5-6.1-7.3-9.2-11c0,0,0,0,0,0c-0.8-1.2-1.6-2.3-2.4-3.5c-0.4-0.7-0.9-1.4-1.3-2.1
	c-1-2-2.1-3.9-3.1-6c-1.8-3.8-3.5-7.6-5.3-11.4c-0.9-2.6-1.7-5.2-2.6-7.8c-0.4-2.3-0.8-4.7-1.3-7c-0.8-5.1-1.6-10.2-2.5-15.3
	c0-0.7,0-1.4,0-2.1c0.1-3.9,0.3-7.7,0.4-11.6c0-1,0-1.9,0-2.9c1-4.7,1.9-9.4,2.9-14.1c0.2-0.8,0.3-1.6,0.5-2.5
	c1.7-4.4,3.3-8.8,5-13.2c0.1-0.8,0.4-1.6,0.2-2.3c-1.7-4.8-3.7-9.5-5.4-14.3c-0.8-2.5-1-5.2-1.5-7.7c-0.5-2.4-1.1-4.7-1.7-7.1
	c-0.1-2.4-0.3-4.7-0.3-7.1c-0.1-3-0.1-6-0.1-9c0.5-4.2,0.9-8.4,1.4-12.6c0.9-4.1,1.8-8.2,2.8-12.2c0.6-1.8,1.1-3.6,1.7-5.4
	c2.4-5.2,4.8-10.5,7.1-15.7c0.8-1.4,1.6-2.7,2.4-4.1c0.7-1.1,1.4-2.3,2.1-3.4c0.4-0.6,0.8-1.1,1.2-1.7c1.7-2.1,3.4-4.1,5-6.2
	c1.5-1.6,3-3.1,4.5-4.7c0.1-0.1,0.2-0.2,0.3-0.3c2.1-2.1,4.2-4.1,6.3-6.2c1.4-1.1,2.8-2.2,4.2-3.3c3.4-2.5,6.9-4.9,10.3-7.4
	c0.7-0.2,1.4-0.4,2.1-0.7c4-1.8,7.8-4,12-5.5c5.9-2.1,11.9-3.6,17.8-5.4c2-0.2,4.1-0.3,6.1-0.6c4.7-0.7,6.3-4.8,8.7-8
	c1.3-1.4,2.5-2.8,3.8-4.2c3.9-3.6,7.7-7.2,11.6-10.7c1.6-1.2,3.2-2.5,4.9-3.7c3.6-2,7.1-4,10.7-5.9c5.1-2.1,10.2-4.2,15.3-6.4
	c4.6-1.2,9.1-2.8,13.8-3.3c6.4-0.8,12.8-1,19.2-0.9c5.4,0.1,10.8,1.1,16.2,1.7c2,0.5,4,1,6,1.5c2,0.5,4,0.9,6,1.4
	c1.2,0.5,2.3,1,3.5,1.5c4.2,1.8,8.3,3.7,12.5,5.5c2.8,1.7,5.6,3.3,8.4,5c2.1,1.5,4.2,3,6.3,4.4c3.8,3.6,7.7,7.3,11.5,10.9
	c1.4,1.7,2.8,3.5,4.2,5.2c0.7,1,1.2,2,2,2.8c1.1,1.1,2.2,2.6,3.6,2.9c3.3,0.7,6.7,0.9,10.1,1.3c3.6,0.9,7.1,1.8,10.7,2.8
	c1.7,0.6,3.4,1.2,5,1.8c5,2.5,9.9,5,14.9,7.4c3.3,2.3,6.6,4.5,9.9,6.8c2.1,1.8,4.2,3.7,6.3,5.5c3.2,3.3,6.3,6.7,9.5,10
	c1.6,2.2,3.3,4.5,4.9,6.7c1.5,2.5,3,5,4.5,7.5c1.8,3.8,3.7,7.6,5.5,11.4c0.8,1.8,1.4,3.7,2.1,5.5c0.8,2.9,1.7,5.8,2.5,8.7
	c0.4,1.9,0.8,3.8,1.2,5.8c0.4,3.1,0.8,6.3,1.2,9.4c0.2,1.7,0.3,3.4,0.5,5.1c0,2.3,0,4.7-0.1,7c-0.2,3.2-0.5,6.4-0.7,9.5
	c-0.1,2.1-0.3,4.1-0.4,6.2c-0.9,3-1.7,6-2.6,9.1c-0.4,1.4-0.7,2.9-1.2,4.2c-1.1,2.9-2.1,5.9-3.3,8.8c-0.5,1.3-0.5,2.5,0.5,3.6
	c1.5,4.2,3,8.4,4.5,12.6c1.5,4.4,2.3,9,2.6,13.7c0.1,1,0.5,2,0.7,3.1c0,5.5,0.1,11,0.1,16.5c-0.4,5-0.5,10-1.4,14.8
	c-0.9,4.6-2.6,9-3.9,13.4c-0.2,0.6-0.3,1.3-0.5,1.9c-0.1,0.1-0.1,0.3-0.2,0.4c-0.1,0.3-0.2,0.5-0.3,0.8c-1.2,2.6-2.3,5.3-3.6,7.9
	c-0.9,1.8-2,3.6-3,5.3c-1.8,2.8-3.6,5.5-5.3,8.3c-1.7,2.2-3.4,4.4-5,6.6c-3.4,3.5-6.8,6.9-10.2,10.4c-2.4,1.9-4.7,3.9-7.1,5.8
	c-2.7,1.8-5.5,3.6-8.2,5.3c-4.7,2.3-9.4,4.5-14,6.8c-6.6,1.9-13.3,3.9-20,5.7c-1.4,0.4-3,0.5-4.4,0.4c-2.2-0.1-3.4,1.2-4.5,2.7
	c-0.8,1.2-1.7,2.3-2.5,3.5c-1.9,2.1-3.9,4.1-5.8,6.2c-3.3,3.2-6.6,6.3-9.9,9.5c-2.9,2.1-5.8,4.1-8.7,6.2c-2.4,1.3-4.7,2.7-7.1,4
	c-5.1,2.1-10.2,4.2-15.3,6.3c-4.7,1.1-9.3,2.2-14,3.3C266.6,433.7,266.1,433.9,265.7,434.1z M186.7,242.9L186.7,242.9
	c-1.8-1.4-3.6-2.8-5.4-4.1c-0.7-0.7-1.4-1.4-2.1-2c-2.9-3.3-5.8-6.5-8.6-9.9c-2-2.3-3.8-4.8-5.7-7.1c-2-3.3-4-6.6-6-9.9
	c-1-2.1-2-4.1-2.9-6.2c-1.6-5.3-3.3-10.5-4.9-15.8c-0.1-0.7-0.1-1.3-0.2-2c-0.6-4-1.3-8-1.9-12c0-1.5,0-3,0-4.5
	c0.1-4.3,0.2-8.6,0.3-12.9c0.5-3.8,0.9-7.6,1.5-12.1c-3.5,1.8-6.6,3.4-9.7,4.9c-3.2,2.2-6.3,4.5-9.5,6.7c-2.4,2.3-4.8,4.7-7.1,7
	c-2.3,2.9-4.7,5.8-7,8.7c-1.1,1.4-2.5,2.7-3.1,4.3c-1.8,4.3-3.5,8.8-5,13.2c-0.9,2.8-1.5,5.7-2.1,8.6c-0.4,2.3-0.5,4.7-0.8,7.1
	c-0.4,5.5,0.2,10.9,1.5,16.2c0.6,1.8,1.1,3.6,1.7,5.4c0,3.3,2,5.9,3.3,8.7c1.1,2.4,1.9,5,3.5,7.1c3.5,4.6,6.9,9.3,11.1,13.2
	c4.2,4,9.3,7.2,14,10.7c1.4,0.7,2.8,1.3,4.2,2c3.9,1.6,7.7,3.1,11.6,4.7c5.1,0.9,10.2,1.8,15.3,2.7c0.9,0.2,1.9,0.6,2.7,0.5
	c4.4-0.5,8.7-1.2,13-1.8c11.7-1.7,21.9-6.7,31.3-14.4c-1.1-0.3-1.6-0.5-2.2-0.7c-3.5-1.2-7-2.3-10.5-3.5c-0.6-0.3-1.2-0.5-1.8-0.8
	c-2.8-1.6-5.6-3.3-8.4-5c-2.5-1.5-5.1-3-7.6-4.5C188.4,244.5,187.6,243.7,186.7,242.9z M276.8,157.2c-0.2,0.2-0.4,0.3-0.5,0.5
	c-0.5,0.5-1.1,0.9-1.5,1.4c-5.2,6.1-10.2,12.2-13.3,19.7c-1.3,3.1-3,6-3.1,9.6c-1.9,5.5-2.8,11.1-2.9,16.9c0.2,3.8-0.9,7.8,1.3,11.5
	c3.9-3,7.5-5.8,11.1-8.6c1.5-0.9,3.1-1.9,4.6-2.8c3.4-1.8,6.9-3.6,10.3-5.3c5.2-1.9,10.4-3.7,15.7-5.6c0.2-0.1,0.3-0.2,0.5-0.3l0,0
	c4.1-0.7,8.3-1.5,12.4-2.2c1.7-0.3,3.3-0.6,5-0.8l0.2,0l0.2-0.1c4.6,0,9.1,0,13.7,0c0.5,0,1.1,0,1.6,0c3.6,0.5,7.2,0.9,10.8,1.4l0,0
	c0.4,0.1,0.8,0.2,1.3,0.3c5.1,1.4,10.2,2.8,15.3,4.1c0.4,0.1,0.8,0.1,1.2,0.2c4.6,2.2,9.1,4.3,13.7,6.5c1.1,0.6,2.2,1.1,3.3,1.7
	c4.1,3,8.3,6.1,12.4,9.1c1,1,2,1.9,3,2.9c0.2,0,0.4-0.1,0.6-0.1c0.1-1.1,0.2-2.1,0.2-3.2c0-0.2,0.1-0.4,0.1-0.6c0-0.5,0.1-1,0.1-1.4
	c0-0.2,0-0.4,0-0.6c0-0.4,0-0.7,0-1.1c0-0.3,0-0.6,0-1c0-0.2,0-0.4,0-0.7c0-0.3,0-0.7,0-1c0-0.2,0-0.4,0-0.6c0-0.2,0-0.4,0-0.6
	c0-0.9,0-1.8,0-2.7c-0.1-0.5-0.1-0.9-0.2-1.4c-0.5-3.2-0.9-6.3-1.4-9.5c-0.3-1.5-0.6-3-0.8-4.5c-1.4-5.2-3.3-10.3-6.1-14.9
	c-3.9-7.5-9.2-13.9-15.7-19.3c-3-2.5-6.3-4.5-9.5-6.8c-0.9-0.6-1.8-1.3-2.8-1.7c-4.8-2-9.6-4-14.4-5.7c-2.5-0.9-5.1-1.3-7.6-1.9
	c-1.1-0.2-2.1-0.4-3.2-0.5c-1.4-0.1-2.8,0-4.3-0.1c-2,0-4-0.1-5.9,0c-3.3,0.3-6.5,0.8-9.8,1.2c-3,0.7-6.1,1.4-9.1,2.2
	c-2.4,1.1-4.7,2.1-7.1,3.2c-5.5,2.4-10.5,5.6-14.9,9.5C279.5,154.8,278.2,156,276.8,157.2C276.8,157.2,276.8,157.2,276.8,157.2z
	 M316.7,345.7c0.1-0.2,0.1-0.4,0.2-0.6c0-0.4,0.1-0.8,0.1-1.2c0.1-4.9,0.3-9.8,0.4-14.7c0-0.4-0.2-0.7-0.4-1.1c-0.7-4-1.4-8-2.1-12
	c-0.4-1.1-0.8-2.2-1.2-3.3c0-0.4,0-0.8-0.1-1.2c-2.1-5.5-4.2-10.9-8.1-15.4c-2.1-2.5-4.1-5-6.2-7.5c-1.6-1.7-3.2-3.4-4.9-4.9
	c-1.4-1.2-3-2.3-4.6-3.4c-2.6-1.8-5.3-3.5-7.9-5.3c-2.1-0.9-3.9-2.9-7-2.8c0.5,3.2,1,6.1,1.5,9.1c0.2,5.1,0.4,10.2,0.6,15.3
	c0,0.4,0,0.8,0,1.2c0,0.1,0,0.3,0,0.4c-0.2,0.4-0.4,0.7-0.5,1.1c-0.5,4.5-0.9,8.9-1.3,13.4c-0.7,2.5-1.3,4.9-2,7.4
	c-0.7,2.2-1.4,4.5-2.1,6.7c-1.6,3.7-3.2,7.5-4.9,11.2c-3.4,7.2-8.3,13.3-13.2,19.5c-1.6,1.7-3.1,3.4-4.7,5.1
	c-0.4,0.4-0.7,0.7-1.1,1.1c-1.2,1.1-2.5,2.2-3.7,3.3c-0.8,0.8-1.7,1.6-2.5,2.4c-0.4,0.4-0.9,0.8-1.3,1.2c-1.2,0.9-2.3,1.8-3.5,2.7
	c-5.4,3.1-10.8,6.2-16.3,9.2c-3.7,1.4-7.4,2.8-11.6,4.4c2.6,1.8,4.8,3.3,7,4.9c1.4,0.8,2.8,1.6,4.1,2.4c5.1,2.5,10.1,5.2,15.8,6.1
	c0.5,0.1,1,0.1,1.4,0.2c4.8,0.6,9.5,1.3,14.3,1.9c5.4-0.1,10.6-0.7,15.7-2.4c5-1.9,9.9-3.8,14.9-5.8c1.4-0.8,2.7-1.7,4.1-2.5
	c4.9-3,9.4-6.4,13.2-10.7c1.4-1.7,2.7-3.4,4.1-5c4.4-4.8,7.4-10.4,9.6-16.5c0.7-1.7,1.3-3.4,2-5
	C315.2,351.6,315.9,348.7,316.7,345.7z M223.5,209c0-2.1-0.1-4.1-0.1-6.2c0.6-4.7,1.1-9.4,1.7-14.1c1.4-5,2.7-9.9,4.1-14.9
	c0.1-0.3,0.1-0.7,0.2-1c4.3-10.9,10.2-20.8,17.4-30c1.6-1.7,3.3-3.3,4.9-5c3.9-3.4,7.8-6.9,11.6-10.3c1.1-0.8,2.2-1.7,3.3-2.5
	c5.1-2.8,10.2-5.6,15.3-8.4c2.1-0.9,4.2-1.7,6.2-2.6c1.1-0.5,2.2-1,3.3-1.5c-1-0.9-1.9-1.8-2.9-2.8c-2.6-1.6-5.2-3.2-7.8-4.7
	c-4.7-1.8-9.4-3.7-14.1-5.5c-5.2-1.3-10.4-2.1-15.7-1.7c-3.3,0.1-6.7,0.1-10,0.4c-2.1,0.2-4.1,1-6.2,1.5c-0.9,0.1-1.8,0-2.6,0.4
	c-4.9,2-9.8,4.2-14.8,6.3c-1.4,0.8-2.7,1.7-4.1,2.5c-1.3,0.9-2.7,1.6-3.9,2.6c-2.6,2.2-5,4.5-7.5,6.8c-2.2,2.6-4.4,5.2-6.6,7.9
	c-0.5,0.7-1,1.5-1.5,2.2c-2.9,4.7-5.5,9.5-7.2,14.8c-1.6,4.9-2.9,9.7-3.1,14.9c-0.2,4-0.4,8-0.5,12c0,0.6,0.3,1.1,0.5,1.7
	c0.5,7.8,2.3,15.3,6.1,22.2c2.1,3.9,4.7,7.6,7,11.4c2.1,2.5,4.1,5,6.2,7.6c3.2,2.6,6.3,5.3,9.5,7.9c2.5,1.5,5,3,7.5,4.4
	c1.8,0.9,3.6,1.8,5.4,2.7c0.1-0.2,0.3-0.3,0.4-0.5c-0.4-2.6-0.9-5.1-1.3-7.7c-0.1-2.1-0.2-4.2-0.4-6.2
	C223.8,212,223.7,210.5,223.5,209z M171.5,308.5c-0.2,0-0.4,0-0.5,0c-2-0.1-3.9-0.2-5.9-0.3c-1.8-0.1-3.5-0.2-5.3-0.3
	c-3-0.8-6.1-1.6-9.1-2.3c-2.7-0.7-5.5-1.5-8.2-2.2c-1.4-0.6-2.8-1.1-4.2-1.7c-3.6-1.5-7.1-3.1-10.7-4.6c-0.8-0.6-1.6-1.1-2.5-1.7
	c-4.3-3-8.6-6-12.9-9c-1-0.9-2-1.9-3.1-2.7c-1.1-0.8-2.2-0.3-2.2,1.1c-0.1,4.1-0.2,8.2-0.4,12.3c0.3,4.4,0.7,8.7,2.4,12.9
	c0.3,0.8,0.6,1.6,0.9,2.4c0.2,1,0.2,2.1,0.6,3c1.8,4.3,3.7,8.5,5.6,12.7c2.7,5.1,6.1,9.7,10.3,13.6c0.8,0.8,1.7,1.7,2.5,2.5
	c4.3,3.1,8.7,6.2,13,9.2c9.4,5.6,19.5,8.6,30.4,8.9c3.2-0.1,6.4-0.2,9.5-0.3c3.5,0,7-0.3,10.3-1.8c4.4-1.5,8.8-3,13.2-4.5
	c8.9-4.2,16.5-10.1,22.8-17.6c2.5-3,4.6-6.5,6.9-9.7c0.3-0.5,0.6-1.1,1-1.6c2-4.7,4.1-9.4,6.1-14.1c0.9-5.2,1.7-10.5,2.6-15.7
	c0.1-0.6,0.4-1.1,0.4-1.7c-0.2-4.1-0.4-8.2-0.6-12.3c-0.2-0.1-0.5-0.3-0.7-0.4c-2.9,2.4-5.7,4.9-8.6,7.3c-5.4,3.1-10.8,6.2-16.2,9.3
	c-5.5,2-11,4-16.5,6c-0.8,0.1-1.6,0.2-2.4,0.4c-3.8,0.7-7.5,1.5-11.3,2.2c-3.4,0.2-6.9,0.4-10.3,0.6c-2,0-3.9,0-5.9,0
	c-0.1,0-0.2,0-0.4,0.1C172,308.6,171.7,308.6,171.5,308.5z M299.6,227.6c-0.5,0.1-1,0.3-1.5,0.5c-4.7,1.5-9.1,3.6-13,6.5
	c-2.6,1.6-5.1,3.2-7.7,4.8c6.5,3,12.7,5.8,18.8,8.7c2.1,1.2,4.1,2.5,6.2,3.7c3.2,2.5,6.4,5,9.5,7.4c2.9,2.8,5.8,5.5,8.7,8.3
	c2.2,2.7,4.4,5.4,6.7,8.2c1.5,2.2,3,4.4,4.5,6.6c2.5,5.1,5,10.2,7.5,15.3c0.4,1.1,0.8,2.3,1.2,3.4c0.7,2.3,1.4,4.6,2.1,6.9
	c0.1,0.3,0.1,0.6,0.2,0.9c0.1,0.1,0.2,0.3,0.2,0.4c0.2,1,0.4,1.9,0.5,2.9c0.2,1,0.6,1.9,0.7,2.9c0.6,4.5,1.2,9.1,1.8,13.6
	c-0.1,4.7-0.3,9.4-0.4,14.1c-0.6,4.1-1.3,8.2-2,12.7c1.4-0.6,2.5-1.1,3.6-1.6c10.1-5.1,19.4-11.2,25.8-20.9c1.5-2.2,3-4.3,4.2-6.7
	c2.1-4.2,3.9-8.6,5.9-12.9c1.1-5.1,2.1-10.2,3.2-15.3c0-5.1,0.6-10.3-0.8-15.3c-0.3-1.7-0.4-3.4-0.9-5c-1.1-3.6-2.4-7.2-3.6-10.8
	c-1.3-3.1-2.2-6.4-4.1-9.1c-4.2-6-8.3-12-14.3-16.7c-6-4.7-12.2-9.1-19.3-11.9c-0.3-0.2-0.7-0.5-1-0.6c-4.4-1.1-8.7-2.2-13.1-3.3
	c-4.6-0.2-9.2-0.4-13.8-0.5c-1,0-2.1,0.3-3.1,0.5C308,224.9,303.8,226.2,299.6,227.6z"/>
</svg>
